<svg width="160" height="37" viewBox="0 0 160 37" fill="none" xmlns="http://www.w3.org/2000/svg">
<g clip-path="url(#clip0_212_638)">
<path d="M9.3452 18.0601H0V0.0401001H18.02V9.3853C18.02 14.175 14.1385 18.0601 9.3452 18.0601Z" fill="#131010"/>
<path d="M26.6949 18.0601H36.0401V0.0401001H18.02V9.3853C18.02 14.175 21.9015 18.0601 26.6949 18.0601Z" fill="#131010"/>
<path d="M9.3452 18.0601H0V36.0802H18.02V26.735C18.02 21.9452 14.1385 18.0601 9.3452 18.0601Z" fill="#131010"/>
<path d="M26.6949 18.0601H36.0401V36.0802H18.02V26.735C18.02 21.9452 21.9015 18.0601 26.6949 18.0601Z" fill="#131010"/>
<path d="M56.0387 24.05C55.2386 24.05 54.507 23.9275 53.8439 23.686C53.1807 23.441 52.5284 23.0373 51.8761 22.4679L52.5212 21.2822C53.1483 21.7939 53.7394 22.1615 54.298 22.3886C54.8566 22.6156 55.4369 22.7274 56.0387 22.7274C56.9325 22.7274 57.6245 22.5436 58.111 22.1796C58.5976 21.8119 58.8426 21.293 58.8426 20.6226C58.8426 20.1577 58.6949 19.7721 58.3994 19.4657C58.1038 19.1594 57.6713 18.9468 57.1019 18.8314L55.0981 18.4494C54.089 18.262 53.3573 17.9124 52.9032 17.397C52.4491 16.8817 52.2257 16.269 52.2257 15.559C52.2257 14.9211 52.3698 14.3408 52.6618 13.8183C52.9537 13.2957 53.3934 12.874 53.9844 12.5568C54.5755 12.2361 55.3143 12.0775 56.1973 12.0775C56.8929 12.0775 57.5596 12.1784 58.2011 12.3839C58.839 12.5857 59.4481 12.9317 60.0284 13.4182L59.3832 14.6003C58.8859 14.2291 58.3849 13.9372 57.8876 13.7209C57.3902 13.5047 56.8388 13.4002 56.2333 13.4002C55.4188 13.4002 54.8062 13.5768 54.3881 13.93C53.97 14.2832 53.761 14.7625 53.761 15.368C53.761 15.8329 53.9088 16.1933 54.2043 16.4564C54.4998 16.7159 54.9323 16.9069 55.5017 17.0222L57.5056 17.4042C58.5039 17.5916 59.2319 17.9737 59.6896 18.5539C60.1473 19.1342 60.378 19.7793 60.378 20.4857C60.378 21.5416 60.0031 22.3994 59.2535 23.0625C58.5039 23.7257 57.4335 24.0536 56.0423 24.0536L56.0387 24.05Z" fill="#131010"/>
<path d="M67.932 23.877V12.2469H72.4586C73.8642 12.2469 74.9238 12.5388 75.6374 13.1263C76.351 13.7137 76.7078 14.6219 76.7078 15.8509C76.7078 17.0799 76.351 17.9881 75.6374 18.5755C74.9238 19.163 73.8642 19.4549 72.4586 19.4549H69.4277V23.877H67.932ZM69.4277 18.1647H72.1595C73.1362 18.1647 73.8822 17.9953 74.4048 17.6493C74.9274 17.3069 75.1869 16.705 75.1869 15.8473C75.1869 14.9895 74.9382 14.3877 74.4372 14.0453C73.9363 13.7029 73.1758 13.5335 72.1559 13.5335H69.4241V18.1647H69.4277Z" fill="#131010"/>
<path d="M80.6758 23.877L85.4475 12.2469H87.0837L91.8554 23.877H90.2372L89.2281 21.3362H83.2923L82.3012 23.877H80.683H80.6758ZM83.7932 20.0784H88.7379L86.2656 13.829L83.7932 20.0784Z" fill="#131010"/>
<path d="M99.0093 23.877V12.2469H103.536C104.905 12.2469 105.958 12.5244 106.686 13.083C107.417 13.6416 107.781 14.4994 107.781 15.6599C107.781 16.6582 107.518 17.4222 106.989 17.9484C106.459 18.4746 105.702 18.817 104.718 18.9684L108.376 23.877H106.617L103.136 19.0729H100.509V23.877H99.0129H99.0093ZM100.509 17.8007H103.24C104.25 17.8007 105.006 17.6421 105.511 17.3213C106.016 17.0006 106.268 16.4528 106.268 15.6743C106.268 14.8958 106.03 14.33 105.554 14.0129C105.078 13.6921 104.307 13.5335 103.237 13.5335H100.505V17.8007H100.509Z" fill="#131010"/>
<path d="M115.357 23.877V12.2469H116.853V18.3593L122.425 12.2469H124.252L119.567 17.3466L124.425 23.877H122.598L118.576 18.4278L116.853 20.3091V23.877H115.357Z" fill="#131010"/>
<path d="M141.057 23.877V12.2469H146.366C147.271 12.2469 148.028 12.3478 148.629 12.5532C149.231 12.7551 149.689 13.083 149.995 13.5299C150.302 13.9768 150.457 14.5607 150.457 15.2815C150.457 16.0023 150.316 16.5393 150.031 16.9609C149.747 17.3826 149.275 17.6889 148.611 17.8764C149.401 18.0493 149.963 18.3701 150.302 18.835C150.637 19.2999 150.806 19.9162 150.806 20.6803C150.806 21.8408 150.442 22.6661 149.711 23.1526C148.979 23.6392 147.865 23.8842 146.366 23.8842H141.057V23.877ZM142.553 17.2601H146.139C147.159 17.2601 147.88 17.1231 148.298 16.8492C148.716 16.5753 148.925 16.0924 148.925 15.3968C148.925 14.7012 148.716 14.2147 148.298 13.9444C147.88 13.6705 147.159 13.5371 146.139 13.5371H142.553V17.2637V17.2601ZM142.553 22.5868H146.139C146.917 22.5868 147.53 22.5183 147.984 22.3778C148.438 22.2372 148.766 22.021 148.968 21.7254C149.17 21.4299 149.275 21.0371 149.275 20.5505C149.275 20.064 149.174 19.6675 148.968 19.3648C148.766 19.0621 148.438 18.8458 147.984 18.7125C147.53 18.5791 146.917 18.5107 146.139 18.5107H142.553V22.5832V22.5868Z" fill="#131010"/>
<path d="M159.113 23.9815C158.847 23.9815 158.63 23.8986 158.468 23.7365C158.306 23.5743 158.223 23.3761 158.223 23.1454C158.223 22.9003 158.303 22.6985 158.468 22.5363C158.634 22.3742 158.847 22.2913 159.113 22.2913C159.38 22.2913 159.596 22.3742 159.759 22.5363C159.921 22.6985 160.004 22.9003 160.004 23.1454C160.004 23.3905 159.921 23.5743 159.759 23.7365C159.596 23.8986 159.38 23.9815 159.113 23.9815Z" fill="#131010"/>
</g>
<defs>
<clipPath id="clip0_212_638">
<rect width="160" height="36.0401" fill="white" transform="translate(0 0.0401001)"/>
</clipPath>
</defs>
</svg>
