<svg width="296" height="410" viewBox="0 0 296 410" fill="none" xmlns="http://www.w3.org/2000/svg">
<g clip-path="url(#clip0_621_269)">
<path d="M292.34 213.739C289.016 207.829 283.463 203.503 276.907 201.709C278.107 196.129 278.978 190.496 279.545 184.824C279.611 184.032 279.769 183.241 280.007 182.476C280.231 181.803 280.402 181.104 280.508 180.405C286.167 145.369 289.201 126.334 289.478 123.814C292.314 98.8034 282.632 79.9531 261.578 69.2945C261.262 69.1494 261.077 68.8196 261.117 68.4767C263.399 53.5177 257.911 38.4137 246.553 28.4015C242.833 24.9586 237.042 25.1301 233.52 28.7709C228.811 24.1143 223.152 20.5395 216.913 18.297C204.17 14.0758 190.517 13.3634 177.405 16.226C109.905 28.507 73.51 10.5405 61.0047 2.22999C55.0422 -1.7142 47.0219 -0.065293 43.0777 5.88398C42.5237 6.72822 42.062 7.63842 41.719 8.58819C38.6059 16.6085 37.4978 25.2488 38.4872 33.7968C31.9839 30.8551 24.3329 33.7572 21.4045 40.2473C20.8109 41.5664 20.4415 42.9647 20.3096 44.4025C19.4258 53.3462 20.3623 62.3823 23.0534 70.9566H23.0138C15.8641 70.983 10.0863 76.8004 10.0995 83.95V84.0424C10.0863 91.0074 11.4846 97.9064 14.2152 104.317C16.4577 109.304 19.4521 113.921 23.0797 118.023C16.5501 132.6 13.0544 148.337 12.7905 164.298C11.2471 164.588 9.96761 164.852 8.95188 165.076L6.53787 165.644C2.38261 166.554 -0.229265 170.67 0.680934 174.812C0.680934 174.812 0.694131 174.878 0.707323 174.904L2.77834 183.663C3.38514 186.222 5.24512 188.293 7.72508 189.164C7.8438 191.802 8.04167 194.058 8.3055 195.918C8.34507 196.234 8.39785 196.564 8.43742 196.947C8.96507 203.437 11.1548 209.689 14.8088 215.085C14.0437 216.997 13.1731 219.042 12.4212 220.796C11.3395 223.329 10.4953 225.334 10.0599 226.64V226.746C3.86004 249.554 5.8651 273.825 15.719 295.301C20.8108 312.516 24.1351 330.218 25.6257 348.119C25.5333 351.443 26.1665 354.754 27.4856 357.814C28.475 359.424 29.9392 360.703 31.6805 361.455C35.6642 388.748 64.9225 404.709 75.5943 408.324C80.9235 410.474 86.9784 409.749 91.6481 406.411L92.2153 405.989C94.3259 407.849 96.9246 409.063 99.6948 409.524C101.726 409.841 103.771 410.012 105.829 409.999C114.852 409.735 123.69 407.335 131.604 403.008C137.593 399.723 143.292 395.937 148.634 391.69C151.695 392.877 155.177 392.244 157.618 390.041C165.664 382.851 173.223 376.282 179.885 370.478C209.143 345.019 227.584 329.018 238.876 303.638C239.879 304.258 240.908 304.799 241.976 305.274C247.068 307.107 252.542 307.608 257.885 306.725C265.443 305.841 272.369 302.121 277.276 296.303C283.529 288.573 284.346 277.585 285.059 266.966C284.966 259.869 286.338 252.825 289.082 246.282L289.201 246.071C297.762 230.505 295.612 219.899 292.314 213.739" fill="#FBFBFF"/>
<path d="M60.8858 379.211C47.6021 363.883 40.0172 321.71 30.4007 308.479C11.4316 282.308 9.71677 241.177 21.9187 223.329C32.01 208.582 23.2906 174.245 22.5123 167.398C32.6037 -21.026 321.387 38.0182 262.29 212.447C263.478 212.381 264.718 212.367 266.01 212.407C291.654 213.251 286.668 235.756 280.283 245.992C271.485 260.028 281.128 287.545 263.108 295.301C246.791 301.672 238.546 294.787 234.707 284.392C234.101 317.449 162.986 358.171 127.106 384.039C118.017 390.067 107.372 393.339 96.4627 393.458C83.1923 393.629 70.3967 388.511 60.899 379.224" fill="white"/>
<path d="M273.094 211.167C271.815 211.127 265.047 205.824 263.86 205.89C322.957 31.4486 48.8554 -17.7681 38.764 170.656C39.5423 177.503 25.5727 206.273 47.9979 220.783C21.6153 223.421 23.2115 283.969 42.1806 310.141C51.797 323.372 59.382 365.544 72.6656 380.873C82.1502 390.159 94.9457 395.278 108.229 395.106C119.139 394.987 129.784 391.729 138.873 385.687C174.753 359.833 235.578 320.72 236.172 287.663C240.01 298.071 246.237 301.949 262.554 295.578C280.587 287.821 270.904 260.806 279.703 246.77C286.101 236.534 298.751 211.998 273.107 211.154L273.094 211.167ZM90.21 218.145C84.9335 235.294 84.9335 244.527 84.9335 244.527C84.9335 244.527 74.3805 244.527 73.0614 239.251C71.7422 233.974 78.3379 230.017 78.3379 230.017L91.3049 198.886C91.45 198.543 91.6875 198.239 92.0041 198.041C93.4023 197.105 95.2227 198.305 94.9325 199.954C94.3125 203.357 92.9934 209.109 90.21 218.145Z" fill="#FBFBFF"/>
<path d="M100.671 403.535C97.9798 403.008 95.6317 401.398 94.1675 399.09C93.8641 398.734 93.4156 398.562 92.9539 398.628C91.1071 399.262 89.4055 400.264 87.9544 401.583C84.8808 403.654 80.963 404.024 77.5465 402.559C65.9777 398.655 37.4581 381.836 37.313 355.414C35.9939 356.509 34.0284 356.324 32.9335 355.005C32.8412 354.886 32.7488 354.767 32.6829 354.649C30.7306 333.885 26.9711 313.333 21.4307 293.243C12.0121 273.008 10.0335 250.108 15.8508 228.553C19.3861 217.327 20.9954 217.538 22.8158 209.742C25.0056 200.297 22.7103 186.394 19.2806 169.008C18.4099 152.057 21.7341 135.146 28.9761 119.791C46.0589 74.4392 94.2203 48.3468 140.851 47.3707C152.433 46.9749 164.015 47.8456 175.399 49.9562C198.062 56.1957 218.641 68.3844 235.011 85.2429C271.577 118.287 277.632 164.615 264.098 206.484C281.985 204.967 297.683 218.119 283.898 243.195C276.155 256.057 282.091 280.764 272.58 292.544C265.417 300.208 254.455 303.018 244.482 299.773C241.224 298.375 238.48 295.987 236.647 292.94C236.211 294.127 235.789 295.288 235.578 295.815C222.756 329.295 197.891 345.942 153.594 385.543C152.486 386.532 150.798 386.44 149.808 385.345C149.624 385.134 149.465 384.896 149.347 384.632L148.911 383.656C142.685 388.986 135.944 393.682 128.781 397.679C121.737 401.544 113.888 403.707 105.855 403.971C104.114 403.971 102.372 403.839 100.658 403.562M102.491 333.925C107.913 339.69 104.325 341.536 99.7078 344.531C99.5891 344.742 99.4176 344.913 99.2066 345.045C96.7926 346.378 94.8271 348.383 93.5475 350.836C89.3791 362.682 132.251 367.51 146.115 344.518C148.793 340.006 153.146 336.748 158.224 335.442C169.213 333.068 178.882 326.617 185.28 317.37C185.398 317.001 185.794 316.79 186.177 316.908C186.546 317.027 186.757 317.423 186.638 317.805C186.507 320.325 185.227 328.411 184.607 332.316C184.383 333.714 185.333 335.02 186.731 335.244C187.245 335.323 187.773 335.244 188.235 335.02C198.748 329.954 225.329 311.592 232.795 291.647C233.283 290.301 233.692 288.93 234.008 287.531C234.008 287.465 234.008 287.399 234.008 287.333C235.103 279.076 235.499 270.726 235.209 262.402C235.182 262.046 235.446 261.729 235.816 261.703C236.172 261.676 236.488 261.94 236.515 262.31C238.032 270.739 238.441 279.34 237.728 287.874C237.728 287.98 237.807 288.151 238.652 289.325C239.733 290.803 241.066 292.096 242.57 293.124L242.662 293.19C252.146 297.702 263.491 294.945 269.836 286.582C276.049 275.092 272.197 260.159 276.999 247.746L277.038 247.667C281.352 239.489 286.721 229.068 281.682 220.137L281.642 220.084C276.313 211.932 263.478 212.341 255.352 214.135C246.039 216.549 238.309 223.026 234.299 231.785C234.153 232.088 233.811 232.233 233.494 232.128H233.428C233.085 232.022 232.874 231.666 232.979 231.31C232.979 231.297 232.979 231.27 232.993 231.257C237.478 217.617 249.587 207.909 263.873 206.497C276.141 164.628 269.704 119.738 232.979 87.3403C221.226 76.0617 207.705 66.8015 192.944 59.9288C154.175 43.9146 105.024 51.1698 69.6581 75.4945C43.104 98.3286 22.8158 132.771 24.6362 168.836C26.417 178.505 27.6966 185.681 28.6068 193.306C29.0817 197.303 30.691 208.436 26.6281 215.744C14.7691 237.088 15.5078 271.095 26.5753 295.143C29.0157 299.39 31.3901 300.643 32.4191 293.626C32.4586 293.322 32.6565 293.243 32.894 293.204C33.8173 293.138 34.6616 293.731 34.9254 294.615C40.0436 310.946 53.3668 317.634 53.6175 325.522C53.9736 337.157 58.8544 352.037 68.827 351.469C70.7002 351.324 72.0985 349.689 71.9666 347.816C71.9402 347.407 71.8346 347.011 71.6632 346.641C66.5054 335.376 65.9513 326.314 69.856 324.836C72.2304 324.005 74.7235 323.596 77.2431 323.636C86.6485 323.768 95.6581 327.435 102.478 333.912" fill="#0c1c25"/>
<path d="M15.93 194.823C15.8244 204.664 21.5495 213.621 30.5063 217.67C40.6373 221.812 51.5201 223.765 62.4557 223.408C70.8453 224.635 78.9184 219.675 81.6226 211.629L88.548 187.093C88.6008 186.908 88.6272 186.71 88.6008 186.512C87.5191 177.885 56.6383 171.936 46.0457 172.714C37.1416 173.374 21.866 173.427 16.9589 173.427C16.0751 173.427 15.3627 174.126 15.3495 175.01C15.0989 181.618 15.2836 188.227 15.93 194.81" fill="white"/>
<path d="M122.146 215.441C124.217 224.793 134.744 229.067 147.685 231.191C155.072 232.405 178.552 235.755 192.667 232.009C203.009 229.661 210.515 220.678 210.99 210.085C212.296 202.183 213.628 195.021 214.182 192.171C214.327 191.406 213.905 190.641 213.166 190.364C206.148 187.66 171.337 175.062 144.73 180.075C137.448 181.447 120.682 184.468 118.294 188.517C118.123 188.807 118.057 189.15 118.11 189.493C118.426 192.118 120.234 206.945 122.146 215.454" fill="white"/>
<path d="M167.564 235.083C159.003 234.555 151.299 233.421 147.434 232.801C131.328 230.149 122.529 224.596 120.55 215.823C118.479 206.497 116.514 190.008 116.435 189.309V189.032L116.501 188.755C117.266 185.549 122.067 182.74 143.648 178.69L144.453 178.545C174.305 172.886 213.417 188.742 215.066 189.428C215.778 189.718 216.187 190.483 216.042 191.235C216.042 191.327 214.274 200.31 212.612 210.415C212.019 221.641 204.064 231.112 193.102 233.618C187.536 234.924 181.837 235.531 176.125 235.399C173.447 235.399 170.585 235.307 167.551 235.122M190.345 184.995C175.611 180.88 160.203 179.772 145.033 181.724L144.229 181.869C140.179 182.621 134.071 183.782 128.795 185.259C125.84 185.906 123.03 187.04 120.445 188.623C119.97 188.966 119.732 189.546 119.798 190.127C120.3 194.137 121.988 207.381 123.716 215.137C125.352 222.498 133.267 227.234 147.935 229.648C154.821 230.782 178.354 234.186 192.245 230.492C201.967 228.289 208.998 219.847 209.394 209.887C210.528 203.028 211.689 196.696 212.335 193.266C212.48 192.488 212.045 191.723 211.306 191.446C204.447 188.913 197.442 186.763 190.345 184.995Z" fill="#0c1c25"/>
<path d="M62.4556 225.044C51.3222 225.4 40.2283 223.408 29.9127 219.2C20.6788 215.243 14.624 206.22 14.4657 196.181C14.413 195.773 14.3734 195.416 14.3206 195.073C13.6479 187.871 13.4632 180.629 13.7798 173.4C13.8193 172.53 14.5317 171.844 15.4023 171.844C15.6002 171.844 35.4003 171.91 45.927 171.131C53.0766 171.026 60.1999 171.83 67.1517 173.532C74.407 174.812 81.3192 177.608 87.4399 181.724C89.0361 182.937 90.065 184.771 90.2629 186.763V187.027L83.1924 212.077C82.4536 214.583 81.1345 216.865 79.3405 218.778C75.0797 223.131 69.1436 225.427 63.0756 225.07H62.3633M85.237 184.164C78.1665 177.872 54.6596 173.743 46.1116 174.389C38.0254 174.996 24.5703 175.102 18.4891 175.102C17.6053 175.102 16.8929 175.801 16.8797 176.685C16.6819 182.674 16.8797 188.676 17.4865 194.638C17.5393 194.981 17.5789 195.35 17.6316 195.786C17.658 204.664 22.9345 212.671 31.0736 216.219C41.0198 220.282 51.7179 222.195 62.4556 221.839H63.168C70.5947 222.788 77.6652 218.382 80.1056 211.299L86.9255 187.132C87.031 186.789 87.0046 186.407 86.8595 186.077C86.5034 185.338 85.9889 184.692 85.3557 184.164" fill="#0c1c25"/>
<path d="M243.546 210.705L246.21 206.642C246.699 205.89 246.487 204.888 245.749 204.399L217.955 186.987C204.091 181.539 156.8 165.604 119.086 184.019C118.598 184.256 118.031 184.243 117.556 183.966C112.952 181.183 107.86 179.323 102.557 178.452C98.4152 177.938 94.2204 178.373 90.2762 179.745C89.8409 179.89 89.3528 179.851 88.9571 179.626C58.0762 162.412 21.1142 168.638 10.2974 171.026L7.88339 171.553C7.01277 171.738 6.45873 172.608 6.64341 173.479V173.505L8.71443 182.265C8.92549 183.135 9.79611 183.676 10.6667 183.465L15.4024 182.344C16.2731 182.133 16.8139 181.262 16.6028 180.391L16.4577 179.785C16.2467 178.914 16.7875 178.043 17.6581 177.832C17.6581 177.832 17.7373 177.819 17.7637 177.806C32.2873 175.392 62.4426 172.965 87.2158 187.963L88.4162 188.675C88.9043 188.979 89.5243 188.992 90.0256 188.715L91.2523 188.055C94.4446 186.578 97.9931 186.024 101.489 186.459C106.581 187.396 111.422 189.401 115.696 192.343L116.936 193.24C117.437 193.596 118.11 193.649 118.651 193.358L120.009 192.646C152.104 175.168 193.749 186.829 210.871 192.976C211.583 193.24 212.019 193.939 211.926 194.691L211.412 199.057C211.333 199.783 211.728 200.468 212.414 200.746L217.889 202.988C218.72 203.318 219.656 202.922 219.999 202.091V202.051L220.725 200.073C221.041 199.229 221.965 198.806 222.809 199.123C222.928 199.163 223.033 199.215 223.126 199.281L241.277 211.167C242.029 211.655 243.031 211.444 243.519 210.705" fill="#0c1c25"/>
<path d="M123.531 240.531C123.479 240.161 123.149 239.911 122.793 239.95C122.423 240.003 122.173 240.333 122.212 240.689C122.476 249.83 113.889 245.952 105.684 247.601C97.6105 249.118 89.2604 247.773 82.0844 243.789C82.0316 243.762 81.9788 243.736 81.9261 243.723C78.681 242.971 74.8028 242.061 75.3964 237.866C75.8185 235.109 78.3908 232.919 80.198 230.954C80.2904 230.848 80.3431 230.729 80.3563 230.597C81.0686 226.139 88.403 210.375 83.2452 218.738C81.2533 222.142 79.7231 225.796 78.681 229.608C78.681 229.832 78.5623 230.043 78.3776 230.162C74.4334 232.774 70.2122 237.708 73.1011 242.47V242.522C81.7678 262.045 127.014 257.376 123.492 240.517" fill="#0c1c25"/>
<path d="M134.823 158.837C136.155 161.739 144.295 158.23 144.598 158.204C180.874 154.299 199.395 167.688 204.763 172.517C205.159 172.873 205.766 172.833 206.122 172.451C206.307 172.253 206.386 171.976 206.36 171.712C204.368 161.396 197.152 152.861 187.325 149.168C194.87 140.356 117.318 124.658 134.836 158.85" fill="#0c1c25"/>
<path d="M84.815 140.185C84.1554 136.306 71.4522 133.114 67.7455 136.029C30.4537 130.806 25.7048 155.209 29.9788 154.84C33.6724 154.51 56.4274 146.688 78.47 154.088C80.9632 154.946 83.6674 153.613 84.5248 151.133C84.5248 151.133 84.5512 151.041 84.5644 150.988C85.9627 147.545 86.0418 143.707 84.8018 140.198" fill="#0c1c25"/>
<path d="M240.947 278.508C240.512 270.62 246.54 263.866 254.428 263.431C261.657 263.022 268.042 268.087 269.308 275.211C270.047 282.756 264.533 289.484 256.988 290.222C256.275 290.288 255.563 290.301 254.851 290.262C247.859 290.578 241.804 285.447 240.96 278.508" fill="#0c1c25"/>
<path d="M110.182 233.276C109.997 232.761 110.261 232.207 110.775 232.022C111.158 231.891 111.567 231.996 111.844 232.286C112.345 232.867 112.767 233.513 113.084 234.212C116.448 239.133 115.181 245.847 110.261 249.211C110.076 249.343 109.878 249.461 109.694 249.58L109.403 249.448C109.06 249.026 108.968 248.446 109.179 247.944C111.949 243.538 112.332 238.024 110.195 233.276" fill="#0c1c25"/>
<path d="M111.026 233.843C110.828 233.381 111.066 232.932 111.343 233.275C111.541 233.539 111.712 233.829 111.857 234.133C113.335 236.375 113.612 239.185 112.609 241.678L112.53 241.625C112.398 241.414 112.319 241.164 112.319 240.913C112.517 238.486 112.081 236.045 111.053 233.843" fill="white"/>
<path d="M271.327 220.612C256.13 219.2 239.773 238.737 243.665 256.294L244.285 257.785C247.741 262.877 258.689 249.883 265.153 255.635C265.865 256.281 262.977 248.775 254.758 253.221H254.706C253.518 253.748 252.278 254.527 251.012 255.213C249.416 256.044 247.45 255.437 246.619 253.841C246.369 253.353 246.237 252.812 246.25 252.271V252.244C246.382 249.725 247.384 247.337 249.073 245.464C252.701 241.335 257.872 238.882 263.372 238.684C264.283 238.737 258.716 233.777 248.347 241.52C250.036 236.652 253.228 232.458 257.476 229.542C275.297 217.908 278.74 228.83 278.701 231.719C278.701 232.167 279.07 232.537 279.518 232.537C279.914 232.537 280.257 232.26 280.323 231.864C281.524 226.02 279.123 221.311 271.366 220.678" fill="#0c1c25"/>
<path d="M140.047 321.802C186.612 324.981 210.937 250.609 145.178 261.558C128.729 267.982 110.947 270.264 93.4026 268.18C82.1768 267.335 64.7775 252.851 52.681 253.775C40.7693 254.685 45.9931 296.66 63.1945 305.353C87.4797 315.813 113.585 321.406 140.034 321.789" fill="white"/>
<path d="M137.105 323.609C126.341 323.464 115.656 321.683 105.42 318.359C125.51 321.538 154.122 322.343 165.783 312.555H165.823L166.535 311.962C170.202 308.36 174.661 296.963 168.738 294.523C156.655 302.833 134.612 300.947 121.751 298.546C120.497 298.309 121.645 298.401 124.336 298.506C135.76 298.915 175.017 299.324 177.022 274.525V274.327C170.585 270.317 162.314 271.385 149.69 274.327C135.496 277.783 120.695 277.809 106.488 274.419C103.731 273.562 98.9824 273.298 97.9139 270.04L97.3994 269.947C96.3441 275.461 95.0777 273.575 94.2071 269.235C92.9671 268.932 91.7271 268.575 90.4476 268.193C90.0123 269.525 89.168 270.673 88.0336 271.491C87.1366 271.9 87.4927 269.367 87.6114 267.283L86.9519 267.072C86.3451 268.377 85.4613 269.38 84.6962 269.512C78.3248 269.538 72.0325 268.114 66.3075 265.343C61.928 261.703 56.2294 260.041 50.5835 260.74C50.2141 266.306 51.3354 271.86 53.8154 276.846C57.4957 282.703 62.7722 287.386 69.0249 290.341C65.2258 289.312 61.5718 287.808 58.1553 285.856C51.0848 285.592 56.1238 296.976 58.5115 300.01C61.928 304.007 66.3075 307.041 71.2411 308.835C51.7707 305.643 39.8722 280.382 44.9376 263.365C42.9194 264.987 41.2968 267.072 40.2283 269.446C39.7007 270.567 38.3684 271.042 37.2471 270.514C36.6799 270.251 36.2446 269.749 36.0599 269.143C35.3739 267.058 34.9518 264.908 34.7935 262.718C34.4242 254.593 37.445 240.755 45.9665 241.177C46.6261 241.217 43.7768 240.412 44.7397 239.185C52.1532 229.635 73.6814 245.451 74.895 246.388C79.3405 249.87 90.4608 250.068 93.5475 253.155L93.5871 252.917C107.57 254.988 121.856 253.049 134.77 247.324C149.584 238.658 185.755 245.768 174.859 250.094C183.512 251.73 190.873 257.389 194.659 265.33C197.495 273.733 197.495 282.835 194.659 291.251C194.395 292.227 193.392 292.808 192.416 292.544C191.783 292.372 191.295 291.884 191.124 291.251C189.936 288.547 188.301 286.067 186.269 283.917C188.287 302.675 171.033 323.689 137.171 323.702L137.118 323.623L137.105 323.609ZM92.7033 266.663L93.7982 266.94C93.4288 264.341 93.2309 261.716 93.1782 259.091C92.6373 261.544 91.9514 263.972 91.1203 266.359C91.6216 266.465 92.1493 266.57 92.6901 266.649L92.7033 266.663ZM87.5719 265.449C87.5719 265.343 87.5455 265.251 87.5191 265.146C87.5191 265.238 87.5059 265.33 87.4663 265.409L87.5719 265.449Z" fill="#0c1c25"/>
<path d="M245.459 279.577C244.034 275.197 245.564 270.396 249.258 267.639C249.416 267.533 249.455 267.309 249.35 267.151C249.244 266.992 249.02 266.953 248.862 267.058C243.665 269.855 241.725 276.332 244.522 281.529C246.224 284.695 249.416 286.793 252.991 287.109C253.189 287.149 253.373 287.03 253.413 286.832C253.452 286.634 253.334 286.45 253.136 286.41H253.109C249.548 285.592 246.646 283.007 245.459 279.551" fill="white"/>
<path d="M258.874 74.6896C256.117 73.3177 254.613 70.2837 255.194 67.2629C257.027 54.3882 252.239 41.4739 242.464 32.8996C241.132 31.686 239.074 31.7915 237.861 33.1239C237.32 33.7175 237.016 34.4826 237.016 35.2872C236.977 39.5348 236.766 43.9935 236.053 42.5556C227.466 25.4333 207.349 16.9777 178.579 22.2147C109.496 34.786 71.703 16.6084 57.6807 7.32169C54.5279 5.23747 50.2803 6.0949 48.1829 9.24762C47.8795 9.70931 47.6421 10.1842 47.4574 10.6987C42.8405 21.7134 43.223 34.1923 48.4995 44.9037C52.5097 52.1325 44.5685 46.236 37.5903 40.3395C34.7014 37.9123 30.3879 38.2816 27.9607 41.1705C27.0637 42.239 26.5096 43.5582 26.3909 44.9564C25.296 55.3248 27.0109 65.7987 31.3377 75.27C34.0419 80.8763 30.467 80.0453 26.259 77.8423C22.9216 76.0747 18.7795 77.3542 17.0119 80.6916C16.4843 81.7074 16.2072 82.8286 16.2204 83.9763C16.2072 90.1234 17.434 96.2046 19.8216 101.864C22.8161 108.367 27.156 114.158 32.5512 118.841C34.1606 114 36.258 109.33 38.8303 104.924C38.052 107.694 37.7882 110.583 38.052 113.459C38.052 113.459 48.2753 89.0153 57.087 91.2183C86.9785 106.124 130.853 106.388 158.409 102.576C179.766 99.6211 202.547 93.0519 213.061 99.3046C236.264 113.116 223.983 139.274 224.313 153.956C224.656 169.522 233.362 183.808 227.743 199.928C222.084 215.15 222.77 232.022 229.656 246.73C230.711 248.63 233.098 249.316 234.998 248.261C235.869 247.773 236.528 246.968 236.832 246.018C238.692 239.449 240.143 232.774 241.198 226.033C242.095 220.638 244.443 219.095 251.039 214.108C262.357 205.521 258.927 213.066 265.892 212.723C268.28 212.605 271.854 200.798 273.596 184.125C273.701 182.898 273.939 181.684 274.308 180.497C274.427 180.128 274.519 179.745 274.585 179.362C278.477 155.315 283.186 126.07 283.529 123.062C285.376 106.56 282.117 86.3771 258.927 74.65" fill="#0c1c25"/>
<path d="M167.05 197.303C165.81 197.54 164.833 198.49 164.543 199.717C164.227 200.653 164.741 201.682 165.678 201.986C165.678 201.986 165.81 202.025 165.876 202.038C169.952 203.014 169.411 207.381 165.322 208.001C164.319 208.146 163.62 209.069 163.752 210.072C163.752 210.072 163.752 210.125 163.765 210.164C163.976 213.37 166.693 215.823 169.899 215.718C178.183 214.953 176.969 195.693 167.076 197.329" fill="#0c1c25"/>
<path d="M55.6887 190.971C54.884 191.657 54.7917 192.871 55.4908 193.675C55.6096 193.807 55.7415 193.926 55.8998 194.032C56.7308 194.52 57.2585 195.403 57.3112 196.366C57.1793 197.686 56.2691 198.807 54.9896 199.189C54.1585 199.546 53.6704 200.416 53.8287 201.313C54.3168 204.255 55.9525 206.484 59.1712 206.26C62.8252 206.022 63.7222 203.028 64.0124 198.701C64.1311 192.567 58.7227 188.465 55.6887 190.918" fill="#0c1c25"/>
</g>
<defs>
<clipPath id="clip0_621_269">
<rect width="295" height="410" fill="white" transform="translate(0.5)"/>
</clipPath>
</defs>
</svg>
