<svg width="508" height="460" viewBox="0 0 508 460" fill="none" xmlns="http://www.w3.org/2000/svg">
<path d="M386.924 459H317.727C317.021 459 316.355 458.626 316.007 458.015L281.578 398.916C281.22 398.306 281.22 397.557 281.578 396.946L379.132 229.5L350.298 180.014C349.94 179.403 349.94 178.655 350.298 178.044L384.797 119.064C385.155 118.453 385.811 118.079 386.517 118.079C387.222 118.079 387.878 118.453 388.236 119.064L452.007 228.515C452.365 229.125 452.365 229.874 452.007 230.485L354.383 398.049L388.634 456.035C388.992 456.646 389.002 457.395 388.634 458.015C388.276 458.626 387.62 459 386.914 459H386.924ZM318.88 455.06H383.465L350.377 399.044C350.02 398.434 350.01 397.675 350.377 397.064L448.001 229.5L386.527 123.979L354.323 179.029L383.157 228.515C383.515 229.125 383.515 229.874 383.157 230.485L285.603 397.931L318.89 455.06H318.88Z" fill="#473BF0"/>
<path d="M386.586 459.001C385.88 459.001 385.214 458.627 384.866 458.016L350.437 398.917C350.079 398.307 350.079 397.558 350.437 396.947L447.991 229.501L386.586 124.098L190.692 458.016C190.335 458.627 189.679 459.001 188.973 459.001H121.465C120.759 459.001 120.094 458.627 119.746 458.016C119.388 457.406 119.388 456.657 119.746 456.046L384.866 0.984981C385.224 0.374293 385.88 0 386.586 0C387.292 0 387.958 0.374293 388.305 0.984981L495.043 184.192C511.324 212.135 511.324 246.866 495.043 274.81L388.305 458.016C387.948 458.627 387.292 459.001 386.586 459.001ZM124.914 455.061H187.84L384.866 119.183C385.224 118.572 385.88 118.198 386.586 118.198C387.292 118.198 387.948 118.572 388.305 119.183L452.006 228.516C452.364 229.126 452.364 229.875 452.006 230.486L354.452 397.932L386.586 453.091L491.604 272.84C507.179 246.107 507.179 212.894 491.604 186.161L386.586 5.90989L124.914 455.061Z" fill="#473BF0"/>
<path d="M450.278 231.47H381.418C380.713 231.47 380.047 231.095 379.699 230.485L350.289 180.014C349.931 179.404 349.931 178.655 350.289 178.044L384.788 119.064C385.146 118.453 385.802 118.079 386.507 118.079C387.213 118.079 387.869 118.453 388.227 119.064L451.997 228.515C452.355 229.125 452.355 229.874 451.997 230.485C451.64 231.095 450.984 231.47 450.278 231.47ZM382.562 227.53H446.829L386.497 123.979L354.294 179.029L382.552 227.53H382.562Z" fill="#473BF0"/>
<path d="M386.924 459H317.727C317.021 459 316.355 458.626 316.007 458.015L281.578 398.917C281.22 398.306 281.22 397.557 281.578 396.947C281.936 396.336 282.592 395.962 283.297 395.962L352.087 396.08C352.793 396.08 353.439 396.454 353.797 397.055L388.634 456.036C388.992 456.646 389.002 457.395 388.634 458.015C388.276 458.626 387.62 459 386.914 459H386.924ZM318.88 455.061H383.465L350.954 400.02L286.746 399.911L318.88 455.061Z" fill="#473BF0"/>
<path d="M121.483 340.921C120.778 340.921 120.122 340.547 119.764 339.936L55.9932 230.485C55.6354 229.875 55.6354 229.126 55.9932 228.515L153.607 60.9506L119.356 2.96479C118.998 2.3541 118.988 1.60552 119.356 0.98498C119.714 0.374293 120.37 0 121.076 0H190.273C190.979 0 191.645 0.374293 191.993 0.98498L226.422 60.0838C226.78 60.6945 226.78 61.4431 226.422 62.0538L128.868 229.5L157.702 278.986C158.06 279.597 158.06 280.345 157.702 280.956L123.203 339.936C122.845 340.547 122.189 340.921 121.483 340.921ZM60.0087 229.5L121.483 335.021L153.687 279.971L124.853 230.485C124.495 229.875 124.495 229.126 124.853 228.515L222.407 61.0688L189.12 3.93992H124.545L157.632 59.9558C157.99 60.5664 158 61.3249 157.632 61.9356L60.0087 229.5Z" fill="#473BF0"/>
<path d="M121.414 459.001C120.708 459.001 120.042 458.627 119.695 458.016L12.9565 274.81C-3.32405 246.866 -3.32405 212.135 12.9565 184.192L119.685 0.984981C120.042 0.374293 120.698 0 121.404 0C122.11 0 122.776 0.374293 123.124 0.984981L157.553 60.0839C157.911 60.6945 157.911 61.4431 157.553 62.0538L60.0091 229.501L121.414 334.904L317.298 0.984981C317.655 0.374293 318.311 0 319.017 0H386.525C387.23 0 387.896 0.374293 388.244 0.984981C388.602 1.59567 388.602 2.34426 388.244 2.95494L123.134 458.016C122.776 458.627 122.12 459.001 121.414 459.001ZM121.414 5.90989L16.3955 186.161C0.820637 212.894 0.820637 246.107 16.3955 272.84L121.414 453.091L383.086 3.93993H320.16L123.124 339.819C122.766 340.429 122.11 340.804 121.404 340.804C120.698 340.804 120.042 340.429 119.685 339.819L55.9936 230.486C55.6358 229.875 55.6358 229.126 55.9936 228.516L153.548 61.0688L121.414 5.90989Z" fill="#473BF0"/>
<path d="M121.483 340.923C120.778 340.923 120.122 340.549 119.764 339.938L55.9932 230.487C55.6354 229.876 55.6354 229.128 55.9932 228.517C56.351 227.906 57.007 227.532 57.7127 227.532H126.572C127.278 227.532 127.944 227.906 128.292 228.517L157.702 278.987C158.06 279.598 158.06 280.347 157.702 280.957L123.203 339.938C122.845 340.549 122.189 340.923 121.483 340.923ZM61.1616 231.472L121.493 335.023L153.696 279.972L125.439 231.472H61.1517H61.1616Z" fill="#473BF0"/>
<path d="M224.7 63.0388L155.91 62.9206C155.205 62.9206 154.559 62.5463 154.201 61.9455L119.354 2.96479C118.996 2.3541 118.986 1.60552 119.354 0.984981C119.711 0.374293 120.367 0 121.073 0H190.271C190.976 0 191.642 0.374293 191.99 0.984981L226.42 60.0838C226.778 60.6945 226.778 61.4431 226.42 62.0538C226.062 62.6645 225.406 63.0388 224.7 63.0388ZM157.053 58.9807L221.261 59.089L189.118 3.93992H124.542L157.053 58.9807Z" fill="#473BF0"/>
</svg>
