<svg width="92" height="20" viewBox="0 0 92 20" fill="none" xmlns="http://www.w3.org/2000/svg">
<path fill-rule="evenodd" clip-rule="evenodd" d="M10 1.66669C6.55583 1.66669 4.83333 1.66669 4.33167 2.75002C4.28855 2.84335 4.25234 2.93972 4.22333 3.03835C3.88167 4.19419 5.1 5.53419 7.535 8.21335L9.16667 10H10.8333L12.465 8.21418C14.9 5.53419 16.1175 4.19419 15.7767 3.03919C15.7478 2.93997 15.7116 2.84304 15.6683 2.74919C15.1667 1.66669 13.4442 1.66669 10 1.66669Z" fill="#0066FF"/>
<path opacity="0.5" d="M4.33167 17.25C4.83333 18.3333 6.55583 18.3333 10 18.3333C13.4442 18.3333 15.1667 18.3333 15.6683 17.25C15.7115 17.1567 15.7477 17.0603 15.7767 16.9617C16.1183 15.8058 14.9 14.4658 12.465 11.7867L10.8333 10H9.16667L7.535 11.7858C5.1 14.4658 3.8825 15.8058 4.22333 16.9608C4.2525 17.0608 4.28833 17.1567 4.33167 17.25Z" fill="#0066FF"/>
<path d="M32.16 10.484V15.5H30.496V10.892C30.496 10.5347 30.408 10.2093 30.232 9.916C30.0613 9.62267 29.8293 9.39067 29.536 9.22C29.248 9.044 28.9227 8.956 28.56 8.956C28.208 8.956 27.8853 9.044 27.592 9.22C27.2987 9.39067 27.064 9.62267 26.888 9.916C26.712 10.2093 26.624 10.5347 26.624 10.892V15.5H24.96V3.5H26.624V8.348C26.9013 8.01733 27.2427 7.756 27.648 7.564C28.0533 7.372 28.4907 7.276 28.96 7.276C29.552 7.276 30.0907 7.42 30.576 7.708C31.0613 7.996 31.4453 8.38267 31.728 8.868C32.016 9.35333 32.16 9.892 32.16 10.484ZM37.1206 15.708C36.3846 15.708 35.7126 15.5187 35.1046 15.14C34.502 14.7613 34.0193 14.2547 33.6566 13.62C33.2993 12.98 33.1206 12.2733 33.1206 11.5C33.1206 10.9133 33.2246 10.3667 33.4326 9.86C33.6406 9.348 33.926 8.9 34.2886 8.516C34.6566 8.12667 35.0833 7.82267 35.5686 7.604C36.054 7.38533 36.5713 7.276 37.1206 7.276C37.8566 7.276 38.526 7.46533 39.1286 7.844C39.7366 8.22267 40.2193 8.732 40.5766 9.372C40.9393 10.012 41.1206 10.7213 41.1206 11.5C41.1206 12.0813 41.0166 12.6253 40.8086 13.132C40.6006 13.6387 40.3126 14.0867 39.9446 14.476C39.582 14.86 39.158 15.1613 38.6726 15.38C38.1926 15.5987 37.6753 15.708 37.1206 15.708ZM37.1206 14.044C37.5633 14.044 37.9606 13.9267 38.3126 13.692C38.6646 13.4573 38.942 13.148 39.1446 12.764C39.3526 12.3747 39.4566 11.9533 39.4566 11.5C39.4566 11.036 39.35 10.6093 39.1366 10.22C38.9286 9.83067 38.6486 9.52133 38.2966 9.292C37.9446 9.05733 37.5526 8.94 37.1206 8.94C36.6833 8.94 36.286 9.05733 35.9286 9.292C35.5766 9.52667 35.2966 9.83867 35.0886 10.228C34.886 10.6173 34.7846 11.0413 34.7846 11.5C34.7846 11.9747 34.8913 12.404 35.1046 12.788C35.318 13.172 35.6006 13.4787 35.9526 13.708C36.31 13.932 36.6993 14.044 37.1206 14.044ZM41.9369 12.5V7.5H43.6009V12.092C43.6009 12.4493 43.6889 12.7747 43.8649 13.068C44.0409 13.3613 44.2755 13.596 44.5689 13.772C44.8622 13.9427 45.1849 14.028 45.5369 14.028C45.8942 14.028 46.2169 13.9427 46.5049 13.772C46.7982 13.596 47.0302 13.3613 47.2009 13.068C47.3769 12.7747 47.4649 12.4493 47.4649 12.092V7.5H49.1289L49.1369 15.5H47.4729L47.4649 14.636C47.1929 14.9667 46.8542 15.228 46.4489 15.42C46.0435 15.612 45.6089 15.708 45.1449 15.708C44.5529 15.708 44.0142 15.564 43.5289 15.276C43.0435 14.988 42.6569 14.6013 42.3689 14.116C42.0809 13.6307 41.9369 13.092 41.9369 12.5ZM50.7413 15.5V7.5H52.4053V8.348C52.6826 8.01733 53.0239 7.756 53.4293 7.564C53.8346 7.372 54.2719 7.276 54.7413 7.276C55.0399 7.276 55.3359 7.316 55.6293 7.396L54.9653 9.076C54.7573 8.996 54.5493 8.956 54.3413 8.956C53.9893 8.956 53.6666 9.044 53.3733 9.22C53.0799 9.39067 52.8453 9.62267 52.6693 9.916C52.4933 10.2093 52.4053 10.5347 52.4053 10.892V15.5H50.7413ZM62.2668 7.5H63.9308V15.708C63.9308 16.2573 63.8134 16.764 63.5788 17.228C63.3494 17.692 63.0374 18.092 62.6428 18.428C62.2481 18.7693 61.7948 19.0333 61.2828 19.22C60.7761 19.4067 60.2454 19.5 59.6908 19.5C59.1308 19.5 58.5921 19.38 58.0748 19.14C57.5574 18.9053 57.1014 18.5853 56.7068 18.18C56.3174 17.7747 56.0268 17.316 55.8348 16.804L57.3628 16.116C57.4694 16.4467 57.6401 16.74 57.8748 16.996C58.1148 17.252 58.3921 17.4547 58.7068 17.604C59.0268 17.7533 59.3548 17.828 59.6908 17.828C60.0214 17.828 60.3388 17.7747 60.6428 17.668C60.9521 17.5667 61.2268 17.4227 61.4668 17.236C61.7121 17.0493 61.9068 16.8253 62.0508 16.564C62.1948 16.3027 62.2668 16.0173 62.2668 15.708V14.356C62.0054 14.7613 61.6694 15.0893 61.2588 15.34C60.8481 15.5853 60.3708 15.708 59.8268 15.708C59.2614 15.708 58.7281 15.5987 58.2268 15.38C57.7254 15.1613 57.2854 14.86 56.9068 14.476C56.5281 14.0867 56.2321 13.6387 56.0188 13.132C55.8054 12.6253 55.6988 12.0813 55.6988 11.5C55.6988 10.9187 55.8054 10.3747 56.0188 9.868C56.2321 9.356 56.5281 8.908 56.9068 8.524C57.2854 8.13467 57.7254 7.83067 58.2268 7.612C58.7281 7.39333 59.2614 7.284 59.8268 7.284C60.3708 7.284 60.8481 7.40933 61.2588 7.66C61.6694 7.90533 62.0054 8.23333 62.2668 8.644V7.5ZM59.8428 14.1C60.3068 14.1 60.7121 13.9827 61.0588 13.748C61.4054 13.508 61.6748 13.1907 61.8668 12.796C62.0588 12.4013 62.1548 11.9693 62.1548 11.5C62.1548 11.02 62.0561 10.5853 61.8588 10.196C61.6668 9.80133 61.3974 9.48667 61.0508 9.252C60.7041 9.012 60.3014 8.892 59.8428 8.892C59.3948 8.892 58.9841 9.00933 58.6108 9.244C58.2428 9.47867 57.9494 9.79333 57.7308 10.188C57.5121 10.5827 57.4028 11.02 57.4028 11.5C57.4028 11.98 57.5121 12.4173 57.7308 12.812C57.9548 13.2067 58.2508 13.5213 58.6188 13.756C58.9921 13.9853 59.4001 14.1 59.8428 14.1ZM65.8506 15.5V3.5H67.5146V15.5H65.8506ZM75.5434 7.5H77.2074V15.5H75.5354L75.4714 14.34C75.2367 14.7507 74.9194 15.0813 74.5194 15.332C74.1194 15.5827 73.6474 15.708 73.1034 15.708C72.5167 15.708 71.9647 15.5987 71.4474 15.38C70.93 15.156 70.474 14.8467 70.0794 14.452C69.69 14.0573 69.386 13.604 69.1674 13.092C68.9487 12.5747 68.8394 12.02 68.8394 11.428C68.8394 10.8573 68.946 10.3213 69.1594 9.82C69.3727 9.31333 69.6687 8.87067 70.0474 8.492C70.426 8.11333 70.8634 7.81733 71.3594 7.604C71.8607 7.38533 72.3967 7.276 72.9674 7.276C73.5487 7.276 74.0607 7.40933 74.5034 7.676C74.9514 7.93733 75.322 8.27333 75.6154 8.684L75.5434 7.5ZM73.0634 14.1C73.5327 14.1 73.9434 13.9853 74.2954 13.756C74.6474 13.5213 74.9194 13.2067 75.1114 12.812C75.3087 12.4173 75.4074 11.98 75.4074 11.5C75.4074 11.0147 75.3087 10.5747 75.1114 10.18C74.914 9.78533 74.6394 9.47333 74.2874 9.244C73.9407 9.00933 73.5327 8.892 73.0634 8.892C72.5994 8.892 72.1754 9.00933 71.7914 9.244C71.4074 9.47867 71.1034 9.79333 70.8794 10.188C70.6554 10.5827 70.5434 11.02 70.5434 11.5C70.5434 11.9853 70.658 12.4253 70.8874 12.82C71.122 13.2093 71.4287 13.5213 71.8074 13.756C72.1914 13.9853 72.61 14.1 73.0634 14.1ZM81.2038 15.652C80.7824 15.6253 80.3718 15.54 79.9718 15.396C79.5718 15.252 79.2198 15.0573 78.9158 14.812C78.6171 14.5613 78.3931 14.268 78.2438 13.932L79.6598 13.324C79.7291 13.468 79.8491 13.6093 80.0198 13.748C80.1958 13.8867 80.4011 14.0013 80.6358 14.092C80.8704 14.1773 81.1158 14.22 81.3718 14.22C81.6224 14.22 81.8544 14.1853 82.0677 14.116C82.2864 14.0413 82.4651 13.9293 82.6038 13.78C82.7424 13.6307 82.8118 13.452 82.8118 13.244C82.8118 13.0093 82.7318 12.828 82.5718 12.7C82.4171 12.5667 82.2224 12.4653 81.9878 12.396C81.7531 12.3267 81.5184 12.26 81.2838 12.196C80.7611 12.0787 80.2811 11.9187 79.8438 11.716C79.4118 11.508 79.0678 11.244 78.8118 10.924C78.5558 10.5987 78.4278 10.2013 78.4278 9.732C78.4278 9.22 78.5664 8.77733 78.8438 8.404C79.1211 8.02533 79.4838 7.73467 79.9318 7.532C80.3851 7.32933 80.8678 7.228 81.3798 7.228C82.0198 7.228 82.6064 7.364 83.1398 7.636C83.6731 7.908 84.0811 8.28133 84.3638 8.756L83.0438 9.54C82.9638 9.38 82.8438 9.236 82.6838 9.108C82.5238 8.98 82.3424 8.87867 82.1398 8.804C81.9371 8.724 81.7264 8.67867 81.5078 8.668C81.2358 8.65733 80.9824 8.68933 80.7478 8.764C80.5184 8.83333 80.3344 8.94533 80.1957 9.1C80.0571 9.25467 79.9878 9.452 79.9878 9.692C79.9878 9.92667 80.0704 10.1027 80.2358 10.22C80.4011 10.332 80.6091 10.4227 80.8598 10.492C81.1158 10.5613 81.3771 10.6387 81.6438 10.724C82.1184 10.8733 82.5638 11.0573 82.9798 11.276C83.3958 11.4893 83.7318 11.7533 83.9878 12.068C84.2438 12.3827 84.3664 12.7667 84.3558 13.22C84.3558 13.7213 84.2038 14.1613 83.8998 14.54C83.6011 14.9187 83.2118 15.2067 82.7318 15.404C82.2518 15.6013 81.7424 15.684 81.2038 15.652ZM88.1256 15.652C87.7043 15.6253 87.2936 15.54 86.8936 15.396C86.4936 15.252 86.1416 15.0573 85.8376 14.812C85.539 14.5613 85.315 14.268 85.1656 13.932L86.5816 13.324C86.651 13.468 86.771 13.6093 86.9416 13.748C87.1176 13.8867 87.323 14.0013 87.5576 14.092C87.7923 14.1773 88.0376 14.22 88.2936 14.22C88.5443 14.22 88.7763 14.1853 88.9896 14.116C89.2083 14.0413 89.387 13.9293 89.5256 13.78C89.6643 13.6307 89.7336 13.452 89.7336 13.244C89.7336 13.0093 89.6536 12.828 89.4936 12.7C89.339 12.5667 89.1443 12.4653 88.9096 12.396C88.675 12.3267 88.4403 12.26 88.2056 12.196C87.683 12.0787 87.203 11.9187 86.7656 11.716C86.3336 11.508 85.9896 11.244 85.7336 10.924C85.4776 10.5987 85.3496 10.2013 85.3496 9.732C85.3496 9.22 85.4883 8.77733 85.7656 8.404C86.043 8.02533 86.4056 7.73467 86.8536 7.532C87.307 7.32933 87.7896 7.228 88.3016 7.228C88.9416 7.228 89.5283 7.364 90.0616 7.636C90.595 7.908 91.003 8.28133 91.2856 8.756L89.9656 9.54C89.8856 9.38 89.7656 9.236 89.6056 9.108C89.4456 8.98 89.2643 8.87867 89.0616 8.804C88.859 8.724 88.6483 8.67867 88.4296 8.668C88.1576 8.65733 87.9043 8.68933 87.6696 8.764C87.4403 8.83333 87.2563 8.94533 87.1176 9.1C86.979 9.25467 86.9096 9.452 86.9096 9.692C86.9096 9.92667 86.9923 10.1027 87.1576 10.22C87.323 10.332 87.531 10.4227 87.7816 10.492C88.0376 10.5613 88.299 10.6387 88.5656 10.724C89.0403 10.8733 89.4856 11.0573 89.9016 11.276C90.3176 11.4893 90.6536 11.7533 90.9096 12.068C91.1656 12.3827 91.2883 12.7667 91.2776 13.22C91.2776 13.7213 91.1256 14.1613 90.8216 14.54C90.523 14.9187 90.1336 15.2067 89.6536 15.404C89.1736 15.6013 88.6643 15.684 88.1256 15.652Z" fill="#150F1F"/>
</svg>
