<svg width="120" height="164" viewBox="0 0 120 164" fill="none" xmlns="http://www.w3.org/2000/svg">
<path d="M105 45C105 20.1472 84.8528 0 60 0C35.1472 0 15 20.1472 15 45C15 69.8528 35.1472 90 60 90C84.8528 90 105 69.8528 105 45Z" fill="url(#paint0_linear_342_2590)"/>
<path d="M100 50C100 27.9086 82.0914 10 60 10C37.9086 10 20 27.9086 20 50C20 72.0914 37.9086 90 60 90C82.0914 90 100 72.0914 100 50Z" fill="url(#paint1_linear_342_2590)"/>
<g filter="url(#filter0_d_342_2590)">
<path d="M90 50C90 33.4315 76.5685 20 60 20C43.4315 20 30 33.4315 30 50V62C30 78.5685 43.4315 92 60 92C76.5685 92 90 78.5685 90 62V50Z" fill="url(#paint2_linear_342_2590)"/>
<path d="M58 40C58 34.4772 53.5228 30 48 30C42.4772 30 38 34.4772 38 40C38 45.5228 42.4772 50 48 50C53.5228 50 58 45.5228 58 40Z" fill="white"/>
<path d="M54 40C54 36.6863 51.3137 34 48 34C44.6863 34 42 36.6863 42 40C42 43.3137 44.6863 46 48 46C51.3137 46 54 43.3137 54 40Z" fill="#001D4A"/>
<path d="M52 38C53.1046 38 54 37.1046 54 36C54 34.8954 53.1046 34 52 34C50.8954 34 50 34.8954 50 36C50 37.1046 50.8954 38 52 38Z" fill="#FDFEFF"/>
<path d="M82 40C82 34.4772 77.5228 30 72 30C66.4772 30 62 34.4772 62 40C62 45.5228 66.4772 50 72 50C77.5228 50 82 45.5228 82 40Z" fill="white"/>
<path d="M78 40C78 36.6863 75.3137 34 72 34C68.6863 34 66 36.6863 66 40C66 43.3137 68.6863 46 72 46C75.3137 46 78 43.3137 78 40Z" fill="#001D4A"/>
<path d="M76 38C77.1046 38 78 37.1046 78 36C78 34.8954 77.1046 34 76 34C74.8954 34 74 34.8954 74 36C74 37.1046 74.8954 38 76 38Z" fill="#FDFEFF"/>
<path d="M44 42H76V66C76 74.8366 68.8366 82 60 82C51.1634 82 44 74.8366 44 66V42Z" fill="#2567FF"/>
<path d="M48 50.1739C48 47.8687 49.8687 46 52.1739 46H67.8261C70.1313 46 72 47.8687 72 50.1739V66C72 72.6274 66.6274 78 60 78C53.3726 78 48 72.6274 48 66V50.1739Z" fill="#001D4A"/>
<mask id="mask0_342_2590" style="mask-type:alpha" maskUnits="userSpaceOnUse" x="48" y="46" width="24" height="32">
<path d="M48 50.1739C48 47.8687 49.8687 46 52.1739 46H67.8261C70.1313 46 72 47.8687 72 50.1739V66C72 72.6274 66.6274 78 60 78C53.3726 78 48 72.6274 48 66V50.1739Z" fill="#001D4A"/>
</mask>
<g mask="url(#mask0_342_2590)">
<path d="M48 76.9091C48 70.8842 52.8842 66 58.9091 66H61.0909C67.1158 66 72 70.8842 72 76.9091C72 77.5116 71.5116 78 70.9091 78H49.0909C48.4884 78 48 77.5116 48 76.9091Z" fill="#FF92C0"/>
</g>
<path d="M70 48C70 42.4772 74.4772 38 80 38C85.5228 38 90 42.4772 90 48C90 53.5228 85.5228 58 80 58C74.4772 58 70 53.5228 70 48Z" fill="url(#paint3_linear_342_2590)"/>
<path d="M50 48C50 42.4772 45.5228 38 40 38C34.4772 38 30 42.4772 30 48C30 53.5228 34.4772 58 40 58C45.5228 58 50 53.5228 50 48Z" fill="url(#paint4_linear_342_2590)"/>
</g>
<path d="M8.6399 132.6C5.9199 132.6 3.6799 132.04 1.9199 130.92C1.5599 130.68 1.2999 130.4 1.1399 130.08C0.979902 129.72 0.899902 129.38 0.899902 129.06C0.899902 128.38 1.1199 127.76 1.5599 127.2C2.0399 126.64 2.6199 126.36 3.2999 126.36C3.6199 126.36 3.9399 126.44 4.2599 126.6C4.9799 126.92 5.7999 127.2 6.7199 127.44C7.6399 127.64 8.4799 127.74 9.2399 127.74C10.7199 127.74 11.4599 127.4 11.4599 126.72C11.4599 126.32 11.2799 125.98 10.9199 125.7C10.5599 125.38 9.7199 125.16 8.3999 125.04C7.8799 125 7.1999 124.92 6.3599 124.8C5.5599 124.68 4.7599 124.46 3.9599 124.14C3.1599 123.78 2.4799 123.26 1.9199 122.58C1.3999 121.9 1.1399 120.98 1.1399 119.82C1.1399 118.02 1.8199 116.6 3.1799 115.56C4.5399 114.52 6.3599 114 8.6399 114C9.9599 114 11.1999 114.14 12.3599 114.42C13.5599 114.7 14.4599 115.12 15.0599 115.68C15.6199 116.2 15.8999 116.8 15.8999 117.48C15.8999 118.08 15.6799 118.62 15.2399 119.1C14.7999 119.58 14.2399 119.82 13.5599 119.82C13.1999 119.82 12.8599 119.74 12.5399 119.58C12.0599 119.26 11.4399 119.02 10.6799 118.86C9.9599 118.7 9.2199 118.62 8.4599 118.62C6.9399 118.62 6.1799 118.94 6.1799 119.58C6.1799 119.86 6.3199 120.12 6.5999 120.36C6.9199 120.56 7.6199 120.74 8.6999 120.9C9.3799 120.98 10.1599 121.1 11.0399 121.26C11.9199 121.38 12.7599 121.62 13.5599 121.98C14.3999 122.3 15.0999 122.84 15.6599 123.6C16.2199 124.36 16.4999 125.4 16.4999 126.72C16.4999 128.52 15.7799 129.96 14.3399 131.04C12.8999 132.08 10.9999 132.6 8.6399 132.6ZM28.0822 132.6C26.3622 132.6 24.7822 132.2 23.3422 131.4C21.9022 130.6 20.7422 129.5 19.8622 128.1C19.0222 126.66 18.6022 125.04 18.6022 123.24C18.6022 121.4 19.0222 119.8 19.8622 118.44C20.7422 117.04 21.9022 115.96 23.3422 115.2C24.7822 114.4 26.3622 114 28.0822 114C29.8422 114 31.4222 114.4 32.8222 115.2C34.2622 115.96 35.4022 117.04 36.2422 118.44C37.0822 119.8 37.5022 121.4 37.5022 123.24C37.5022 125.04 37.0822 126.66 36.2422 128.1C35.4022 129.5 34.2622 130.6 32.8222 131.4C31.4222 132.2 29.8422 132.6 28.0822 132.6ZM28.0822 127.74C29.3222 127.74 30.3222 127.32 31.0822 126.48C31.8822 125.6 32.2822 124.52 32.2822 123.24C32.2822 121.92 31.8822 120.86 31.0822 120.06C30.3222 119.26 29.3222 118.86 28.0822 118.86C26.8822 118.86 25.8622 119.26 25.0222 120.06C24.2222 120.86 23.8222 121.92 23.8222 123.24C23.8222 124.52 24.2222 125.6 25.0222 126.48C25.8622 127.32 26.8822 127.74 28.0822 127.74ZM56.1904 132.6C55.4304 132.6 54.7904 132.38 54.2704 131.94C53.7904 131.5 53.5504 130.94 53.5504 130.26V122.94C53.5504 121.46 53.2104 120.4 52.5304 119.76C51.8904 119.12 51.0904 118.8 50.1304 118.8C49.1304 118.8 48.2904 119.12 47.6104 119.76C46.9704 120.4 46.5704 121.14 46.4104 121.98V130.02C46.4104 130.7 46.1504 131.28 45.6304 131.76C45.1504 132.2 44.5504 132.42 43.8304 132.42C43.0704 132.42 42.4304 132.2 41.9104 131.76C41.3904 131.32 41.1304 130.76 41.1304 130.08V116.64C41.1304 116 41.3704 115.46 41.8504 115.02C42.3704 114.54 43.0304 114.3 43.8304 114.3C44.4704 114.3 45.0104 114.48 45.4504 114.84C45.8904 115.16 46.1904 115.58 46.3504 116.1C47.4304 114.7 49.0704 114 51.2704 114C53.5104 114 55.3304 114.66 56.7304 115.98C58.1304 117.3 58.8304 119.4 58.8304 122.28V130.38C58.8304 131.02 58.5704 131.56 58.0504 132C57.5704 132.4 56.9504 132.6 56.1904 132.6ZM71.6174 132.6C69.8974 132.6 68.3174 132.2 66.8774 131.4C65.4374 130.6 64.2774 129.5 63.3974 128.1C62.5574 126.66 62.1374 125.04 62.1374 123.24C62.1374 121.4 62.5574 119.8 63.3974 118.44C64.2774 117.04 65.4374 115.96 66.8774 115.2C68.3174 114.4 69.8974 114 71.6174 114C73.3774 114 74.9574 114.4 76.3574 115.2C77.7974 115.96 78.9374 117.04 79.7774 118.44C80.6174 119.8 81.0374 121.4 81.0374 123.24C81.0374 125.04 80.6174 126.66 79.7774 128.1C78.9374 129.5 77.7974 130.6 76.3574 131.4C74.9574 132.2 73.3774 132.6 71.6174 132.6ZM71.6174 127.74C72.8574 127.74 73.8574 127.32 74.6174 126.48C75.4174 125.6 75.8174 124.52 75.8174 123.24C75.8174 121.92 75.4174 120.86 74.6174 120.06C73.8574 119.26 72.8574 118.86 71.6174 118.86C70.4174 118.86 69.3974 119.26 68.5574 120.06C67.7574 120.86 67.3574 121.92 67.3574 123.24C67.3574 124.52 67.7574 125.6 68.5574 126.48C69.3974 127.32 70.4174 127.74 71.6174 127.74ZM87.3655 132.42C86.6055 132.42 85.9655 132.2 85.4455 131.76C84.9255 131.32 84.6655 130.76 84.6655 130.08V116.64C84.6655 116 84.9055 115.46 85.3855 115.02C85.9055 114.54 86.5655 114.3 87.3655 114.3C88.0855 114.3 88.6655 114.52 89.1055 114.96C89.5855 115.36 89.8655 115.86 89.9455 116.46C90.3855 115.78 90.9855 115.2 91.7455 114.72C92.5055 114.24 93.3055 114 94.1455 114C94.6655 114 95.1655 114.06 95.6455 114.18C96.2055 114.34 96.6655 114.66 97.0255 115.14C97.3855 115.58 97.5655 116.1 97.5655 116.7C97.5655 117.54 97.2855 118.24 96.7255 118.8C96.2055 119.32 95.5855 119.5 94.8655 119.34C94.3455 119.22 93.8255 119.16 93.3055 119.16C92.3855 119.16 91.6255 119.48 91.0255 120.12C90.4255 120.76 90.0655 122.06 89.9455 124.02V130.02C89.9455 130.7 89.6855 131.28 89.1655 131.76C88.6855 132.2 88.0855 132.42 87.3655 132.42ZM107.466 132.6C104.786 132.6 102.606 131.76 100.926 130.08C99.2855 128.36 98.4655 126.08 98.4655 123.24C98.4655 120.4 99.2655 118.16 100.866 116.52C102.506 114.84 104.646 114 107.286 114C109.166 114 110.806 114.66 112.206 115.98C112.366 115.5 112.666 115.1 113.106 114.78C113.546 114.46 114.066 114.3 114.666 114.3C115.466 114.3 116.106 114.54 116.586 115.02C117.106 115.46 117.366 116 117.366 116.64V130.26C117.366 130.94 117.106 131.5 116.586 131.94C116.106 132.38 115.466 132.6 114.666 132.6C113.346 132.6 112.526 132.02 112.206 130.86C110.926 132.02 109.346 132.6 107.466 132.6ZM107.886 127.74C109.166 127.74 110.186 127.32 110.946 126.48C111.706 125.6 112.086 124.52 112.086 123.24C112.086 121.92 111.706 120.86 110.946 120.06C110.186 119.26 109.166 118.86 107.886 118.86C106.646 118.86 105.626 119.26 104.826 120.06C104.066 120.86 103.686 121.92 103.686 123.24C103.686 124.52 104.066 125.6 104.826 126.48C105.626 127.32 106.646 127.74 107.886 127.74Z" fill="#2567FF"/>
<mask id="mask1_342_2590" style="mask-type:luminance" maskUnits="userSpaceOnUse" x="17" y="144" width="86" height="20">
<path d="M103 144H17V164H103V144Z" fill="white"/>
</mask>
<g mask="url(#mask1_342_2590)">
<path d="M99 144H87C84.7909 144 83 145.791 83 148V160C83 162.209 84.7909 164 87 164H99C101.209 164 103 162.209 103 160V148C103 145.791 101.209 144 99 144Z" fill="#A55FFF"/>
<path d="M92.5401 159.78C91.6814 159.78 90.8788 159.64 90.1321 159.36C89.3854 159.061 88.7974 158.669 88.3681 158.184C88.1628 157.96 88.0601 157.699 88.0601 157.4C88.0601 157.083 88.1814 156.803 88.4241 156.56C88.6668 156.317 88.9561 156.196 89.2921 156.196C89.6094 156.196 89.8801 156.308 90.1041 156.532C90.4214 156.831 90.8228 157.064 91.3081 157.232C91.7934 157.4 92.2694 157.484 92.7361 157.484C93.2214 157.484 93.6414 157.381 93.9961 157.176C94.3508 156.952 94.5281 156.607 94.5281 156.14C94.5281 155.748 94.3601 155.449 94.0241 155.244C93.7068 155.02 93.1654 154.843 92.4001 154.712C91.0374 154.488 90.0108 154.115 89.3201 153.592C88.6294 153.051 88.2841 152.295 88.2841 151.324C88.2841 150.279 88.6854 149.448 89.4881 148.832C90.2908 148.197 91.3454 147.88 92.6521 147.88C93.9961 147.88 95.0694 148.225 95.8721 148.916C96.1894 149.177 96.3481 149.485 96.3481 149.84C96.3481 150.139 96.2268 150.4 95.9841 150.624C95.7601 150.829 95.4894 150.932 95.1721 150.932C94.9294 150.932 94.7054 150.867 94.5001 150.736C93.7908 150.288 93.0441 150.064 92.2601 150.064C91.7934 150.064 91.4014 150.157 91.0841 150.344C90.7668 150.531 90.6081 150.811 90.6081 151.184C90.6081 151.576 90.8508 151.884 91.3361 152.108C91.8401 152.332 92.5681 152.537 93.5201 152.724C94.0428 152.817 94.5561 152.985 95.0601 153.228C95.5828 153.452 96.0121 153.797 96.3481 154.264C96.7028 154.731 96.8801 155.365 96.8801 156.168C96.8801 157.232 96.4694 158.1 95.6481 158.772C94.8454 159.444 93.8094 159.78 92.5401 159.78Z" fill="#FDFEFF"/>
<path d="M77 144H65C62.7909 144 61 145.791 61 148V160C61 162.209 62.7909 164 65 164H77C79.2091 164 81 162.209 81 160V148C81 145.791 79.2091 144 77 144Z" fill="#2FBC35"/>
<path d="M67.6638 159.5C67.0851 159.5 66.6185 159.341 66.2638 159.024C65.9278 158.688 65.7598 158.249 65.7598 157.708V149.896C65.7598 149.355 65.9185 148.935 66.2358 148.636C66.5531 148.319 66.9731 148.16 67.4958 148.16H70.0438C71.2758 148.16 72.3211 148.412 73.1798 148.916C74.0385 149.401 74.6918 150.073 75.1398 150.932C75.6065 151.772 75.8398 152.733 75.8398 153.816C75.8398 154.936 75.6065 155.925 75.1398 156.784C74.6731 157.643 74.0385 158.315 73.2358 158.8C72.4331 159.267 71.5371 159.5 70.5478 159.5H67.6638ZM68.9798 157.26H70.0718C71.1358 157.26 71.9478 156.961 72.5078 156.364C73.0678 155.748 73.3385 154.899 73.3198 153.816C73.3011 152.696 73.0118 151.847 72.4518 151.268C71.8918 150.689 71.0891 150.4 70.0438 150.4H68.9798C68.5131 150.4 68.2798 150.633 68.2798 151.1V156.56C68.2798 157.027 68.5131 157.26 68.9798 157.26Z" fill="#FDFEFF"/>
<path d="M55 144H43C40.7909 144 39 145.791 39 148V160C39 162.209 40.7909 164 43 164H55C57.2091 164 59 162.209 59 160V148C59 145.791 57.2091 144 55 144Z" fill="#FFBD00"/>
<path d="M48.6599 159.78C48.3052 159.78 48.0066 159.668 47.7639 159.444C47.5212 159.22 47.3999 158.94 47.3999 158.604V149.224C47.3999 148.869 47.5212 148.58 47.7639 148.356C48.0066 148.132 48.3052 148.02 48.6599 148.02C49.0332 148.02 49.3319 148.132 49.5559 148.356C49.7986 148.58 49.9199 148.869 49.9199 149.224V158.604C49.9199 158.959 49.7986 159.248 49.5559 159.472C49.3319 159.677 49.0332 159.78 48.6599 159.78Z" fill="#FDFEFF"/>
<path d="M33 144H21C18.7909 144 17 145.791 17 148V160C17 162.209 18.7909 164 21 164H33C35.2091 164 37 162.209 37 160V148C37 145.791 35.2091 144 33 144Z" fill="#FF4F57"/>
<path d="M24.0198 159.78C23.6651 159.78 23.3665 159.668 23.1238 159.444C22.8811 159.22 22.7598 158.931 22.7598 158.576V149.224C22.7598 148.869 22.8811 148.58 23.1238 148.356C23.3665 148.132 23.6651 148.02 24.0198 148.02C24.3931 148.02 24.6918 148.132 24.9158 148.356C25.1585 148.58 25.2798 148.869 25.2798 149.224V151.688C25.2798 152.005 25.3638 152.164 25.5318 152.164C25.6251 152.164 25.7278 152.099 25.8398 151.968L29.1158 148.468C29.4145 148.169 29.7318 148.02 30.0678 148.02C30.4225 148.02 30.7305 148.141 30.9918 148.384C31.2531 148.627 31.3838 148.916 31.3838 149.252C31.3838 149.551 31.2625 149.821 31.0198 150.064L27.6878 153.396L31.4118 157.652C31.5425 157.783 31.6265 157.923 31.6638 158.072C31.7011 158.221 31.7198 158.371 31.7198 158.52C31.7198 158.856 31.5891 159.155 31.3278 159.416C31.0665 159.659 30.7678 159.78 30.4318 159.78C30.0771 159.78 29.7505 159.631 29.4518 159.332L25.9798 155.076L25.7558 155.3C25.5505 155.505 25.4198 155.701 25.3638 155.888C25.3078 156.075 25.2798 156.308 25.2798 156.588V158.576C25.2798 158.931 25.1585 159.22 24.9158 159.444C24.6918 159.668 24.3931 159.78 24.0198 159.78Z" fill="#FDFEFF"/>
</g>
<defs>
<filter id="filter0_d_342_2590" x="22" y="16" width="76" height="88" filterUnits="userSpaceOnUse" color-interpolation-filters="sRGB">
<feFlood flood-opacity="0" result="BackgroundImageFix"/>
<feColorMatrix in="SourceAlpha" type="matrix" values="0 0 0 0 0 0 0 0 0 0 0 0 0 0 0 0 0 0 127 0" result="hardAlpha"/>
<feOffset dy="4"/>
<feGaussianBlur stdDeviation="4"/>
<feComposite in2="hardAlpha" operator="out"/>
<feColorMatrix type="matrix" values="0 0 0 0 0.145098 0 0 0 0 0.403922 0 0 0 0 1 0 0 0 0.4 0"/>
<feBlend mode="normal" in2="BackgroundImageFix" result="effect1_dropShadow_342_2590"/>
<feBlend mode="normal" in="SourceGraphic" in2="effect1_dropShadow_342_2590" result="shape"/>
</filter>
<linearGradient id="paint0_linear_342_2590" x1="60" y1="0" x2="60" y2="90" gradientUnits="userSpaceOnUse">
<stop stop-color="#2567FF" stop-opacity="0.4"/>
<stop offset="1" stop-color="#2567FF" stop-opacity="0"/>
</linearGradient>
<linearGradient id="paint1_linear_342_2590" x1="60" y1="10" x2="60" y2="90" gradientUnits="userSpaceOnUse">
<stop stop-color="#2567FF" stop-opacity="0.4"/>
<stop offset="1" stop-color="#2567FF" stop-opacity="0"/>
</linearGradient>
<linearGradient id="paint2_linear_342_2590" x1="60" y1="20" x2="60" y2="92" gradientUnits="userSpaceOnUse">
<stop stop-color="#2567FF"/>
<stop offset="1" stop-color="#2B40FA"/>
</linearGradient>
<linearGradient id="paint3_linear_342_2590" x1="88" y1="50.5" x2="71.5" y2="43" gradientUnits="userSpaceOnUse">
<stop stop-color="#2567FF" stop-opacity="0"/>
<stop offset="0.465" stop-color="#2567FF"/>
</linearGradient>
<linearGradient id="paint4_linear_342_2590" x1="32" y1="50.5" x2="48.5" y2="43" gradientUnits="userSpaceOnUse">
<stop stop-color="#2567FF" stop-opacity="0"/>
<stop offset="0.465" stop-color="#2567FF"/>
</linearGradient>
</defs>
</svg>
