<svg xmlns="http://www.w3.org/2000/svg" xmlns:xlink="http://www.w3.org/1999/xlink" width="48" zoomAndPan="magnify" viewBox="0 0 36 36.000001" height="48" preserveAspectRatio="xMidYMid meet" version="1.0"><defs><clipPath id="6364cc8f16"><path d="M 0.488281 0 L 35.511719 0 L 35.511719 35.027344 L 0.488281 35.027344 Z M 0.488281 0 " clip-rule="nonzero"/></clipPath><clipPath id="1e6f3c3b53"><path d="M 18 0 C 8.328125 0 0.488281 7.839844 0.488281 17.511719 C 0.488281 27.1875 8.328125 35.027344 18 35.027344 C 27.671875 35.027344 35.511719 27.1875 35.511719 17.511719 C 35.511719 7.839844 27.671875 0 18 0 Z M 18 0 " clip-rule="nonzero"/></clipPath><clipPath id="7e3f1e73df"><path d="M 0.488281 0 L 35.511719 0 L 35.511719 35.027344 L 0.488281 35.027344 Z M 0.488281 0 " clip-rule="nonzero"/></clipPath><clipPath id="973a4b961f"><path d="M 18 0 C 8.328125 0 0.488281 7.839844 0.488281 17.511719 C 0.488281 27.1875 8.328125 35.027344 18 35.027344 C 27.671875 35.027344 35.511719 27.1875 35.511719 17.511719 C 35.511719 7.839844 27.671875 0 18 0 Z M 18 0 " clip-rule="nonzero"/></clipPath><clipPath id="a01570cd4e"><rect x="0" width="36" y="0" height="36"/></clipPath><clipPath id="48a757cd55"><path d="M 9.429688 6.132812 L 26.214844 6.132812 L 26.214844 28.753906 L 9.429688 28.753906 Z M 9.429688 6.132812 " clip-rule="nonzero"/></clipPath><clipPath id="72a267c815"><path d="M 9.71875 6.132812 L 26.503906 6.132812 L 26.503906 28.753906 L 9.71875 28.753906 Z M 9.71875 6.132812 " clip-rule="nonzero"/></clipPath><clipPath id="a8e3c76af8"><path d="M 11.996094 6.132812 L 28.78125 6.132812 L 28.78125 28.753906 L 11.996094 28.753906 Z M 11.996094 6.132812 " clip-rule="nonzero"/></clipPath></defs><g clip-path="url(#6364cc8f16)"><g clip-path="url(#1e6f3c3b53)"><g transform="matrix(1, 0, 0, 1, 0.000000000000000056, 0.000000000000010582)"><g clip-path="url(#a01570cd4e)"><g clip-path="url(#7e3f1e73df)"><g clip-path="url(#973a4b961f)"><path fill="#ff00b0" d="M 0.488281 0 L 35.511719 0 L 35.511719 35.027344 L 0.488281 35.027344 Z M 0.488281 0 " fill-opacity="1" fill-rule="nonzero"/></g></g></g></g></g></g><g clip-path="url(#48a757cd55)"><path fill="#ff00b0" d="M 18.648438 11.886719 C 19.484375 10.589844 19.472656 8.554688 17.777344 8.550781 C 15.816406 8.542969 13.855469 8.53125 11.894531 8.523438 L 11.863281 15.898438 L 14.082031 12.441406 L 16.910156 12.441406 L 9.449219 24.070312 L 9.46875 19.632812 L 9.511719 8.515625 L 9.523438 6.136719 L 11.902344 6.144531 L 18.039062 6.171875 C 20.183594 6.308594 21.835938 8.101562 21.835938 10.226562 C 21.835938 11.464844 21.433594 11.957031 20.808594 12.929688 L 12.117188 26.484375 C 14.164062 26.492188 16.210938 26.484375 18.257812 26.484375 C 21.175781 26.484375 23.542969 23.265625 23.542969 21.105469 C 23.542969 18.941406 22.996094 18.425781 22.105469 17.476562 L 19.09375 22.175781 L 16.265625 22.175781 L 21.496094 14.023438 C 22.222656 14.355469 22.894531 14.800781 23.480469 15.332031 C 25.054688 16.757812 26.042969 18.816406 26.042969 21.105469 C 26.042969 23.214844 25.203125 25.128906 23.839844 26.53125 C 22.425781 27.980469 20.453125 28.882812 18.269531 28.886719 L 9.429688 28.851562 L 9.441406 26.246094 Z M 18.648438 11.886719 " fill-opacity="1" fill-rule="evenodd"/></g><g clip-path="url(#72a267c815)"><path fill="#1c191a" d="M 18.9375 11.886719 C 19.773438 10.589844 19.761719 8.554688 18.070312 8.550781 C 16.105469 8.542969 14.144531 8.53125 12.183594 8.523438 L 12.152344 15.898438 L 14.371094 12.441406 L 17.199219 12.441406 L 9.738281 24.070312 L 9.757812 19.632812 L 9.804688 8.515625 L 9.8125 6.136719 L 12.195312 6.144531 L 18.332031 6.171875 C 20.476562 6.308594 22.128906 8.101562 22.128906 10.226562 C 22.128906 11.464844 21.722656 11.957031 21.101562 12.929688 L 12.40625 26.484375 C 14.453125 26.492188 16.5 26.484375 18.546875 26.484375 C 21.46875 26.484375 23.835938 23.265625 23.835938 21.105469 C 23.835938 18.941406 23.289062 18.425781 22.394531 17.476562 L 19.382812 22.175781 L 16.554688 22.175781 L 21.785156 14.023438 C 22.515625 14.355469 23.183594 14.800781 23.773438 15.332031 C 25.34375 16.757812 26.332031 18.816406 26.332031 21.105469 C 26.332031 23.214844 25.492188 25.128906 24.128906 26.53125 C 22.714844 27.980469 20.742188 28.882812 18.558594 28.886719 L 9.71875 28.851562 L 9.730469 26.246094 Z M 18.9375 11.886719 " fill-opacity="1" fill-rule="evenodd"/></g><g clip-path="url(#a8e3c76af8)"><path fill="#ffffff" d="M 21.21875 11.886719 C 22.050781 10.589844 22.039062 8.554688 20.347656 8.550781 C 18.382812 8.542969 16.421875 8.53125 14.460938 8.523438 L 14.429688 15.898438 L 16.648438 12.441406 L 19.476562 12.441406 L 12.015625 24.070312 L 12.035156 19.632812 L 12.082031 8.515625 L 12.089844 6.136719 L 14.472656 6.144531 L 20.609375 6.171875 C 22.753906 6.308594 24.40625 8.101562 24.40625 10.226562 C 24.40625 11.464844 24 11.957031 23.378906 12.929688 L 14.683594 26.484375 C 16.730469 26.492188 18.777344 26.484375 20.824219 26.484375 C 23.746094 26.484375 26.113281 23.265625 26.113281 21.105469 C 26.113281 18.941406 25.566406 18.425781 24.671875 17.476562 L 21.660156 22.175781 L 18.832031 22.175781 L 24.0625 14.023438 C 24.792969 14.355469 25.460938 14.800781 26.050781 15.332031 C 27.621094 16.757812 28.609375 18.816406 28.609375 21.105469 C 28.609375 23.214844 27.769531 25.128906 26.40625 26.53125 C 24.996094 27.980469 23.023438 28.882812 20.839844 28.886719 L 11.996094 28.851562 L 12.007812 26.246094 Z M 21.21875 11.886719 " fill-opacity="1" fill-rule="evenodd"/></g></svg>