<svg width="300" height="47" viewBox="0 0 300 47" fill="none" xmlns="http://www.w3.org/2000/svg">
<path d="M88.4936 31.0748C89.4275 31.0748 90.1711 31.8358 90.1711 32.7524V44.5296C90.1711 45.4635 89.4102 46.2071 88.4936 46.2071H76.7163C75.7825 46.2071 75.0388 45.4462 75.0388 44.5296C75.0388 37.1105 81.0744 31.0748 88.4936 31.0748Z" fill="#47B9FF"/>
<path d="M47.5587 8.86917V14.9221C47.5587 15.4755 48.0083 15.9252 48.5617 15.9252H62.3624C63.2617 15.9252 63.7113 17.0147 63.0714 17.6546L50.7754 29.8987C50.0144 30.6597 48.9941 31.0747 47.9218 31.0747H47.9045C47.7143 31.0747 47.5414 30.9191 47.5414 30.7116V16.9282C47.5414 16.3748 47.0917 15.9252 46.5383 15.9252H37.3725C34.1731 15.9252 31.112 17.1876 28.8465 19.4358L18.3317 29.8815C17.5708 30.6251 16.5504 31.0575 15.4955 31.0575C15.3052 31.0575 15.1323 30.9018 15.1323 30.6943V16.9109C15.1323 16.3575 14.6827 15.9079 14.1292 15.9079H8.07633C3.61446 15.9079 0 19.5223 0 23.9842V30.0371C0 30.5905 0.449649 31.0402 1.00306 31.0402H11.1028C11.6562 31.0402 12.1058 31.4898 12.1058 32.0432V43.1633C12.1058 44.8235 13.4548 46.1725 15.115 46.1725H22.2574C25.4569 46.1725 28.5179 44.91 30.7834 42.6618L41.2982 32.2162C42.0591 31.4725 43.0795 31.0402 44.1344 31.0402H44.1863C44.3766 31.0402 44.5495 31.1958 44.5495 31.4033V43.1806C44.5495 44.8408 45.8984 46.1898 47.5587 46.1898H54.6838C57.8832 46.1898 60.9443 44.9273 63.2271 42.6791L90.1712 15.9252V1.79591C90.1712 1.2425 89.7216 0.792847 89.1682 0.792847H55.635C51.1731 0.792847 47.5587 4.40731 47.5587 8.86917Z" fill="url(#paint0_linear_1_3691)"/>
<path d="M142.417 41.8315H137.592L132.542 29.3106L127.492 41.8315H122.667L111.478 14.1091H116.908L125.053 34.3432L129.827 22.6524L126.385 14.1091H131.815L139.961 34.3432L148.106 14.1091H153.485L142.399 41.8315H142.417Z" fill="#101010"/>
<path d="M159.918 30.0716C159.918 30.9536 160.246 31.8875 160.886 32.8387C161.526 33.8072 162.287 34.62 163.135 35.2771C164.691 36.4877 166.49 37.1103 168.565 37.1103C171.851 37.1103 174.531 35.5193 176.607 32.3372L180.826 34.8275C179.391 37.1622 177.61 38.9435 175.5 40.2059C173.39 41.4684 171.09 42.091 168.565 42.091C166.68 42.091 164.881 41.7278 163.186 41.0015C161.492 40.2751 159.987 39.2721 158.69 37.975C157.393 36.678 156.39 35.1907 155.663 33.4786C154.937 31.7664 154.574 29.9852 154.574 28.1001C154.574 26.2151 154.937 24.4165 155.663 22.7044C156.39 20.9923 157.393 19.4877 158.69 18.1906C159.952 16.8936 161.44 15.9078 163.152 15.1987C164.864 14.4897 166.68 14.1438 168.565 14.1438C170.45 14.1438 172.249 14.4897 173.978 15.1987C175.69 15.9078 177.177 16.8936 178.44 18.1906C181.172 20.9923 182.538 24.2435 182.538 27.9445C182.538 28.6016 182.487 29.3107 182.366 30.0543H159.918V30.0716ZM164.311 19.7125C162.979 20.3697 161.924 21.2517 161.128 22.3412C160.333 23.4307 159.935 24.5894 159.935 25.8H177.229C177.229 24.5721 176.831 23.4307 176.036 22.3412C175.24 21.2517 174.185 20.3697 172.854 19.7125C171.522 19.0553 170.104 18.7094 168.582 18.7094C167.06 18.7094 165.642 19.038 164.311 19.7125Z" fill="#101010"/>
<path d="M196.599 40.8804C194.99 40.0676 193.59 38.9607 192.414 37.5599V41.8315H187.537V5.02979H192.414V18.1041C193.226 16.9627 194.437 15.9423 196.045 15.0603C197.654 14.1783 199.504 13.7287 201.614 13.7287C203.499 13.7287 205.315 14.0919 207.044 14.8355C208.774 15.5792 210.278 16.5995 211.541 17.8793C212.838 19.2109 213.841 20.7328 214.567 22.4449C215.294 24.157 215.657 25.9902 215.657 27.9098C215.657 29.8295 215.294 31.6453 214.567 33.3747C213.841 35.0869 212.838 36.626 211.541 37.9404C210.278 39.2374 208.791 40.2578 207.044 40.9841C205.315 41.7278 203.499 42.091 201.614 42.091C199.885 42.091 198.207 41.6932 196.599 40.8804ZM198.086 19.453C196.962 19.92 195.993 20.5771 195.181 21.4246C194.368 22.272 193.728 23.2577 193.244 24.3991C192.759 25.5232 192.517 26.6992 192.517 27.9271C192.517 30.4002 193.399 32.5619 195.181 34.4124C195.993 35.2598 196.962 35.9343 198.086 36.4012C199.21 36.8854 200.386 37.1276 201.614 37.1276C202.842 37.1276 204.001 36.8854 205.107 36.4012C206.214 35.917 207.183 35.2598 207.995 34.4124C209.777 32.5619 210.659 30.4002 210.659 27.9271C210.659 26.6992 210.417 25.5405 209.932 24.3991C209.448 23.275 208.808 22.2893 207.995 21.4246C207.183 20.5771 206.214 19.92 205.107 19.453C204.001 18.9861 202.842 18.7613 201.614 18.7613C200.386 18.7613 199.227 18.9861 198.086 19.453Z" fill="#101010"/>
<path d="M225.67 18.7612V41.8142H221.018V18.7612H218.407V14.1091H221.07C221.139 12.3278 221.658 10.7541 222.592 9.33597C223.543 7.93515 224.788 6.84562 226.327 6.06739C227.884 5.28916 229.579 4.90869 231.429 4.90869V9.68185C229.873 9.61268 228.576 9.99314 227.521 10.8406C226.466 11.688 225.895 12.7775 225.826 14.1091H231.429V18.7612H225.67Z" fill="#101010"/>
<path d="M236.617 9.3706C236.116 8.86907 235.874 8.26378 235.874 7.57201C235.874 6.88025 236.116 6.27496 236.617 5.77343C237.119 5.2719 237.724 5.02979 238.416 5.02979C239.108 5.02979 239.713 5.2719 240.214 5.77343C240.716 6.27496 240.958 6.88025 240.958 7.57201C240.958 8.26378 240.716 8.86907 240.214 9.3706C239.713 9.87212 239.108 10.1142 238.416 10.1142C237.724 10.1142 237.119 9.87212 236.617 9.3706ZM236.15 41.8315V14.1092H240.802V41.8315H236.15Z" fill="#101010"/>
<path d="M252.805 41.0188C251.127 40.2924 249.64 39.2894 248.343 37.9923C247.08 36.7298 246.094 35.2426 245.385 33.5305C244.676 31.8183 244.296 30.0025 244.296 28.1174C244.296 26.2323 244.659 24.4338 245.385 22.7217C246.112 21.0096 247.098 19.5223 248.343 18.2598C249.64 16.9627 251.127 15.9597 252.805 15.2333C254.482 14.507 256.263 14.1438 258.148 14.1438C262.507 14.1438 266.207 15.9943 269.234 19.6952L264.91 22.1855C262.991 20.1621 260.743 19.1418 258.148 19.1418C256.921 19.1418 255.779 19.3666 254.69 19.8335C253.6 20.3005 252.649 20.9404 251.836 21.7532C251.023 22.566 250.383 23.5345 249.899 24.6413C249.415 25.7481 249.173 26.9068 249.173 28.1347C249.173 29.3626 249.415 30.5213 249.899 31.6281C250.383 32.7349 251.023 33.7034 251.836 34.5162C252.649 35.329 253.6 35.9689 254.69 36.4359C255.779 36.9028 256.938 37.1276 258.148 37.1276C260.743 37.1276 262.991 36.1073 264.91 34.0839L269.234 36.5742C266.207 40.2751 262.507 42.1256 258.148 42.1256C256.263 42.1256 254.482 41.7624 252.805 41.0361V41.0188Z" fill="#101010"/>
<path d="M295.019 41.8316V37.6119C293.843 38.9781 292.477 40.0676 290.921 40.8805C289.364 41.6933 287.721 42.091 285.992 42.091C284.072 42.091 282.274 41.7452 280.579 41.0361C278.901 40.327 277.414 39.3413 276.117 38.0442C274.82 36.7818 273.817 35.2945 273.091 33.5824C272.364 31.8703 272.001 30.0544 272.001 28.1693C272.001 26.2843 272.364 24.4857 273.091 22.7736C273.817 21.0615 274.82 19.5569 276.117 18.2598C277.414 16.9628 278.901 15.977 280.579 15.268C282.256 14.5589 284.055 14.213 285.992 14.213C287.773 14.213 289.433 14.5762 291.007 15.3198C292.581 16.0635 293.913 17.1011 295.019 18.4155V14.7491H300V41.797H295.019V41.8316ZM282.464 19.8509C281.34 20.3178 280.371 20.9577 279.558 21.7705C278.746 22.5833 278.106 23.5518 277.639 24.6759C277.172 25.8 276.947 26.976 276.947 28.2039C276.947 29.4318 277.172 30.5905 277.639 31.6973C278.106 32.8041 278.746 33.7726 279.558 34.5854C280.371 35.3982 281.34 36.0381 282.464 36.5051C283.588 36.972 284.764 37.1968 285.992 37.1968C287.22 37.1968 288.378 36.972 289.485 36.5051C290.592 36.0381 291.561 35.3982 292.373 34.5854C293.186 33.7726 293.826 32.8041 294.293 31.6973C294.76 30.5905 294.985 29.4318 294.985 28.2039C294.985 26.976 294.76 25.8173 294.293 24.6759C293.826 23.5518 293.186 22.5833 292.373 21.7705C291.561 20.9577 290.592 20.3178 289.485 19.8509C288.378 19.3839 287.22 19.1591 285.992 19.1591C284.764 19.1591 283.605 19.3839 282.464 19.8509Z" fill="#101010"/>
<defs>
<linearGradient id="paint0_linear_1_3691" x1="-0.0172941" y1="23.4999" x2="90.1712" y2="23.4999" gradientUnits="userSpaceOnUse">
<stop stop-color="#414DE6"/>
<stop offset="1" stop-color="#47B9FF"/>
</linearGradient>
</defs>
</svg>
