<svg width="25" height="24" viewBox="0 0 25 24" fill="currentColor" xmlns="http://www.w3.org/2000/svg">
<path fill="currentColor" clip-rule="evenodd" d="M9.13147 10.2446C9.13147 9.87179 9.43368 9.56958 9.80647 9.56958H19.6364C20.0092 9.56958 20.3114 9.87179 20.3114 10.2446C20.3114 10.6174 20.0092 10.9196 19.6364 10.9196H9.80647C9.43368 10.9196 9.13147 10.6174 9.13147 10.2446Z" />
<path fill="currentColor" clip-rule="evenodd" d="M10.3064 6.02065C8.99008 6.02065 7.92129 7.08944 7.92129 8.40578V10.9357C7.92129 13.2691 9.81588 15.1652 12.1508 15.1652C14.4842 15.1652 16.3803 13.2706 16.3803 10.9357V8.40578C16.3803 7.08944 15.3116 6.02065 13.9952 6.02065H10.3064ZM6.57129 8.40578C6.57129 6.34386 8.24449 4.67065 10.3064 4.67065H13.9952C16.0571 4.67065 17.7303 6.34386 17.7303 8.40578V10.9357C17.7303 14.0165 15.2295 16.5152 12.1508 16.5152C9.06995 16.5152 6.57129 14.0143 6.57129 10.9357V8.40578Z" />
<path fill="currentColor" clip-rule="evenodd" d="M7.7521 13.178C7.99774 13.4584 7.96954 13.8849 7.68911 14.1305C6.47559 15.1935 5.64047 16.7704 5.47196 18.5719H18.8295C18.7295 17.504 18.3948 16.5139 17.885 15.6624C17.6935 15.3425 17.7976 14.928 18.1175 14.7365C18.4373 14.545 18.8518 14.6491 19.0433 14.969C19.7835 16.2053 20.211 17.6752 20.211 19.2469C20.211 19.6197 19.9088 19.9219 19.536 19.9219H4.76558C4.39278 19.9219 4.09058 19.6197 4.09058 19.2469C4.09058 16.7825 5.14026 14.5685 6.79959 13.115C7.08001 12.8694 7.50647 12.8976 7.7521 13.178Z" />
<path fill="currentColor" clip-rule="evenodd" d="M12.1508 4.07812C12.5236 4.07812 12.8258 4.38033 12.8258 4.75312V5.34583C12.8258 5.71863 12.5236 6.02083 12.1508 6.02083C11.778 6.02083 11.4758 5.71863 11.4758 5.34583V4.75312C11.4758 4.38033 11.778 4.07812 12.1508 4.07812Z" />
</svg>
