<svg width="32" height="32" viewBox="0 0 32 32" fill="none" xmlns="http://www.w3.org/2000/svg">
<path clip-rule="evenodd" d="M22.277 12.9009C22.774 12.9009 23.177 13.3038 23.177 13.8009V19.9868C23.177 20.4838 22.774 20.8868 22.277 20.8868C21.7799 20.8868 21.377 20.4838 21.377 19.9868V13.8009C21.377 13.3038 21.7799 12.9009 22.277 12.9009Z" fill="currentColor"/>
<path clip-rule="evenodd" d="M11.1158 9.72324C11.1158 9.22619 11.5188 8.82324 12.0158 8.82324H22.2768C22.6408 8.82324 22.969 9.0425 23.1083 9.37879C23.2476 9.71507 23.1706 10.1022 22.9133 10.3596L10.3597 22.9157C10.0083 23.2672 9.43842 23.2672 9.08691 22.9158C8.7354 22.5644 8.73535 21.9945 9.08678 21.643L20.1043 10.6232H12.0158C11.5188 10.6232 11.1158 10.2203 11.1158 9.72324Z" fill="currentColor"/>
</svg>
