<svg width="32" height="32" viewBox="0 0 32 32" fill="currentColor" xmlns="http://www.w3.org/2000/svg">
<path  clip-rule="evenodd" d="M22.6329 18.247C22.9844 18.5985 22.9844 19.1683 22.6329 19.5198L18.2599 23.8928C17.9084 24.2443 17.3386 24.2443 16.9871 23.8928C16.6356 23.5414 16.6356 22.9715 16.9871 22.62L21.3601 18.247C21.7116 17.8955 22.2815 17.8955 22.6329 18.247Z" fill="currentColor"/>
<path  clip-rule="evenodd" d="M16.9871 8.10717C17.3386 7.7557 17.9084 7.7557 18.2599 8.10717L25.5163 15.3636C25.7737 15.621 25.8507 16.0081 25.7114 16.3444C25.5721 16.6807 25.2439 16.9 24.8799 16.9H7.12516C6.6281 16.9 6.22516 16.4971 6.22516 16C6.22516 15.5029 6.6281 15.1 7.12516 15.1H22.7071L16.9871 9.37996C16.6356 9.02849 16.6356 8.45864 16.9871 8.10717Z" fill="currentColor"/>
</svg>
