<svg width="192" height="241" viewBox="0 0 192 241" fill="none" xmlns="http://www.w3.org/2000/svg">
<path d="M139.412 179.919C139.412 179.919 106.772 246.899 91.0722 238.149C80.3222 232.159 89.2022 194.039 99.8622 182.119C112.922 167.499 113.042 185.419 113.042 185.419L127.322 175.529L139.412 179.919Z" fill="#FAFAFA"/>
<path d="M90.0922 239.899C87.2722 238.329 85.4422 235.129 84.6422 230.399C82.3322 216.659 89.5122 190.689 98.3622 180.789C103.092 175.499 106.942 173.509 110.132 174.719C112.992 175.799 114.182 179.159 114.682 181.849L126.182 173.889C126.712 173.519 127.392 173.429 128.002 173.659L140.092 178.059C140.622 178.249 141.052 178.659 141.262 179.189C141.472 179.719 141.452 180.309 141.202 180.819C141.132 180.949 134.562 194.399 126.022 208.319C114.362 227.309 104.682 238.119 97.2622 240.459C96.1722 240.799 95.1322 240.969 94.1222 240.969C92.6822 240.969 91.3422 240.619 90.0922 239.929V239.899ZM127.612 177.759L114.182 187.059C113.572 187.479 112.782 187.529 112.122 187.189C111.462 186.849 111.052 186.169 111.042 185.429C111.022 182.869 110.212 179.019 108.722 178.459C107.672 178.059 105.182 179.169 101.352 183.449C93.2722 192.489 86.4722 217.139 88.5922 229.729C88.9922 232.119 89.9222 235.219 92.0422 236.399C93.1822 237.029 94.5022 237.099 96.0622 236.609C108.572 232.679 128.682 196.899 136.622 181.029L127.602 177.749L127.612 177.759Z" fill="#131315"/>
<mask id="mask0_630_8801" style="mask-type:luminance" maskUnits="userSpaceOnUse" x="85" y="173" width="50" height="59">
<path d="M134.052 177.829C134.052 177.829 104.342 238.789 90.0522 230.829C80.2722 225.379 88.3522 190.689 98.0522 179.829C109.942 166.529 110.052 182.829 110.052 182.829L123.052 173.829L134.052 177.829Z" fill="white"/>
</mask>
<g mask="url(#mask0_630_8801)">
<mask id="mask1_630_8801" style="mask-type:luminance" maskUnits="userSpaceOnUse" x="77" y="168" width="21" height="21">
<path d="M97.0521 168.829H77.0521V188.829H97.0521V168.829Z" fill="white"/>
</mask>
<g mask="url(#mask1_630_8801)">
<path d="M97.0521 168.829H87.0521V178.829H97.0521V168.829Z" fill="#131315"/>
<path d="M87.0521 168.829H77.0521V178.829H87.0521V168.829Z" fill="#FAFAFA"/>
<path d="M97.0521 178.829H87.0521V188.829H97.0521V178.829Z" fill="#FAFAFA"/>
<path d="M87.0521 178.829H77.0521V188.829H87.0521V178.829Z" fill="#131315"/>
</g>
<mask id="mask2_630_8801" style="mask-type:luminance" maskUnits="userSpaceOnUse" x="77" y="188" width="21" height="21">
<path d="M97.0521 188.829H77.0521V208.829H97.0521V188.829Z" fill="white"/>
</mask>
<g mask="url(#mask2_630_8801)">
<path d="M97.0521 188.829H87.0521V198.829H97.0521V188.829Z" fill="#131315"/>
<path d="M87.0521 188.829H77.0521V198.829H87.0521V188.829Z" fill="#FAFAFA"/>
<path d="M97.0521 198.829H87.0521V208.829H97.0521V198.829Z" fill="#FAFAFA"/>
<path d="M87.0521 198.829H77.0521V208.829H87.0521V198.829Z" fill="#131315"/>
</g>
<mask id="mask3_630_8801" style="mask-type:luminance" maskUnits="userSpaceOnUse" x="77" y="208" width="21" height="21">
<path d="M97.0521 208.829H77.0521V228.829H97.0521V208.829Z" fill="white"/>
</mask>
<g mask="url(#mask3_630_8801)">
<path d="M97.0521 208.829H87.0521V218.829H97.0521V208.829Z" fill="#131315"/>
<path d="M87.0521 208.829H77.0521V218.829H87.0521V208.829Z" fill="#FAFAFA"/>
<path d="M97.0521 218.829H87.0521V228.829H97.0521V218.829Z" fill="#FAFAFA"/>
<path d="M87.0521 218.829H77.0521V228.829H87.0521V218.829Z" fill="#131315"/>
</g>
<mask id="mask4_630_8801" style="mask-type:luminance" maskUnits="userSpaceOnUse" x="77" y="228" width="21" height="21">
<path d="M97.0521 228.829H77.0521V248.829H97.0521V228.829Z" fill="white"/>
</mask>
<g mask="url(#mask4_630_8801)">
<path d="M97.0521 228.829H87.0521V238.829H97.0521V228.829Z" fill="#131315"/>
<path d="M87.0521 228.829H77.0521V238.829H87.0521V228.829Z" fill="#FAFAFA"/>
</g>
<mask id="mask5_630_8801" style="mask-type:luminance" maskUnits="userSpaceOnUse" x="97" y="168" width="21" height="21">
<path d="M117.052 168.829H97.0521V188.829H117.052V168.829Z" fill="white"/>
</mask>
<g mask="url(#mask5_630_8801)">
<path d="M117.052 168.829H107.052V178.829H117.052V168.829Z" fill="#131315"/>
<path d="M107.052 168.829H97.0521V178.829H107.052V168.829Z" fill="#FAFAFA"/>
<path d="M117.052 178.829H107.052V188.829H117.052V178.829Z" fill="#FAFAFA"/>
<path d="M107.052 178.829H97.0521V188.829H107.052V178.829Z" fill="#131315"/>
</g>
<mask id="mask6_630_8801" style="mask-type:luminance" maskUnits="userSpaceOnUse" x="97" y="188" width="21" height="21">
<path d="M117.052 188.829H97.0521V208.829H117.052V188.829Z" fill="white"/>
</mask>
<g mask="url(#mask6_630_8801)">
<path d="M117.052 188.829H107.052V198.829H117.052V188.829Z" fill="#131315"/>
<path d="M107.052 188.829H97.0521V198.829H107.052V188.829Z" fill="#FAFAFA"/>
<path d="M117.052 198.829H107.052V208.829H117.052V198.829Z" fill="#FAFAFA"/>
<path d="M107.052 198.829H97.0521V208.829H107.052V198.829Z" fill="#131315"/>
</g>
<mask id="mask7_630_8801" style="mask-type:luminance" maskUnits="userSpaceOnUse" x="97" y="208" width="21" height="21">
<path d="M117.052 208.829H97.0521V228.829H117.052V208.829Z" fill="white"/>
</mask>
<g mask="url(#mask7_630_8801)">
<path d="M117.052 208.829H107.052V218.829H117.052V208.829Z" fill="#131315"/>
<path d="M107.052 208.829H97.0521V218.829H107.052V208.829Z" fill="#FAFAFA"/>
<path d="M117.052 218.829H107.052V228.829H117.052V218.829Z" fill="#FAFAFA"/>
<path d="M107.052 218.829H97.0521V228.829H107.052V218.829Z" fill="#131315"/>
</g>
<mask id="mask8_630_8801" style="mask-type:luminance" maskUnits="userSpaceOnUse" x="97" y="228" width="21" height="21">
<path d="M117.052 228.829H97.0521V248.829H117.052V228.829Z" fill="white"/>
</mask>
<g mask="url(#mask8_630_8801)">
<path d="M117.052 228.829H107.052V238.829H117.052V228.829Z" fill="#131315"/>
<path d="M107.052 228.829H97.0521V238.829H107.052V228.829Z" fill="#FAFAFA"/>
</g>
<mask id="mask9_630_8801" style="mask-type:luminance" maskUnits="userSpaceOnUse" x="117" y="168" width="21" height="21">
<path d="M137.052 168.829H117.052V188.829H137.052V168.829Z" fill="white"/>
</mask>
<g mask="url(#mask9_630_8801)">
<path d="M137.052 168.829H127.052V178.829H137.052V168.829Z" fill="#131315"/>
<path d="M127.052 168.829H117.052V178.829H127.052V168.829Z" fill="#FAFAFA"/>
<path d="M137.052 178.829H127.052V188.829H137.052V178.829Z" fill="#FAFAFA"/>
<path d="M127.052 178.829H117.052V188.829H127.052V178.829Z" fill="#131315"/>
</g>
<mask id="mask10_630_8801" style="mask-type:luminance" maskUnits="userSpaceOnUse" x="117" y="188" width="21" height="21">
<path d="M137.052 188.829H117.052V208.829H137.052V188.829Z" fill="white"/>
</mask>
<g mask="url(#mask10_630_8801)">
<path d="M137.052 188.829H127.052V198.829H137.052V188.829Z" fill="#131315"/>
<path d="M127.052 188.829H117.052V198.829H127.052V188.829Z" fill="#FAFAFA"/>
<path d="M137.052 198.829H127.052V208.829H137.052V198.829Z" fill="#FAFAFA"/>
<path d="M127.052 198.829H117.052V208.829H127.052V198.829Z" fill="#131315"/>
</g>
<mask id="mask11_630_8801" style="mask-type:luminance" maskUnits="userSpaceOnUse" x="117" y="208" width="21" height="21">
<path d="M137.052 208.829H117.052V228.829H137.052V208.829Z" fill="white"/>
</mask>
<g mask="url(#mask11_630_8801)">
<path d="M137.052 208.829H127.052V218.829H137.052V208.829Z" fill="#131315"/>
<path d="M127.052 208.829H117.052V218.829H127.052V208.829Z" fill="#FAFAFA"/>
<path d="M137.052 218.829H127.052V228.829H137.052V218.829Z" fill="#FAFAFA"/>
<path d="M127.052 218.829H117.052V228.829H127.052V218.829Z" fill="#131315"/>
</g>
<mask id="mask12_630_8801" style="mask-type:luminance" maskUnits="userSpaceOnUse" x="117" y="228" width="21" height="21">
<path d="M137.052 228.829H117.052V248.829H137.052V228.829Z" fill="white"/>
</mask>
<g mask="url(#mask12_630_8801)">
<path d="M137.052 228.829H127.052V238.829H137.052V228.829Z" fill="#131315"/>
<path d="M127.052 228.829H117.052V238.829H127.052V228.829Z" fill="#FAFAFA"/>
</g>
</g>
<path d="M89.0821 232.579C86.4621 231.119 84.7721 228.169 84.0321 223.799C81.9221 211.249 88.4821 187.539 96.5621 178.499C100.922 173.619 104.482 171.799 107.472 172.929C110.072 173.909 111.202 176.819 111.692 179.269L121.922 172.189C122.452 171.819 123.132 171.729 123.742 171.959L134.742 175.959C135.272 176.149 135.702 176.559 135.912 177.089C136.122 177.619 136.102 178.209 135.852 178.719C135.792 178.839 129.802 191.089 122.022 203.759C111.382 221.079 102.542 230.949 95.7421 233.089C94.7321 233.409 93.7621 233.569 92.8321 233.569C91.4921 233.569 90.2422 233.249 89.0722 232.599L89.0821 232.579ZM123.342 176.059L111.192 184.469C110.582 184.889 109.792 184.939 109.132 184.599C108.472 184.259 108.062 183.579 108.052 182.839C108.032 180.609 107.302 177.129 106.052 176.659C105.182 176.339 102.972 177.319 99.5421 181.159C92.2121 189.359 86.0522 211.719 87.9722 223.139C88.3322 225.279 89.1521 228.039 91.0221 229.079C92.0121 229.629 93.1622 229.689 94.5422 229.259C105.822 225.709 123.982 193.459 131.262 178.949L123.332 176.069L123.342 176.059Z" fill="#131315"/>
<path d="M106.412 73.2888C115.431 73.2888 122.742 64.1464 122.742 52.8688C122.742 41.5911 115.431 32.4488 106.412 32.4488C97.3933 32.4488 90.0822 41.5911 90.0822 52.8688C90.0822 64.1464 97.3933 73.2888 106.412 73.2888Z" fill="#FAFAFA"/>
<path d="M88.0723 52.8688C88.0723 40.5088 96.3023 30.4488 106.402 30.4488C116.512 30.4488 124.732 40.5088 124.732 52.8688C124.732 65.2288 116.502 75.2888 106.402 75.2888C96.2923 75.2888 88.0723 65.2288 88.0723 52.8688ZM92.0723 52.8688C92.0723 63.0288 98.5023 71.2888 106.402 71.2888C114.302 71.2888 120.732 63.0288 120.732 52.8688C120.732 42.7088 114.302 34.4488 106.402 34.4488C98.5023 34.4488 92.0723 42.7088 92.0723 52.8688Z" fill="#131315"/>
<path d="M138.052 146.829L145.052 148.829C149.532 147.339 154.062 151.039 156.032 147.099C158.002 143.169 158.472 138.489 156.982 134.009L139.462 81.4188C136.482 72.4688 126.712 67.5788 117.762 70.5688C108.812 73.5488 103.922 83.3188 106.912 92.2688L124.432 144.859C127.412 153.809 129.102 149.809 138.052 146.829Z" fill="#FAFAFA"/>
<path d="M126.772 151.979C124.762 151.089 123.622 148.739 122.542 145.479L105.022 92.8888C103.412 88.0488 103.792 82.8588 106.082 78.2788C108.372 73.6888 112.302 70.2788 117.142 68.6688C127.162 65.3288 138.032 70.7688 141.372 80.7888L158.892 133.379C160.502 138.219 160.122 143.409 157.832 147.989C156.032 151.579 152.662 151.079 150.202 150.709C148.682 150.479 147.102 150.249 145.692 150.709C145.312 150.839 144.902 150.849 144.512 150.739L138.112 148.909C136.332 149.539 134.872 150.189 133.572 150.769C131.672 151.619 130.062 152.339 128.542 152.339C127.942 152.339 127.362 152.229 126.782 151.969L126.772 151.979ZM138.602 144.909L145.052 146.749C147.142 146.219 149.152 146.519 150.792 146.759C153.502 147.159 153.842 147.029 154.252 146.199C156.072 142.569 156.372 138.459 155.092 134.639L137.572 82.0488C134.932 74.1188 126.332 69.8188 118.402 72.4588C114.582 73.7288 111.472 76.4388 109.652 80.0688C107.832 83.6988 107.532 87.8088 108.812 91.6288L126.332 144.219C127.462 147.599 128.142 148.209 128.382 148.319C128.832 148.509 130.482 147.779 131.932 147.129C133.382 146.479 135.182 145.679 137.422 144.929C137.622 144.859 137.842 144.829 138.052 144.829C138.232 144.829 138.422 144.859 138.602 144.909Z" fill="#131315"/>
<path d="M154.052 125.829L139.462 81.4188C136.482 72.4688 126.712 67.5788 117.762 70.5688C108.812 73.5488 103.922 83.3188 106.912 92.2688L118.052 125.839H154.052V125.829Z" fill="#131315"/>
<path d="M116.152 126.459L105.012 92.8988C103.402 88.0588 103.782 82.8688 106.072 78.2888C108.362 73.6988 112.292 70.2888 117.132 68.6788C127.152 65.3388 138.022 70.7788 141.362 80.8088L155.952 125.219C156.152 125.829 156.052 126.499 155.672 127.019C155.292 127.539 154.692 127.849 154.052 127.849H118.052C117.192 127.849 116.422 127.299 116.152 126.479V126.459ZM137.572 82.0488C134.932 74.1188 126.332 69.8188 118.402 72.4588C110.472 75.0988 106.172 83.6988 108.812 91.6288L119.492 123.829H151.282L137.562 82.0488H137.572Z" fill="#131315"/>
<path d="M119.592 60.8088C130.936 60.8088 140.132 51.6665 140.132 40.3888C140.132 29.1112 130.936 19.9688 119.592 19.9688C108.248 19.9688 99.0522 29.1112 99.0522 40.3888C99.0522 51.6665 108.248 60.8088 119.592 60.8088Z" fill="#131315"/>
<path d="M97.0522 40.3888C97.0522 28.0288 107.162 17.9688 119.592 17.9688C132.022 17.9688 142.132 28.0288 142.132 40.3888C142.132 52.7488 132.022 62.8088 119.592 62.8088C107.162 62.8088 97.0522 52.7488 97.0522 40.3888ZM101.052 40.3888C101.052 50.5488 109.372 58.8088 119.592 58.8088C129.812 58.8088 138.132 50.5488 138.132 40.3888C138.132 30.2288 129.812 21.9688 119.592 21.9688C109.372 21.9688 101.052 30.2288 101.052 40.3888Z" fill="#131315"/>
<path d="M107.152 91.0288C108.522 89.9288 109.382 88.2788 109.472 86.4788C109.592 84.0888 108.332 81.8488 106.232 80.6988L43.3922 46.7288C40.3722 45.0788 36.5722 46.1888 34.9222 49.2088C33.2722 52.2288 34.3822 56.0188 37.4022 57.6788L88.9522 85.4788L104.052 92.8388L105.682 91.9288C106.222 91.6988 106.712 91.3988 107.152 91.0488V91.0288Z" fill="#FAFAFA"/>
<path d="M103.182 94.6288L88.0122 87.2388L36.4522 59.4288C34.5222 58.3688 33.1222 56.6288 32.5022 54.5188C31.8822 52.4088 32.1222 50.1788 33.1822 48.2488C34.2322 46.3188 35.9822 44.9188 38.0922 44.2988C40.2022 43.6788 42.4322 43.9188 44.3522 44.9688L107.202 78.9488C109.952 80.4488 111.632 83.4488 111.482 86.5788C111.372 88.9288 110.252 91.1188 108.422 92.5888C107.862 93.0388 107.242 93.4188 106.592 93.7088L105.052 94.5688C104.752 94.7388 104.412 94.8288 104.072 94.8288C103.772 94.8288 103.472 94.7588 103.192 94.6288H103.182ZM105.892 89.4788C106.832 88.7188 107.412 87.5888 107.462 86.3888C107.542 84.7788 106.682 83.2388 105.272 82.4688L42.4222 48.4888C41.4322 47.9488 40.2822 47.8188 39.1922 48.1388C38.1022 48.4588 37.2122 49.1788 36.6622 50.1688C36.1222 51.1588 35.9922 52.3088 36.3122 53.3988C36.6322 54.4888 37.3522 55.3788 38.3322 55.9188L89.8022 83.6788L103.962 90.5788L104.672 90.1788C104.732 90.1388 104.802 90.1088 104.872 90.0788C105.232 89.9288 105.572 89.7288 105.872 89.4788H105.892Z" fill="#131315"/>
<path d="M81.6122 72.9388C82.5222 83.8188 94.2522 93.0088 113.292 91.4088C137.822 89.3488 147.982 71.2188 147.012 59.6288C146.042 48.0388 126.292 48.0688 109.772 49.4488C93.2523 50.8288 80.6422 61.3488 81.6122 72.9388Z" fill="#FAFAFA"/>
<path d="M89.5822 88.5388C83.6822 84.7788 80.1422 79.2988 79.6222 73.1088C78.5622 60.4388 92.0122 48.9388 109.602 47.4588C120.542 46.5388 128.472 46.6188 134.572 47.7088C143.632 49.3188 148.482 53.2788 149.002 59.4688C149.582 66.3788 146.672 74.2088 141.212 80.4188C136.592 85.6688 128.032 92.1888 113.452 93.4088C111.942 93.5388 110.472 93.5988 109.022 93.5988C101.462 93.5988 94.8022 91.8788 89.5722 88.5488L89.5822 88.5388ZM109.942 51.4388C94.5422 52.7288 82.7322 62.2988 83.6122 72.7688C84.0222 77.6888 86.9122 82.0888 91.7322 85.1588C97.2122 88.6588 104.612 90.1188 113.122 89.4088C126.372 88.2988 134.082 82.4588 138.212 77.7688C142.892 72.4388 145.502 65.5588 145.022 59.7888C144.892 58.2388 144.502 53.5288 133.872 51.6388C130.802 51.0888 127.192 50.8188 122.892 50.8188C119.142 50.8188 114.862 51.0288 109.942 51.4388Z" fill="#131315"/>
<path d="M102.312 53.3388C78.7023 55.0088 62.3623 41.0688 66.5123 25.2388C69.3523 14.4088 85.4323 6.14881 98.3623 12.8288C114.212 21.0188 96.9823 33.3188 116.522 40.0588C119.532 41.0988 117.142 51.4488 102.312 53.3288C98.7623 50.3388 91.5923 54.6888 102.312 53.3288V53.3388Z" fill="#FAFAFA"/>
<path d="M96.8522 55.4488C85.0822 55.0888 74.8922 50.8488 68.9322 43.6688C64.3622 38.1688 62.8122 31.4388 64.5722 24.7388C66.0922 18.9288 70.9522 13.7088 77.5622 10.7688C84.7822 7.55885 92.7022 7.65885 99.2822 11.0688C107.842 15.4988 107.952 21.4188 108.042 26.1788C108.132 31.1588 108.212 35.0888 117.172 38.1788C118.922 38.7788 119.862 40.5788 119.622 42.8788C119.102 47.8988 113.552 53.9288 102.572 55.3188C102.572 55.3188 102.562 55.3188 102.552 55.3188C101.022 55.5088 99.7722 55.6088 98.7522 55.6088C97.9922 55.6088 97.3722 55.5488 96.8422 55.4388L96.8522 55.4488ZM102.822 51.2488C111.462 49.9288 114.342 45.6388 115.032 44.3188C115.692 43.0488 115.692 42.1888 115.632 41.8688C104.262 37.8588 104.142 31.6888 104.042 26.2388C103.952 21.5988 103.892 17.9388 97.4422 14.6088C91.9422 11.7688 85.2922 11.6988 79.1922 14.4088C73.7622 16.8288 69.6422 21.1688 68.4422 25.7388C67.0022 31.2388 68.2322 36.5588 72.0122 41.1088C76.9922 47.1088 85.4722 50.7588 95.4322 51.3788C95.5222 51.2988 95.6122 51.2288 95.7122 51.1488C96.4722 50.6088 97.7222 50.2488 99.0822 50.2488C100.312 50.2488 101.652 50.5388 102.812 51.2388L102.822 51.2488Z" fill="#131315"/>
<path d="M105.791 54.8152C106.547 45.7893 101.651 38.0107 94.8537 37.4412C88.0568 36.8716 81.9337 43.7268 81.1773 52.7526C80.421 61.7785 85.3178 69.5571 92.1147 70.1266C98.9116 70.6962 105.035 63.841 105.791 54.8152Z" fill="#FAFAFA"/>
<path d="M91.9823 72.1288C84.1023 71.4688 78.3723 62.7088 79.2223 52.5988C80.0723 42.4888 87.1723 34.8088 95.0623 35.4688C102.942 36.1288 108.672 44.8888 107.822 54.9988C107.422 59.7888 105.622 64.1988 102.742 67.4188C99.9822 70.5088 96.5323 72.1788 92.9523 72.1788C92.6323 72.1788 92.3023 72.1688 91.9823 72.1388V72.1288ZM83.2023 52.9288C82.5423 60.8388 86.6223 67.6588 92.3123 68.1388C94.9723 68.3588 97.6023 67.1588 99.7523 64.7388C102.052 62.1688 103.492 58.5888 103.822 54.6488C104.482 46.7388 100.402 39.9188 94.7122 39.4388C94.5022 39.4188 94.2922 39.4088 94.0822 39.4088C88.6522 39.4088 83.8323 45.2988 83.1923 52.9188L83.2023 52.9288Z" fill="#131315"/>
<path d="M97.3121 69.6088C96.5421 69.8888 95.7321 70.0688 94.8921 70.1388C88.0921 70.7088 81.9721 63.8588 81.2121 54.8288C80.5921 47.3988 83.7921 40.8288 88.7421 38.4088L97.3121 69.6088Z" fill="#131315"/>
<path d="M88.2622 59.2688L94.8722 53.0188L97.1722 61.1188L88.2622 59.2688Z" fill="#FAFAFA"/>
<path d="M115.161 70.1811C121.958 69.6115 126.855 61.8329 126.098 52.8071C125.342 43.7813 119.219 36.9261 112.422 37.4956C105.625 38.0652 100.728 45.8438 101.484 54.8696C102.241 63.8955 108.364 70.7506 115.161 70.1811Z" fill="#FAFAFA"/>
<path d="M99.4923 54.9888C98.6423 44.8788 104.372 36.1188 112.252 35.4588C120.132 34.7988 127.242 42.4888 128.092 52.5888C128.492 57.3788 127.452 62.0288 125.152 65.6788C122.742 69.5088 119.252 71.7888 115.322 72.1188C115.002 72.1488 114.692 72.1588 114.372 72.1588C106.872 72.1588 100.292 64.6888 99.4823 54.9888H99.4923ZM112.592 39.4488C106.902 39.9288 102.822 46.7488 103.482 54.6588C104.142 62.5688 109.302 68.6088 115.002 68.1388C117.652 67.9188 120.052 66.2888 121.772 63.5488C123.612 60.6288 124.442 56.8588 124.102 52.9288C123.462 45.3088 118.652 39.4188 113.212 39.4188C113.002 39.4188 112.792 39.4188 112.582 39.4488H112.592Z" fill="#131315"/>
<path d="M117.582 69.6088C116.812 69.8888 116.002 70.0688 115.162 70.1388C108.362 70.7088 102.242 63.8588 101.482 54.8288C100.862 47.3988 104.062 40.8288 109.012 38.4088L117.582 69.6088Z" fill="#131315"/>
<path d="M108.532 59.2688L115.142 53.0188L117.442 61.1188L108.532 59.2688Z" fill="#FAFAFA"/>
<path d="M167.692 34.1388C166.482 32.8688 164.772 32.1388 162.972 32.1888C160.582 32.2588 158.442 33.6888 157.472 35.8788L139.052 81.3288C137.642 84.4688 139.052 88.1688 142.202 89.5688C145.342 90.9788 149.032 89.5688 150.442 86.4188L157.402 68.5888L167.882 60.8988L177.542 79.3688C179.142 82.4188 182.912 83.5988 185.962 82.0088C189.012 80.4088 190.192 76.6388 188.602 73.5888L168.702 35.5288C168.432 35.0088 168.092 34.5488 167.702 34.1288L167.692 34.1388Z" fill="#FAFAFA"/>
<path d="M141.372 91.3888C139.362 90.4888 137.822 88.8588 137.042 86.8088C136.262 84.7488 136.322 82.5188 137.192 80.5688L155.642 35.0588C156.922 32.1988 159.772 30.2888 162.912 30.1888C165.252 30.1288 167.532 31.0588 169.152 32.7588C169.672 33.3088 170.112 33.9288 170.462 34.5988L190.362 72.6588C191.382 74.6088 191.582 76.8388 190.922 78.9388C190.262 81.0388 188.832 82.7588 186.882 83.7788C182.852 85.8788 177.872 84.3188 175.762 80.2988L167.182 63.8888L159.052 69.8588L152.262 87.2388C151.362 89.2488 149.732 90.7888 147.682 91.5688C146.732 91.9288 145.732 92.1188 144.742 92.1188C143.602 92.1188 142.452 91.8788 141.382 91.3988L141.372 91.3888ZM168.322 58.9588C168.892 59.0888 169.372 59.4588 169.642 59.9788L179.302 78.4488C180.382 80.5188 182.952 81.3288 185.022 80.2388C186.022 79.7188 186.762 78.8288 187.102 77.7488C187.442 76.6688 187.342 75.5188 186.812 74.5188L166.912 36.4588C166.732 36.1088 166.502 35.7888 166.232 35.5088C165.402 34.6288 164.242 34.1488 163.022 34.1888C161.412 34.2388 159.942 35.2188 159.312 36.6288L140.862 82.1388C140.402 83.1688 140.372 84.3188 140.772 85.3788C141.172 86.4388 141.962 87.2688 143.002 87.7388C144.032 88.1988 145.192 88.2288 146.242 87.8288C147.302 87.4288 148.132 86.6288 148.562 85.6888L155.522 67.8588C155.662 67.5088 155.892 67.1988 156.202 66.9688L166.682 59.2788C167.032 59.0288 167.442 58.8888 167.862 58.8888C168.012 58.8888 168.162 58.9088 168.312 58.9388L168.322 58.9588Z" fill="#131315"/>
<path d="M155.522 65.0188L161.022 75.5288C162.622 78.5788 166.392 79.7588 169.442 78.1688C172.492 76.5688 173.672 72.7988 172.082 69.7488L166.072 58.2488" fill="#FAFAFA"/>
<path d="M166.552 80.8788C167.862 80.8788 169.162 80.5588 170.362 79.9388C174.392 77.8388 175.952 72.8488 173.842 68.8188L167.832 57.3188C167.322 56.3388 166.112 55.9588 165.132 56.4688C164.152 56.9788 163.772 58.1888 164.282 59.1688L170.292 70.6688C171.372 72.7388 170.572 75.3088 168.502 76.3888C167.502 76.9088 166.352 77.0188 165.272 76.6788C164.192 76.3388 163.312 75.5988 162.782 74.5988L157.282 64.0888C156.772 63.1088 155.562 62.7288 154.582 63.2388C153.602 63.7488 153.222 64.9588 153.732 65.9388L159.232 76.4488C160.252 78.3988 161.972 79.8388 164.072 80.4888C164.882 80.7388 165.712 80.8688 166.542 80.8688L166.552 80.8788Z" fill="#131315"/>
<path d="M161.022 61.5288C162.622 64.5788 166.392 65.7588 169.442 64.1688C172.492 62.5688 173.672 58.7988 172.082 55.7488L166.252 44.5988" fill="#FAFAFA"/>
<path d="M166.552 66.8788C167.862 66.8788 169.162 66.5588 170.362 65.9388C174.392 63.8388 175.952 58.8488 173.842 54.8188L168.012 43.6688C167.502 42.6888 166.292 42.3088 165.312 42.8188C164.332 43.3288 163.952 44.5388 164.462 45.5188L170.292 56.6688C171.372 58.7388 170.572 61.3088 168.502 62.3888C167.502 62.9088 166.352 63.0188 165.272 62.6788C164.192 62.3388 163.312 61.5988 162.782 60.5988C162.272 59.6188 161.062 59.2388 160.082 59.7488C159.102 60.2588 158.722 61.4688 159.232 62.4488C160.252 64.3988 161.972 65.8388 164.072 66.4888C164.882 66.7388 165.712 66.8688 166.542 66.8688L166.552 66.8788Z" fill="#131315"/>
<path d="M143.492 57.6888C149.738 57.6888 154.802 52.6251 154.802 46.3788C154.802 40.1324 149.738 35.0688 143.492 35.0688C137.246 35.0688 132.182 40.1324 132.182 46.3788C132.182 52.6251 137.246 57.6888 143.492 57.6888Z" fill="#FAFAFA"/>
<path d="M130.182 46.3788C130.182 39.0388 136.152 33.0688 143.492 33.0688C150.832 33.0688 156.802 39.0388 156.802 46.3788C156.802 53.7188 150.832 59.6888 143.492 59.6888C136.152 59.6888 130.182 53.7188 130.182 46.3788ZM134.182 46.3788C134.182 51.5088 138.352 55.6888 143.492 55.6888C148.632 55.6888 152.802 51.5188 152.802 46.3788C152.802 41.2388 148.632 37.0688 143.492 37.0688C138.352 37.0688 134.182 41.2388 134.182 46.3788Z" fill="#131315"/>
<path d="M143.732 71.9088C146.232 69.4988 147.782 66.1188 147.782 62.3688C147.782 55.0488 141.852 49.1088 134.522 49.1088C127.202 49.1088 121.262 55.0388 121.262 62.3688C121.262 63.8688 121.512 65.3188 121.972 66.6688" fill="#FAFAFA"/>
<path d="M143.732 73.9088C144.232 73.9088 144.732 73.7188 145.122 73.3488C148.132 70.4488 149.782 66.5488 149.782 62.3688C149.782 53.9588 142.942 47.1088 134.522 47.1088C126.112 47.1088 119.262 53.9488 119.262 62.3688C119.262 64.0588 119.542 65.7288 120.082 67.3188C120.442 68.3588 121.582 68.9188 122.622 68.5588C123.662 68.1988 124.222 67.0588 123.862 66.0188C123.462 64.8488 123.262 63.6188 123.262 62.3688C123.262 56.1588 128.312 51.1088 134.522 51.1088C140.732 51.1088 145.782 56.1588 145.782 62.3688C145.782 65.4488 144.562 68.3288 142.342 70.4688C141.552 71.2388 141.522 72.4988 142.292 73.2988C142.682 73.7088 143.212 73.9088 143.732 73.9088Z" fill="#131315"/>
<path d="M106.532 82.9388C113.332 82.9388 130.872 80.9788 135.992 61.3388C136.272 60.2688 135.632 59.1788 134.562 58.8988C133.492 58.6188 132.402 59.2588 132.122 60.3288C126.642 81.3188 105.212 78.9588 104.302 78.8488C103.202 78.7088 102.212 79.4988 102.072 80.5888C101.942 81.6888 102.712 82.6788 103.812 82.8188C103.862 82.8188 104.882 82.9388 106.532 82.9388Z" fill="#131315"/>
<path d="M103.682 63.9588L92.6222 67.7688C90.3922 68.5388 89.1922 70.9888 89.9622 73.2188C90.7322 75.4488 93.1822 76.6488 95.4122 75.8788L102.942 73.2788" fill="#FAFAFA"/>
<path d="M94.0222 78.1188C94.7022 78.1188 95.3922 78.0088 96.0622 77.7788L103.592 75.1788C104.632 74.8188 105.192 73.6788 104.832 72.6388C104.472 71.5988 103.332 71.0388 102.292 71.3988L94.7623 73.9988C93.5723 74.4088 92.2623 73.7688 91.8523 72.5788C91.4423 71.3888 92.0822 70.0788 93.2722 69.6688L104.332 65.8588C105.372 65.4988 105.932 64.3588 105.572 63.3188C105.212 62.2788 104.072 61.7188 103.032 62.0788L91.9722 65.8888C88.6922 67.0188 86.9423 70.6088 88.0723 73.8788C88.9723 76.4788 91.4122 78.1188 94.0222 78.1188Z" fill="#131315"/>
<path d="M161.812 126.309C163.562 126.309 165.272 125.569 166.472 124.219C168.062 122.429 168.492 119.899 167.572 117.689L147.212 73.0788C145.892 69.8988 142.242 68.3788 139.062 69.6988C135.882 71.0188 134.362 74.6688 135.682 77.8488L151.122 110.569L122.182 102.379C118.862 101.439 115.422 103.369 114.482 106.679C113.542 109.999 115.472 113.439 118.782 114.379L160.112 126.079C160.672 126.239 161.242 126.319 161.812 126.319V126.309Z" fill="#FAFAFA"/>
<path d="M159.572 127.999L118.242 116.299C113.872 115.059 111.322 110.499 112.562 106.129C113.802 101.759 118.362 99.2088 122.732 100.449L147.452 107.439L133.852 78.6088C132.112 74.4088 134.122 69.5888 138.312 67.8488C140.342 67.0088 142.582 67.0088 144.612 67.8488C146.642 68.6888 148.232 70.2788 149.042 72.2488L169.432 116.929C170.632 119.829 170.062 123.209 167.972 125.559C166.412 127.319 164.162 128.319 161.812 128.319C161.052 128.319 160.302 128.209 159.572 128.009V127.999ZM139.842 71.5388C137.682 72.4288 136.652 74.9188 137.502 76.9888L152.942 109.709C153.272 110.419 153.162 111.259 152.662 111.859C152.152 112.459 151.342 112.709 150.592 112.489L121.652 104.299C119.402 103.659 117.052 104.969 116.422 107.219C115.782 109.469 117.102 111.819 119.342 112.449L160.672 124.149C162.202 124.579 163.932 124.079 164.992 122.889C166.062 121.679 166.362 119.939 165.772 118.519L145.382 73.8388C144.952 72.7888 144.132 71.9788 143.092 71.5488C142.572 71.3288 142.022 71.2188 141.472 71.2188C140.922 71.2188 140.372 71.3288 139.852 71.5388H139.842Z" fill="#131315"/>
<path d="M97.4822 129.219C95.7322 129.219 94.0222 129.959 92.8222 131.309C91.2322 133.099 90.8022 135.629 91.7222 137.839L112.082 182.449C113.402 185.629 117.052 187.149 120.232 185.829C123.412 184.509 124.932 180.859 123.612 177.679L108.172 144.959L148.112 157.149C151.432 158.089 154.872 156.159 155.812 152.849C156.752 149.529 143.822 142.089 140.512 141.149L99.1822 129.449C98.6222 129.289 98.0522 129.209 97.4822 129.209V129.219Z" fill="#131315"/>
<path d="M114.692 187.679C112.662 186.839 111.072 185.249 110.262 183.279L89.8722 138.599C88.6722 135.699 89.2422 132.319 91.3322 129.969C92.8922 128.209 95.1422 127.209 97.4922 127.209C98.2522 127.209 99.0022 127.319 99.7322 127.519L141.062 139.219C143.102 139.799 147.412 142.089 150.882 144.449C157.942 149.239 158.182 151.849 157.742 153.389C156.502 157.759 151.942 160.309 147.532 159.059L111.912 148.189L125.462 176.919C127.202 181.119 125.192 185.949 121.002 187.679C119.982 188.099 118.922 188.309 117.852 188.309C116.782 188.309 115.712 188.099 114.692 187.679ZM108.752 143.049L148.652 155.229C150.852 155.849 153.142 154.609 153.842 152.459C153.142 150.209 143.252 143.999 139.962 143.079L98.6322 131.379C97.1022 130.939 95.3722 131.439 94.3122 132.639C93.2422 133.849 92.9422 135.589 93.5322 137.009L113.922 181.689C114.352 182.739 115.172 183.549 116.212 183.979C117.262 184.409 118.412 184.409 119.452 183.979C121.612 183.089 122.642 180.599 121.782 178.529L106.342 145.809C106.002 145.089 106.122 144.249 106.642 143.649C107.032 143.199 107.582 142.959 108.152 142.959C108.342 142.959 108.542 142.989 108.732 143.049H108.752Z" fill="#131315"/>
<path d="M157.052 136.829V133.829L136.412 133.599L111.182 126.459C110.622 126.299 110.052 126.219 109.482 126.219C107.732 126.219 106.022 126.959 104.822 128.309C103.232 130.099 102.802 132.629 103.722 134.839L124.082 179.449C125.402 182.629 129.052 184.149 132.232 182.829C135.412 181.509 136.932 177.859 135.612 174.679L120.172 141.959L149.112 150.149C165.052 155.819 169.052 139.819 157.052 136.819" fill="#131315"/>
<path d="M126.692 184.679C124.662 183.839 123.072 182.249 122.262 180.279L101.872 135.599C100.672 132.699 101.242 129.319 103.332 126.969C104.892 125.209 107.142 124.209 109.492 124.209C110.252 124.209 111.002 124.319 111.732 124.519L136.712 131.589L157.082 131.819C158.182 131.829 159.062 132.719 159.062 133.819V135.339C162.572 136.619 164.992 139.079 165.782 142.239C166.542 145.279 165.562 148.499 163.202 150.639C159.882 153.659 154.532 154.169 148.512 152.049L123.862 145.069L137.462 173.909C139.202 178.109 137.192 182.939 133.002 184.669C131.982 185.089 130.922 185.299 129.852 185.299C128.782 185.299 127.712 185.089 126.692 184.669V184.679ZM120.712 140.039L149.652 148.229C149.652 148.229 149.732 148.259 149.782 148.269C154.382 149.909 158.292 149.699 160.502 147.689C161.782 146.519 162.302 144.859 161.892 143.219C161.362 141.099 159.412 139.479 156.562 138.759C155.672 138.539 155.042 137.739 155.042 136.819V135.799L136.382 135.589C136.202 135.589 136.032 135.559 135.862 135.509L110.632 128.369C109.092 127.929 107.372 128.439 106.312 129.629C105.242 130.839 104.942 132.579 105.532 133.999L125.922 178.679C126.352 179.729 127.172 180.539 128.212 180.969C129.252 181.399 130.412 181.399 131.452 180.969C132.502 180.539 133.312 179.719 133.742 178.679C134.172 177.629 134.172 176.479 133.782 175.529L118.342 142.809C118.012 142.099 118.122 141.259 118.622 140.659C119.012 140.199 119.572 139.949 120.152 139.949C120.332 139.949 120.512 139.969 120.692 140.029L120.712 140.039Z" fill="#131315"/>
<path d="M149.112 151.159C149.552 151.159 149.952 150.869 150.072 150.429C150.222 149.899 149.912 149.349 149.382 149.199L120.442 141.009C119.912 140.859 119.362 141.169 119.212 141.699C119.062 142.229 119.372 142.779 119.902 142.929L148.842 151.119C148.932 151.149 149.022 151.159 149.112 151.159Z" fill="#FAFAFA"/>
<path d="M119.462 170.339C119.602 170.339 119.742 170.309 119.872 170.249C120.372 170.019 120.592 169.429 120.362 168.929L104.622 134.439C104.392 133.939 103.802 133.719 103.302 133.949C102.802 134.179 102.582 134.769 102.812 135.269L118.552 169.759C118.722 170.129 119.082 170.339 119.462 170.339Z" fill="#FAFAFA"/>
<path d="M126.982 117.569L130.472 108.739C132.322 102.339 129.452 96.6788 123.052 94.8288L120.612 95.8188L112.002 90.6488C105.602 88.7988 100.802 90.1788 99.3822 95.1688L98.9922 96.5088C98.4722 98.2888 98.7322 101.519 102.162 104.459C102.162 104.459 100.742 103.029 99.7722 101.619C99.0522 100.579 96.9222 103.649 96.5522 104.949L96.2322 106.049C95.5822 108.299 97.4522 111.679 99.1822 113.059L98.2322 112.109C97.6222 112.779 96.6522 113.899 96.3822 114.829C95.4322 118.099 97.3322 121.559 100.612 122.509L103.812 123.439L105.662 123.979L107.652 124.559L109.812 125.189C116.212 127.039 123.782 125.189 126.972 117.599L126.982 117.569Z" fill="#FAFAFA"/>
<path d="M109.262 127.079L100.052 124.409C97.9521 123.799 96.2221 122.409 95.1621 120.489C94.1021 118.569 93.8521 116.349 94.4621 114.259C94.6921 113.479 95.1622 112.699 95.7022 111.999C94.4922 110.059 93.7021 107.599 94.3221 105.479L94.6422 104.389C94.8322 103.719 95.7922 101.699 97.1422 100.449C96.6622 98.7788 96.7221 97.2088 97.0821 95.9488L97.4721 94.6188C98.1721 92.1488 99.6321 90.2488 101.692 89.1088C104.432 87.5888 108.202 87.4588 112.572 88.7188C112.742 88.7688 112.902 88.8388 113.042 88.9288L120.792 93.5888L122.302 92.9788C122.722 92.8088 123.182 92.7888 123.612 92.9088C130.962 95.0388 134.572 101.779 132.392 109.299C132.372 109.359 132.352 109.419 132.332 109.479L128.842 118.309C128.842 118.309 128.832 118.339 128.822 118.349C125.972 125.119 120.182 127.829 114.472 127.829C112.702 127.829 110.932 127.569 109.262 127.079ZM128.572 108.099C130.032 102.939 127.902 98.6388 123.132 96.9588L121.362 97.6788C120.782 97.9088 120.122 97.8588 119.582 97.5388L111.202 92.4988C107.982 91.6088 105.362 91.6388 103.612 92.6088C102.482 93.2388 101.722 94.2488 101.302 95.7188L100.912 97.0588C100.812 97.3988 100.512 98.7788 101.452 100.519C102.312 101.749 103.572 103.039 103.592 103.049C104.342 103.809 104.362 105.039 103.632 105.819C102.902 106.599 101.682 106.669 100.862 105.969C100.202 105.409 99.6422 104.819 99.1522 104.229C98.8422 104.689 98.5522 105.199 98.4622 105.489L98.1422 106.579C97.8722 107.519 98.6122 109.399 99.6422 110.679L100.582 111.619C101.332 112.369 101.372 113.579 100.662 114.369C100.112 114.989 99.2522 115.189 98.5122 114.929C98.3722 115.159 98.3121 115.299 98.2921 115.369C97.9821 116.439 98.1122 117.569 98.6522 118.559C99.1922 119.549 100.082 120.259 101.152 120.569L110.362 123.239C115.312 124.669 122.142 123.849 125.122 116.809L128.562 108.089L128.572 108.099Z" fill="#131315"/>
<path d="M121.832 96.6788L112.082 90.5288L112.462 89.5688C113.412 87.1688 116.072 85.9488 118.372 86.8588L125.792 89.7988C128.092 90.7088 135.832 97.4288 128.662 113.559" fill="#FAFAFA"/>
<path d="M128.662 115.559C129.432 115.559 130.162 115.119 130.492 114.369C134.792 104.689 133.882 98.2388 132.372 94.5388C130.722 90.5088 127.922 88.4888 126.532 87.9388L119.112 84.9988C115.782 83.6788 111.972 85.3988 110.612 88.8288L110.232 89.7888C109.882 90.6888 110.212 91.7088 111.022 92.2188L120.772 98.3688C121.702 98.9588 122.942 98.6788 123.532 97.7488C124.122 96.8188 123.842 95.5788 122.912 94.9888L114.622 89.7588C115.302 88.7488 116.552 88.2788 117.652 88.7188L125.072 91.6588C125.632 91.8788 127.512 93.1688 128.692 96.0488C129.912 99.0388 130.582 104.359 126.862 112.749C126.412 113.759 126.862 114.939 127.882 115.389C128.142 115.509 128.422 115.559 128.692 115.559H128.662Z" fill="#131315"/>
<path d="M155.052 66.8288C155.862 66.8288 156.622 66.3288 156.922 65.5288L162.922 49.5288C163.312 48.4988 162.782 47.3388 161.752 46.9588C160.722 46.5688 159.562 47.0988 159.182 48.1288L153.182 64.1288C152.792 65.1588 153.322 66.3188 154.352 66.6988C154.582 66.7888 154.822 66.8288 155.052 66.8288Z" fill="#131315"/>
<path d="M20.5921 57.8588L12.7721 52.4188C7.23212 48.5688 13.3121 45.7288 17.1721 40.1888L17.6321 25.5188C17.6321 25.5188 19.5621 21.8588 20.7421 21.3788C25.0121 19.6288 31.0421 22.0788 35.3821 25.0888L40.7721 28.8388C46.3121 32.6888 46.9621 41.4288 43.1121 46.9688L37.6721 54.7888C33.8221 60.3288 26.1321 61.7088 20.5921 57.8588Z" fill="#FAFAFA"/>
<path d="M19.4422 59.4988L11.6222 54.0588C9.73218 52.7488 8.73219 51.3288 8.56219 49.7288C8.28219 47.1688 10.1522 45.1588 12.3122 42.8388C13.2822 41.7888 14.2922 40.7188 15.1822 39.5088L15.6222 25.4488C15.6222 25.1488 15.7122 24.8488 15.8522 24.5788C16.8922 22.6188 18.4422 20.1488 19.9722 19.5188C26.3322 16.9088 34.2422 21.8588 36.5122 23.4388L41.9022 27.1888C48.1422 31.5288 49.4722 41.2988 44.7422 48.1088L39.3022 55.9288C36.5322 59.9088 32.0822 62.0488 27.5622 62.0488C24.7522 62.0488 21.9122 61.2188 19.4322 59.4988H19.4422ZM21.5922 23.1988C21.1922 23.5288 20.3222 24.7988 19.6122 26.0588L19.1622 40.2488C19.1522 40.6388 19.0222 41.0088 18.8022 41.3288C17.6622 42.9588 16.3822 44.3488 15.2422 45.5688C14.0022 46.8988 12.4622 48.5588 12.5422 49.3088C12.5522 49.4388 12.6922 49.9388 13.9122 50.7788L21.7322 56.2188C26.3822 59.4488 32.7922 58.2988 36.0222 53.6488L41.4622 45.8288C43.0722 43.5188 43.8022 40.4788 43.4722 37.4888C43.1322 34.4588 41.7722 31.9688 39.6222 30.4788L34.2322 26.7288C31.3522 24.7288 27.2922 22.7788 23.9522 22.7788C23.1022 22.7788 22.3022 22.9088 21.5822 23.1788L21.5922 23.1988Z" fill="#131315"/>
<path d="M5.27225 58.4988L2.05225 76.8288L17.5822 67.0688L56.8823 10.5588L44.5623 1.99878L5.27225 58.4988Z" fill="#FAFAFA"/>
<path d="M0.942186 78.4888C0.282186 78.0488 -0.0478204 77.2588 0.0921796 76.4788L3.31218 58.1488C3.36218 57.8588 3.4722 57.5888 3.6422 57.3488L42.9222 0.858808C43.5522 -0.0511925 44.8022 -0.271192 45.7022 0.358808L58.0122 8.91881C58.4522 9.21881 58.7422 9.68881 58.8422 10.2088C58.9322 10.7288 58.8222 11.2688 58.5122 11.7088L19.2222 68.2088C19.0722 68.4288 18.8722 68.6188 18.6422 68.7588L3.11217 78.5188C2.78217 78.7188 2.41217 78.8288 2.05217 78.8288C1.66217 78.8288 1.27218 78.7188 0.932176 78.4888H0.942186ZM54.0922 11.0588L45.0622 4.77881L7.16219 59.2788L4.80217 72.7388L16.1722 65.5888L54.0922 11.0588Z" fill="#131315"/>
<path d="M10.1423 64.4088C10.7723 64.4088 11.4023 64.1088 11.7923 63.5488L47.7923 11.5488C48.4223 10.6388 48.1923 9.3988 47.2823 8.7688C46.3723 8.1388 45.1323 8.3688 44.5023 9.2788L8.50226 61.2788C7.87226 62.1888 8.10227 63.4288 9.01227 64.0588C9.36227 64.2988 9.75225 64.4188 10.1522 64.4188L10.1423 64.4088Z" fill="#131315"/>
<path d="M23.6035 44.6364L16.8709 39.9554C14.2 38.0984 10.5295 38.7582 8.67256 41.4291L8.23301 42.0613C6.37603 44.7321 7.03579 48.4026 9.70663 50.2596L16.4392 54.9406C19.1101 56.7976 22.7806 56.1378 24.6376 53.467L25.0771 52.8348C26.9341 50.1639 26.2743 46.4934 23.6035 44.6364Z" fill="#FAFAFA"/>
<path d="M15.2722 56.5988L8.54222 51.9188C4.97222 49.4388 4.08222 44.5088 6.57222 40.9388L7.01222 40.2988C8.21222 38.5788 10.0122 37.4188 12.0922 37.0488C14.1722 36.6688 16.2622 37.1288 17.9922 38.3288L24.7222 43.0088C26.4422 44.2088 27.6022 46.0088 27.9722 48.0888C28.3422 50.1688 27.8922 52.2588 26.6922 53.9888L26.2522 54.6288C24.7222 56.8288 22.2622 58.0088 19.7622 58.0088C18.2122 58.0088 16.6422 57.5488 15.2722 56.5988ZM10.2922 42.5788L9.85221 43.2188C9.26221 44.0688 9.04221 45.0988 9.22221 46.1288C9.40221 47.1588 9.97222 48.0488 10.8222 48.6388L17.5522 53.3188C19.3122 54.5388 21.7422 54.1088 22.9622 52.3488L23.4022 51.7088C23.9922 50.8588 24.2122 49.8288 24.0322 48.7988C23.8522 47.7688 23.2822 46.8788 22.4322 46.2888L15.7022 41.6088C15.0222 41.1388 14.2522 40.9188 13.4922 40.9188C12.2622 40.9188 11.0522 41.4988 10.2922 42.5888V42.5788Z" fill="#131315"/>
<path d="M28.7903 37.1697L19.9065 30.993C17.2357 29.136 13.5652 29.7958 11.7082 32.4667L11.2686 33.0989C9.41168 35.7697 10.0714 39.4402 12.7423 41.2972L21.626 47.4739C24.2969 49.3308 27.9674 48.6711 29.8244 46.0002L30.2639 45.368C32.1209 42.6972 31.4611 39.0267 28.7903 37.1697Z" fill="#FAFAFA"/>
<path d="M20.4523 49.1388L11.5722 42.9588C8.00225 40.4788 7.11224 35.5488 9.60224 31.9788L10.0422 31.3388C11.2422 29.6188 13.0422 28.4588 15.1222 28.0888C17.2022 27.7188 19.2922 28.1688 21.0222 29.3688L29.9022 35.5488C33.4722 38.0288 34.3622 42.9588 31.8722 46.5288L31.4322 47.1688C29.9022 49.3688 27.4422 50.5488 24.9422 50.5488C23.3922 50.5488 21.8223 50.0888 20.4523 49.1388ZM15.8322 32.0288C14.8022 32.2088 13.9122 32.7788 13.3222 33.6288L12.8822 34.2688C11.6622 36.0288 12.0922 38.4588 13.8522 39.6788L22.7322 45.8588C24.4922 47.0788 26.9223 46.6488 28.1423 44.8888L28.5822 44.2488C29.8022 42.4888 29.3722 40.0588 27.6122 38.8388L18.7322 32.6588C18.0822 32.2088 17.3122 31.9688 16.5322 31.9688C16.3022 31.9688 16.0622 31.9888 15.8322 32.0288Z" fill="#131315"/>
<path d="M27.2922 25.5888L32.4122 29.0788C34.8422 30.7688 38.2022 33.9388 36.2222 36.7788L35.4122 37.9388C33.4422 40.7688 29.8422 41.7088 27.4022 40.0188L17.7022 33.2688C15.2722 31.5788 14.8922 27.8688 16.8622 25.0388C16.8622 25.0388 19.0422 21.8388 22.0422 20.8388C25.0422 19.8388 29.0422 21.8388 29.0422 21.8388" fill="#FAFAFA"/>
<path d="M30.1722 42.8488C32.7322 42.8488 35.3721 41.5088 37.0621 39.0688L37.8721 37.9088C40.0621 34.7488 38.4521 30.8388 33.5621 27.4288L28.4222 23.9288C27.5122 23.3088 26.2622 23.5488 25.6422 24.4588C25.0222 25.3688 25.2522 26.6188 26.1722 27.2388L31.2921 30.7288C31.7421 31.0388 35.7821 33.9188 34.5921 35.6288L33.7821 36.7888C32.4621 38.6888 30.0621 39.4188 28.5621 38.3688L18.8621 31.6188C17.3521 30.5688 17.2021 28.0788 18.5221 26.1688C19.0421 25.4188 20.7821 23.3588 22.6921 22.7288C24.5021 22.1288 27.3221 23.1988 28.1621 23.6188C29.1521 24.1088 30.3521 23.7088 30.8421 22.7288C31.3321 21.7488 30.9322 20.5388 29.9522 20.0488C29.4622 19.8088 25.1022 17.7088 21.4222 18.9388C17.8822 20.1188 15.4821 23.5288 15.2221 23.9088C12.6321 27.6388 13.2321 32.5788 16.5721 34.9088L26.2721 41.6588C27.4421 42.4688 28.7922 42.8588 30.1722 42.8588V42.8488Z" fill="#131315"/>
<path d="M27.2922 25.5888L32.4122 29.0788C34.8422 30.7688 38.2022 33.9388 36.2222 36.7788L35.4122 37.9388C33.4422 40.7688 29.8422 41.7088 27.4022 40.0188L17.7022 33.2688C15.2722 31.5788 14.8922 27.8688 16.8622 25.0388C16.8622 25.0388 19.0422 21.8388 22.0422 20.8388C25.0422 19.8388 29.0422 21.8388 29.0422 21.8388" fill="#FAFAFA"/>
<path d="M30.1722 42.8488C32.7322 42.8488 35.3721 41.5088 37.0621 39.0688L37.8721 37.9088C40.0621 34.7488 38.4521 30.8388 33.5621 27.4288L28.4222 23.9288C27.5122 23.3088 26.2622 23.5488 25.6422 24.4588C25.0222 25.3688 25.2522 26.6188 26.1722 27.2388L31.2921 30.7288C31.7421 31.0388 35.7821 33.9188 34.5921 35.6288L33.7821 36.7888C32.4621 38.6888 30.0621 39.4188 28.5621 38.3688L18.8621 31.6188C17.3521 30.5688 17.2021 28.0788 18.5221 26.1688C19.0421 25.4188 20.7821 23.3588 22.6921 22.7288C24.5021 22.1288 27.3221 23.1988 28.1621 23.6188C29.1521 24.1088 30.3521 23.7088 30.8421 22.7288C31.3321 21.7488 30.9322 20.5388 29.9522 20.0488C29.4622 19.8088 25.1022 17.7088 21.4222 18.9388C17.8822 20.1188 15.4821 23.5288 15.2221 23.9088C12.6321 27.6388 13.2321 32.5788 16.5721 34.9088L26.2721 41.6588C27.4421 42.4688 28.7922 42.8588 30.1722 42.8588V42.8488Z" fill="#131315"/>
<path d="M27.2922 25.5888L32.4122 29.0788C34.8422 30.7688 38.2022 33.9388 36.2222 36.7788L35.4122 37.9388C33.4422 40.7688 29.8422 41.7088 27.4022 40.0188L17.7022 33.2688C15.2722 31.5788 14.8922 27.8688 16.8622 25.0388C16.8622 25.0388 19.0422 21.8388 22.0422 20.8388C25.0422 19.8388 29.0422 21.8388 29.0422 21.8388" fill="#FAFAFA"/>
<path d="M30.1722 42.8488C32.7322 42.8488 35.3721 41.5088 37.0621 39.0688L37.8721 37.9088C40.0621 34.7488 38.4521 30.8388 33.5621 27.4288L28.4222 23.9288C27.5122 23.3088 26.2622 23.5488 25.6422 24.4588C25.0222 25.3688 25.2522 26.6188 26.1722 27.2388L31.2921 30.7288C31.7421 31.0388 35.7821 33.9188 34.5921 35.6288L33.7821 36.7888C32.4621 38.6888 30.0621 39.4188 28.5621 38.3688L18.8621 31.6188C17.3521 30.5688 17.2021 28.0788 18.5221 26.1688C19.0421 25.4188 20.7821 23.3588 22.6921 22.7288C24.5021 22.1288 27.3221 23.1988 28.1621 23.6188C29.1521 24.1088 30.3521 23.7088 30.8421 22.7288C31.3321 21.7488 30.9322 20.5388 29.9522 20.0488C29.4622 19.8088 25.1022 17.7088 21.4222 18.9388C17.8822 20.1188 15.4821 23.5288 15.2221 23.9088C12.6321 27.6388 13.2321 32.5788 16.5721 34.9088L26.2721 41.6588C27.4421 42.4688 28.7922 42.8588 30.1722 42.8588V42.8488Z" fill="#131315"/>
<path d="M27.2922 25.5888L32.4122 29.0788C34.8422 30.7688 38.2022 33.9388 36.2222 36.7788L35.4122 37.9388C33.4422 40.7688 29.8422 41.7088 27.4022 40.0188L17.7022 33.2688C15.2722 31.5788 14.8922 27.8688 16.8622 25.0388C16.8622 25.0388 19.0422 21.8388 22.0422 20.8388C25.0422 19.8388 29.0422 21.8388 29.0422 21.8388" fill="#FAFAFA"/>
<path d="M30.1722 42.8488C32.7322 42.8488 35.3721 41.5088 37.0621 39.0688L37.8721 37.9088C40.0621 34.7488 38.4521 30.8388 33.5621 27.4288L28.4222 23.9288C27.5122 23.3088 26.2622 23.5488 25.6422 24.4588C25.0222 25.3688 25.2522 26.6188 26.1722 27.2388L31.2921 30.7288C31.7421 31.0388 35.7821 33.9188 34.5921 35.6288L33.7821 36.7888C32.4621 38.6888 30.0621 39.4188 28.5621 38.3688L18.8621 31.6188C17.3521 30.5688 17.2021 28.0788 18.5221 26.1688C19.0421 25.4188 20.7821 23.3588 22.6921 22.7288C24.5021 22.1288 27.3221 23.1988 28.1621 23.6188C29.1521 24.1088 30.3521 23.7088 30.8421 22.7288C31.3321 21.7488 30.9322 20.5388 29.9522 20.0488C29.4622 19.8088 25.1022 17.7088 21.4222 18.9388C17.8822 20.1188 15.4821 23.5288 15.2221 23.9088C12.6321 27.6388 13.2321 32.5788 16.5721 34.9088L26.2721 41.6588C27.4421 42.4688 28.7922 42.8588 30.1722 42.8588V42.8488Z" fill="#131315"/>
<path d="M31.0422 37.0188C28.0622 41.2988 28.7322 46.9088 32.5222 49.5488C36.3122 52.1888 41.8022 50.8588 44.7822 46.5788C47.7622 42.2988 47.0922 36.6888 43.3022 34.0488C40.0322 31.7788 36.6022 29.8688 34.8022 28.8788C25.8222 23.9788 33.5222 33.4588 31.0422 37.0188Z" fill="#FAFAFA"/>
<path d="M31.3822 51.1888C29.0722 49.5788 27.6022 47.0788 27.2622 44.1288C26.9222 41.2788 27.6822 38.3488 29.4022 35.8688C29.8622 35.1988 29.2722 33.0088 28.9122 31.6888C28.3422 29.5688 27.7422 27.3788 29.3822 26.0888C31.0822 24.7488 33.5622 25.9188 35.7622 27.1088C37.0122 27.7888 40.8222 29.8688 44.4422 32.3888C49.1322 35.6488 50.0222 42.5188 46.4222 47.6988C44.0922 51.0488 40.4522 52.8788 36.9022 52.8788C34.9522 52.8788 33.0322 52.3288 31.3722 51.1688L31.3822 51.1888ZM32.7722 30.6488C33.4122 33.0188 34.2122 35.9588 32.6822 38.1588C31.5222 39.8288 31.0022 41.7788 31.2322 43.6588C31.4422 45.4488 32.3122 46.9588 33.6622 47.8988C36.5422 49.8988 40.7922 48.7988 43.1422 45.4288C45.4822 42.0588 45.0422 37.6888 42.1622 35.6888C38.7122 33.2888 35.0522 31.2888 33.8422 30.6388C33.3422 30.3688 32.9322 30.1588 32.6022 29.9988C32.6622 30.2288 32.7222 30.4588 32.7822 30.6588L32.7722 30.6488Z" fill="#131315"/>
<path d="M36.7122 37.0788L32.2622 43.4688C30.7422 45.6488 27.7422 46.2188 25.5922 44.7288L24.7322 44.1288C22.5822 42.6388 22.0722 39.6288 23.5922 37.4388L28.5022 30.3788C29.9322 28.3188 32.6822 27.6988 34.7922 28.8888C34.9222 28.9588 42.9322 33.7388 43.0522 33.8188" fill="#FAFAFA"/>
<path d="M28.2821 47.5688C30.4421 47.5688 32.5822 46.5388 33.9122 44.6188L38.3621 38.2288C38.9921 37.3188 38.7721 36.0788 37.8621 35.4488C36.9521 34.8188 35.7121 35.0388 35.0821 35.9488L30.6322 42.3388C29.7422 43.6288 27.9921 43.9588 26.7421 43.0988L25.8822 42.4988C24.6322 41.6288 24.3421 39.8788 25.2421 38.5888L30.1521 31.5388C30.9821 30.3488 32.5922 29.9588 33.8222 30.6488C34.1622 30.8488 41.6121 35.2888 41.9921 35.5288C42.9021 36.1588 44.1121 35.9088 44.7421 35.0088C45.3721 34.0988 45.1121 32.8288 44.2121 32.1988C43.9821 32.0388 35.8522 27.1988 35.7922 27.1688C32.7822 25.4788 28.8721 26.3988 26.8721 29.2588L21.9621 36.3088C19.8121 39.4088 20.5521 43.6588 23.6121 45.7788L24.4721 46.3788C25.6321 47.1888 26.9722 47.5788 28.2922 47.5788L28.2821 47.5688Z" fill="#131315"/>
<path d="M121.052 127.829H154.052C155.152 127.829 156.052 126.929 156.052 125.829C156.052 124.729 155.152 123.829 154.052 123.829H121.052C119.952 123.829 119.052 124.729 119.052 125.829C119.052 126.929 119.952 127.829 121.052 127.829Z" fill="#131315"/>
<path d="M138.052 135.829H157.052C158.152 135.829 159.052 134.929 159.052 133.829C159.052 132.729 158.152 131.829 157.052 131.829H138.052C136.952 131.829 136.052 132.729 136.052 133.829C136.052 134.929 136.952 135.829 138.052 135.829Z" fill="#131315"/>
<path d="M157.412 179.919C157.412 179.919 124.772 246.899 109.072 238.149C98.3222 232.159 107.202 194.039 117.862 182.119C130.922 167.499 131.042 185.419 131.042 185.419L145.322 175.529L157.412 179.919Z" fill="#FAFAFA"/>
<path d="M108.092 239.899C105.272 238.329 103.442 235.129 102.642 230.399C100.332 216.659 107.512 190.689 116.362 180.789C121.092 175.499 124.942 173.509 128.132 174.719C130.992 175.799 132.182 179.159 132.682 181.849L144.182 173.889C144.712 173.519 145.392 173.429 146.002 173.659L158.092 178.059C158.622 178.249 159.052 178.659 159.262 179.189C159.472 179.719 159.452 180.309 159.202 180.819C159.132 180.949 152.562 194.399 144.022 208.319C132.362 227.309 122.682 238.119 115.262 240.459C114.172 240.799 113.132 240.969 112.122 240.969C110.682 240.969 109.342 240.619 108.092 239.929V239.899ZM145.612 177.759L132.182 187.059C131.572 187.479 130.782 187.529 130.122 187.189C129.462 186.849 129.052 186.169 129.042 185.429C129.022 182.869 128.212 179.019 126.722 178.459C125.672 178.059 123.182 179.169 119.352 183.449C111.272 192.489 104.472 217.139 106.592 229.729C106.992 232.119 107.922 235.219 110.042 236.399C111.182 237.029 112.502 237.099 114.062 236.609C126.572 232.679 146.682 196.899 154.622 181.029L145.602 177.749L145.612 177.759Z" fill="#131315"/>
<mask id="mask13_630_8801" style="mask-type:luminance" maskUnits="userSpaceOnUse" x="103" y="173" width="50" height="59">
<path d="M152.052 177.829C152.052 177.829 122.342 238.789 108.052 230.829C98.2722 225.379 106.352 190.689 116.052 179.829C127.942 166.529 128.052 182.829 128.052 182.829L141.052 173.829L152.052 177.829Z" fill="white"/>
</mask>
<g mask="url(#mask13_630_8801)">
<mask id="mask14_630_8801" style="mask-type:luminance" maskUnits="userSpaceOnUse" x="97" y="168" width="21" height="21">
<path d="M117.052 168.829H97.0522V188.829H117.052V168.829Z" fill="white"/>
</mask>
<g mask="url(#mask14_630_8801)">
<path d="M117.052 168.829H107.052V178.829H117.052V168.829Z" fill="#131315"/>
<path d="M107.052 168.829H97.0522V178.829H107.052V168.829Z" fill="#FAFAFA"/>
<path d="M117.052 178.829H107.052V188.829H117.052V178.829Z" fill="#FAFAFA"/>
<path d="M107.052 178.829H97.0522V188.829H107.052V178.829Z" fill="#131315"/>
</g>
<mask id="mask15_630_8801" style="mask-type:luminance" maskUnits="userSpaceOnUse" x="97" y="188" width="21" height="21">
<path d="M117.052 188.829H97.0522V208.829H117.052V188.829Z" fill="white"/>
</mask>
<g mask="url(#mask15_630_8801)">
<path d="M117.052 188.829H107.052V198.829H117.052V188.829Z" fill="#131315"/>
<path d="M107.052 188.829H97.0522V198.829H107.052V188.829Z" fill="#FAFAFA"/>
<path d="M117.052 198.829H107.052V208.829H117.052V198.829Z" fill="#FAFAFA"/>
<path d="M107.052 198.829H97.0522V208.829H107.052V198.829Z" fill="#131315"/>
</g>
<mask id="mask16_630_8801" style="mask-type:luminance" maskUnits="userSpaceOnUse" x="97" y="208" width="21" height="21">
<path d="M117.052 208.829H97.0522V228.829H117.052V208.829Z" fill="white"/>
</mask>
<g mask="url(#mask16_630_8801)">
<path d="M117.052 208.829H107.052V218.829H117.052V208.829Z" fill="#131315"/>
<path d="M107.052 208.829H97.0522V218.829H107.052V208.829Z" fill="#FAFAFA"/>
<path d="M117.052 218.829H107.052V228.829H117.052V218.829Z" fill="#FAFAFA"/>
<path d="M107.052 218.829H97.0522V228.829H107.052V218.829Z" fill="#131315"/>
</g>
<mask id="mask17_630_8801" style="mask-type:luminance" maskUnits="userSpaceOnUse" x="97" y="228" width="21" height="21">
<path d="M117.052 228.829H97.0522V248.829H117.052V228.829Z" fill="white"/>
</mask>
<g mask="url(#mask17_630_8801)">
<path d="M117.052 228.829H107.052V238.829H117.052V228.829Z" fill="#131315"/>
<path d="M107.052 228.829H97.0522V238.829H107.052V228.829Z" fill="#FAFAFA"/>
</g>
<mask id="mask18_630_8801" style="mask-type:luminance" maskUnits="userSpaceOnUse" x="117" y="168" width="21" height="21">
<path d="M137.052 168.829H117.052V188.829H137.052V168.829Z" fill="white"/>
</mask>
<g mask="url(#mask18_630_8801)">
<path d="M137.052 168.829H127.052V178.829H137.052V168.829Z" fill="#131315"/>
<path d="M127.052 168.829H117.052V178.829H127.052V168.829Z" fill="#FAFAFA"/>
<path d="M137.052 178.829H127.052V188.829H137.052V178.829Z" fill="#FAFAFA"/>
<path d="M127.052 178.829H117.052V188.829H127.052V178.829Z" fill="#131315"/>
</g>
<mask id="mask19_630_8801" style="mask-type:luminance" maskUnits="userSpaceOnUse" x="117" y="188" width="21" height="21">
<path d="M137.052 188.829H117.052V208.829H137.052V188.829Z" fill="white"/>
</mask>
<g mask="url(#mask19_630_8801)">
<path d="M137.052 188.829H127.052V198.829H137.052V188.829Z" fill="#131315"/>
<path d="M127.052 188.829H117.052V198.829H127.052V188.829Z" fill="#FAFAFA"/>
<path d="M137.052 198.829H127.052V208.829H137.052V198.829Z" fill="#FAFAFA"/>
<path d="M127.052 198.829H117.052V208.829H127.052V198.829Z" fill="#131315"/>
</g>
<mask id="mask20_630_8801" style="mask-type:luminance" maskUnits="userSpaceOnUse" x="117" y="208" width="21" height="21">
<path d="M137.052 208.829H117.052V228.829H137.052V208.829Z" fill="white"/>
</mask>
<g mask="url(#mask20_630_8801)">
<path d="M137.052 208.829H127.052V218.829H137.052V208.829Z" fill="#131315"/>
<path d="M127.052 208.829H117.052V218.829H127.052V208.829Z" fill="#FAFAFA"/>
<path d="M137.052 218.829H127.052V228.829H137.052V218.829Z" fill="#FAFAFA"/>
<path d="M127.052 218.829H117.052V228.829H127.052V218.829Z" fill="#131315"/>
</g>
<mask id="mask21_630_8801" style="mask-type:luminance" maskUnits="userSpaceOnUse" x="117" y="228" width="21" height="21">
<path d="M137.052 228.829H117.052V248.829H137.052V228.829Z" fill="white"/>
</mask>
<g mask="url(#mask21_630_8801)">
<path d="M137.052 228.829H127.052V238.829H137.052V228.829Z" fill="#131315"/>
<path d="M127.052 228.829H117.052V238.829H127.052V228.829Z" fill="#FAFAFA"/>
</g>
<mask id="mask22_630_8801" style="mask-type:luminance" maskUnits="userSpaceOnUse" x="137" y="168" width="21" height="21">
<path d="M157.052 168.829H137.052V188.829H157.052V168.829Z" fill="white"/>
</mask>
<g mask="url(#mask22_630_8801)">
<path d="M157.052 168.829H147.052V178.829H157.052V168.829Z" fill="#131315"/>
<path d="M147.052 168.829H137.052V178.829H147.052V168.829Z" fill="#FAFAFA"/>
<path d="M157.052 178.829H147.052V188.829H157.052V178.829Z" fill="#FAFAFA"/>
<path d="M147.052 178.829H137.052V188.829H147.052V178.829Z" fill="#131315"/>
</g>
<mask id="mask23_630_8801" style="mask-type:luminance" maskUnits="userSpaceOnUse" x="137" y="188" width="21" height="21">
<path d="M157.052 188.829H137.052V208.829H157.052V188.829Z" fill="white"/>
</mask>
<g mask="url(#mask23_630_8801)">
<path d="M157.052 188.829H147.052V198.829H157.052V188.829Z" fill="#131315"/>
<path d="M147.052 188.829H137.052V198.829H147.052V188.829Z" fill="#FAFAFA"/>
<path d="M157.052 198.829H147.052V208.829H157.052V198.829Z" fill="#FAFAFA"/>
<path d="M147.052 198.829H137.052V208.829H147.052V198.829Z" fill="#131315"/>
</g>
<mask id="mask24_630_8801" style="mask-type:luminance" maskUnits="userSpaceOnUse" x="137" y="208" width="21" height="21">
<path d="M157.052 208.829H137.052V228.829H157.052V208.829Z" fill="white"/>
</mask>
<g mask="url(#mask24_630_8801)">
<path d="M157.052 208.829H147.052V218.829H157.052V208.829Z" fill="#131315"/>
<path d="M147.052 208.829H137.052V218.829H147.052V208.829Z" fill="#FAFAFA"/>
<path d="M157.052 218.829H147.052V228.829H157.052V218.829Z" fill="#FAFAFA"/>
<path d="M147.052 218.829H137.052V228.829H147.052V218.829Z" fill="#131315"/>
</g>
<mask id="mask25_630_8801" style="mask-type:luminance" maskUnits="userSpaceOnUse" x="137" y="228" width="21" height="21">
<path d="M157.052 228.829H137.052V248.829H157.052V228.829Z" fill="white"/>
</mask>
<g mask="url(#mask25_630_8801)">
<path d="M157.052 228.829H147.052V238.829H157.052V228.829Z" fill="#131315"/>
<path d="M147.052 228.829H137.052V238.829H147.052V228.829Z" fill="#FAFAFA"/>
</g>
</g>
<path d="M107.082 232.579C104.462 231.119 102.772 228.169 102.032 223.799C99.9222 211.249 106.482 187.539 114.562 178.499C118.922 173.619 122.482 171.799 125.472 172.929C128.072 173.909 129.202 176.819 129.692 179.269L139.922 172.189C140.452 171.819 141.132 171.729 141.742 171.959L152.742 175.959C153.272 176.149 153.702 176.559 153.912 177.089C154.122 177.619 154.102 178.209 153.852 178.719C153.792 178.839 147.802 191.089 140.022 203.759C129.382 221.079 120.542 230.949 113.742 233.089C112.732 233.409 111.762 233.569 110.832 233.569C109.492 233.569 108.242 233.249 107.072 232.599L107.082 232.579ZM141.342 176.059L129.192 184.469C128.582 184.889 127.792 184.939 127.132 184.599C126.472 184.259 126.062 183.579 126.052 182.839C126.032 180.609 125.302 177.129 124.052 176.659C123.192 176.339 120.972 177.319 117.542 181.159C110.212 189.359 104.052 211.719 105.972 223.139C106.332 225.279 107.152 228.039 109.022 229.079C110.012 229.629 111.162 229.689 112.542 229.259C123.822 225.709 141.982 193.459 149.262 178.949L141.332 176.069L141.342 176.059Z" fill="#131315"/>
<path d="M104.052 41.8288C104.982 41.8288 105.822 41.1688 106.012 40.2188C106.232 39.1388 105.522 38.0788 104.442 37.8688C104.422 37.8688 101.392 37.1988 100.182 34.7988C99.2922 33.0288 99.5222 30.6288 100.872 27.6588C101.912 25.3588 101.872 22.8988 100.732 20.7388C99.1822 17.7788 95.7222 15.5588 91.4722 14.7788C90.3922 14.5788 89.3422 15.2988 89.1422 16.3888C88.9422 17.4788 89.6622 18.5188 90.7522 18.7188C93.7522 19.2688 96.2222 20.7488 97.1922 22.5988C97.7522 23.6788 97.7722 24.8288 97.2322 26.0088C95.3422 30.1588 95.1422 33.7388 96.6322 36.6488C98.7422 40.7688 103.462 41.7588 103.662 41.7988C103.792 41.8288 103.922 41.8388 104.052 41.8388V41.8288Z" fill="#131315"/>
<path d="M82.0622 19.4988C82.2822 19.4988 82.5022 19.4588 82.7122 19.3888C83.6422 19.0688 84.6022 18.8288 85.5622 18.6788C86.6522 18.5088 87.3922 17.4788 87.2222 16.3888C87.0522 15.2988 86.0222 14.5488 84.9322 14.7288C83.7422 14.9188 82.5522 15.2188 81.4022 15.6088C80.3622 15.9688 79.8022 17.1088 80.1622 18.1488C80.4522 18.9788 81.2222 19.4988 82.0522 19.4988H82.0622Z" fill="#131315"/>
<path d="M138.052 50.8288C138.952 50.8288 139.762 50.2188 139.992 49.3088C141.532 43.1288 146.552 43.7788 146.772 43.8088C147.862 43.9688 148.882 43.2088 149.032 42.1088C149.192 41.0188 148.432 39.9988 147.332 39.8488C144.292 39.4088 138.042 40.6288 136.112 48.3488C135.842 49.4188 136.492 50.5088 137.572 50.7788C137.732 50.8188 137.902 50.8388 138.062 50.8388L138.052 50.8288Z" fill="#131315"/>
</svg>
