<svg xmlns="http://www.w3.org/2000/svg" xmlns:xlink="http://www.w3.org/1999/xlink" width="40" zoomAndPan="magnify" viewBox="0 0 30 30.000001" height="40" preserveAspectRatio="xMidYMid meet" version="1.0"><defs><clipPath id="654e7adada"><path d="M 1.191406 4.167969 L 28.773438 4.167969 L 28.773438 16 L 1.191406 16 Z M 1.191406 4.167969 " clip-rule="nonzero"/></clipPath><clipPath id="933aa18bc5"><path d="M 1.191406 7 L 28.773438 7 L 28.773438 27 L 1.191406 27 Z M 1.191406 7 " clip-rule="nonzero"/></clipPath><clipPath id="3f2cdd3ddf"><path d="M 1.191406 4.167969 L 28.773438 4.167969 L 28.773438 27.390625 L 1.191406 27.390625 Z M 1.191406 4.167969 " clip-rule="nonzero"/></clipPath></defs><g clip-path="url(#654e7adada)"><path fill="#545454" d="M 28.199219 5.882812 C 27.785156 11.394531 25.851562 17.414062 18.367188 14.433594 C 15.386719 6.949219 21.40625 5.019531 26.921875 4.601562 C 27.648438 4.546875 28.253906 5.152344 28.199219 5.882812 Z M 1.796875 5.882812 C 2.214844 11.394531 4.148438 17.414062 11.632812 14.433594 C 14.613281 6.949219 8.589844 5.019531 3.078125 4.601562 C 2.351562 4.546875 1.742188 5.152344 1.796875 5.882812 Z M 1.796875 5.882812 " fill-opacity="1" fill-rule="nonzero"/></g><path fill="#ffffff" d="M 8.054688 12.566406 C 7.261719 12.566406 6.429688 12.375 5.683594 10.984375 C 5.214844 10.109375 4.863281 8.921875 4.640625 7.445312 C 7.933594 7.9375 9.054688 8.945312 9.4375 9.554688 C 9.898438 10.296875 9.804688 11.355469 9.539062 12.34375 C 8.988281 12.492188 8.492188 12.566406 8.054688 12.566406 Z M 21.945312 12.566406 C 22.734375 12.566406 23.570312 12.375 24.316406 10.984375 C 24.785156 10.109375 25.132812 8.921875 25.355469 7.445312 C 22.066406 7.9375 20.941406 8.945312 20.5625 9.554688 C 20.097656 10.296875 20.191406 11.355469 20.460938 12.34375 C 21.007812 12.492188 21.507812 12.566406 21.945312 12.566406 Z M 21.945312 12.566406 " fill-opacity="1" fill-rule="nonzero"/><g clip-path="url(#933aa18bc5)"><path fill="#545454" d="M 27.929688 19.875 L 26.765625 21.335938 C 26.945312 21.882812 26.742188 22.480469 26.265625 22.796875 L 24.320312 24.09375 C 21.5625 25.933594 18.316406 26.914062 15 26.914062 C 11.683594 26.914062 8.4375 25.933594 5.679688 24.09375 L 3.734375 22.796875 C 3.257812 22.480469 3.054688 21.882812 3.234375 21.335938 L 2.070312 19.875 C 1.644531 19.335938 1.722656 18.5625 2.242188 18.117188 C 3.386719 17.136719 5.226562 15.367188 5.800781 13.640625 C 6.5625 11.355469 8.117188 9.5 10.101562 8.339844 C 10.101562 8.339844 10.101562 8.335938 10.101562 8.335938 C 11.554688 7.488281 13.234375 7.007812 15 7.007812 C 16.765625 7.007812 18.445312 7.488281 19.898438 8.335938 C 19.898438 8.335938 19.898438 8.339844 19.898438 8.339844 C 21.882812 9.5 23.4375 11.355469 24.199219 13.640625 C 24.773438 15.367188 26.613281 17.136719 27.757812 18.117188 C 28.277344 18.5625 28.355469 19.335938 27.929688 19.875 Z M 27.929688 19.875 " fill-opacity="1" fill-rule="nonzero"/></g><path fill="#ffffff" d="M 22.164062 15.5625 C 22.164062 15.933594 21.925781 16.261719 21.578125 16.382812 C 20.542969 16.738281 19.539062 16.742188 18.5 16.378906 C 18.148438 16.257812 17.914062 15.933594 17.914062 15.5625 C 17.914062 14.96875 18.492188 14.566406 19.058594 14.75 C 19.695312 14.957031 20.382812 14.957031 21.019531 14.75 C 21.582031 14.566406 22.164062 14.96875 22.164062 15.5625 Z M 7.835938 15.5625 C 7.835938 15.933594 8.070312 16.261719 8.421875 16.382812 C 9.457031 16.738281 10.457031 16.742188 11.5 16.378906 C 11.847656 16.257812 12.085938 15.933594 12.085938 15.5625 C 12.085938 14.96875 11.503906 14.566406 10.941406 14.75 C 10.304688 14.957031 9.617188 14.957031 8.980469 14.75 C 8.414062 14.566406 7.835938 14.96875 7.835938 15.5625 Z M 7.835938 15.5625 " fill-opacity="1" fill-rule="nonzero"/><g clip-path="url(#3f2cdd3ddf)"><path fill="#000000" d="M 28.015625 17.8125 C 27.207031 17.121094 25.925781 15.921875 25.132812 14.652344 C 27.097656 13.242188 28.265625 10.304688 28.597656 5.910156 C 28.632812 5.449219 28.464844 4.996094 28.136719 4.664062 C 27.804688 4.335938 27.351562 4.167969 26.890625 4.203125 C 22.832031 4.511719 20.007812 5.53125 18.496094 7.238281 C 17.378906 6.824219 16.195312 6.609375 15 6.609375 C 13.800781 6.609375 12.617188 6.824219 11.503906 7.238281 C 9.988281 5.53125 7.167969 4.511719 3.109375 4.203125 C 2.644531 4.167969 2.191406 4.335938 1.863281 4.664062 C 1.535156 4.996094 1.367188 5.449219 1.402344 5.910156 C 1.734375 10.304688 2.898438 13.238281 4.867188 14.652344 C 4.070312 15.921875 2.792969 17.121094 1.984375 17.8125 C 1.296875 18.402344 1.195312 19.414062 1.757812 20.121094 L 2.800781 21.429688 C 2.675781 22.082031 2.953125 22.753906 3.515625 23.128906 L 5.457031 24.425781 C 8.292969 26.3125 11.589844 27.3125 15 27.3125 C 18.40625 27.3125 21.707031 26.3125 24.542969 24.425781 L 26.484375 23.128906 C 27.046875 22.753906 27.320312 22.082031 27.199219 21.429688 L 28.238281 20.121094 C 28.800781 19.414062 28.703125 18.402344 28.015625 17.8125 Z M 26.949219 4.996094 C 27.179688 4.980469 27.40625 5.066406 27.570312 5.230469 C 27.734375 5.394531 27.820312 5.621094 27.800781 5.851562 C 27.492188 9.933594 26.464844 12.652344 24.746094 13.945312 C 24.683594 13.800781 24.625 13.65625 24.578125 13.511719 C 24.417969 13.035156 24.222656 12.574219 23.996094 12.128906 C 24.238281 11.875 24.457031 11.558594 24.664062 11.175781 C 25.15625 10.257812 25.519531 9.023438 25.75 7.503906 C 25.765625 7.378906 25.726562 7.253906 25.636719 7.164062 C 25.546875 7.074219 25.421875 7.03125 25.296875 7.050781 C 23.335938 7.34375 21.878906 7.851562 20.960938 8.558594 C 20.683594 8.359375 20.402344 8.171875 20.105469 7.996094 C 20.101562 7.996094 20.101562 7.996094 20.097656 7.992188 C 19.832031 7.835938 19.558594 7.695312 19.28125 7.566406 C 20.699219 6.140625 23.273438 5.277344 26.949219 4.996094 Z M 23.582031 11.390625 C 23.042969 10.523438 22.378906 9.742188 21.609375 9.074219 C 22.183594 8.683594 23.175781 8.234375 24.871094 7.929688 C 24.65625 9.109375 24.351562 10.070312 23.964844 10.796875 C 23.84375 11.023438 23.714844 11.222656 23.582031 11.390625 Z M 2.195312 5.851562 C 2.179688 5.621094 2.261719 5.394531 2.425781 5.230469 C 2.589844 5.066406 2.816406 4.980469 3.046875 5 C 6.726562 5.277344 9.300781 6.140625 10.71875 7.566406 C 10.4375 7.695312 10.164062 7.839844 9.894531 7.996094 C 9.597656 8.171875 9.3125 8.359375 9.039062 8.558594 C 8.121094 7.851562 6.664062 7.34375 4.703125 7.050781 C 4.578125 7.03125 4.449219 7.074219 4.359375 7.164062 C 4.269531 7.253906 4.230469 7.378906 4.25 7.503906 C 4.476562 9.023438 4.839844 10.257812 5.332031 11.175781 C 5.539062 11.558594 5.757812 11.875 6 12.128906 C 5.773438 12.574219 5.582031 13.035156 5.421875 13.515625 C 5.375 13.65625 5.316406 13.800781 5.25 13.945312 C 3.53125 12.652344 2.503906 9.933594 2.195312 5.851562 Z M 6.417969 11.390625 C 6.285156 11.21875 6.15625 11.023438 6.035156 10.796875 C 5.644531 10.070312 5.339844 9.105469 5.128906 7.925781 C 6.820312 8.234375 7.8125 8.679688 8.390625 9.074219 C 7.617188 9.742188 6.953125 10.523438 6.417969 11.390625 Z M 27.617188 19.625 L 26.453125 21.089844 C 26.367188 21.195312 26.34375 21.335938 26.386719 21.464844 C 26.511719 21.835938 26.367188 22.246094 26.042969 22.464844 L 24.097656 23.761719 C 21.394531 25.5625 18.25 26.515625 15 26.515625 C 11.75 26.515625 8.601562 25.5625 5.898438 23.761719 L 3.957031 22.464844 C 3.628906 22.25 3.488281 21.835938 3.613281 21.464844 C 3.65625 21.335938 3.628906 21.195312 3.546875 21.089844 L 2.382812 19.625 C 2.089844 19.257812 2.140625 18.726562 2.5 18.417969 C 4.957031 16.320312 5.855469 14.730469 6.179688 13.765625 C 6.890625 11.628906 8.355469 9.820312 10.300781 8.683594 C 10.300781 8.683594 10.304688 8.679688 10.308594 8.679688 C 11.730469 7.847656 13.351562 7.40625 15 7.40625 C 16.648438 7.40625 18.269531 7.847656 19.691406 8.679688 C 19.695312 8.679688 19.695312 8.679688 19.699219 8.683594 C 21.644531 9.820312 23.109375 11.628906 23.820312 13.765625 C 24.144531 14.730469 25.042969 16.320312 27.5 18.417969 C 27.859375 18.726562 27.910156 19.257812 27.617188 19.625 Z M 8.765625 12.84375 C 8.765625 12.625 8.941406 12.445312 9.164062 12.445312 L 10.757812 12.445312 C 10.976562 12.445312 11.15625 12.625 11.15625 12.84375 C 11.15625 13.0625 10.976562 13.242188 10.757812 13.242188 L 9.164062 13.242188 C 8.941406 13.242188 8.765625 13.0625 8.765625 12.84375 Z M 18.84375 12.84375 C 18.84375 12.625 19.019531 12.445312 19.242188 12.445312 L 20.835938 12.445312 C 21.054688 12.445312 21.234375 12.625 21.234375 12.84375 C 21.234375 13.0625 21.054688 13.242188 20.835938 13.242188 L 19.242188 13.242188 C 19.019531 13.242188 18.84375 13.0625 18.84375 12.84375 Z M 7.9375 20.210938 C 7.875 20.367188 7.726562 20.460938 7.570312 20.460938 C 7.519531 20.460938 7.46875 20.453125 7.421875 20.433594 C 6.636719 20.117188 5.3125 20.117188 4.53125 20.433594 C 4.324219 20.515625 4.09375 20.414062 4.011719 20.210938 C 3.929688 20.007812 4.027344 19.773438 4.230469 19.691406 C 5.210938 19.300781 6.742188 19.300781 7.71875 19.691406 C 7.921875 19.773438 8.019531 20.007812 7.9375 20.210938 Z M 7.964844 21.335938 C 7.996094 21.554688 7.84375 21.753906 7.625 21.785156 C 7.097656 21.859375 6.371094 22.28125 6.042969 22.699219 C 5.964844 22.800781 5.847656 22.851562 5.730469 22.851562 C 5.640625 22.851562 5.554688 22.824219 5.484375 22.765625 C 5.308594 22.632812 5.28125 22.382812 5.414062 22.207031 C 5.867188 21.632812 6.789062 21.097656 7.511719 20.996094 C 7.730469 20.964844 7.933594 21.117188 7.964844 21.335938 Z M 25.988281 20.210938 C 25.925781 20.367188 25.777344 20.460938 25.617188 20.460938 C 25.566406 20.460938 25.519531 20.453125 25.46875 20.433594 C 24.6875 20.117188 23.363281 20.117188 22.578125 20.433594 C 22.375 20.515625 22.140625 20.414062 22.058594 20.210938 C 21.976562 20.007812 22.078125 19.773438 22.28125 19.691406 C 23.257812 19.300781 24.789062 19.300781 25.765625 19.691406 C 25.96875 19.773438 26.070312 20.007812 25.988281 20.210938 Z M 24.582031 22.207031 C 24.71875 22.382812 24.6875 22.632812 24.515625 22.769531 C 24.441406 22.824219 24.355469 22.851562 24.269531 22.851562 C 24.152344 22.851562 24.035156 22.800781 23.957031 22.699219 C 23.625 22.28125 22.902344 21.859375 22.375 21.785156 C 22.15625 21.753906 22.003906 21.554688 22.035156 21.335938 C 22.066406 21.117188 22.269531 20.964844 22.484375 20.996094 C 23.210938 21.101562 24.132812 21.632812 24.582031 22.207031 Z M 14.601562 17.09375 C 14.601562 16.875 14.78125 16.695312 15 16.695312 C 15.21875 16.695312 15.398438 16.875 15.398438 17.09375 C 15.398438 17.316406 15.21875 17.492188 15 17.492188 C 14.78125 17.492188 14.601562 17.316406 14.601562 17.09375 Z M 18.054688 20.019531 C 18.054688 20.238281 17.875 20.417969 17.65625 20.417969 L 16.328125 20.417969 C 15.792969 20.417969 15.316406 20.171875 15 19.792969 C 14.683594 20.171875 14.203125 20.417969 13.671875 20.417969 L 12.34375 20.417969 C 12.121094 20.417969 11.945312 20.238281 11.945312 20.019531 C 11.945312 19.796875 12.121094 19.621094 12.34375 19.621094 L 13.671875 19.621094 C 14.183594 19.621094 14.601562 19.203125 14.601562 18.691406 C 14.601562 18.46875 14.78125 18.289062 15 18.289062 C 15.21875 18.289062 15.398438 18.46875 15.398438 18.691406 C 15.398438 19.203125 15.816406 19.621094 16.328125 19.621094 L 17.65625 19.621094 C 17.875 19.621094 18.054688 19.796875 18.054688 20.019531 Z M 22.5625 15.5625 C 22.5625 15.15625 22.375 14.789062 22.046875 14.550781 C 21.71875 14.308594 21.285156 14.242188 20.894531 14.371094 C 20.335938 14.550781 19.742188 14.550781 19.179688 14.371094 C 18.789062 14.242188 18.359375 14.308594 18.03125 14.550781 C 17.703125 14.789062 17.515625 15.15625 17.515625 15.5625 C 17.515625 16.101562 17.859375 16.582031 18.371094 16.757812 C 18.933594 16.953125 19.484375 17.046875 20.039062 17.046875 C 20.59375 17.046875 21.144531 16.953125 21.707031 16.757812 C 22.21875 16.582031 22.5625 16.101562 22.5625 15.5625 Z M 21.765625 15.5625 C 21.765625 15.761719 21.636719 15.9375 21.445312 16.003906 C 20.5 16.332031 19.578125 16.332031 18.628906 16.003906 C 18.4375 15.9375 18.3125 15.761719 18.3125 15.5625 C 18.3125 15.359375 18.429688 15.246094 18.5 15.195312 C 18.582031 15.132812 18.679688 15.101562 18.777344 15.101562 C 18.828125 15.101562 18.882812 15.113281 18.933594 15.128906 C 19.65625 15.363281 20.417969 15.363281 21.140625 15.128906 C 21.292969 15.078125 21.453125 15.101562 21.578125 15.195312 C 21.648438 15.246094 21.765625 15.359375 21.765625 15.5625 Z M 12.484375 15.5625 C 12.484375 15.15625 12.296875 14.789062 11.96875 14.550781 C 11.640625 14.308594 11.207031 14.242188 10.816406 14.371094 C 10.257812 14.550781 9.664062 14.550781 9.101562 14.371094 C 8.710938 14.242188 8.28125 14.308594 7.953125 14.550781 C 7.625 14.789062 7.4375 15.15625 7.4375 15.5625 C 7.4375 16.101562 7.78125 16.582031 8.292969 16.757812 C 8.851562 16.953125 9.40625 17.046875 9.960938 17.046875 C 10.511719 17.046875 11.066406 16.953125 11.628906 16.757812 C 12.140625 16.582031 12.484375 16.101562 12.484375 15.5625 Z M 11.367188 16.003906 C 10.421875 16.332031 9.5 16.332031 8.550781 16.003906 C 8.363281 15.9375 8.234375 15.761719 8.234375 15.5625 C 8.234375 15.359375 8.351562 15.246094 8.421875 15.195312 C 8.503906 15.132812 8.601562 15.101562 8.699219 15.101562 C 8.753906 15.101562 8.804688 15.109375 8.855469 15.128906 C 9.578125 15.363281 10.34375 15.363281 11.066406 15.128906 C 11.214844 15.078125 11.375 15.101562 11.5 15.195312 C 11.570312 15.246094 11.6875 15.359375 11.6875 15.5625 C 11.6875 15.761719 11.558594 15.9375 11.367188 16.003906 Z M 11.367188 16.003906 " fill-opacity="1" fill-rule="nonzero"/></g></svg>