<svg width="30" height="26" viewBox="0 0 30 26" fill="none" xmlns="http://www.w3.org/2000/svg">
<path d="M10.4209 19.0225C8.34921 18.638 7.05958 16.2261 7.54046 13.6355C8.02134 11.0449 10.0906 9.25652 12.1624 9.64108C14.2341 10.0256 15.5237 12.4375 15.0429 15.0281C14.562 17.6187 12.4927 19.4071 10.4209 19.0225Z" fill="#FAFAFA"/>
<path d="M10.3364 19.4818C12.6588 19.9129 14.976 17.9525 15.503 15.1133C16.03 12.274 14.5707 9.61263 12.2484 9.18154C9.92597 8.75044 7.60878 10.7108 7.08174 13.5501C6.55471 16.3893 8.01397 19.0507 10.3364 19.4818ZM12.0778 10.1004C13.8925 10.4372 15.0174 12.6088 14.5841 14.9427C14.1509 17.2766 12.3217 18.8998 10.5069 18.563C8.6922 18.2261 7.56736 16.0545 8.00059 13.7206C8.43382 11.3868 10.2631 9.76353 12.0778 10.1004Z" fill="#131315"/>
<path d="M2.46581 11.4957C2.46417 17.5596 7.7769 21.749 12.9776 22.7144C16.8781 23.4384 21.5787 25.0238 23.6323 17.801C25.1124 18.7886 27.2225 18.9426 27.6158 14.2631C28.1246 8.21964 22.7215 4.32478 17.5209 3.3594C12.3202 2.39402 2.46854 5.08023 2.46581 11.4957Z" fill="#131315"/>
<path d="M14.7636 23.5376C18.1426 24.1649 21.9982 24.3887 23.909 18.4985C24.7154 18.8906 25.4983 18.9361 26.1506 18.6223C27.2339 18.0987 27.8838 16.6462 28.0813 14.3019C28.5959 8.18819 23.1994 3.9381 17.6059 2.8998C13.9857 2.22779 8.18507 3.23979 4.74615 6.09694C2.94809 7.59053 1.99791 9.45775 1.99773 11.4942C1.99545 14.438 3.18788 17.1544 5.444 19.3506C7.41257 21.2654 10.1264 22.6602 12.8921 23.1736C13.1953 23.2299 13.5023 23.2916 13.8138 23.3542C14.1254 23.4168 14.4438 23.4807 14.7654 23.5404L14.7636 23.5376ZM23.7174 17.3414C23.637 17.3264 23.5505 17.3318 23.4712 17.3622C23.3308 17.4146 23.2238 17.5301 23.1831 17.6723C21.4087 23.9157 17.6421 23.1619 13.9963 22.4352C13.6825 22.3722 13.3709 22.3096 13.0631 22.2525C6.41062 21.0176 2.93272 15.9046 2.93392 11.4945C2.93544 9.7197 3.74578 8.14494 5.34493 6.81404C8.52876 4.16618 14.1004 3.19722 17.4358 3.81635C24.6005 5.14631 27.4944 10.1414 27.1504 14.2217C26.9419 16.7019 26.2714 17.5232 25.7443 17.777C25.087 18.0922 24.3005 17.6825 23.8925 17.4095C23.8398 17.3736 23.7799 17.3506 23.7179 17.3391L23.7174 17.3414Z" fill="#131315"/>
<path d="M4.73984 17.8844C4.48495 20.4225 6.7876 23.0337 11.2295 23.4781C16.9522 24.0508 20.0592 20.3194 20.3306 17.6157C20.6019 14.9119 16.0638 14.0767 12.2102 13.6893C8.35647 13.3018 5.01122 15.1807 4.73984 17.8844Z" fill="#FAFAFA"/>
<path d="M10.1486 23.7956C10.4793 23.857 10.8242 23.9067 11.1835 23.9425C17.2512 24.5508 20.5071 20.5548 20.797 17.662C20.9414 16.2179 19.9958 15.1037 17.9837 14.3453C16.6289 13.8348 14.8107 13.4783 12.2584 13.2231C8.15466 12.813 4.57237 14.8808 4.27791 17.8369C4.03122 20.3052 5.97699 23.0212 10.1509 23.796L10.1486 23.7956ZM15.1653 14.5635C16.153 14.7469 16.9708 14.9628 17.6526 15.2201C20.0115 16.1071 19.9026 17.206 19.8663 17.5676C19.6153 20.085 16.7086 23.5566 11.2778 23.0119C7.00424 22.5822 4.98791 20.1311 5.20667 17.9285C5.45096 15.4859 8.57194 13.7911 12.1645 14.1514C13.3122 14.267 14.3066 14.4017 15.1657 14.5612L15.1653 14.5635Z" fill="#131315"/>
<path d="M4.33028 12.2018L8.17044 12.1224C8.70194 12.1114 9.14172 12.5334 9.1527 13.0649L9.23363 16.9798C9.24461 17.5113 8.82265 17.9511 8.29114 17.9621L4.45099 18.0415C3.91948 18.0525 3.47971 17.6305 3.46872 17.099L3.3878 13.1841C3.37681 12.6526 3.79877 12.2128 4.33028 12.2018Z" fill="#FAFAFA"/>
<path d="M4.17242 18.4946C4.2689 18.5125 4.36709 18.5212 4.46511 18.518L8.30317 18.4391C8.68478 18.4316 9.04186 18.2745 9.30659 18.0004C9.57175 17.7241 9.71247 17.3629 9.70489 16.9813L9.6236 13.0667C9.61602 12.6851 9.45893 12.328 9.1849 12.0633C8.91087 11.7986 8.54506 11.657 8.16574 11.665L4.32768 11.7439C3.53792 11.7612 2.91047 12.4147 2.92784 13.2044L3.00913 17.119C3.01671 17.5006 3.17379 17.8577 3.44783 18.1224C3.65169 18.3171 3.90324 18.447 4.1743 18.4973L4.17242 18.4946ZM8.28327 12.6064C8.51069 12.6487 8.68341 12.8447 8.68901 13.0833L8.7703 16.9979C8.77169 17.1312 8.72255 17.2552 8.63317 17.3526C8.54191 17.4474 8.41758 17.5027 8.28655 17.5045L4.44849 17.5834C4.17681 17.5876 3.94836 17.3718 3.94227 17.0974L3.86098 13.1828C3.85488 12.9084 4.07262 12.6827 4.34703 12.6766L8.18509 12.5977C8.22082 12.5972 8.25341 12.6009 8.28557 12.6069L8.28327 12.6064Z" fill="#131315"/>
<path d="M10.1924 16.7627L7.48931 17.1663C6.94422 17.2481 6.56409 17.7597 6.64588 18.3048C6.72767 18.8499 7.23929 19.23 7.78439 19.1482L9.17502 18.9406" fill="#FAFAFA"/>
<path d="M7.36897 19.6036C7.52518 19.6326 7.68837 19.6368 7.85209 19.6125L9.24272 19.4049C9.49698 19.3666 9.67422 19.1286 9.63587 18.8743C9.59752 18.6201 9.35953 18.4428 9.10527 18.4812L7.71464 18.6888C7.57288 18.71 7.43216 18.6744 7.31733 18.5889C7.2025 18.5034 7.12793 18.3803 7.10672 18.2385C7.08509 18.099 7.12072 17.9583 7.20662 17.8412C7.29209 17.7264 7.41567 17.6495 7.557 17.6306L10.2601 17.227C10.5143 17.1886 10.6916 16.9506 10.6532 16.6964C10.6149 16.4421 10.3792 16.2653 10.1226 16.3032L7.41956 16.7068C7.03316 16.7658 6.69095 16.9708 6.45657 17.2861C6.2222 17.6014 6.12631 17.99 6.18298 18.3759C6.27886 19.0116 6.76943 19.4923 7.36897 19.6036Z" fill="#131315"/>
<path d="M10.2063 12.2179L14.5884 12.1273C15.1199 12.1163 15.5597 12.5383 15.5707 13.0698L15.6516 16.9847C15.6626 17.5162 15.2406 17.956 14.7091 17.967L10.327 18.0575C9.79553 18.0685 9.35575 17.6466 9.34477 17.1151L9.26384 13.2002C9.25286 12.6687 9.67482 12.2289 10.2063 12.2179Z" fill="#FAFAFA"/>
<path d="M10.0463 18.5083C10.1405 18.5258 10.2387 18.5345 10.3367 18.5314L14.7163 18.4413C15.0979 18.4337 15.4549 18.2767 15.7197 18.0026C15.9848 17.7263 16.1256 17.3651 16.118 16.9835L16.0367 13.0689C16.0291 12.6873 15.872 12.3302 15.598 12.0655C15.3217 11.8003 14.9604 11.6596 14.5788 11.6672L10.1993 11.7572C9.40952 11.7746 8.78207 12.428 8.79944 13.2178L8.88073 17.1324C8.89532 17.8218 9.39624 18.3877 10.0486 18.5088L10.0463 18.5083ZM10.3201 17.5968C10.0484 17.601 9.81996 17.3851 9.81387 17.1107L9.73258 13.1962C9.73119 13.0628 9.78033 12.9389 9.86971 12.8414C9.96096 12.7467 10.0853 12.6913 10.2163 12.6895L14.5959 12.5995C14.8726 12.5938 15.096 12.8111 15.1021 13.0855L15.1834 17.0001C15.1848 17.1334 15.1356 17.2574 15.0463 17.3548C14.955 17.4496 14.8307 17.5049 14.6996 17.5067L10.3201 17.5968Z" fill="#131315"/>
<path d="M17.3679 22.1035C19.7764 20.6496 20.2303 19.1393 20.3902 18.2779C20.7023 16.5964 19.5934 14.9791 17.9096 14.6665C16.2258 14.354 14.6107 15.4633 14.2982 17.1471C14.2342 17.4917 14.2298 17.8354 14.2779 18.1651" fill="#FAFAFA"/>
<path d="M17.2824 22.5628C17.3903 22.5829 17.5078 22.5643 17.6092 22.5047C20.1032 21.0001 20.6532 19.4197 20.8493 18.3631C21.2079 16.4312 19.9288 14.566 17.9946 14.207C16.0604 13.8479 14.1975 15.1275 13.8385 17.0617C13.766 17.4522 13.7595 17.8455 13.8158 18.2337C13.8541 18.488 14.0898 18.6648 14.3464 18.6269C14.6006 18.5885 14.7779 18.3505 14.7395 18.0963C14.6975 17.8105 14.704 17.5194 14.7573 17.2322C15.0221 15.8057 16.3975 14.861 17.824 15.1258C19.2505 15.3906 20.1953 16.766 19.9305 18.1925C19.7671 19.0723 19.2988 20.3921 17.1284 21.7025C16.9066 21.8348 16.8364 22.1236 16.9691 22.3431C17.0422 22.4612 17.1564 22.5371 17.2851 22.5609L17.2824 22.5628Z" fill="#131315"/>
<path d="M14.2029 20.8745C14.327 20.8975 14.4627 20.8704 14.5706 20.7883L17.4139 18.6309C17.6189 18.474 17.6588 18.1821 17.5047 17.9752C17.3479 17.7703 17.0559 17.7303 16.8491 17.8844L14.0058 20.0418C13.8009 20.1986 13.7609 20.4906 13.915 20.6975C13.9874 20.7941 14.0927 20.854 14.2006 20.874L14.2029 20.8745Z" fill="#131315"/>
<path d="M17.8991 14.1226C17.9335 14.129 17.9692 14.1285 18.0071 14.1165C18.1303 14.08 18.2019 13.9507 18.1676 13.8279C18.0323 13.3537 17.8476 12.8893 17.6233 12.4461C17.564 12.3305 17.425 12.2857 17.3098 12.3427C17.1943 12.4021 17.1494 12.5411 17.2065 12.6562C17.4166 13.0731 17.5899 13.5092 17.7185 13.956C17.7449 14.0441 17.8168 14.105 17.9018 14.1207L17.8991 14.1226Z" fill="#FAFAFA"/>
<path d="M6.18348 11.9481C6.19497 11.9503 6.20875 11.9528 6.22296 11.9531C6.35084 11.9555 6.458 11.8518 6.46036 11.7239C6.47682 10.8287 7.07812 10.2393 7.4304 9.9673L7.77096 11.2305C7.79076 11.3031 7.84196 11.3601 7.91291 11.3876C7.98156 11.4146 8.05933 11.4053 8.12341 11.3672C8.68121 11.0122 9.28065 10.5864 9.64586 10.3215L9.75331 11.9573C9.76008 12.0489 9.81893 12.1287 9.90323 12.161C9.98754 12.1933 10.0862 12.1736 10.1504 12.1095C10.7612 11.5076 11.4763 10.9963 11.6745 11.0165C11.7551 11.1075 11.8923 11.1235 11.9916 11.0492C12.0941 10.9708 12.1141 10.8248 12.0357 10.7223C11.9596 10.6203 11.8465 10.5637 11.713 10.5531C11.2956 10.5232 10.6287 11.0434 10.1851 11.4363L10.0818 9.86777C10.076 9.78353 10.0237 9.70727 9.94709 9.67167C9.86823 9.63565 9.77854 9.64514 9.7096 9.6965C9.70143 9.70212 8.92087 10.2844 8.13803 10.802L7.79602 9.53377C7.77767 9.46621 7.7292 9.40731 7.66284 9.38073C7.59921 9.35229 7.52272 9.35472 7.45949 9.38813C7.40127 9.4201 6.01823 10.1757 5.99103 11.7176C5.98852 11.8335 6.07007 11.9318 6.18263 11.9527L6.18348 11.9481Z" fill="#FAFAFA"/>
<path d="M23.8193 18.0732C23.9296 18.0937 24.041 18.0312 24.0825 17.9225C24.5721 16.5781 24.8894 13.7165 24.1833 12.067C24.1317 11.9482 23.9967 11.8946 23.8759 11.9435C23.7571 11.995 23.703 12.1324 23.7523 12.2508C24.3874 13.7327 24.1163 16.4602 23.6441 17.7627C23.6004 17.8829 23.6632 18.0181 23.7834 18.0618C23.7972 18.0644 23.8082 18.0688 23.822 18.0714L23.8193 18.0732Z" fill="#FAFAFA"/>
<path d="M4.42855 11.8909C4.44923 11.8947 4.47033 11.8963 4.49228 11.8932C4.62042 11.8814 4.71509 11.7682 4.70366 11.6378C4.55306 10.0296 5.16992 8.84431 6.48816 8.20741C8.95716 7.01659 13.0298 8.02922 15.5689 10.4681C15.6617 10.5566 15.8093 10.5555 15.9005 10.4607C15.9891 10.3679 15.9856 10.2199 15.8928 10.1314C13.2246 7.56874 8.91449 6.51678 6.28575 7.78726C4.79773 8.5067 4.07086 9.88784 4.23686 11.6818C4.24566 11.788 4.32748 11.8721 4.42626 11.8905L4.42855 11.8909Z" fill="#FAFAFA"/>
<path d="M14.0857 16.7419C14.2672 16.7756 14.4595 16.6996 14.5636 16.5359C14.7036 16.3195 14.6409 16.0299 14.4245 15.8899L9.75459 12.8844C9.53819 12.7444 9.24853 12.8071 9.10856 13.0235C8.96859 13.2399 9.03125 13.5295 9.24765 13.6695L13.9176 16.675C13.9707 16.7086 14.026 16.7308 14.0857 16.7419Z" fill="#131315"/>
<path d="M15.2182 15.7638C15.4066 15.7988 15.6025 15.7163 15.7064 15.5407C15.838 15.318 15.763 15.0308 15.5399 14.9015L12.3266 13.01C12.1039 12.8783 11.8167 12.9533 11.6873 13.1765C11.5557 13.3992 11.6307 13.6864 11.8538 13.8157L15.0667 15.7095C15.1161 15.7377 15.1673 15.7567 15.2178 15.7661L15.2182 15.7638Z" fill="#131315"/>
<path d="M8.2744 17.3264C8.45587 17.3601 8.6482 17.2841 8.75224 17.1204C8.89221 16.904 8.82954 16.6144 8.61315 16.4744L3.94324 13.4689C3.72642 13.3312 3.43718 13.3916 3.29721 13.608C3.15724 13.8244 3.21991 14.114 3.43631 14.254L8.10621 17.2595C8.15937 17.2931 8.21467 17.3153 8.2744 17.3264Z" fill="#131315"/>
<path d="M9.17671 16.3058C9.36507 16.3408 9.56098 16.2583 9.66485 16.0827C9.79649 15.86 9.72148 15.5728 9.49836 15.4435L6.28507 13.552C6.06237 13.4203 5.77517 13.4953 5.64583 13.7185C5.5142 13.9412 5.58921 14.2284 5.81233 14.3577L9.02562 16.2492C9.07505 16.2774 9.12617 16.2964 9.17671 16.3058Z" fill="#131315"/>
</svg>
