<svg width="1042" height="686" viewBox="0 0 1042 686" fill="none" xmlns="http://www.w3.org/2000/svg">
<g clip-path="url(#clip0_666_11089)">
<path opacity="0.2" d="M484.21 256.13C484.21 245.61 492.73 237.09 503.25 237.09H557.59V132.63H33.8896V424.5H484.21V256.13Z" fill="currentColor"/>
<path opacity="0.2" d="M964.56 257.87H497V547.17H964.56V257.87Z" fill="currentColor"/>
<path d="M1031.11 563.55H977.15V256.13C977.15 245.08 968.16 236.09 957.11 236.09H582.48V120.81C582.48 112.64 575.83 106 567.67 106H23.81C15.65 106 9 112.65 9 120.81V487.22C9 490.82 10.32 494.27 12.73 496.95C13.56 497.88 14.5 498.67 15.52 499.35C15.54 499.37 15.57 499.38 15.59 499.39C15.95 499.63 16.31 499.85 16.69 500.06C16.8 500.12 16.92 500.18 17.03 500.24C17.33 500.39 17.63 500.55 17.94 500.68C18.18 500.78 18.43 500.87 18.67 500.96C18.87 501.04 19.07 501.12 19.28 501.18C19.69 501.31 20.1 501.42 20.52 501.51C20.58 501.52 20.64 501.54 20.71 501.56C21.71 501.77 22.75 501.89 23.82 501.89H237.45L232.09 553.94C231.75 557.22 229.9 560.19 227.01 562.11L210.33 573.16C208.91 574.1 208.29 575.73 208.77 577.32C209.27 578.97 210.81 580.08 212.62 580.08H378.87C380.68 580.08 382.22 578.97 382.72 577.32C383.2 575.74 382.58 574.11 381.16 573.16L364.48 562.11C361.59 560.2 359.74 557.22 359.4 553.94L354.04 501.89H483.21V563.53H424.76C424.21 563.53 423.76 563.98 423.76 564.53V571.4C423.76 571.95 424.21 572.4 424.76 572.4H425.38C425.54 572.6 425.75 572.76 426.02 572.82C447 577.97 468.77 580.57 490.7 580.57H965.94C987.87 580.57 1009.63 577.96 1030.62 572.82C1030.9 572.75 1031.13 572.58 1031.29 572.36C1031.75 572.27 1032.11 571.88 1032.11 571.4V564.53C1032.11 563.98 1031.66 563.53 1031.11 563.53V563.55ZM363.37 563.8L380.05 574.85C380.74 575.31 381.02 576.02 380.8 576.76C380.61 577.38 380 578.1 378.87 578.1H212.62C211.49 578.1 210.87 577.38 210.69 576.76C210.47 576.02 210.75 575.31 211.44 574.85L228.12 563.8C231.51 561.55 233.68 558.05 234.08 554.17L239.43 502.22H352.06L357.41 554.17C357.81 558.04 359.98 561.55 363.37 563.8ZM692.14 570.17C689.14 570.17 686.65 568.16 686.19 565.55H770.44C770.25 566.67 769.68 567.71 768.78 568.53C767.64 569.58 766.11 570.17 764.48 570.17H692.13H692.14ZM1030.11 570.42H770.55C771.89 569.15 772.74 567.45 772.85 565.56H976.15C976.15 565.56 976.15 565.56 976.16 565.56H1030.11V570.43V570.42ZM23.81 108H567.66C574.73 108 580.47 113.75 580.47 120.81V236.09H558.58V132.63C558.58 132.08 558.13 131.63 557.58 131.63H33.89C33.34 131.63 32.89 132.08 32.89 132.63V424.5C32.89 425.05 33.34 425.5 33.89 425.5H483.21V447.69H11V120.81C11 113.75 16.75 108 23.81 108ZM20.98 499.59C20.61 499.51 20.25 499.41 19.89 499.3C19.7 499.24 19.52 499.17 19.34 499.1C19.14 499.03 18.93 498.95 18.73 498.87C18.45 498.75 18.17 498.61 17.89 498.47C17.81 498.43 17.73 498.39 17.65 498.35C13.69 496.17 10.99 491.95 10.99 487.12V449.71H483.2V499.93H23.81C22.9 499.93 22 499.83 21.12 499.65C21.07 499.64 21.03 499.62 20.98 499.61V499.59ZM483.21 256.13V423.5H34.89V133.63H556.59V236.09H503.25C492.2 236.09 483.21 245.08 483.21 256.13ZM485.21 501.91V499.91V256.13C485.21 246.18 493.3 238.09 503.25 238.09H957.12C967.07 238.09 975.16 246.18 975.16 256.13V563.55H485.22V501.91H485.21ZM425.76 565.55H484.19C484.19 565.55 484.19 565.55 484.2 565.55H683.79C683.89 567.44 684.75 569.15 686.09 570.41H425.76V565.54V565.55ZM965.94 578.59H490.7C471.33 578.59 452.1 576.54 433.43 572.49H690.19C690.71 572.59 691.26 572.64 691.81 572.64H764.83C765.39 572.64 765.93 572.59 766.45 572.49H1023.21C1004.54 576.54 985.3 578.59 965.93 578.59H965.94Z" fill="currentColor"/>
<path d="M964.56 256.87H497C496.45 256.87 496 257.32 496 257.87V547.17C496 547.72 496.45 548.17 497 548.17H964.56C965.11 548.17 965.56 547.72 965.56 547.17V257.87C965.56 257.32 965.11 256.87 964.56 256.87ZM963.56 546.17H498V258.87H963.56V546.17Z" fill="currentColor"/>
</g>
<defs>
<clipPath id="clip0_666_11089">
<rect width="1023.11" height="474.59" fill="currentColor" transform="translate(9 106)"/>
</clipPath>
</defs>
</svg>
