<svg width="298" height="268" viewBox="0 0 298 268" fill="none" xmlns="http://www.w3.org/2000/svg">
<g clip-path="url(#clip0_314_10329)">
<path d="M118.23 160.69C126.084 160.69 132.45 154.323 132.45 146.47C132.45 138.617 126.084 132.25 118.23 132.25C110.377 132.25 104.01 138.617 104.01 146.47C104.01 154.323 110.377 160.69 118.23 160.69Z" fill="#FAFAFA"/>
<path d="M118.26 162.69C117.8 162.69 117.34 162.67 116.88 162.63C112.56 162.27 108.64 160.25 105.84 156.94C103.04 153.63 101.7 149.43 102.06 145.11C102.81 136.19 110.67 129.56 119.58 130.3C128.5 131.05 135.14 138.91 134.39 147.82C134.03 152.14 132.01 156.06 128.7 158.86C125.75 161.36 122.08 162.69 118.25 162.69H118.26ZM118.22 134.24C111.94 134.24 106.58 139.07 106.05 145.44C105.78 148.69 106.79 151.86 108.9 154.35C111.01 156.84 113.96 158.37 117.21 158.64C120.46 158.92 123.63 157.9 126.12 155.8C128.61 153.69 130.14 150.74 130.41 147.49C130.97 140.77 125.97 134.85 119.25 134.29C118.9 134.26 118.56 134.25 118.22 134.25V134.24Z" fill="#131315"/>
<path d="M192.899 58.6121L129.462 53.2963L112.706 253.245L176.144 258.561L192.899 58.6121Z" fill="#FAFAFA"/>
<path d="M176.12 260.57C176.06 260.57 176.01 260.57 175.95 260.57L112.51 255.25C111.98 255.21 111.49 254.95 111.15 254.55C110.81 254.15 110.64 253.62 110.68 253.09L127.45 53.14C127.49 52.61 127.75 52.12 128.15 51.78C128.56 51.44 129.08 51.26 129.61 51.31L193.05 56.63C194.15 56.72 194.97 57.69 194.88 58.79L178.11 258.74C178.02 259.78 177.15 260.57 176.12 260.57ZM114.84 251.42L174.29 256.41L190.73 60.45L131.28 55.46L114.84 251.42Z" fill="#131315"/>
<path d="M138.64 52.86L163.83 54.97L146.95 256.12L121.77 254.01L123.37 234.95" fill="#FAFAFA"/>
<path d="M146.95 258.12C146.89 258.12 146.84 258.12 146.78 258.12L121.6 256.01C121.07 255.97 120.58 255.71 120.24 255.31C119.9 254.91 119.73 254.38 119.77 253.85L121.37 234.79C121.46 233.69 122.43 232.86 123.53 232.96C124.63 233.05 125.45 234.02 125.36 235.12L123.93 252.19L145.13 253.97L161.67 56.81L138.48 54.86C137.38 54.77 136.56 53.8 136.65 52.7C136.74 51.6 137.71 50.78 138.81 50.87L163.99 52.98C164.52 53.02 165.01 53.28 165.35 53.68C165.69 54.08 165.86 54.61 165.82 55.14L148.95 256.29C148.91 256.82 148.65 257.31 148.25 257.65C147.89 257.96 147.43 258.12 146.96 258.12H146.95Z" fill="#131315"/>
<path d="M125.68 207.44L136.84 74.33L137.59 65.47" fill="#FAFAFA"/>
<path d="M125.68 209.44C125.62 209.44 125.57 209.44 125.51 209.44C124.41 209.35 123.59 208.38 123.68 207.28L135.59 65.31C135.68 64.21 136.65 63.39 137.75 63.48C138.85 63.57 139.67 64.54 139.58 65.64L127.67 207.61C127.58 208.65 126.71 209.44 125.68 209.44Z" fill="#131315"/>
<path d="M124.12 228.05C124.06 228.05 124.01 228.05 123.95 228.05C122.85 227.96 122.03 226.99 122.12 225.89L123.02 215.13C123.11 214.03 124.08 213.21 125.18 213.3C126.28 213.39 127.1 214.36 127.01 215.46L126.11 226.22C126.02 227.26 125.15 228.05 124.12 228.05Z" fill="#131315"/>
<path d="M193 57.4005L163.832 54.9563L146.977 256.101L176.145 258.545L193 57.4005Z" fill="#131315"/>
<path d="M176.12 260.57C176.06 260.57 176.01 260.57 175.95 260.57L146.79 258.12C145.69 258.03 144.87 257.06 144.96 255.96L161.83 54.81C161.92 53.71 162.89 52.89 163.99 52.98L193.15 55.43C193.68 55.47 194.17 55.73 194.51 56.13C194.85 56.53 195.02 57.06 194.98 57.59L178.11 258.74C178.02 259.78 177.15 260.57 176.12 260.57ZM149.11 254.29L174.29 256.4L190.83 59.24L165.65 57.13L149.11 254.29Z" fill="#131315"/>
<path d="M167.035 124.598C168.005 113.024 161.724 103.049 153.006 102.318C144.288 101.588 136.435 110.378 135.465 121.952C134.495 133.526 140.776 143.501 149.494 144.232C158.212 144.962 166.065 136.172 167.035 124.598Z" fill="#FAFAFA"/>
<path d="M150.53 146.28C150.13 146.28 149.73 146.26 149.33 146.23C144.47 145.82 140.15 142.98 137.16 138.23C134.28 133.66 132.97 127.82 133.48 121.79C133.99 115.76 136.25 110.22 139.85 106.19C143.59 102 148.33 99.92 153.18 100.33C158.04 100.74 162.36 103.58 165.35 108.33C168.23 112.9 169.54 118.74 169.03 124.77C168.52 130.8 166.26 136.34 162.66 140.36C159.23 144.2 154.96 146.27 150.52 146.27L150.53 146.28ZM152.01 104.28C148.72 104.28 145.5 105.88 142.84 108.86C139.81 112.25 137.91 116.96 137.48 122.12C137.05 127.29 138.14 132.25 140.56 136.09C142.87 139.75 146.1 141.94 149.68 142.24C153.25 142.54 156.81 140.93 159.7 137.7C162.73 134.31 164.63 129.6 165.06 124.44C165.49 119.27 164.4 114.31 161.98 110.47C159.67 106.81 156.44 104.62 152.86 104.32C152.58 104.3 152.3 104.28 152.01 104.28Z" fill="#131315"/>
<path d="M146.431 122.861C147.4 111.287 141.12 101.312 132.402 100.582C123.684 99.8514 115.831 108.642 114.861 120.216C113.891 131.79 120.172 141.765 128.89 142.495C137.607 143.226 145.461 134.435 146.431 122.861Z" fill="#FAFAFA"/>
<path d="M129.9 144.55C129.51 144.55 129.12 144.53 128.73 144.5C118.93 143.68 111.82 132.71 112.88 120.06C113.39 114.03 115.65 108.49 119.25 104.46C122.99 100.27 127.73 98.19 132.58 98.6C142.38 99.42 149.49 110.39 148.43 123.04C147.41 135.19 139.22 144.55 129.9 144.55ZM131.4 102.56C128.11 102.56 124.89 104.16 122.23 107.14C119.2 110.53 117.3 115.24 116.87 120.4C115.99 130.86 121.47 139.88 129.07 140.52C136.67 141.16 143.57 133.17 144.45 122.72C145.33 112.26 139.85 103.24 132.25 102.6C131.97 102.58 131.69 102.56 131.4 102.56Z" fill="#131315"/>
<path d="M132.95 101.06C131.96 100.7 130.92 100.47 129.85 100.38C121.13 99.65 113.28 108.44 112.31 120.01C111.51 129.53 115.62 137.97 121.96 141.07L132.95 101.06Z" fill="#131315"/>
<path d="M156.12 103C155.13 102.64 154.09 102.41 153.02 102.32C144.3 101.59 136.45 110.38 135.48 121.95C134.68 131.47 138.79 139.91 145.13 143.01L156.12 103Z" fill="#131315"/>
<path d="M143.24 160.93C140.18 157.55 138.48 152.96 138.89 148.05C139.68 138.66 147.93 131.68 157.32 132.47C166.71 133.26 173.69 141.51 172.9 150.9C172.11 160.29 163.86 167.27 154.47 166.48" fill="#FAFAFA"/>
<path d="M155.93 168.55C155.39 168.55 154.85 168.53 154.3 168.48C153.2 168.39 152.38 167.42 152.47 166.32C152.56 165.22 153.53 164.4 154.63 164.49C158.64 164.83 162.54 163.58 165.61 160.98C168.68 158.38 170.56 154.74 170.9 150.73C171.59 142.45 165.42 135.15 157.15 134.46C153.14 134.12 149.24 135.37 146.17 137.97C143.1 140.57 141.22 144.21 140.88 148.22C140.53 152.42 141.89 156.46 144.72 159.59C145.46 160.41 145.4 161.67 144.58 162.42C143.76 163.16 142.5 163.1 141.76 162.28C138.23 158.38 136.46 153.13 136.9 147.89C137.33 142.81 139.7 138.21 143.59 134.92C147.48 131.63 152.42 130.05 157.49 130.48C167.97 131.36 175.77 140.6 174.9 151.07C174.47 156.15 172.1 160.75 168.21 164.04C164.74 166.97 160.43 168.55 155.93 168.55Z" fill="#131315"/>
<path d="M133.57 157.87C131.44 162.19 128.09 164.91 124.55 164.61C119.08 164.15 115.24 156.69 115.98 147.93C116.72 139.17 121.74 132.46 127.21 132.92C130.63 133.21 133.41 136.23 134.83 140.59" fill="#FAFAFA"/>
<path d="M125.09 166.64C124.86 166.64 124.62 166.64 124.39 166.61C117.72 166.05 113.15 157.78 113.99 147.77C114.83 137.77 120.71 130.38 127.38 130.93C131.5 131.28 135 134.66 136.74 139.98C137.08 141.03 136.51 142.16 135.46 142.5C134.41 142.84 133.28 142.27 132.94 141.22C131.72 137.48 129.52 135.12 127.05 134.92C122.76 134.55 118.61 140.6 117.98 148.11C117.35 155.62 120.44 162.27 124.73 162.63C127.27 162.84 129.98 160.69 131.79 157C132.28 156.01 133.48 155.6 134.47 156.09C135.46 156.58 135.87 157.78 135.38 158.77C132.93 163.76 129.13 166.65 125.1 166.65L125.09 166.64Z" fill="#131315"/>
<path d="M128.895 147.865C129.228 143.897 127.94 140.55 126.019 140.389C124.099 140.228 122.272 143.314 121.94 147.282C121.607 151.251 122.895 154.598 124.815 154.759C126.736 154.92 128.563 151.833 128.895 147.865Z" fill="#131315"/>
<path d="M122.08 114.37L130.55 122.39L133.5 112L122.08 114.37Z" fill="#FAFAFA"/>
<path d="M144.52 116.25L153 124.27L155.95 113.88L144.52 116.25Z" fill="#FAFAFA"/>
<path d="M192.59 58.05L165.36 6L129.45 53.3L129.16 56.7C131.61 56.91 138.54 54.06 138.54 54.06C138.54 54.06 143.89 57.93 150.85 58.52C157.8 59.1 163.73 56.18 163.73 56.18C163.73 56.18 169.97 60.13 178.03 60.8C186.09 61.47 192.9 58.62 192.9 58.62C192.9 58.62 192.81 58.24 192.6 58.05H192.59Z" fill="#FAFAFA"/>
<path d="M180.54 62.9C179.66 62.9 178.77 62.86 177.85 62.79C171.17 62.23 165.72 59.58 163.6 58.41C161.51 59.26 156.45 60.99 150.68 60.51C144.93 60.03 140.25 57.5 138.32 56.3C136.09 57.17 131.33 58.85 129 58.69C127.9 58.6 127.08 57.63 127.17 56.53L127.46 53.13C127.49 52.75 127.63 52.39 127.86 52.09L163.77 4.78997C164.18 4.23997 164.85 3.94997 165.53 4.00997C166.21 4.06997 166.82 4.46997 167.13 5.07997L194.25 56.93C194.62 57.41 194.77 57.94 194.83 58.17C195.05 59.12 194.55 60.09 193.65 60.47C193.39 60.58 187.74 62.9 180.53 62.91L180.54 62.9ZM163.73 54.18C164.1 54.18 164.47 54.28 164.8 54.49C164.86 54.53 170.76 58.19 178.19 58.81C183.11 59.22 187.55 58.23 190.04 57.49L165.05 9.71997L131.4 54.05L131.37 54.39C133.18 53.94 135.71 53.07 137.78 52.21C138.42 51.95 139.15 52.03 139.71 52.44C139.76 52.47 144.73 56 151.01 56.52C157.29 57.04 162.78 54.4 162.84 54.38C163.12 54.24 163.42 54.18 163.72 54.18H163.73Z" fill="#131315"/>
<path d="M165.11 9.19995L146.43 34.41C146.43 34.41 153.56 38.61 165.43 34.11C174.33 39.89 180.05 38.4599 180.05 38.4599L165.11 9.19995Z" fill="#FAFAFA"/>
<path d="M181.63 39.09C173.57 39.09 167.76 36.1 165.52 34.73C163.39 35.59 158.38 37.27 152.67 36.8C149.89 36.57 147.06 35.83 144.23 34.62C143.21 34.18 142.74 33.01 143.18 31.99C143.62 30.98 144.79 30.5 145.81 30.94C148.24 31.98 150.66 32.61 153.01 32.81C159.29 33.34 164.78 30.69 164.84 30.66C165.51 30.33 166.31 30.4 166.91 30.85C166.96 30.89 172.78 35.08 181.63 35.08C182.73 35.08 183.63 35.98 183.63 37.08C183.63 38.18 182.73 39.08 181.63 39.08V39.09Z" fill="#131315"/>
<path d="M82.51 134.23C86.1606 134.23 89.12 131.271 89.12 127.62C89.12 123.969 86.1606 121.01 82.51 121.01C78.8594 121.01 75.9 123.969 75.9 127.62C75.9 131.271 78.8594 134.23 82.51 134.23Z" fill="#131315"/>
<path d="M82.5 136.24C80.84 136.24 79.21 135.76 77.79 134.82C75.87 133.56 74.55 131.62 74.08 129.37C73.61 127.12 74.05 124.82 75.31 122.89C76.57 120.97 78.51 119.65 80.76 119.18C85.41 118.22 89.98 121.22 90.94 125.86C91.41 128.11 90.97 130.41 89.71 132.34C88.45 134.26 86.51 135.58 84.26 136.05C83.67 136.17 83.08 136.23 82.49 136.23L82.5 136.24ZM82.51 123.01C82.2 123.01 81.89 123.04 81.57 123.11C80.36 123.36 79.33 124.07 78.65 125.1C77.97 126.13 77.74 127.36 77.99 128.57C78.24 129.78 78.95 130.81 79.98 131.49C81.01 132.17 82.24 132.4 83.45 132.15C84.66 131.9 85.69 131.19 86.37 130.16C87.05 129.13 87.28 127.9 87.03 126.69C86.58 124.51 84.65 123.01 82.51 123.01Z" fill="#131315"/>
<path d="M88.9899 128.28C88.0599 128.28 87.2299 127.63 87.0299 126.69L82.0999 102.91C81.8799 101.83 82.5699 100.77 83.6499 100.55C84.7299 100.33 85.7899 101.02 86.0099 102.1L90.9399 125.88C91.1599 126.96 90.4699 128.02 89.3899 128.24C89.2499 128.27 89.1199 128.28 88.9799 128.28H88.9899Z" fill="#131315"/>
<path d="M97.5195 98.2659L83.782 101.116L86.1687 112.621L99.9063 109.771L97.5195 98.2659Z" fill="#131315"/>
<path d="M86.16 114.62C85.77 114.62 85.39 114.51 85.06 114.29C84.62 114 84.31 113.54 84.2 113.02L81.81 101.52C81.7 101 81.81 100.46 82.1 100.02C82.39 99.58 82.85 99.27 83.37 99.16L97.1 96.31C98.18 96.09 99.24 96.78 99.46 97.86L101.85 109.36C102.07 110.44 101.38 111.5 100.3 111.72L86.57 114.57C86.44 114.6 86.3 114.61 86.16 114.61V114.62ZM86.13 102.67L87.7 110.25L97.52 108.21L95.95 100.63L86.13 102.67Z" fill="#131315"/>
<path d="M52.61 83.72C56.2606 83.72 59.22 80.7606 59.22 77.11C59.22 73.4594 56.2606 70.5 52.61 70.5C48.9594 70.5 46 73.4594 46 77.11C46 80.7606 48.9594 83.72 52.61 83.72Z" fill="#131315"/>
<path d="M52.61 85.7201C51.99 85.7201 51.36 85.6501 50.73 85.5101C46.09 84.4701 43.17 79.8601 44.2 75.2201C44.7 72.9801 46.05 71.0601 47.99 69.8301C49.93 68.6001 52.24 68.1901 54.48 68.7001C56.72 69.2001 58.64 70.5501 59.87 72.4901C61.1 74.4301 61.51 76.7401 61 78.9801C60.11 82.9801 56.54 85.7201 52.6 85.7201H52.61ZM52.6 72.4901C51.73 72.4901 50.89 72.7401 50.14 73.2101C49.1 73.8701 48.38 74.9001 48.11 76.1001C47.56 78.5801 49.12 81.0501 51.61 81.6101C54.09 82.1601 56.56 80.6001 57.12 78.1101C57.39 76.9101 57.17 75.6701 56.51 74.6301C55.85 73.5901 54.82 72.8701 53.62 72.6001C53.28 72.5201 52.94 72.4901 52.6 72.4901Z" fill="#131315"/>
<path d="M59.0699 80.55C58.9299 80.55 58.7799 80.53 58.6299 80.5C57.5499 80.26 56.8699 79.19 57.1099 78.11L62.4099 54.4C62.6499 53.32 63.7199 52.65 64.7999 52.88C65.8799 53.12 66.5599 54.19 66.3199 55.27L61.0199 78.98C60.8099 79.91 59.9899 80.54 59.0699 80.54V80.55Z" fill="#131315"/>
<path d="M70.4201 94.6599C74.0707 94.6599 77.0301 91.7005 77.0301 88.0499C77.0301 84.3993 74.0707 81.4399 70.4201 81.4399C66.7695 81.4399 63.8101 84.3993 63.8101 88.0499C63.8101 91.7005 66.7695 94.6599 70.4201 94.6599Z" fill="#131315"/>
<path d="M70.44 96.67C69.81 96.67 69.17 96.6 68.54 96.46C66.3 95.96 64.38 94.61 63.15 92.67C61.92 90.73 61.51 88.42 62.02 86.18C62.52 83.94 63.87 82.02 65.81 80.79C67.75 79.56 70.06 79.15 72.3 79.66C74.54 80.16 76.46 81.51 77.69 83.45C78.92 85.39 79.33 87.7 78.82 89.94C78.32 92.18 76.97 94.1 75.03 95.33C73.63 96.22 72.05 96.67 70.43 96.67H70.44ZM70.41 83.44C69.54 83.44 68.7 83.69 67.95 84.16C66.91 84.82 66.19 85.85 65.92 87.05C65.65 88.25 65.87 89.49 66.53 90.53C67.19 91.57 68.22 92.29 69.42 92.56C70.62 92.83 71.86 92.61 72.9 91.95C73.94 91.29 74.66 90.26 74.93 89.06C75.2 87.86 74.98 86.62 74.32 85.58C73.66 84.54 72.63 83.82 71.43 83.55C71.09 83.47 70.75 83.44 70.41 83.44Z" fill="#131315"/>
<path d="M76.88 91.4899C76.74 91.4899 76.59 91.4699 76.44 91.4399C75.36 91.1999 74.68 90.1299 74.92 89.0499L80.22 65.3399C80.46 64.2599 81.53 63.5899 82.61 63.8199C83.69 64.0599 84.37 65.1299 84.13 66.2099L78.83 89.9199C78.62 90.8499 77.8 91.4799 76.88 91.4799V91.4899Z" fill="#131315"/>
<path d="M84.0581 57.8019L64.6666 53.4674L62.1034 64.9344L81.4949 69.2689L84.0581 57.8019Z" fill="#131315"/>
<path d="M81.5 71.27C81.35 71.27 81.21 71.25 81.06 71.22L61.67 66.89C60.59 66.65 59.91 65.58 60.15 64.5L62.71 53.04C62.83 52.52 63.14 52.07 63.59 51.79C64.04 51.51 64.58 51.41 65.1 51.53L84.49 55.86C85.57 56.1 86.25 57.17 86.01 58.25L83.45 69.71C83.33 70.23 83.02 70.68 82.57 70.96C82.25 71.17 81.87 71.27 81.5 71.27ZM64.5 63.42L79.99 66.88L81.68 59.32L66.19 55.86L64.5 63.42Z" fill="#131315"/>
<path d="M165.25 148.25C165.34 148.91 165.35 149.59 165.3 150.27L165.25 148.25Z" fill="#FAFAFA"/>
<path d="M165.29 152.27C165.23 152.27 165.18 152.27 165.12 152.27C164.02 152.18 163.2 151.21 163.29 150.11C163.33 149.58 163.32 149.04 163.25 148.51C163.11 147.41 163.88 146.41 164.97 146.27C166.06 146.14 167.07 146.9 167.21 147.99C167.32 148.8 167.34 149.62 167.27 150.44C167.18 151.48 166.31 152.27 165.28 152.27H165.29Z" fill="#131315"/>
<path d="M156.69 140.09C158.96 140.28 160.98 141.26 162.5 142.75L156.69 140.09Z" fill="#FAFAFA"/>
<path d="M162.49 144.75C161.99 144.75 161.48 144.56 161.09 144.18C159.86 142.98 158.24 142.23 156.52 142.09C155.42 142 154.6 141.03 154.69 139.93C154.78 138.83 155.75 138.01 156.85 138.1C159.5 138.32 161.99 139.47 163.89 141.32C164.68 142.09 164.69 143.36 163.92 144.15C163.53 144.55 163.01 144.75 162.49 144.75Z" fill="#131315"/>
</g>
<defs>
<clipPath id="clip0_314_10329">
<rect width="150.99" height="256.57" fill="white" transform="translate(44 4)"/>
</clipPath>
</defs>
</svg>
