<svg width="25" height="24" viewBox="0 0 25 24" fill="currentColor" xmlns="http://www.w3.org/2000/svg">
<path fill="currentColor" clip-rule="evenodd" d="M11.8281 4.2245C12.0895 3.96315 12.5125 3.96068 12.777 4.21895L20.9613 12.212C21.228 12.4725 21.233 12.8998 20.9726 13.1665C20.7121 13.4332 20.2847 13.4383 20.018 13.1778L12.3109 5.65078L5.92788 12.0323L7.03294 12.0408C7.40378 12.0436 7.70288 12.3451 7.70277 12.7159L7.70107 18.6249H17.0992V14.5904C17.0992 14.2177 17.4014 13.9154 17.7742 13.9154C18.147 13.9154 18.4492 14.2177 18.4492 14.5904V19.2999C18.4492 19.6727 18.147 19.9749 17.7742 19.9749H7.02588C6.84682 19.9749 6.6751 19.9038 6.54851 19.7772C6.42192 19.6505 6.35082 19.4788 6.35088 19.2997L6.35258 13.3856L4.30522 13.3699C4.03314 13.3678 3.78892 13.2026 3.68578 12.9508C3.58263 12.699 3.64074 12.4099 3.83316 12.2176L11.8281 4.2245Z" />
<path fill="currentColor" clip-rule="evenodd" d="M12.4701 13.3908C11.9094 13.3908 11.4541 13.846 11.4541 14.4068V16.4368C11.4541 16.8096 11.1519 17.1118 10.7791 17.1118C10.4063 17.1118 10.1041 16.8096 10.1041 16.4368V14.4068C10.1041 13.1004 11.1638 12.0408 12.4701 12.0408C13.7765 12.0408 14.8362 13.1004 14.8362 14.4068V19.3C14.8362 19.6727 14.534 19.975 14.1612 19.975H11.5025C11.1297 19.975 10.8275 19.6727 10.8275 19.3C10.8275 18.9272 11.1297 18.625 11.5025 18.625H13.4862V14.4068C13.4862 13.846 13.0309 13.3908 12.4701 13.3908Z" />
</svg>
