<svg width="26" height="26" viewBox="0 0 26 26" fill="none" xmlns="http://www.w3.org/2000/svg">
<path d="M15.3955 18.6593C17.6885 18.2239 19.106 15.5465 18.5616 12.6792C18.0171 9.81188 15.7169 7.84042 13.4239 8.27583C11.1308 8.71124 9.71335 11.3886 10.2578 14.256C10.8023 17.1233 13.1025 19.0948 15.3955 18.6593Z" fill="#FAFAFA"/>
<path d="M15.4917 19.1677C12.9212 19.6558 10.3456 17.4949 9.74889 14.3524C9.15218 11.2098 10.759 8.25477 13.3269 7.76717C15.8948 7.27956 18.4729 9.43997 19.0696 12.5825C19.6664 15.725 18.0596 18.6801 15.4917 19.1677ZM13.52 8.78416C11.5114 9.16556 10.2754 11.5761 10.7659 14.1592C11.2564 16.7424 13.29 18.5321 15.2986 18.1507C17.3071 17.7693 18.5432 15.3588 18.0527 12.7756C17.5622 10.1924 15.5286 8.40277 13.52 8.78416Z" fill="#131315"/>
<path d="M11.442 16.1226C14.3262 15.5749 16.2229 12.8065 15.6784 9.93922C15.134 7.07189 12.3545 5.19142 9.47031 5.73909C6.58614 6.28675 4.68942 9.05514 5.23388 11.9225C5.77834 14.7898 8.5578 16.6703 11.442 16.1226Z" fill="#131315"/>
<path d="M11.5386 16.6309C8.3783 17.231 5.32217 15.1614 4.72546 12.0189C4.12874 8.87634 6.21352 5.83051 9.37383 5.23042C12.5341 4.63033 15.5903 6.69998 16.187 9.84249C16.7837 12.985 14.6989 16.0308 11.5386 16.6309ZM9.56694 6.24741C6.96852 6.74081 5.25195 9.24258 5.74245 11.8257C6.23295 14.4089 8.74708 16.1073 11.3455 15.6139C13.9439 15.1205 15.6605 12.6188 15.17 10.0356C14.6795 7.45244 12.1654 5.75402 9.56694 6.24741Z" fill="#131315"/>
<path d="M21.684 17.3729C21.9779 20.1831 19.4392 23.0859 14.5211 23.5983C8.1849 24.2588 4.72645 20.1398 4.41353 17.1462C4.10062 14.1526 9.12348 13.2068 13.3903 12.7601C17.6576 12.316 21.3711 14.3793 21.684 17.3729Z" fill="#FAFAFA"/>
<path d="M15.712 23.9466C15.3434 24.0166 14.9667 24.0723 14.5765 24.1121C10.8107 24.5058 8.31955 23.2614 6.89146 22.1496C5.20346 20.8343 4.08558 18.9841 3.89944 17.1992C3.73281 15.6003 4.77522 14.3619 7.00051 13.5126C8.4988 12.941 10.5111 12.5378 13.337 12.2435C17.8833 11.7701 21.8556 14.0451 22.1977 17.3176C22.3644 18.9165 21.7289 20.4807 20.4103 21.7215C19.2414 22.8207 17.6311 23.5795 15.709 23.9445L15.712 23.9466ZM10.1208 13.742C9.02494 13.95 8.12269 14.1925 7.3687 14.4805C4.75982 15.4738 4.88551 16.6906 4.92729 17.091C5.08333 18.5786 6.07701 20.2048 7.52676 21.3336C8.80371 22.3292 11.0454 23.4392 14.4678 23.0817C16.6657 22.8514 18.4762 22.1204 19.701 20.9685C20.7803 19.9522 21.3001 18.6945 21.1673 17.4264C20.8856 14.7219 17.4209 12.8589 13.4432 13.2744C12.1725 13.4077 11.0716 13.5614 10.1208 13.742Z" fill="#131315"/>
<path d="M15.4746 13.3891C21.558 12.6739 25.0394 8.34082 23.2201 4.51641C21.9752 1.90001 17.4881 0.576224 14.5231 2.89884C10.8887 5.74634 15.8632 8.04177 11.2206 10.6988C10.5055 11.1085 11.6128 13.6246 15.4741 13.3866C18.2653 13.2148 16.2323 12.455 15.4741 13.3866L15.4746 13.3891Z" fill="#FAFAFA"/>
<path d="M16.4874 13.7973C16.2281 13.8466 15.9055 13.8815 15.5073 13.9071C15.5073 13.9071 15.5047 13.9075 15.5022 13.908C12.6455 14.0817 10.9408 12.817 10.5667 11.5683C10.3946 10.9951 10.5467 10.4921 10.9627 10.2551C13.0916 9.03686 12.9217 8.03125 12.7046 6.76329C12.4977 5.54872 12.2399 4.03826 14.2024 2.49868C15.7112 1.31657 17.7195 0.906238 19.7102 1.37381C21.5327 1.80218 23.0208 2.89728 23.6873 4.29854C24.4587 5.91957 24.3891 7.70296 23.4927 9.32196C22.324 11.4352 19.9379 13.0052 16.9628 13.6649C16.8359 13.718 16.6786 13.7637 16.4854 13.8004L16.4874 13.7973ZM16.1468 12.4475C16.4951 12.3813 16.8278 12.413 17.0471 12.5136C17.0759 12.5266 17.1026 12.5426 17.1294 12.5586C19.6318 11.9201 21.6116 10.5827 22.5881 8.81675C23.3295 7.47743 23.3858 6.06798 22.7537 4.73659C22.228 3.63261 20.9705 2.72553 19.4735 2.37494C17.7913 1.97788 16.1014 2.31721 14.8432 3.30686C13.3666 4.46442 13.526 5.40089 13.7266 6.58241C13.9643 7.97289 14.2316 9.5474 11.5344 11.1159C11.5346 11.2001 11.5761 11.4188 11.8053 11.7098C12.0444 12.0121 12.9838 12.9638 15.2442 12.8823C15.5053 12.6483 15.832 12.5099 16.1448 12.4505L16.1468 12.4475Z" fill="#131315"/>
<path d="M18.8707 17.1732C20.5713 16.7003 21.4407 14.4862 20.8127 12.2279C20.1847 9.96957 18.2969 8.52226 16.5963 8.99521C14.8957 9.46816 14.0262 11.6823 14.6543 13.9406C15.2823 16.1989 17.1701 17.6462 18.8707 17.1732Z" fill="#FAFAFA"/>
<path d="M18.7636 17.7246C17.8534 17.8975 16.8961 17.642 16.0447 16.987C15.1601 16.3095 14.4895 15.2751 14.1535 14.0745C13.4493 11.5451 14.4833 9.04125 16.4549 8.49302C18.4265 7.94479 20.605 9.55416 21.3092 12.0836C22.0134 14.613 20.9794 17.1168 19.0078 17.6651C18.9254 17.6886 18.8445 17.7066 18.7631 17.7221L18.7636 17.7246ZM16.8927 9.45302C16.8393 9.46315 16.7859 9.47329 16.7339 9.49106C15.3104 9.8878 14.6024 11.8187 15.152 13.798C15.4257 14.7813 15.9677 15.624 16.674 16.1669C17.3369 16.6758 18.0666 16.856 18.7297 16.6721C20.1532 16.2754 20.8613 14.3444 20.3116 12.3652C19.781 10.4587 18.2737 9.19341 16.8906 9.45604L16.8927 9.45302Z" fill="#131315"/>
<path d="M17.5341 17.2839C17.7434 17.3179 17.958 17.3246 18.175 17.3018C19.9314 17.1184 21.1567 15.0814 20.914 12.7488C20.7129 10.8298 19.5821 9.31388 18.2067 8.93758L17.5341 17.2839Z" fill="#131315"/>
<path d="M19.3332 14.2185L17.3509 12.9485L17.1572 15.119L19.3332 14.2185Z" fill="#FAFAFA"/>
<path d="M15.7561 13.7257C15.5127 11.3944 13.8921 9.6531 12.1365 9.83643C10.3809 10.0198 9.1551 12.0583 9.39855 14.3896C9.642 16.7209 11.2625 18.4622 13.0181 18.2789C14.7737 18.0956 15.9996 16.057 15.7561 13.7257Z" fill="#FAFAFA"/>
<path d="M13.3149 18.7593C13.2361 18.7743 13.1543 18.7872 13.0715 18.795C12.0563 18.9008 11.0584 18.4871 10.2613 17.6322C9.50284 16.8148 9.01187 15.6857 8.88183 14.446C8.60985 11.8345 10.0442 9.53914 12.0821 9.32603C14.1175 9.1134 15.9972 11.064 16.2692 13.6755C16.5316 16.1808 15.2192 18.3977 13.3124 18.7598L13.3149 18.7593ZM12.0313 10.3762C10.6507 10.6383 9.7096 12.3685 9.91476 14.3368C10.0211 15.3545 10.4141 16.2729 11.0199 16.9245C11.5895 17.5381 12.2809 17.8361 12.9627 17.7646C14.4346 17.6089 15.4524 15.8246 15.2409 13.7812C15.0268 11.7382 13.6602 10.2012 12.1904 10.3539C12.136 10.3589 12.0821 10.3665 12.0287 10.3767L12.0313 10.3762Z" fill="#131315"/>
<path d="M12.3779 18.2629C12.5871 18.2969 12.8018 18.3036 13.0187 18.2808C14.7751 18.0974 16.0004 16.0604 15.7577 13.7278C15.5566 11.8088 14.4259 10.2929 13.0505 9.91658L12.3779 18.2629Z" fill="#131315"/>
<path d="M14.1794 15.197L12.1971 13.927L12.0034 16.0975L14.1794 15.197Z" fill="#FAFAFA"/>
<path d="M5.21467 16.4832C6.80279 16.1816 7.84576 14.6497 7.5442 13.0616C7.24264 11.4735 5.71075 10.4305 4.12262 10.7321C2.5345 11.0336 1.49153 12.5655 1.79309 14.1536C2.09465 15.7418 3.62654 16.7847 5.21467 16.4832Z" fill="#FAFAFA"/>
<path d="M5.3113 16.9917C3.44511 17.3461 1.63903 16.1164 1.28467 14.2503C0.930309 12.3841 2.15995 10.578 4.02614 10.2236C5.89233 9.86927 7.69841 11.0989 8.05277 12.9651C8.40713 14.8313 7.17748 16.6374 5.3113 16.9917ZM4.21973 11.2432C2.91544 11.4908 2.054 12.7529 2.30215 14.0597C2.55029 15.3665 3.81183 16.2254 5.11867 15.9773C6.42551 15.7291 7.2844 14.4676 7.03626 13.1608C6.78811 11.8539 5.52657 10.995 4.21973 11.2432Z" fill="#131315"/>
<path d="M5.84236 20.1096C5.09039 19.6176 4.53312 18.8331 4.35208 17.8796C3.99868 16.0185 5.21961 14.222 7.08325 13.8681C8.94689 13.5143 10.7409 14.7357 11.0948 16.5993C11.1672 16.9807 11.1736 17.3614 11.1218 17.7269" fill="#FAFAFA"/>
<path d="M5.93947 20.6182C5.81235 20.6424 5.67605 20.6182 5.55903 20.5429C4.65374 19.9509 4.04594 19.039 3.84414 17.9763C3.43813 15.838 4.84648 13.7662 6.98726 13.3597C9.12803 12.9532 11.1973 14.3621 11.6038 16.5028C11.6854 16.9325 11.6948 17.3706 11.6343 17.8009C11.593 18.0827 11.3302 18.2802 11.0484 18.2388C10.7666 18.1975 10.5692 17.9347 10.6105 17.6529C10.6557 17.3361 10.6472 17.0138 10.5868 16.6959C10.287 15.1171 8.75925 14.0769 7.18037 14.3767C5.60148 14.6765 4.56133 16.2043 4.86114 17.7832C5.00983 18.5662 5.45906 19.2396 6.1268 19.6765C6.36483 19.8341 6.43329 20.153 6.27614 20.3936C6.19678 20.5167 6.07168 20.5931 5.93947 20.6182Z" fill="#131315"/>
<path d="M15.8333 21.118C14.1044 21.4463 9.55022 21.7947 7.30029 17.0485C7.17744 16.7899 7.28754 16.4819 7.54607 16.3591C7.80459 16.2362 8.11262 16.3463 8.23547 16.6048C10.6421 21.677 15.9767 20.0423 16.2028 19.9704C16.4757 19.8817 16.7655 20.0348 16.8538 20.3052C16.9399 20.5786 16.7919 20.8674 16.519 20.9561C16.5063 20.9586 16.2528 21.0383 15.8333 21.118Z" fill="#131315"/>
<path d="M15.6387 16.1553L18.6346 16.59C19.2388 16.6781 19.6621 17.2431 19.574 17.8472C19.4859 18.4514 18.9209 18.8748 18.3168 18.7867L16.2768 18.4891" fill="#FAFAFA"/>
<path d="M18.7787 19.2891C18.6058 19.322 18.425 19.3273 18.2436 19.3012L16.2036 19.0037C15.9218 18.9623 15.7243 18.6995 15.7657 18.4177C15.807 18.1359 16.0698 17.9385 16.3516 17.9798L18.3916 18.2773C18.714 18.3241 19.0161 18.0982 19.0629 17.7758C19.1097 17.4535 18.8837 17.1513 18.5614 17.1045L15.5655 16.6698C15.2837 16.6285 15.0862 16.3657 15.1276 16.0839C15.1689 15.8021 15.4317 15.6046 15.7135 15.646L18.7094 16.0807C19.5979 16.2096 20.2162 17.0379 20.0867 17.9239C19.9834 18.6284 19.4422 19.1631 18.7787 19.2891Z" fill="#131315"/>
<path d="M14.4767 10.5467C14.2402 10.5916 13.9948 10.4643 13.9006 10.232C13.7925 9.96799 13.9219 9.66421 14.1863 9.55868C14.1914 9.55771 14.9294 9.24108 15.1212 8.57247C15.2621 8.07948 15.0877 7.48039 14.6011 6.79045C14.2256 6.25588 14.117 5.6285 14.3026 5.02429C14.5538 4.19688 15.3263 3.46541 16.3692 3.06191C16.6341 2.95892 16.9359 3.09129 17.0393 3.35876C17.1428 3.62624 17.01 3.92542 16.7425 4.02889C16.0063 4.31356 15.4497 4.8091 15.2924 5.32629C15.2022 5.62791 15.2526 5.92126 15.4469 6.1952C16.1278 7.15909 16.3515 8.05965 16.1131 8.87144C15.7756 10.0208 14.6233 10.5004 14.5744 10.5202C14.5428 10.5341 14.5102 10.5429 14.4772 10.5492L14.4767 10.5467Z" fill="#131315"/>
<path d="M18.9896 3.80764C18.9337 3.81827 18.8758 3.81872 18.819 3.81106C18.5671 3.7746 18.3115 3.75992 18.0602 3.76813C17.7748 3.77753 17.5369 3.55138 17.5275 3.26604C17.5181 2.98071 17.7438 2.74029 18.0296 2.73344C18.3414 2.72429 18.6584 2.74312 18.9696 2.78675C19.2514 2.82807 19.4488 3.09088 19.4075 3.37268C19.3739 3.59771 19.2032 3.76709 18.9922 3.80716L18.9896 3.80764Z" fill="#131315"/>
<path d="M6.26649 14.4763C6.03767 14.5198 5.80228 14.4038 5.69987 14.1835C5.00997 12.6866 3.76502 13.0942 3.71053 13.1125C3.44112 13.2058 3.1451 13.0618 3.05386 12.7894C2.96055 12.52 3.10454 12.2239 3.37697 12.1327C4.12864 11.874 5.7766 11.8825 6.64 13.7521C6.76031 14.0111 6.64767 14.3196 6.38611 14.4404C6.34737 14.4583 6.30511 14.4716 6.26443 14.4793L6.26649 14.4763Z" fill="#131315"/>
</svg>
