<svg xmlns="http://www.w3.org/2000/svg" xmlns:xlink="http://www.w3.org/1999/xlink" width="40" zoomAndPan="magnify" viewBox="0 0 30 30.000001" height="40" preserveAspectRatio="xMidYMid meet" version="1.0"><defs><clipPath id="6a9fa9a83b"><path d="M 2 3.480469 L 28 3.480469 L 28 15 L 2 15 Z M 2 3.480469 " clip-rule="nonzero"/></clipPath><clipPath id="5d0eae629b"><path d="M 2 6 L 28 6 L 28 25.980469 L 2 25.980469 Z M 2 6 " clip-rule="nonzero"/></clipPath><clipPath id="442e2a3005"><path d="M 1.492188 3.480469 L 28.347656 3.480469 L 28.347656 25.980469 L 1.492188 25.980469 Z M 1.492188 3.480469 " clip-rule="nonzero"/></clipPath></defs><g clip-path="url(#6a9fa9a83b)"><path fill="#545454" d="M 27.910156 5.160156 C 27.5 10.546875 25.609375 16.4375 18.292969 13.523438 C 15.378906 6.203125 21.265625 4.3125 26.65625 3.90625 C 27.367188 3.851562 27.960938 4.445312 27.910156 5.160156 Z M 2.089844 5.160156 C 2.496094 10.546875 4.386719 16.4375 11.707031 13.523438 C 14.621094 6.203125 8.730469 4.3125 3.339844 3.90625 C 2.628906 3.851562 2.035156 4.445312 2.089844 5.160156 Z M 2.089844 5.160156 " fill-opacity="1" fill-rule="nonzero"/></g><path fill="#ffffff" d="M 8.207031 11.699219 C 7.433594 11.699219 6.617188 11.511719 5.890625 10.148438 C 5.429688 9.292969 5.089844 8.132812 4.871094 6.6875 C 8.089844 7.167969 9.1875 8.15625 9.558594 8.753906 C 10.011719 9.476562 9.917969 10.511719 9.660156 11.476562 C 9.121094 11.625 8.636719 11.699219 8.207031 11.699219 Z M 21.792969 11.699219 C 22.566406 11.699219 23.378906 11.511719 24.109375 10.148438 C 24.570312 9.292969 24.910156 8.132812 25.128906 6.6875 C 21.910156 7.167969 20.8125 8.15625 20.4375 8.753906 C 19.984375 9.476562 20.078125 10.511719 20.339844 11.476562 C 20.875 11.625 21.363281 11.699219 21.792969 11.699219 Z M 21.792969 11.699219 " fill-opacity="1" fill-rule="nonzero"/><g clip-path="url(#5d0eae629b)"><path fill="#545454" d="M 2.523438 17.125 C 3.644531 16.167969 5.441406 14.433594 6.003906 12.746094 C 6.746094 10.511719 8.269531 8.695312 10.207031 7.5625 C 10.207031 7.5625 10.207031 7.558594 10.207031 7.558594 C 11.628906 6.730469 13.273438 6.261719 15 6.261719 C 16.726562 6.261719 18.367188 6.730469 19.789062 7.558594 C 19.789062 7.558594 19.789062 7.5625 19.789062 7.5625 C 21.730469 8.695312 23.25 10.511719 23.996094 12.746094 C 24.558594 14.433594 26.355469 16.167969 27.476562 17.125 C 27.984375 17.558594 28.058594 18.316406 27.644531 18.84375 L 26.503906 20.273438 C 26.683594 20.804688 26.480469 21.390625 26.015625 21.699219 L 24.117188 22.96875 C 21.414062 24.765625 18.242188 25.726562 15 25.726562 C 11.753906 25.726562 8.582031 24.765625 5.882812 22.96875 L 3.984375 21.699219 C 3.515625 21.390625 3.316406 20.804688 3.492188 20.273438 L 2.355469 18.84375 C 1.9375 18.320312 2.011719 17.558594 2.523438 17.125 Z M 2.523438 17.125 " fill-opacity="1" fill-rule="nonzero"/></g><path fill="#ffffff" d="M 16.996094 19.460938 C 17.050781 19.734375 17.078125 20.019531 17.078125 20.316406 C 17.078125 22.039062 16.148438 23.4375 15 23.4375 C 13.851562 23.4375 12.921875 22.039062 12.921875 20.316406 C 12.921875 20.019531 12.949219 19.734375 13 19.460938 C 13.070312 19.46875 13.136719 19.476562 13.207031 19.476562 C 14.199219 19.476562 15 18.671875 15 17.683594 C 15 18.675781 15.800781 19.476562 16.789062 19.476562 C 16.859375 19.476562 16.929688 19.46875 16.996094 19.460938 Z M 16.996094 19.460938 " fill-opacity="1" fill-rule="nonzero"/><path fill="#ffffff" d="M 11.035156 12.039062 L 11.257812 12.492188 C 11.355469 12.691406 11.546875 12.828125 11.765625 12.863281 L 12.269531 12.933594 C 13.148438 13.0625 13.5 14.144531 12.863281 14.765625 L 12.5 15.121094 C 12.339844 15.273438 12.269531 15.496094 12.304688 15.714844 L 12.390625 16.21875 C 12.542969 17.09375 11.621094 17.761719 10.835938 17.347656 L 10.382812 17.113281 C 10.1875 17.007812 9.953125 17.007812 9.757812 17.113281 L 9.308594 17.347656 C 8.519531 17.761719 7.601562 17.09375 7.75 16.21875 L 7.835938 15.714844 C 7.875 15.496094 7.800781 15.273438 7.644531 15.121094 L 7.277344 14.765625 C 6.640625 14.144531 6.992188 13.0625 7.875 12.933594 L 8.378906 12.863281 C 8.597656 12.828125 8.785156 12.691406 8.882812 12.492188 L 9.109375 12.039062 C 9.503906 11.238281 10.640625 11.238281 11.035156 12.039062 Z M 18.964844 12.039062 L 18.738281 12.492188 C 18.640625 12.691406 18.453125 12.828125 18.234375 12.863281 L 17.730469 12.933594 C 16.847656 13.0625 16.496094 14.144531 17.132812 14.765625 L 17.5 15.121094 C 17.65625 15.273438 17.730469 15.496094 17.691406 15.714844 L 17.605469 16.21875 C 17.457031 17.09375 18.375 17.761719 19.164062 17.347656 L 19.613281 17.113281 C 19.808594 17.007812 20.042969 17.007812 20.238281 17.113281 L 20.691406 17.347656 C 21.476562 17.761719 22.398438 17.09375 22.246094 16.21875 L 22.160156 15.714844 C 22.125 15.496094 22.195312 15.273438 22.355469 15.121094 L 22.71875 14.765625 C 23.355469 14.144531 23.003906 13.0625 22.125 12.933594 L 21.621094 12.863281 C 21.402344 12.828125 21.210938 12.691406 21.113281 12.492188 L 20.890625 12.039062 C 20.496094 11.238281 19.359375 11.238281 18.964844 12.039062 Z M 18.964844 12.039062 " fill-opacity="1" fill-rule="nonzero"/><g clip-path="url(#442e2a3005)"><path fill="#000000" d="M 27.726562 16.828125 C 26.9375 16.152344 25.6875 14.980469 24.90625 13.734375 C 26.832031 12.355469 27.972656 9.484375 28.296875 5.1875 C 28.332031 4.734375 28.167969 4.292969 27.84375 3.96875 C 27.523438 3.648438 27.078125 3.484375 26.628906 3.519531 C 22.65625 3.816406 19.898438 4.816406 18.417969 6.484375 C 17.328125 6.082031 16.167969 5.871094 15 5.871094 C 13.828125 5.871094 12.671875 6.082031 11.582031 6.484375 C 10.101562 4.816406 7.339844 3.820312 3.371094 3.519531 C 2.917969 3.484375 2.472656 3.648438 2.152344 3.96875 C 1.832031 4.292969 1.667969 4.734375 1.699219 5.1875 C 2.027344 9.484375 3.164062 12.355469 5.089844 13.734375 C 4.3125 14.980469 3.058594 16.152344 2.269531 16.828125 C 1.597656 17.402344 1.5 18.394531 2.050781 19.085938 L 3.066406 20.367188 C 2.949219 21 3.21875 21.660156 3.765625 22.027344 L 5.667969 23.292969 C 8.4375 25.140625 11.667969 26.117188 15 26.117188 C 18.332031 26.117188 21.558594 25.140625 24.332031 23.292969 L 26.230469 22.027344 C 26.78125 21.660156 27.050781 21 26.929688 20.367188 L 27.949219 19.085938 C 28.496094 18.394531 28.402344 17.402344 27.726562 16.828125 Z M 26.6875 4.292969 C 26.910156 4.277344 27.132812 4.359375 27.292969 4.519531 C 27.453125 4.679688 27.539062 4.902344 27.519531 5.128906 C 27.21875 9.121094 26.214844 11.78125 24.53125 13.042969 C 24.46875 12.902344 24.410156 12.761719 24.363281 12.621094 C 24.207031 12.15625 24.019531 11.703125 23.796875 11.269531 C 24.035156 11.019531 24.25 10.710938 24.453125 10.335938 C 24.929688 9.441406 25.289062 8.230469 25.511719 6.746094 C 25.53125 6.625 25.488281 6.5 25.402344 6.414062 C 25.316406 6.324219 25.191406 6.285156 25.066406 6.300781 C 23.152344 6.589844 21.726562 7.085938 20.828125 7.777344 C 20.558594 7.582031 20.28125 7.398438 19.992188 7.226562 C 19.988281 7.226562 19.988281 7.226562 19.984375 7.222656 C 19.726562 7.070312 19.457031 6.933594 19.183594 6.804688 C 20.570312 5.410156 23.089844 4.566406 26.6875 4.292969 Z M 23.390625 10.546875 C 22.867188 9.699219 22.21875 8.9375 21.460938 8.28125 C 22.023438 7.898438 22.996094 7.460938 24.652344 7.160156 C 24.445312 8.316406 24.144531 9.257812 23.765625 9.964844 C 23.648438 10.1875 23.523438 10.378906 23.390625 10.546875 Z M 2.476562 5.128906 C 2.460938 4.902344 2.542969 4.683594 2.703125 4.519531 C 2.863281 4.359375 3.085938 4.277344 3.3125 4.296875 C 6.90625 4.566406 9.425781 5.410156 10.8125 6.804688 C 10.539062 6.933594 10.273438 7.070312 10.011719 7.222656 C 10.011719 7.226562 10.007812 7.226562 10.007812 7.226562 C 9.714844 7.398438 9.4375 7.582031 9.167969 7.777344 C 8.269531 7.085938 6.847656 6.589844 4.929688 6.300781 C 4.804688 6.285156 4.683594 6.324219 4.59375 6.414062 C 4.507812 6.5 4.464844 6.625 4.484375 6.746094 C 4.707031 8.234375 5.066406 9.441406 5.546875 10.335938 C 5.746094 10.710938 5.960938 11.019531 6.199219 11.269531 C 5.976562 11.703125 5.789062 12.15625 5.632812 12.625 C 5.585938 12.761719 5.527344 12.902344 5.464844 13.042969 C 3.785156 11.78125 2.78125 9.125 2.476562 5.128906 Z M 6.605469 10.546875 C 6.476562 10.378906 6.351562 10.1875 6.234375 9.964844 C 5.851562 9.253906 5.554688 8.3125 5.34375 7.160156 C 7 7.460938 7.96875 7.894531 8.535156 8.28125 C 7.78125 8.9375 7.132812 9.699219 6.605469 10.546875 Z M 27.339844 18.601562 L 26.199219 20.03125 C 26.117188 20.132812 26.09375 20.273438 26.136719 20.398438 C 26.257812 20.761719 26.117188 21.164062 25.800781 21.375 L 23.898438 22.644531 C 21.253906 24.40625 18.175781 25.339844 15 25.339844 C 11.820312 25.339844 8.742188 24.40625 6.097656 22.644531 L 4.199219 21.378906 C 3.878906 21.164062 3.742188 20.761719 3.863281 20.398438 C 3.90625 20.273438 3.878906 20.136719 3.796875 20.03125 L 2.660156 18.601562 C 2.375 18.238281 2.425781 17.722656 2.777344 17.421875 C 5.179688 15.367188 6.058594 13.8125 6.371094 12.871094 C 7.070312 10.777344 8.503906 9.011719 10.402344 7.898438 C 10.40625 7.898438 10.40625 7.894531 10.410156 7.894531 C 11.800781 7.082031 13.386719 6.652344 15 6.652344 C 16.609375 6.652344 18.199219 7.082031 19.585938 7.894531 C 19.589844 7.894531 19.589844 7.894531 19.59375 7.898438 C 21.496094 9.011719 22.929688 10.777344 23.625 12.871094 C 23.941406 13.8125 24.820312 15.367188 27.222656 17.421875 C 27.574219 17.722656 27.625 18.238281 27.339844 18.601562 Z M 9.015625 10.449219 C 8.863281 10.296875 8.863281 10.046875 9.015625 9.894531 C 9.296875 9.613281 9.671875 9.457031 10.070312 9.457031 C 10.46875 9.457031 10.84375 9.613281 11.125 9.894531 C 11.277344 10.046875 11.277344 10.296875 11.125 10.449219 C 11.050781 10.523438 10.949219 10.5625 10.851562 10.5625 C 10.75 10.5625 10.652344 10.523438 10.574219 10.449219 C 10.441406 10.3125 10.261719 10.238281 10.070312 10.238281 C 9.878906 10.238281 9.703125 10.3125 9.566406 10.449219 C 9.414062 10.597656 9.167969 10.597656 9.015625 10.449219 Z M 18.871094 10.449219 C 18.71875 10.296875 18.71875 10.046875 18.871094 9.894531 C 19.152344 9.613281 19.527344 9.457031 19.925781 9.457031 C 20.324219 9.457031 20.699219 9.613281 20.980469 9.894531 C 21.132812 10.046875 21.132812 10.296875 20.980469 10.449219 C 20.90625 10.523438 20.804688 10.5625 20.707031 10.5625 C 20.605469 10.5625 20.507812 10.523438 20.429688 10.449219 C 20.296875 10.3125 20.117188 10.238281 19.925781 10.238281 C 19.734375 10.238281 19.558594 10.3125 19.421875 10.449219 C 19.269531 10.597656 19.023438 10.597656 18.871094 10.449219 Z M 8.09375 19.171875 C 8.015625 19.371094 7.785156 19.46875 7.585938 19.390625 C 6.820312 19.082031 5.527344 19.082031 4.761719 19.390625 C 4.710938 19.40625 4.664062 19.417969 4.613281 19.417969 C 4.460938 19.417969 4.3125 19.324219 4.253906 19.171875 C 4.171875 18.972656 4.269531 18.746094 4.46875 18.664062 C 5.425781 18.28125 6.921875 18.28125 7.878906 18.664062 C 8.078125 18.746094 8.175781 18.972656 8.09375 19.171875 Z M 8.117188 20.273438 C 8.148438 20.484375 8 20.683594 7.789062 20.710938 C 7.269531 20.785156 6.5625 21.195312 6.238281 21.605469 C 6.164062 21.703125 6.046875 21.753906 5.933594 21.753906 C 5.847656 21.753906 5.765625 21.726562 5.691406 21.671875 C 5.523438 21.539062 5.492188 21.292969 5.625 21.125 C 6.066406 20.5625 6.96875 20.042969 7.679688 19.941406 C 7.890625 19.910156 8.089844 20.058594 8.117188 20.273438 Z M 25.746094 19.171875 C 25.683594 19.324219 25.539062 19.417969 25.382812 19.417969 C 25.335938 19.417969 25.285156 19.40625 25.238281 19.390625 C 24.472656 19.082031 23.175781 19.082031 22.410156 19.390625 C 22.210938 19.46875 21.984375 19.371094 21.902344 19.171875 C 21.824219 18.972656 21.921875 18.746094 22.121094 18.664062 C 23.074219 18.28125 24.574219 18.28125 25.527344 18.664062 C 25.726562 18.746094 25.824219 18.972656 25.746094 19.171875 Z M 24.371094 21.125 C 24.503906 21.296875 24.476562 21.539062 24.304688 21.671875 C 24.234375 21.730469 24.148438 21.757812 24.066406 21.757812 C 23.949219 21.757812 23.835938 21.703125 23.757812 21.605469 C 23.4375 21.195312 22.726562 20.785156 22.210938 20.714844 C 21.996094 20.683594 21.847656 20.484375 21.878906 20.273438 C 21.910156 20.058594 22.105469 19.910156 22.320312 19.941406 C 23.027344 20.042969 23.929688 20.5625 24.371094 21.125 Z M 17.828125 18.625 C 17.5625 18.917969 17.183594 19.085938 16.789062 19.085938 C 16.015625 19.085938 15.386719 18.457031 15.386719 17.683594 C 15.386719 17.46875 15.214844 17.296875 15 17.296875 C 14.785156 17.296875 14.609375 17.46875 14.609375 17.683594 C 14.609375 18.457031 13.980469 19.085938 13.207031 19.085938 C 12.8125 19.085938 12.433594 18.917969 12.167969 18.625 C 12.023438 18.464844 11.777344 18.453125 11.621094 18.597656 C 11.460938 18.742188 11.449219 18.988281 11.59375 19.148438 C 11.855469 19.4375 12.191406 19.652344 12.5625 19.765625 C 12.542969 19.949219 12.53125 20.132812 12.53125 20.320312 C 12.53125 21.226562 12.769531 22.085938 13.207031 22.738281 C 13.671875 23.441406 14.308594 23.828125 15 23.828125 C 15.6875 23.828125 16.324219 23.441406 16.792969 22.738281 C 17.226562 22.085938 17.46875 21.226562 17.46875 20.320312 C 17.46875 20.132812 17.457031 19.949219 17.4375 19.765625 C 17.804688 19.652344 18.140625 19.441406 18.40625 19.148438 C 18.550781 18.988281 18.539062 18.742188 18.378906 18.597656 C 18.21875 18.453125 17.972656 18.464844 17.828125 18.625 Z M 15 23.046875 C 14.082031 23.046875 13.308594 21.796875 13.308594 20.316406 C 13.308594 20.164062 13.320312 20.011719 13.335938 19.859375 C 14.023438 19.820312 14.628906 19.460938 15 18.925781 C 15.371094 19.460938 15.972656 19.820312 16.664062 19.859375 C 16.679688 20.011719 16.6875 20.164062 16.6875 20.316406 C 16.6875 21.796875 15.914062 23.046875 15 23.046875 Z M 14.609375 16.125 C 14.609375 15.910156 14.785156 15.734375 15 15.734375 C 15.214844 15.734375 15.390625 15.910156 15.390625 16.125 C 15.390625 16.339844 15.214844 16.515625 15 16.515625 C 14.785156 16.515625 14.609375 16.339844 14.609375 16.125 Z M 12.777344 16.152344 L 12.691406 15.652344 C 12.675781 15.558594 12.703125 15.464844 12.769531 15.398438 L 13.136719 15.046875 C 13.539062 14.652344 13.679688 14.078125 13.503906 13.546875 C 13.332031 13.011719 12.878906 12.628906 12.324219 12.550781 L 11.820312 12.476562 C 11.730469 12.464844 11.648438 12.40625 11.609375 12.320312 L 11.382812 11.867188 C 11.132812 11.363281 10.632812 11.050781 10.070312 11.050781 C 9.507812 11.050781 9.007812 11.363281 8.757812 11.867188 L 8.535156 12.320312 C 8.492188 12.40625 8.414062 12.464844 8.320312 12.476562 L 7.816406 12.550781 C 7.261719 12.628906 6.808594 13.011719 6.636719 13.546875 C 6.460938 14.078125 6.605469 14.652344 7.003906 15.046875 L 7.371094 15.402344 C 7.4375 15.464844 7.46875 15.558594 7.453125 15.652344 L 7.367188 16.152344 C 7.269531 16.707031 7.492188 17.253906 7.949219 17.582031 C 8.402344 17.914062 8.992188 17.957031 9.488281 17.695312 L 9.9375 17.457031 C 10.019531 17.414062 10.121094 17.414062 10.203125 17.457031 L 10.652344 17.695312 C 10.867188 17.808594 11.101562 17.863281 11.335938 17.863281 C 11.636719 17.863281 11.9375 17.769531 12.195312 17.582031 C 12.648438 17.253906 12.871094 16.703125 12.777344 16.152344 Z M 11.734375 16.953125 C 11.519531 17.109375 11.25 17.128906 11.015625 17.003906 L 10.566406 16.765625 C 10.410156 16.6875 10.242188 16.644531 10.070312 16.644531 C 9.902344 16.644531 9.730469 16.6875 9.578125 16.765625 L 9.125 17.003906 C 8.890625 17.128906 8.621094 17.109375 8.40625 16.953125 C 8.191406 16.796875 8.089844 16.546875 8.136719 16.285156 L 8.222656 15.78125 C 8.28125 15.4375 8.167969 15.085938 7.917969 14.839844 L 7.550781 14.488281 C 7.359375 14.300781 7.296875 14.039062 7.378906 13.785156 C 7.460938 13.53125 7.667969 13.359375 7.929688 13.320312 L 8.433594 13.246094 C 8.78125 13.195312 9.078125 12.980469 9.234375 12.667969 L 9.460938 12.210938 C 9.578125 11.972656 9.804688 11.828125 10.070312 11.828125 C 10.339844 11.828125 10.566406 11.972656 10.683594 12.210938 L 10.910156 12.667969 C 11.066406 12.980469 11.363281 13.199219 11.710938 13.246094 L 12.214844 13.320312 C 12.476562 13.359375 12.683594 13.53125 12.765625 13.785156 C 12.847656 14.039062 12.785156 14.300781 12.59375 14.488281 L 12.226562 14.839844 C 11.976562 15.085938 11.863281 15.4375 11.921875 15.78125 L 12.007812 16.285156 C 12.054688 16.546875 11.953125 16.796875 11.734375 16.953125 Z M 22.632812 16.152344 L 22.546875 15.652344 C 22.53125 15.558594 22.558594 15.464844 22.628906 15.398438 L 22.992188 15.046875 C 23.394531 14.652344 23.535156 14.078125 23.363281 13.546875 C 23.1875 13.011719 22.734375 12.628906 22.179688 12.550781 L 21.675781 12.476562 C 21.585938 12.464844 21.503906 12.40625 21.464844 12.320312 L 21.238281 11.867188 C 20.992188 11.363281 20.488281 11.050781 19.925781 11.050781 C 19.367188 11.050781 18.863281 11.363281 18.613281 11.867188 L 18.390625 12.320312 C 18.347656 12.40625 18.269531 12.464844 18.175781 12.476562 L 17.671875 12.550781 C 17.117188 12.628906 16.664062 13.011719 16.492188 13.546875 C 16.320312 14.078125 16.460938 14.652344 16.863281 15.046875 L 17.226562 15.402344 C 17.292969 15.464844 17.324219 15.558594 17.308594 15.652344 L 17.222656 16.152344 C 17.125 16.707031 17.351562 17.253906 17.804688 17.582031 C 18.257812 17.914062 18.847656 17.957031 19.34375 17.695312 L 19.792969 17.457031 C 19.878906 17.414062 19.976562 17.414062 20.058594 17.457031 L 20.507812 17.695312 C 20.726562 17.808594 20.957031 17.863281 21.191406 17.863281 C 21.492188 17.863281 21.792969 17.769531 22.050781 17.582031 C 22.503906 17.253906 22.726562 16.703125 22.632812 16.152344 Z M 21.59375 16.953125 C 21.375 17.109375 21.109375 17.128906 20.871094 17.003906 L 20.421875 16.765625 C 20.265625 16.6875 20.097656 16.644531 19.925781 16.644531 C 19.757812 16.644531 19.585938 16.6875 19.433594 16.765625 L 18.984375 17.003906 C 18.746094 17.128906 18.476562 17.109375 18.261719 16.953125 C 18.046875 16.796875 17.945312 16.546875 17.992188 16.285156 L 18.078125 15.78125 C 18.136719 15.4375 18.023438 15.085938 17.773438 14.839844 L 17.40625 14.488281 C 17.21875 14.300781 17.152344 14.039062 17.234375 13.785156 C 17.316406 13.53125 17.523438 13.359375 17.785156 13.320312 L 18.289062 13.246094 C 18.636719 13.195312 18.933594 12.980469 19.089844 12.667969 L 19.316406 12.210938 C 19.433594 11.972656 19.660156 11.828125 19.929688 11.828125 C 20.195312 11.828125 20.421875 11.972656 20.542969 12.210938 L 20.765625 12.667969 C 20.921875 12.980469 21.21875 13.199219 21.566406 13.246094 L 22.070312 13.320312 C 22.332031 13.359375 22.539062 13.53125 22.621094 13.785156 C 22.703125 14.039062 22.640625 14.300781 22.449219 14.488281 L 22.082031 14.839844 C 21.832031 15.085938 21.71875 15.4375 21.777344 15.78125 L 21.863281 16.285156 C 21.910156 16.546875 21.808594 16.796875 21.59375 16.953125 Z M 21.59375 16.953125 " fill-opacity="1" fill-rule="nonzero"/></g></svg>