<svg width="160" height="275" viewBox="0 0 160 275" fill="none" xmlns="http://www.w3.org/2000/svg">
<path d="M47.7599 169.26H118.64C126.04 169.26 132.62 165.77 136.83 160.34C137.34 159.69 146.02 161.85 148.64 157.26C152.64 150.26 143.64 146.26 144.64 138.26C145.64 130.26 141.64 115.26 141.64 115.26C141.64 102.56 131.34 92.26 118.64 92.26H58.6399C45.9399 92.26 35.6399 102.56 35.6399 115.26V157.14C35.6399 163.84 41.0699 169.26 47.7599 169.26Z" fill="black"/>
<path d="M33.6299 157.14V115.26C33.6299 101.47 44.8399 90.26 58.6299 90.26H118.63C132.33 90.26 143.49 101.33 143.63 115C144.17 117.09 147.59 130.71 146.62 138.51C146.25 141.49 147.61 143.85 149.05 146.36C150.96 149.68 153.12 153.44 150.37 158.25C147.86 162.64 141.9 162.38 138.7 162.24C138.43 162.23 138.13 162.22 137.88 162.21C133.11 167.97 126.14 171.26 118.63 171.26H47.7599C39.9699 171.26 33.6299 164.92 33.6299 157.14ZM138.88 158.25C141.23 158.35 145.6 158.54 146.9 156.27C148.44 153.58 147.51 151.7 145.58 148.36C143.95 145.53 142.11 142.32 142.65 138.02C143.59 130.5 139.74 115.93 139.7 115.78C139.66 115.61 139.63 115.44 139.63 115.27C139.63 103.69 130.21 94.27 118.63 94.27H58.6299C47.0499 94.27 37.6299 103.69 37.6299 115.27V157.15C37.6299 162.73 42.1699 167.27 47.7599 167.27H118.64C125.18 167.27 131.23 164.3 135.25 159.13C135.83 158.38 136.58 158.22 137.68 158.22C138.04 158.22 138.44 158.24 138.89 158.26L138.88 158.25Z" fill="black"/>
<path d="M83.9899 73.72C93.0087 73.72 100.32 64.5776 100.32 53.3C100.32 42.0223 93.0087 32.88 83.9899 32.88C74.9711 32.88 67.6599 42.0223 67.6599 53.3C67.6599 64.5776 74.9711 73.72 83.9899 73.72Z" fill="white"/>
<path d="M65.6599 53.3C65.6599 40.94 73.8799 30.88 83.9899 30.88C94.0999 30.88 102.32 40.94 102.32 53.3C102.32 65.66 94.0999 75.72 83.9899 75.72C73.8799 75.72 65.6599 65.66 65.6599 53.3ZM69.6599 53.3C69.6599 63.46 76.0899 71.72 83.9899 71.72C91.8899 71.72 98.3199 63.46 98.3199 53.3C98.3199 43.14 91.8899 34.88 83.9899 34.88C76.0899 34.88 69.6599 43.14 69.6599 53.3Z" fill="black"/>
<path d="M131.63 126.26L117.04 81.85C114.06 72.9 104.29 68.01 95.3401 71C86.3901 73.98 81.5001 83.75 84.4901 92.7L95.6301 126.27H131.63V126.26Z" fill="black"/>
<path d="M93.73 126.89L82.59 93.33C79.25 83.31 84.69 72.44 94.71 69.1C99.54 67.49 104.73 67.86 109.32 70.16C113.91 72.46 117.32 76.38 118.94 81.23L133.53 125.64C133.73 126.25 133.63 126.92 133.25 127.44C132.87 127.96 132.27 128.27 131.63 128.27H95.63C94.77 128.27 94 127.72 93.73 126.9V126.89ZM115.15 82.48C113.88 78.66 111.18 75.55 107.54 73.73C103.91 71.91 99.8 71.61 95.98 72.89C88.05 75.53 83.75 84.13 86.39 92.06L97.07 124.26H128.86L115.14 82.48H115.15Z" fill="black"/>
<path d="M44.6301 48.26C49.3601 73.78 74.9901 87.26 97.6301 87.26C114.61 87.26 135.63 90.26 138.63 58.26C145.63 61.26 154.63 60.26 152.63 40.26C150.05 14.43 124.27 2.25998 101.63 2.25998C78.9901 2.25998 39.6301 21.26 44.6301 48.26Z" fill="black"/>
<path d="M101.65 89.3C100.29 89.28 98.95 89.26 97.63 89.26C85.59 89.26 73.08 85.52 63.3 78.99C52.09 71.51 44.96 61.01 42.66 48.62C41.07 40.05 43.61 31.45 50.01 23.76C62.25 9.04999 85.86 0.259979 101.63 0.259979C125.98 0.259979 152.01 13.93 154.62 40.06C155.62 50.08 154.02 56.7 149.87 59.75C147.37 61.59 144.04 62 140.34 60.98C136.91 87.27 120.5 89.33 105.79 89.33C104.39 89.33 103 89.31 101.64 89.29L101.65 89.3ZM139.42 56.42C141.36 57.25 144.99 58.36 147.5 56.52C149.52 55.04 151.7 51.05 150.64 40.46C148.9 23.03 132.82 4.25999 101.63 4.25999C87.11 4.25999 64.42 12.69 53.09 26.32C47.4 33.16 45.21 40.42 46.6 47.9C50.04 66.47 68.67 85.26 97.63 85.26C98.97 85.26 100.33 85.28 101.7 85.3C117.61 85.51 134.05 85.74 136.64 58.08C136.7 57.44 137.06 56.87 137.61 56.55C137.92 56.36 138.28 56.27 138.63 56.27C138.9 56.27 139.17 56.32 139.42 56.43V56.42Z" fill="black"/>
<path d="M59.1901 73.37C60.1001 84.25 71.8301 93.44 90.8701 91.84C115.4 89.78 125.56 71.65 124.59 60.06C123.62 48.47 103.87 48.5 87.3501 49.88C70.8301 51.26 58.2201 61.78 59.1901 73.37Z" fill="white"/>
<path d="M57.2 73.54C56.14 60.87 69.5899 49.37 87.1799 47.89C98.1199 46.97 106.05 47.05 112.15 48.14C121.21 49.75 126.06 53.71 126.58 59.9C127.62 72.3 117.04 91.66 91.0299 93.84C89.4899 93.97 87.9999 94.03 86.5599 94.03C68.3899 94.03 58.0799 84.12 57.1899 73.54H57.2ZM87.5199 51.87C72.1199 53.16 60.3099 62.73 61.1899 73.2C61.9799 82.63 72.3899 91.38 90.7099 89.85C114 87.9 123.51 71.02 122.6 60.23C122.47 58.68 122.08 53.97 111.45 52.08C108.38 51.53 104.77 51.26 100.47 51.26C96.72 51.26 92.4399 51.47 87.5199 51.88V51.87Z" fill="black"/>
<path d="M58.1411 74.283L74.2395 70.9491C76.4677 70.4877 77.8999 68.3074 77.4384 66.0793L74.0397 49.6675C73.5783 47.4393 71.398 46.0071 69.1698 46.4686L53.0714 49.8024C50.8433 50.2638 49.4111 52.4441 49.8725 54.6723L53.2712 71.084C53.7326 73.3122 55.913 74.7444 58.1411 74.283Z" fill="white"/>
<path d="M53.9299 75.37C52.5599 74.47 51.6299 73.1 51.2999 71.5L47.8999 55.09C47.2099 51.78 49.3499 48.54 52.6499 47.85L68.7399 44.52C70.3399 44.19 71.9799 44.5 73.3399 45.4C74.6999 46.3 75.6399 47.67 75.9699 49.28L79.3699 65.69C79.6999 67.29 79.3899 68.93 78.4899 70.29C77.5899 71.66 76.2199 72.59 74.6099 72.92L58.5199 76.25C58.0999 76.34 57.6799 76.38 57.2699 76.38C56.0899 76.38 54.9299 76.04 53.9199 75.37H53.9299ZM69.5499 48.44L53.4599 51.77C52.3099 52.01 51.5699 53.13 51.8099 54.28L55.2099 70.69C55.4499 71.84 56.5799 72.57 57.7199 72.34L73.8099 69.01C74.3599 68.89 74.8399 68.57 75.1499 68.1C75.4599 67.63 75.5699 67.06 75.4499 66.5L72.0499 50.09C71.8399 49.09 70.9599 48.4 69.9699 48.4C69.8299 48.4 69.6799 48.41 69.5399 48.44H69.5499Z" fill="black"/>
<path d="M81.2599 64.39L70.1999 68.2C67.9699 68.97 66.7699 71.42 67.5399 73.65C68.3099 75.88 70.7599 77.08 72.9899 76.31L78.6799 74.35" fill="white"/>
<path d="M71.6001 78.55C72.2801 78.55 72.9701 78.44 73.6401 78.21L79.3301 76.25C80.3701 75.89 80.9301 74.75 80.5701 73.71C80.2101 72.67 79.0701 72.11 78.0301 72.47L72.3401 74.43C71.7601 74.63 71.1401 74.59 70.5901 74.32C70.0401 74.05 69.6301 73.59 69.4301 73.01C69.2301 72.44 69.2701 71.82 69.5401 71.26C69.8101 70.71 70.2701 70.29 70.8501 70.1L81.9101 66.29C82.9501 65.93 83.5101 64.79 83.1501 63.75C82.7901 62.71 81.6601 62.15 80.6101 62.51L69.5501 66.32C67.9701 66.87 66.6901 68 65.9501 69.51C65.2101 71.02 65.1101 72.73 65.6501 74.31C66.5501 76.91 68.9901 78.55 71.6001 78.55Z" fill="black"/>
<path d="M82.8678 69.7434L101.238 65.9391C103.466 65.4777 104.898 63.2974 104.437 61.0692L101.038 44.6574C100.577 42.4293 98.3965 40.9971 96.1684 41.4585L77.7982 45.2628C75.57 45.7242 74.1378 47.9045 74.5992 50.1327L77.998 66.5445C78.4594 68.7726 80.6397 70.2048 82.8678 69.7434Z" fill="white"/>
<path d="M76.0201 66.97L72.6201 50.56C71.9301 47.25 74.0701 44.01 77.3701 43.32L95.7301 39.52C97.3301 39.19 98.9701 39.5 100.33 40.4C101.7 41.3 102.63 42.67 102.96 44.28L106.36 60.69C106.69 62.29 106.38 63.93 105.48 65.29C104.58 66.66 103.21 67.59 101.6 67.92L83.2401 71.72C82.8201 71.81 82.4101 71.85 82.0001 71.85C79.1601 71.85 76.6001 69.86 76.0101 66.97H76.0201ZM100.81 64C101.36 63.88 101.84 63.56 102.15 63.09C102.46 62.62 102.57 62.05 102.45 61.49L99.0501 45.08C98.8101 43.93 97.7001 43.19 96.5401 43.43L78.1801 47.23C77.6301 47.34 77.1501 47.67 76.8401 48.14C76.5301 48.61 76.4201 49.18 76.5401 49.74L79.9401 66.15C80.1801 67.3 81.3101 68.03 82.4501 67.8L100.81 64Z" fill="black"/>
<path d="M115.63 81.26C124.63 73.26 125.36 66.55 125.36 62.8C125.36 55.48 119.43 49.54 112.1 49.54C104.77 49.54 98.8401 55.47 98.8401 62.8C98.8401 64.3 99.0901 65.75 99.5501 67.1" fill="white"/>
<path d="M115.63 83.26C116.1 83.26 116.58 83.09 116.96 82.76C126.28 74.48 127.36 67.4 127.36 62.8C127.36 54.39 120.52 47.54 112.1 47.54C103.68 47.54 96.8401 54.38 96.8401 62.8C96.8401 64.5 97.1201 66.16 97.6601 67.75C98.0201 68.79 99.1501 69.35 100.2 68.99C101.24 68.63 101.8 67.49 101.44 66.45C101.04 65.28 100.84 64.05 100.84 62.8C100.84 56.59 105.89 51.54 112.1 51.54C118.31 51.54 123.36 56.59 123.36 62.8C123.36 66.63 122.42 72.55 114.31 79.76C113.48 80.49 113.41 81.76 114.14 82.58C114.54 83.02 115.08 83.25 115.64 83.25L115.63 83.26Z" fill="black"/>
<path d="M101.35 78.56C101.89 78.56 102.44 78.34 102.83 77.91L113.11 66.61C113.85 65.79 113.79 64.53 112.98 63.78C112.16 63.04 110.9 63.1 110.15 63.91L99.87 75.21C99.13 76.03 99.19 77.29 100 78.04C100.38 78.39 100.87 78.56 101.34 78.56H101.35Z" fill="black"/>
<path d="M111.63 47.26C111.78 47.26 111.93 47.23 112.08 47.15C112.57 46.9 112.77 46.3 112.53 45.81C111.59 43.92 110.45 42.11 109.16 40.42C108.82 39.98 108.2 39.9 107.76 40.23C107.32 40.57 107.24 41.19 107.57 41.63C108.78 43.22 109.85 44.92 110.74 46.7C110.92 47.05 111.27 47.25 111.64 47.25L111.63 47.26Z" fill="white"/>
<path d="M60.63 47.26C60.68 47.26 60.74 47.26 60.8 47.25C61.34 47.16 61.71 46.64 61.62 46.1C60.99 42.32 63.06 39.37 64.33 37.95L66.75 43C66.89 43.29 67.15 43.49 67.47 43.55C67.78 43.61 68.1 43.51 68.34 43.3C70.41 41.37 72.6 39.11 73.93 37.71L75.66 44.51C75.76 44.89 76.07 45.18 76.45 45.25C76.83 45.32 77.23 45.16 77.45 44.84C79.55 41.83 82.16 39.12 83.01 39.05C83.42 39.37 84.01 39.33 84.37 38.94C84.74 38.53 84.71 37.9 84.3 37.53C83.9 37.16 83.38 37.01 82.81 37.07C81.03 37.27 78.63 39.98 77.07 41.98L75.41 35.46C75.32 35.11 75.04 34.83 74.69 34.74C74.33 34.65 73.96 34.76 73.71 35.03C73.68 35.06 70.85 38.12 67.96 40.91L65.53 35.84C65.4 35.57 65.15 35.36 64.85 35.3C64.56 35.23 64.24 35.3 64 35.49C63.78 35.67 58.55 39.93 59.64 46.44C59.72 46.93 60.14 47.28 60.63 47.28V47.26Z" fill="white"/>
<path d="M101.63 96.26C103.01 96.26 111.54 94.12 114.38 90.92C114.75 90.51 114.71 89.88 114.3 89.51C113.89 89.14 113.26 89.18 112.89 89.59C110.62 92.14 102.71 94.25 101.64 94.25C101.09 94.25 100.64 94.7 100.64 95.25C100.64 95.8 101.09 96.25 101.64 96.25L101.63 96.26Z" fill="white"/>
<path d="M139.63 59.26C140.11 59.26 140.53 58.91 140.62 58.42C141.63 52.38 140.73 40.09 136.47 33.7C136.16 33.24 135.55 33.12 135.08 33.42C134.62 33.73 134.5 34.35 134.8 34.81C138.63 40.55 139.62 52.24 138.65 58.09C138.56 58.63 138.93 59.15 139.47 59.24C139.53 59.24 139.58 59.25 139.64 59.25L139.63 59.26Z" fill="white"/>
<path d="M53.2 48.39C53.29 48.39 53.38 48.38 53.47 48.35C54 48.2 54.31 47.65 54.16 47.11C52.27 40.46 53.94 34.99 58.99 31.28C68.45 24.34 86.38 25.42 98.97 33.7C99.43 34 100.05 33.88 100.36 33.41C100.66 32.95 100.53 32.33 100.07 32.03C86.84 23.33 67.88 22.27 57.81 29.67C52.11 33.86 50.13 40.24 52.23 47.66C52.36 48.1 52.76 48.39 53.19 48.39H53.2Z" fill="white"/>
<path d="M27.6001 154.26H99.6001L130.93 142C133.99 140.8 133.13 136.26 129.85 136.26H20.6001L27.6001 154.26Z" fill="white"/>
<path d="M25.7399 154.99L18.7399 136.99C18.4999 136.37 18.5799 135.68 18.9499 135.14C19.3199 134.6 19.9399 134.27 20.5999 134.27H129.85C132.28 134.27 134.29 135.94 134.74 138.32C135.19 140.7 133.93 142.99 131.66 143.87L100.33 156.13C100.1 156.22 99.8499 156.27 99.5999 156.27H27.5999C26.7699 156.27 26.0299 155.76 25.7399 154.99ZM130.2 140.14C130.85 139.88 130.86 139.35 130.8 139.05C130.74 138.75 130.55 138.26 129.84 138.26H23.5299L28.9699 152.26H99.2199L130.2 140.14Z" fill="black"/>
<path d="M144.39 138.74C149.63 138.26 164.63 133.26 152.63 110.26C140.63 87.26 126.63 82.26 121.63 82.26C118.18 82.26 121.31 95.08 122.63 98.26L131.63 112.26C131.63 112.26 97.45 111.72 95.63 126.26C93.63 142.26 85.63 135.26 95.63 138.26C105.63 141.26 139.15 139.22 144.39 138.74Z" fill="black"/>
<path d="M95.06 140.18C93.25 139.64 91.75 139.35 90.85 139.37C89.9 139.38 88.98 138.75 88.76 137.83C88.54 136.91 89.06 135.93 89.91 135.52C90.19 135.39 92.64 134 93.64 126.01C95.29 112.8 118.75 110.65 128 110.31L120.95 99.34C120.89 99.24 120.83 99.13 120.78 99.02C120.26 97.76 116.38 85.57 118.96 81.71C119.59 80.77 120.54 80.26 121.63 80.26C122.35 80.26 139.41 80.59 154.4 109.34C159.53 119.16 160.53 127.07 157.38 132.85C154.54 138.06 148.71 140.36 144.57 140.74C141.73 141 128.51 141.88 116.02 141.88C107.51 141.88 99.35 141.47 95.05 140.18H95.06ZM144.21 136.75C144.91 136.69 151.12 135.97 153.87 130.93C156.31 126.46 155.26 119.63 150.86 111.18C140.11 90.57 127.71 84.63 122.16 84.27C121.64 86.37 123.01 93.81 124.41 97.33L133.31 111.17C133.71 111.79 133.73 112.58 133.38 113.22C133.03 113.86 132.35 114.23 131.6 114.25C122.6 114.09 98.92 116.04 97.62 126.5C97.05 131.07 95.98 134.03 94.83 135.95C95.27 136.06 95.73 136.19 96.21 136.33C105.3 139.06 136.94 137.4 144.21 136.74V136.75Z" fill="black"/>
<path d="M95.6299 124.26C96.1799 124.26 96.6299 123.81 96.6299 123.26C96.6299 121.71 97.2099 120.42 98.3999 119.3C104.55 113.51 124.52 114.74 132.05 115.2C136.1 115.44 136.26 115.46 136.58 114.68C136.74 114.28 136.62 113.79 136.29 113.51C124.39 103.17 120.27 93.44 120.39 87.78C120.43 85.62 121.08 83.98 122.26 83.04C122.69 82.69 122.76 82.07 122.42 81.63C122.07 81.2 121.45 81.13 121.01 81.47C119.35 82.8 118.45 84.96 118.39 87.73C118.27 93.5 122.1 103.09 133.02 113.24C132.74 113.22 132.46 113.21 132.17 113.19C123.68 112.67 103.81 111.45 97.0299 117.83C95.4399 119.33 94.6299 121.15 94.6299 123.25C94.6299 123.8 95.0799 124.25 95.6299 124.25V124.26Z" fill="white"/>
<path d="M26.8399 150.26H98.9999C101.23 150.26 102.78 148.04 102.01 145.94L80.3799 87.35C79.9199 86.09 78.7099 85.25 77.3699 85.25H5.20991C2.97991 85.25 1.42991 87.47 2.19991 89.57L23.8299 148.16C24.2899 149.42 25.4999 150.26 26.8399 150.26Z" fill="white"/>
<path d="M21.96 148.86L0.320013 90.27C-0.269987 88.67 -0.0399866 86.89 0.930013 85.49C1.90001 84.09 3.50001 83.26 5.20001 83.26H77.36C79.53 83.26 81.49 84.63 82.24 86.66L103.87 145.25C104.46 146.85 104.23 148.63 103.26 150.03C102.29 151.43 100.69 152.26 98.99 152.26H26.84C24.67 152.26 22.71 150.89 21.96 148.86ZM5.21001 87.26C4.64001 87.26 4.33001 87.62 4.22001 87.78C4.11001 87.94 3.88001 88.35 4.08001 88.89L25.71 147.48C25.88 147.95 26.34 148.27 26.84 148.27H99.01C99.58 148.27 99.89 147.91 100 147.75C100.11 147.59 100.34 147.18 100.14 146.64L78.51 88.05C78.34 87.58 77.88 87.26 77.38 87.26H5.21001Z" fill="black"/>
<path d="M97.6301 230.26C98.9301 230.26 100.24 230.05 101.54 229.6C107.81 227.44 111.14 220.61 108.98 214.35L87.9801 153.35C85.8201 147.08 78.9901 143.75 72.7301 145.91C66.4601 148.07 63.1301 154.9 65.2901 161.16L86.2901 222.16C88.0001 227.13 92.6601 230.26 97.6401 230.26H97.6301Z" fill="black"/>
<path d="M64.6301 230.26C65.9301 230.26 67.2401 230.05 68.5401 229.6C74.8101 227.44 78.1401 220.61 75.9801 214.35L54.9801 153.35C52.8201 147.08 45.9901 143.75 39.7301 145.91C33.4601 148.07 30.1301 154.9 32.2901 161.16L53.2901 222.16C55.0001 227.13 59.6601 230.26 64.6401 230.26H64.6301Z" fill="black"/>
<path d="M88.6301 213.26C88.6301 213.26 56.4401 280.34 40.7201 271.62C39.5001 270.95 36.3401 268.68 35.6301 267.26C32.6301 261.26 39.9601 226.17 49.3901 215.57C62.4201 200.93 62.5801 218.84 62.5801 218.84L80.6201 206.26L88.6201 213.26H88.6301Z" fill="white"/>
<path d="M39.7501 273.37C39.0001 272.95 34.9501 270.37 33.8401 268.15C31.7901 264.05 33.6701 251.86 35.9101 242.66C39.0401 229.78 43.5201 219.15 47.9001 214.23C52.6201 208.93 56.4601 206.94 59.6601 208.14C62.5201 209.21 63.7201 212.57 64.2201 215.26L79.4901 204.62C80.2401 204.1 81.2601 204.15 81.9501 204.76L89.9501 211.76C90.6301 212.35 90.8201 213.32 90.4401 214.13C90.3801 214.26 83.9001 227.73 75.4501 241.67C63.9201 260.69 54.3301 271.54 46.9301 273.89C45.8401 274.24 44.7801 274.41 43.7701 274.41C42.3401 274.41 41.0001 274.07 39.7601 273.38L39.7501 273.37ZM80.4901 208.8L63.7301 220.49C63.1201 220.91 62.3301 220.96 61.6701 220.63C61.0101 220.29 60.5901 219.61 60.5901 218.87C60.5601 216.3 59.7301 212.45 58.2501 211.9C57.2001 211.5 54.7101 212.62 50.8901 216.91C41.6001 227.35 34.9201 261.37 37.4201 266.37C37.7901 267.12 40.2801 269.1 41.6901 269.88C42.8301 270.51 44.1401 270.58 45.7101 270.08C58.3401 266.05 78.5601 229.31 86.1701 213.77L80.5001 208.8H80.4901Z" fill="black"/>
<path d="M83.5899 211.21C83.5899 211.21 54.0099 272.23 39.6999 264.3C38.2099 263.47 35.3599 261.26 34.6399 259.26C30.6199 248.14 35.6399 228.26 47.5999 213.28C48.2999 212.4 38.9899 189.87 39.6399 189.26C49.4199 180.09 57.6399 198.26 57.6399 198.26L67.6399 188.26L74.6399 204.26L83.5899 211.21Z" fill="white"/>
<path d="M38.7299 266.05C37.4199 265.32 33.7899 262.81 32.7599 259.94C28.3899 247.83 33.8799 227.64 45.5399 212.67C45.0499 210.73 42.9599 205.09 41.5199 201.23C37.1099 189.35 37.0199 188.98 38.2699 187.81C41.0099 185.24 43.9499 184.25 47.0099 184.85C52.2799 185.9 56.2199 191.52 58.1599 194.92L66.2299 186.85C66.6999 186.38 67.3599 186.18 68.0199 186.3C68.6699 186.42 69.2199 186.86 69.4799 187.46L76.2799 202.99L84.8299 209.63C85.5799 210.21 85.8199 211.23 85.3999 212.08C84.4199 214.1 61.2899 261.5 45.4099 266.53C44.3999 266.85 43.4199 267.01 42.4799 267.01C41.1499 267.01 39.8999 266.69 38.7399 266.05H38.7299ZM73.4099 205.84C73.1499 205.63 72.9399 205.37 72.7999 205.06L66.9699 191.74L59.0399 199.67C58.5799 200.13 57.9199 200.34 57.2699 200.22C56.6199 200.1 56.0799 199.68 55.8099 199.08C54.6399 196.51 50.6399 189.63 46.2199 188.76C44.7299 188.47 43.2799 188.89 41.7799 190.05C42.3399 191.95 43.9999 196.42 45.2599 199.83C50.0599 212.76 50.1099 213.32 49.1499 214.53C38.1299 228.34 32.5799 247.69 36.5099 258.58C36.9699 259.85 39.2799 261.78 40.6599 262.55C41.6499 263.1 42.7999 263.16 44.1799 262.72C55.5999 259.11 73.9999 226.04 81.0599 211.79L73.3899 205.84H73.4099Z" fill="black"/>
<path d="M63.6299 247.26C64.1399 247.26 64.6499 247.06 65.0499 246.67C65.8299 245.89 65.8299 244.62 65.0499 243.84C64.8799 243.67 60.7699 239.59 55.0599 236.61C47.1299 232.47 39.9999 232.48 34.4299 236.66C33.5499 237.32 33.3699 238.58 34.0299 239.46C34.6899 240.34 35.9399 240.53 36.8299 239.86C47.2899 232.01 62.0699 246.53 62.2199 246.68C62.6099 247.07 63.1199 247.26 63.6299 247.26Z" fill="black"/>
<path d="M70.271 207.588C71.7478 207.426 72.739 205.417 72.4848 203.1C72.2307 200.784 70.8275 199.037 69.3507 199.199C67.8739 199.361 66.8828 201.37 67.1369 203.687C67.391 206.004 68.7942 207.75 70.271 207.588Z" fill="black"/>
<path d="M65.1399 203.91C64.9799 202.42 65.2099 200.94 65.7899 199.76C66.5099 198.3 67.7199 197.37 69.1199 197.22C70.5299 197.07 71.8999 197.71 72.9199 198.98C73.7499 200.01 74.2899 201.4 74.4599 202.9C74.8399 206.37 73.0899 209.31 70.4799 209.6C70.3399 209.61 70.2099 209.62 70.0699 209.62C67.6299 209.62 65.4999 207.21 65.1399 203.92V203.91ZM69.1199 203.48C69.2499 204.67 69.7599 205.38 70.0399 205.57C70.2699 205.32 70.6199 204.52 70.4799 203.33C70.3499 202.14 69.8299 201.43 69.5599 201.24C69.3299 201.49 68.9799 202.29 69.1199 203.48Z" fill="black"/>
<path d="M53.6301 240.26C54.3401 240.26 55.0201 239.89 55.3801 239.22L66.3801 219.22C66.6601 218.72 66.7001 218.11 66.5101 217.57L58.5101 195.57C58.1301 194.53 56.9801 194 55.9501 194.37C54.9101 194.75 54.3801 195.9 54.7501 196.93L62.4401 218.08L51.8801 237.29C51.3501 238.26 51.7001 239.47 52.6701 240.01C52.9801 240.18 53.3101 240.26 53.6301 240.26Z" fill="black"/>
<path d="M63.6299 220.26C64.0999 220.26 64.5699 220.1 64.9499 219.76C65.7799 219.03 65.8699 217.77 65.1399 216.94C64.8199 216.57 57.1299 207.94 47.9299 211.38C46.8999 211.77 46.3699 212.92 46.7599 213.96C47.1499 214.99 48.2999 215.52 49.3399 215.13C55.9699 212.64 62.0699 219.5 62.1299 219.57C62.5299 220.02 63.0799 220.25 63.6399 220.25L63.6299 220.26Z" fill="black"/>
<path d="M45.6299 209.26C45.8599 209.26 46.0999 209.22 46.3299 209.13C53.3499 206.5 58.5299 208.95 58.7399 209.05C59.7299 209.53 60.9299 209.13 61.4099 208.14C61.8899 207.15 61.4999 205.96 60.5199 205.47C60.2399 205.33 53.6399 202.12 44.9199 205.39C43.8899 205.78 43.3599 206.93 43.7499 207.97C44.0499 208.77 44.8099 209.27 45.6199 209.27L45.6299 209.26Z" fill="black"/>
<path d="M60.6299 227.26C61.2599 227.26 61.8799 226.96 62.2699 226.41C62.8999 225.51 62.6799 224.26 61.7799 223.62C61.3399 223.31 50.8099 216.06 41.9299 219.39C40.8999 219.78 40.3699 220.93 40.7599 221.97C41.1499 223 42.2999 223.53 43.3399 223.14C50.2699 220.54 59.3999 226.84 59.4899 226.91C59.8399 227.15 60.2399 227.27 60.6299 227.27V227.26Z" fill="black"/>
<path d="M55.6299 235.26C56.1799 235.26 56.7299 235.03 57.1299 234.59C57.8599 233.76 57.7899 232.5 56.9599 231.77C56.5599 231.41 46.9599 223.01 37.9299 226.39C36.8999 226.78 36.3699 227.93 36.7599 228.97C37.1499 230 38.2999 230.52 39.3399 230.14C46.0999 227.6 54.2299 234.69 54.3099 234.76C54.6899 235.1 55.1599 235.26 55.6299 235.26Z" fill="black"/>
<path d="M121.63 213.26C121.63 213.26 89.4401 280.34 73.7201 271.62C72.5001 270.95 69.3401 268.68 68.6301 267.26C65.6301 261.26 72.9601 226.17 82.3901 215.57C95.4201 200.93 95.5801 218.84 95.5801 218.84L113.62 206.26L121.62 213.26H121.63Z" fill="white"/>
<path d="M72.7501 273.37C72.0001 272.95 67.9501 270.37 66.8401 268.15C64.7901 264.05 66.6701 251.86 68.9101 242.66C72.0401 229.78 76.5201 219.15 80.9001 214.23C85.6201 208.93 89.4601 206.94 92.6601 208.14C95.5201 209.21 96.7201 212.57 97.2201 215.26L112.49 204.62C113.24 204.1 114.26 204.15 114.95 204.76L122.95 211.76C123.63 212.35 123.82 213.32 123.44 214.13C123.38 214.26 116.9 227.73 108.45 241.67C96.9201 260.69 87.3301 271.54 79.9301 273.89C78.8401 274.24 77.7801 274.41 76.7701 274.41C75.3401 274.41 74.0001 274.07 72.7601 273.38L72.7501 273.37ZM113.49 208.8L96.7301 220.49C96.1201 220.91 95.3301 220.96 94.6701 220.63C94.0101 220.29 93.5901 219.61 93.5901 218.87C93.5601 216.3 92.7301 212.45 91.2501 211.9C90.2001 211.5 87.7101 212.62 83.8901 216.91C74.6001 227.35 67.9201 261.37 70.4201 266.37C70.7901 267.12 73.2801 269.1 74.6901 269.88C75.8301 270.51 77.1501 270.58 78.7101 270.08C91.3401 266.05 111.56 229.31 119.17 213.77L113.5 208.8H113.49Z" fill="black"/>
<path d="M116.59 211.21C116.59 211.21 87.0099 272.23 72.6999 264.3C71.2099 263.47 68.3599 261.26 67.6399 259.26C63.6199 248.14 68.6399 228.26 80.5999 213.28C81.2999 212.4 71.9899 189.87 72.6399 189.26C82.4199 180.09 90.6399 198.26 90.6399 198.26L100.64 188.26L107.64 204.26L116.59 211.21Z" fill="white"/>
<path d="M71.7299 266.05C70.4199 265.32 66.7899 262.81 65.7599 259.94C61.3899 247.83 66.8799 227.64 78.5399 212.67C78.0499 210.73 75.9599 205.09 74.5199 201.23C70.1099 189.35 70.0199 188.98 71.2699 187.81C74.0099 185.24 76.9499 184.25 80.0099 184.85C85.2799 185.9 89.2199 191.52 91.1599 194.92L99.2299 186.85C99.6999 186.38 100.36 186.18 101.02 186.3C101.67 186.42 102.22 186.86 102.48 187.46L109.28 202.99L117.83 209.63C118.58 210.21 118.82 211.23 118.4 212.08C117.42 214.1 94.2899 261.5 78.4099 266.53C77.3999 266.85 76.4199 267.01 75.4799 267.01C74.1499 267.01 72.8999 266.69 71.7399 266.05H71.7299ZM106.41 205.84C106.15 205.63 105.94 205.37 105.8 205.06L99.9699 191.74L92.0399 199.67C91.5799 200.13 90.9199 200.34 90.2699 200.22C89.6199 200.1 89.0799 199.68 88.8099 199.08C87.6399 196.51 83.6399 189.63 79.2199 188.76C77.7299 188.47 76.2799 188.89 74.7799 190.05C75.3399 191.95 76.9999 196.42 78.2599 199.83C83.0599 212.76 83.1099 213.32 82.1499 214.53C71.1299 228.34 65.5799 247.69 69.5099 258.58C69.9699 259.85 72.2799 261.78 73.6599 262.55C74.6499 263.1 75.7999 263.16 77.1799 262.72C88.5999 259.11 107 226.04 114.06 211.79L106.39 205.84H106.41Z" fill="black"/>
<path d="M96.6299 247.26C97.1399 247.26 97.6499 247.06 98.0499 246.67C98.8299 245.89 98.8299 244.62 98.0499 243.84C97.8799 243.67 93.7699 239.59 88.0599 236.61C80.1299 232.47 72.9999 232.48 67.4299 236.66C66.5499 237.32 66.3699 238.58 67.0299 239.46C67.6899 240.34 68.9399 240.53 69.8299 239.86C80.2899 232.01 95.0699 246.53 95.2199 246.68C95.6099 247.07 96.1199 247.26 96.6299 247.26Z" fill="black"/>
<path d="M103.264 207.59C104.741 207.428 105.732 205.419 105.478 203.102C105.224 200.785 103.821 199.038 102.344 199.2C100.867 199.362 99.8759 201.372 100.13 203.689C100.384 206.005 101.787 207.752 103.264 207.59Z" fill="black"/>
<path d="M98.1399 203.91C97.9799 202.42 98.2099 200.94 98.7899 199.76C99.5099 198.3 100.72 197.37 102.12 197.22C103.52 197.07 104.9 197.71 105.92 198.98C106.75 200.01 107.29 201.4 107.46 202.9C107.84 206.37 106.09 209.31 103.48 209.6C103.34 209.61 103.21 209.62 103.07 209.62C100.63 209.62 98.4999 207.21 98.1399 203.92V203.91ZM102.12 203.48C102.25 204.67 102.76 205.38 103.04 205.57C103.27 205.32 103.62 204.52 103.48 203.33C103.35 202.14 102.83 201.43 102.56 201.24C102.33 201.49 101.98 202.29 102.12 203.48Z" fill="black"/>
<path d="M86.6301 240.26C87.3401 240.26 88.0201 239.89 88.3801 239.22L99.3801 219.22C99.6601 218.72 99.7001 218.11 99.5101 217.57L91.5101 195.57C91.1301 194.53 89.9801 194 88.9501 194.37C87.9101 194.75 87.3801 195.9 87.7501 196.93L95.4401 218.08L84.8801 237.29C84.3501 238.26 84.7001 239.47 85.6701 240.01C85.9801 240.18 86.3101 240.26 86.6301 240.26Z" fill="black"/>
<path d="M96.6299 220.26C97.0999 220.26 97.5699 220.1 97.9499 219.76C98.7799 219.03 98.8699 217.77 98.1399 216.94C97.8199 216.57 90.1299 207.94 80.9299 211.38C79.8999 211.77 79.3699 212.92 79.7599 213.96C80.1499 214.99 81.2999 215.52 82.3399 215.13C88.9699 212.64 95.0699 219.5 95.1299 219.57C95.5299 220.02 96.0799 220.25 96.6399 220.25L96.6299 220.26Z" fill="black"/>
<path d="M78.6299 209.26C78.8599 209.26 79.0999 209.22 79.3299 209.13C86.3499 206.5 91.5299 208.95 91.7399 209.05C92.7299 209.53 93.9299 209.13 94.4099 208.14C94.8899 207.15 94.4999 205.96 93.5199 205.47C93.2399 205.33 86.6399 202.12 77.9199 205.39C76.8899 205.78 76.3599 206.93 76.7499 207.97C77.0499 208.77 77.8099 209.27 78.6199 209.27L78.6299 209.26Z" fill="black"/>
<path d="M93.6299 227.26C94.2599 227.26 94.8799 226.96 95.2699 226.41C95.8999 225.51 95.6799 224.26 94.7799 223.62C94.3399 223.31 83.8099 216.06 74.9299 219.39C73.8999 219.78 73.3699 220.93 73.7599 221.97C74.1499 223 75.2999 223.53 76.3399 223.14C83.2699 220.54 92.3999 226.84 92.4899 226.91C92.8399 227.15 93.2399 227.27 93.6299 227.27V227.26Z" fill="black"/>
<path d="M88.6299 235.26C89.1799 235.26 89.7299 235.03 90.1299 234.59C90.8599 233.76 90.7899 232.5 89.9599 231.77C89.5599 231.41 79.9499 223.01 70.9299 226.39C69.8999 226.78 69.3699 227.93 69.7599 228.97C70.1499 230 71.2999 230.52 72.3399 230.14C79.0999 227.6 87.2299 234.69 87.3099 234.76C87.6899 235.1 88.1599 235.26 88.6299 235.26Z" fill="black"/>
<path d="M68.6301 169.26C68.7401 169.26 68.8601 169.24 68.9701 169.2C69.4901 169.01 69.7601 168.44 69.5701 167.92C69.5501 167.87 67.8601 163.19 67.2501 160.18C66.6601 157.29 66.6101 155.52 68.5601 150.63C68.7701 150.12 68.5201 149.54 68.0001 149.33C67.4901 149.12 66.9101 149.37 66.7001 149.89C64.6501 155.02 64.6001 157.24 65.2901 160.58C65.9301 163.74 67.6201 168.4 67.6901 168.6C67.8401 169.01 68.2201 169.26 68.6301 169.26Z" fill="white"/>
<path d="M58.6301 168.26C58.7601 168.26 58.8901 168.23 59.0201 168.18C59.5301 167.96 59.7601 167.38 59.5501 166.87C59.5201 166.79 56.2201 159.05 55.6101 156.06C55.5001 155.52 54.9701 155.17 54.4301 155.28C53.8901 155.39 53.5401 155.92 53.6501 156.46C54.3001 159.64 57.5701 167.33 57.7101 167.65C57.8701 168.03 58.2401 168.26 58.6301 168.26Z" fill="white"/>
<path d="M97.6301 61.26C98.4201 61.26 99.1701 60.79 99.4801 60.02C99.9001 59 99.4101 57.83 98.3901 57.41L76.3901 48.41C75.3701 47.99 74.2001 48.48 73.7801 49.5C73.3601 50.52 73.8501 51.69 74.8701 52.11L96.8701 61.11C97.1201 61.21 97.3701 61.26 97.6301 61.26Z" fill="black"/>
<path d="M101.63 56.26C102.45 56.26 103.21 55.76 103.51 54.94C103.89 53.9 103.35 52.75 102.31 52.38L87.3101 46.93C86.2701 46.55 85.1201 47.09 84.7501 48.13C84.3701 49.17 84.9101 50.32 85.9501 50.69L100.95 56.15C101.18 56.23 101.41 56.27 101.63 56.27V56.26Z" fill="black"/>
<path d="M73.6301 68.26C74.4201 68.26 75.1701 67.79 75.4801 67.02C75.9001 66 75.4101 64.83 74.3901 64.41L52.3901 55.41C51.3701 55 50.2001 55.48 49.7801 56.5C49.3601 57.52 49.8501 58.69 50.8701 59.11L72.8701 68.11C73.1201 68.21 73.3701 68.26 73.6301 68.26Z" fill="black"/>
<path d="M76.6299 63.26C77.4499 63.26 78.2099 62.76 78.5099 61.94C78.8899 60.9 78.3499 59.75 77.3099 59.38L62.3099 53.93C61.2699 53.55 60.1199 54.09 59.7499 55.13C59.3699 56.17 59.9099 57.32 60.9499 57.69L75.9499 63.14C76.1799 63.22 76.4099 63.26 76.6299 63.26Z" fill="black"/>
<path d="M48.1101 126.8C46.0801 125.9 44.2801 124.22 43.0401 122.07C41.8001 119.92 41.2501 117.52 41.4801 115.31C41.7301 112.9 42.9401 110.91 44.7801 109.85C46.6201 108.79 48.9501 108.74 51.1601 109.73C53.1901 110.63 54.9901 112.31 56.2301 114.46C57.4701 116.61 58.0201 119.01 57.7901 121.22C57.5401 123.63 56.3301 125.62 54.4901 126.68C53.5301 127.23 52.4401 127.51 51.3101 127.51C50.2601 127.51 49.1801 127.27 48.1101 126.8ZM46.7801 113.31C45.8001 113.88 45.5301 115.07 45.4601 115.73C45.3201 117.08 45.7001 118.66 46.5101 120.07C47.3201 121.47 48.5001 122.59 49.7401 123.15C50.3501 123.42 51.5101 123.79 52.4901 123.22C53.4701 122.65 53.7401 121.46 53.8101 120.8C53.9501 119.45 53.5701 117.87 52.7601 116.46C51.9501 115.06 50.7701 113.94 49.5301 113.38C49.1601 113.21 48.5801 113.01 47.9501 113.01C47.5601 113.01 47.1501 113.09 46.7701 113.31H46.7801Z" fill="black"/>
</svg>
