<svg width="56" height="63" viewBox="0 0 56 63" fill="none" xmlns="http://www.w3.org/2000/svg">
    <g clip-path="url(#clip0_90_981)">
        <path
            d="M54.5919 15.8332L54.5862 15.8303L47.9754 11.9623C47.8382 11.8814 47.6793 11.8381 47.5204 11.8381C47.3615 11.8381 47.2113 11.8786 47.0756 11.9551L16.3962 29.3147L16.4222 24.726L35.2998 13.9714L35.3099 13.9656L35.398 13.918L35.4298 13.8848C35.4515 13.8674 35.4789 13.8458 35.5049 13.8183C35.5352 13.788 35.5583 13.7591 35.5757 13.736C35.5959 13.7114 35.6204 13.6782 35.645 13.6363V13.6334L35.6479 13.6306C35.6681 13.5959 35.6811 13.5656 35.6912 13.541C35.7418 13.4269 35.7678 13.3056 35.7692 13.1828L35.814 5.37178C35.8154 5.05113 35.645 4.75071 35.3677 4.5875L28.5923 0.622769C28.4536 0.541886 28.2962 0.5 28.1373 0.5C27.9784 0.5 27.8253 0.541886 27.6881 0.619881C27.6188 0.660322 27.5538 0.70943 27.4974 0.76576L6.68009 12.6267C3.26132 14.5737 1.12369 18.2293 1.10058 22.1652L0.961923 46.3825C0.960479 46.7032 1.13091 47.0036 1.40823 47.1668L1.414 47.1697L8.02478 51.0377C8.16199 51.1185 8.32087 51.1619 8.47974 51.1619C8.63862 51.1619 8.78883 51.1214 8.9246 51.0449L39.6054 33.6853L39.5794 38.274L20.8419 48.9491L20.579 49.1109C20.5559 49.1282 20.5256 49.1528 20.4967 49.1817C20.4649 49.212 20.4418 49.2423 20.4245 49.2655C20.4043 49.29 20.3797 49.3232 20.3552 49.3651C20.3335 49.4027 20.319 49.4359 20.3089 49.459C20.2584 49.5731 20.2309 49.6944 20.2309 49.8186L20.1862 57.6297C20.1847 57.9503 20.3552 58.2507 20.6325 58.4139L27.4093 62.3787C27.548 62.4596 27.7054 62.5014 27.8643 62.5014C28.0232 62.5014 28.1763 62.4596 28.3135 62.3816C28.3828 62.3411 28.4478 62.292 28.5042 62.2357L49.3215 50.3747C52.7403 48.4263 54.8794 44.7721 54.901 40.8363L55.0397 16.6189C55.0411 16.2983 54.8707 15.9978 54.5934 15.8346L54.5919 15.8332ZM10.5842 20.2659L28.133 10.2681L33.0683 13.1669L15.5296 23.1589L10.5842 20.2659ZM27.2259 8.70677L8.33242 19.4715C8.05366 19.6304 7.8789 19.9293 7.87745 20.25L7.79512 34.5447V34.7036V34.8047L7.8009 34.8249C7.82834 35.0661 7.95256 35.2871 8.14466 35.4373L8.16632 35.459L8.24143 35.5023C8.24143 35.5023 8.24432 35.5037 8.24576 35.5052L8.2602 35.5138L8.26743 35.5167C8.39886 35.5889 8.54763 35.6265 8.69784 35.6265C8.84805 35.6265 9.00693 35.5861 9.1427 35.5095L15.9311 31.6574C15.9571 31.643 15.9802 31.6285 15.999 31.6141L47.5146 13.7822L52.3286 16.5987L2.77458 44.8299L2.90457 22.1739C2.92334 18.8807 4.71289 15.8231 7.57414 14.1924L27.2346 2.9915V6.91867L27.2259 8.70677ZM9.60778 33.1567L9.67277 21.8243L14.6182 24.7174L14.5864 30.3416L9.60922 33.1581L9.60778 33.1567ZM29.04 6.91145L29.0631 2.98861L34.0086 5.88163L33.9753 11.607L29.0415 8.70822V6.91145H29.04ZM45.4174 42.7341L27.8686 52.7319L22.9333 49.8331L40.472 39.8411L45.4174 42.7341ZM28.7743 54.2918L47.6677 43.5271C47.9465 43.3682 48.1213 43.0692 48.1227 42.7486L48.205 28.2806C48.2065 27.9989 48.075 27.7317 47.8555 27.5613L47.8338 27.5396L47.7587 27.4963L47.7197 27.4732L47.7053 27.4674C47.5811 27.4053 47.4424 27.3721 47.3023 27.3721C47.1463 27.3721 46.9932 27.4125 46.8575 27.489L40.069 31.3411C40.043 31.3556 40.0214 31.37 40.0012 31.3845L8.48552 49.2163L3.67152 46.3999L53.2256 18.1687L53.0956 40.8232C53.0768 44.1164 51.2873 47.174 48.426 48.8047L28.7641 60.0071V56.077L28.7728 54.2918H28.7743ZM46.3924 29.8433L46.3274 41.1757L41.3819 38.2826L41.4137 32.6584L46.3909 29.8419L46.3924 29.8433ZM26.9602 56.0857L26.937 60.0114L21.9916 57.1184L22.0248 51.393L26.9587 54.2918V56.0871L26.9602 56.0857Z"
            fill="currentColor" />
    </g>
    <defs>
        <clipPath id="clip0_90_981">
            <rect width="54.0763" height="62" fill="white" transform="translate(0.961914 0.5)" />
        </clipPath>
    </defs>
</svg>