<svg xmlns="http://www.w3.org/2000/svg" xmlns:xlink="http://www.w3.org/1999/xlink" width="400" zoomAndPan="magnify" viewBox="0 0 300 344.250003" height="459" preserveAspectRatio="xMidYMid meet" version="1.0"><defs><clipPath id="580c719580"><path d="M 49.183594 43.875 L 235.527344 43.875 L 235.527344 299.816406 L 49.183594 299.816406 Z M 49.183594 43.875 " clip-rule="nonzero"/></clipPath><clipPath id="a857bb08af"><path d="M 52.445312 43.875 L 238.789062 43.875 L 238.789062 299.816406 L 52.445312 299.816406 Z M 52.445312 43.875 " clip-rule="nonzero"/></clipPath><clipPath id="79c71dda3b"><path d="M 78.035156 43.875 L 264.378906 43.875 L 264.378906 299.816406 L 78.035156 299.816406 Z M 78.035156 43.875 " clip-rule="nonzero"/></clipPath></defs><g clip-path="url(#580c719580)"><path fill="#ffffff" d="M 152.792969 108.550781 C 162.160156 93.949219 162.027344 71.105469 143.003906 71.03125 C 120.964844 70.941406 98.921875 70.847656 76.878906 70.757812 L 76.535156 153.617188 L 101.464844 114.765625 L 133.246094 114.765625 L 49.40625 245.464844 L 49.609375 195.59375 L 50.128906 70.644531 L 50.238281 43.894531 L 76.988281 44.003906 L 145.949219 44.292969 C 170.054688 45.824219 188.625 66.007812 188.625 89.882812 C 188.625 103.789062 184.070312 109.339844 177.074219 120.242188 L 79.378906 272.558594 C 102.386719 272.652344 125.382812 272.59375 148.390625 272.59375 C 181.203125 272.59375 207.804688 236.40625 207.804688 212.113281 C 207.804688 187.820312 201.660156 182.007812 191.636719 171.371094 L 157.78125 224.152344 L 126 224.152344 L 184.769531 132.527344 C 192.972656 136.285156 200.5 141.273438 207.101562 147.257812 C 224.777344 163.265625 235.875 186.390625 235.875 212.113281 C 235.875 235.835938 226.433594 257.347656 211.109375 273.105469 C 195.246094 289.414062 173.074219 299.554688 148.535156 299.597656 L 49.183594 299.183594 L 49.304688 269.902344 Z M 152.792969 108.550781 " fill-opacity="1" fill-rule="evenodd"/></g><g clip-path="url(#a857bb08af)"><path fill="#1c191a" d="M 156.054688 108.550781 C 165.421875 93.949219 165.289062 71.105469 146.265625 71.03125 C 124.226562 70.941406 102.183594 70.847656 80.140625 70.757812 L 79.796875 153.617188 L 104.722656 114.765625 L 136.507812 114.765625 L 52.664062 245.464844 L 52.871094 195.59375 L 53.390625 70.644531 L 53.5 43.894531 L 80.25 44.003906 L 149.210938 44.292969 C 173.316406 45.824219 191.882812 66.007812 191.882812 89.882812 C 191.882812 103.789062 187.332031 109.339844 180.335938 120.242188 L 82.640625 272.558594 C 105.648438 272.652344 128.644531 272.59375 151.652344 272.59375 C 184.464844 272.59375 211.066406 236.40625 211.066406 212.113281 C 211.066406 187.820312 204.921875 182.007812 194.898438 171.371094 L 161.039062 224.152344 L 129.261719 224.152344 L 188.03125 132.527344 C 196.234375 136.285156 203.761719 141.273438 210.363281 147.257812 C 228.039062 163.265625 239.136719 186.390625 239.136719 212.113281 C 239.136719 235.835938 229.695312 257.347656 214.367188 273.105469 C 198.503906 289.414062 176.335938 299.554688 151.792969 299.597656 L 52.441406 299.183594 L 52.566406 269.902344 Z M 156.054688 108.550781 " fill-opacity="1" fill-rule="evenodd"/></g><g clip-path="url(#79c71dda3b)"><path fill="#ffffff" d="M 181.648438 108.550781 C 191.015625 93.949219 190.882812 71.105469 171.859375 71.03125 C 149.816406 70.941406 127.777344 70.847656 105.730469 70.757812 L 105.390625 153.617188 L 130.316406 114.765625 L 162.097656 114.765625 L 78.257812 245.464844 L 78.464844 195.59375 L 78.980469 70.644531 L 79.09375 43.894531 L 105.839844 44.003906 L 174.800781 44.292969 C 198.910156 45.824219 217.476562 66.007812 217.476562 89.882812 C 217.476562 103.789062 212.921875 109.339844 205.929688 120.242188 L 108.230469 272.558594 C 131.238281 272.652344 154.238281 272.59375 177.242188 272.59375 C 210.058594 272.59375 236.660156 236.40625 236.660156 212.113281 C 236.660156 187.820312 230.515625 182.007812 220.488281 171.371094 L 186.632812 224.152344 L 154.855469 224.152344 L 213.625 132.527344 C 221.828125 136.285156 229.351562 141.273438 235.957031 147.257812 C 253.628906 163.265625 264.726562 186.390625 264.726562 212.113281 C 264.726562 235.835938 255.289062 257.347656 239.960938 273.105469 C 224.097656 289.414062 201.925781 299.554688 177.386719 299.597656 L 78.035156 299.183594 L 78.15625 269.902344 Z M 181.648438 108.550781 " fill-opacity="1" fill-rule="evenodd"/></g></svg>