<svg xmlns="http://www.w3.org/2000/svg" xmlns:xlink="http://www.w3.org/1999/xlink" width="56" zoomAndPan="magnify" viewBox="0 0 42 47.25" height="63" preserveAspectRatio="xMidYMid meet" version="1.0"><defs><clipPath id="ba80d63491"><path d="M 5.496094 1.464844 L 37.242188 1.464844 L 37.242188 45.023438 L 5.496094 45.023438 Z M 5.496094 1.464844 " clip-rule="nonzero"/></clipPath><clipPath id="2d0ea747b9"><path d="M 9.855469 1.464844 L 41.601562 1.464844 L 41.601562 45.023438 L 9.855469 45.023438 Z M 9.855469 1.464844 " clip-rule="nonzero"/></clipPath></defs><g clip-path="url(#ba80d63491)"><path fill="#1c191a" d="M 23.144531 12.488281 C 24.742188 10.003906 24.71875 6.113281 21.480469 6.097656 C 17.722656 6.082031 13.96875 6.066406 10.214844 6.050781 L 10.15625 20.167969 L 14.402344 13.550781 L 19.816406 13.550781 L 5.535156 35.8125 L 5.570312 27.316406 L 5.65625 6.03125 L 5.675781 1.476562 L 10.234375 1.496094 L 21.980469 1.542969 C 26.085938 1.804688 29.25 5.242188 29.25 9.308594 C 29.25 11.679688 28.472656 12.625 27.28125 14.480469 L 10.640625 40.429688 C 14.558594 40.445312 18.476562 40.433594 22.394531 40.433594 C 27.984375 40.433594 32.519531 34.269531 32.519531 30.132812 C 32.519531 25.992188 31.472656 25.003906 29.761719 23.191406 L 23.996094 32.183594 L 18.582031 32.183594 L 28.59375 16.574219 C 29.992188 17.214844 31.273438 18.066406 32.398438 19.085938 C 35.410156 21.8125 37.300781 25.75 37.300781 30.132812 C 37.300781 34.171875 35.691406 37.839844 33.082031 40.523438 C 30.378906 43.300781 26.601562 45.027344 22.421875 45.035156 L 5.496094 44.964844 L 5.515625 39.976562 Z M 23.144531 12.488281 " fill-opacity="1" fill-rule="evenodd"/></g><g clip-path="url(#2d0ea747b9)"><path fill="#ffffff" d="M 27.507812 12.488281 C 29.101562 10.003906 29.082031 6.113281 25.839844 6.097656 C 22.085938 6.082031 18.332031 6.066406 14.574219 6.050781 L 14.515625 20.167969 L 18.761719 13.550781 L 24.175781 13.550781 L 9.894531 35.8125 L 9.929688 27.316406 L 10.019531 6.03125 L 10.035156 1.476562 L 14.59375 1.496094 L 26.339844 1.542969 C 30.449219 1.804688 33.609375 5.242188 33.609375 9.308594 C 33.609375 11.679688 32.835938 12.625 31.644531 14.480469 L 15 40.429688 C 18.921875 40.445312 22.839844 40.433594 26.757812 40.433594 C 32.347656 40.433594 36.878906 34.269531 36.878906 30.132812 C 36.878906 25.992188 35.832031 25.003906 34.125 23.191406 L 28.355469 32.183594 L 22.941406 32.183594 L 32.953125 16.574219 C 34.351562 17.214844 35.632812 18.066406 36.757812 19.085938 C 39.769531 21.8125 41.660156 25.75 41.660156 30.132812 C 41.660156 34.171875 40.050781 37.839844 37.441406 40.523438 C 34.738281 43.300781 30.960938 45.027344 26.78125 45.035156 L 9.855469 44.964844 L 9.878906 39.976562 Z M 27.507812 12.488281 " fill-opacity="1" fill-rule="evenodd"/></g></svg>