<svg width="1042" height="686" viewBox="0 0 1042 686" currentColor="none" xmlns="http://www.w3.org/2000/svg">
<g clip-path="url(#clip0_666_11082)">
<path d="M436.73 31.8702L407.58 31.8502C406.19 31.8502 405.06 30.7202 405.06 29.3202V28.9902C405.06 28.3202 405.32 27.6802 405.8 27.2102C406.28 26.7302 406.91 26.4702 407.58 26.4702L436.73 26.4902C438.12 26.4902 439.25 27.6202 439.25 29.0202V29.3502C439.25 30.7402 438.12 31.8702 436.72 31.8702H436.73ZM436.73 29.8702C437.02 29.8702 437.25 29.6302 437.26 29.3502V29.0202C437.26 28.7302 437.02 28.4902 436.74 28.4902L407.59 28.4702C407.45 28.4902 407.32 28.5202 407.22 28.6202C407.12 28.7202 407.07 28.8502 407.07 28.9902V29.3202C407.07 29.6102 407.31 29.8502 407.59 29.8502L436.74 29.8702H436.73Z" currentColor="currentColor"/>
<path opacity="0.2" d="M472.21 152.7C472.21 131.89 489.02 115.02 509.74 115.02H547.25L547.29 52.8098C547.29 44.3598 540.45 37.4998 531.99 37.4898L312.3 37.3398C303.85 37.3398 296.99 44.1798 296.98 52.6398L296.66 513.9C296.66 522.35 303.5 529.21 311.96 529.22L472.21 529.33V152.7Z" currentColor="currentColor"/>
<path d="M472.21 553.66L311.22 553.55C304.1 553.55 297.82 549.26 295.2 542.64C294.4 540.63 294 538.51 294 536.33L294.36 30.2C294.36 27.73 294.88 25.35 295.89 23.12L295.97 22.95C298.79 16.9 304.92 13 311.59 13H311.6L532.73 13.16C539.31 13.16 545.38 16.98 548.25 22.91L548.35 23.12C549.42 25.4 549.96 27.84 549.95 30.38L549.89 115.02H551.89L551.95 30.38C551.95 27.62 551.38 24.96 550.25 22.47L550.15 22.25C546.99 15.52 540.15 11.16 532.73 11.16L311.6 11H311.59C304.2 11 297.41 15.29 294.23 21.95L294.05 22.14V22.34C292.93 24.82 292.36 27.46 292.35 30.2L292 536.33C292 538.76 292.45 541.13 293.34 543.37C296.26 550.76 303.27 555.54 311.22 555.55L472.21 555.66V553.66Z" currentColor="currentColor"/>
<path d="M710.58 675H509.74C488.49 675 471.21 657.65 471.21 636.32V152.7C471.21 131.37 488.5 114.02 509.74 114.02H710.58C731.83 114.02 749.11 131.37 749.11 152.7V636.32C749.11 657.65 731.82 675 710.58 675ZM509.74 116.02C489.6 116.02 473.21 132.48 473.21 152.7V636.32C473.21 656.55 489.6 673 509.74 673H710.58C730.72 673 747.11 656.54 747.11 636.32V152.7C747.11 132.47 730.72 116.02 710.58 116.02H509.74Z" currentColor="currentColor"/>
<path d="M711.38 670.2H510.21C509.61 670.2 509.02 670.18 508.44 670.15C508.13 670.13 507.82 670.12 507.51 670.1C506.9 670.05 506.31 670 505.7 669.93V669.91C488.8 667.67 476.14 653.27 476.14 636.14V153.62C476.14 135.48 490.33 120.54 508.44 119.61C509.04 119.58 509.62 119.56 510.21 119.56H711.38C711.97 119.56 712.54 119.58 713.13 119.61C713.45 119.63 713.76 119.64 714.07 119.66L714.96 119.74C732.35 121.58 745.44 136.15 745.44 153.62V636.15C745.44 637.86 745.31 639.59 745.06 641.3L745.03 641.5C744.97 641.85 744.91 642.2 744.84 642.55C744.45 644.61 743.86 646.64 743.08 648.6C742.94 648.99 742.77 649.39 742.6 649.79C741.53 652.21 740.18 654.52 738.57 656.65L738.1 657.26C737.07 658.58 735.85 659.9 734.48 661.18C733.96 661.66 733.42 662.13 732.83 662.6C732.65 662.76 732.43 662.93 732.21 663.09C731.65 663.52 731.05 663.96 730.38 664.41C730.37 664.42 730.3 664.48 730.22 664.52C729.86 664.75 729.48 665 729.09 665.23C728.65 665.5 728.21 665.75 727.76 666C727.29 666.25 726.84 666.49 726.38 666.72L726.2 666.81C726.03 666.89 725.85 666.98 725.68 667.06C725.47 667.17 725.21 667.29 724.96 667.39C724.33 667.67 723.62 667.95 722.83 668.24C722.35 668.42 721.85 668.58 721.35 668.73C721.08 668.81 720.85 668.89 720.6 668.96C719.92 669.14 719.12 669.35 718.3 669.52C718.06 669.57 717.8 669.63 717.53 669.68L717.41 669.7C717.19 669.74 716.97 669.78 716.75 669.81C716.23 669.89 715.7 669.97 715.17 670.03C714.9 670.07 714.58 670.1 714.27 670.12L714.06 670.14C713.74 670.16 713.43 670.18 713.12 670.2C712.54 670.23 711.96 670.25 711.37 670.25L711.38 670.2ZM506.6 668.02C506.95 668.05 507.3 668.08 507.66 668.11C507.95 668.13 508.25 668.15 508.54 668.16C509.09 668.19 509.64 668.2 510.21 668.2H711.38C711.94 668.2 712.48 668.19 713.03 668.16C713.33 668.15 713.62 668.13 713.92 668.11L714.13 668.09C714.4 668.07 714.67 668.05 714.94 668.01C715.48 667.95 715.97 667.88 716.46 667.8C716.68 667.77 716.88 667.73 717.09 667.69L717.21 667.67C717.45 667.63 717.69 667.58 717.92 667.53C718.7 667.37 719.46 667.18 720.1 667C720.31 666.94 720.53 666.87 720.75 666.8C721.25 666.65 721.71 666.5 722.16 666.33C722.92 666.06 723.58 665.79 724.2 665.52C724.43 665.43 724.64 665.33 724.84 665.23C725.03 665.14 725.19 665.07 725.34 664.99L725.52 664.9C725.95 664.69 726.38 664.46 726.81 664.23C727.21 664 727.64 663.76 728.05 663.51C728.42 663.28 728.79 663.04 729.17 662.8L729.26 662.73C729.89 662.3 730.46 661.89 731 661.47C731.2 661.33 731.37 661.19 731.54 661.05C732.13 660.58 732.63 660.14 733.11 659.7C734.4 658.49 735.55 657.25 736.52 656.01L736.98 655.42C738.47 653.43 739.75 651.26 740.75 648.98C740.91 648.62 741.06 648.25 741.2 647.88C741.94 646.02 742.49 644.1 742.86 642.17C742.92 641.84 742.98 641.5 743.04 641.16L743.07 640.98C743.31 639.39 743.43 637.76 743.43 636.15V153.62C743.43 137.17 731.11 123.46 714.77 121.73L713.91 121.66C713.62 121.64 713.32 121.62 713.03 121.61C712.47 121.58 711.93 121.57 711.37 121.57H510.2C509.64 121.57 509.1 121.58 508.56 121.61C491.49 122.49 478.14 136.55 478.14 153.63V636.16C478.14 652.5 490.37 666.19 506.6 668.02Z" currentColor="currentColor"/>
<path d="M624.48 135.64H595.42C594.581 135.64 593.9 136.321 593.9 137.16V137.49C593.9 138.33 594.581 139.01 595.42 139.01H624.48C625.32 139.01 626 138.33 626 137.49V137.16C626 136.321 625.32 135.64 624.48 135.64Z" currentColor="#007BC9"/>
<path d="M624.48 140.01H595.42C594.03 140.01 592.9 138.88 592.9 137.49V137.16C592.9 135.77 594.03 134.64 595.42 134.64H624.48C625.87 134.64 627 135.77 627 137.16V137.49C627 138.88 625.87 140.01 624.48 140.01ZM595.42 136.64C595.13 136.64 594.9 136.87 594.9 137.16V137.49C594.9 137.78 595.13 138.01 595.42 138.01H624.48C624.77 138.01 625 137.78 625 137.49V137.16C625 136.87 624.77 136.64 624.48 136.64H595.42Z" currentColor="currentColor"/>
<path opacity="0.2" d="M712.71 133.52H712.53L712.26 133.49C711.94 133.48 711.65 133.48 711.37 133.48H682.34C680.68 133.56 679.34 134.85 679.17 136.49C679.17 136.6 679.16 136.71 679.16 136.83V136.87C678.76 145.38 671.74 152.15 663.14 152.15H558.43C549.83 152.15 542.81 145.38 542.41 136.87V136.83C542.41 136.71 542.41 136.6 542.4 136.49C542.23 134.85 540.89 133.57 539.23 133.48H510.2C509.93 133.48 509.63 133.48 509.31 133.49L509.04 133.52H508.86C498.29 134.21 490.04 143 490.04 153.63V636.15C490.04 646.59 498.19 655.42 508.59 656.24C508.69 656.24 508.78 656.25 508.86 656.26H508.99H509.11H509.15C509.5 656.28 509.85 656.29 510.2 656.29H711.36C711.71 656.29 712.06 656.28 712.41 656.26H712.45H712.57H712.63H712.7C712.78 656.26 712.87 656.25 712.97 656.24C723.37 655.42 731.52 646.6 731.52 636.15V153.62C731.52 143 723.27 134.2 712.7 133.51L712.71 133.52Z" fill="currentColor"/>
</g>
<defs>
<clipPath id="clip0_666_11082">
<rect width="457.11" height="664" fill="currentColor" transform="translate(292 11)"/>
</clipPath>
</defs>
</svg>
