<svg width="298" height="268" viewBox="0 0 298 268" fill="none" xmlns="http://www.w3.org/2000/svg">
<g clip-path="url(#clip0_314_10330)">
<path d="M137.62 84.3H54.58C47.9525 84.3 42.58 89.6726 42.58 96.3V233.37C42.58 239.997 47.9525 245.37 54.58 245.37H137.62C144.247 245.37 149.62 239.997 149.62 233.37V96.3C149.62 89.6726 144.247 84.3 137.62 84.3Z" fill="#131315"/>
<path d="M137.62 247.38H54.58C46.86 247.38 40.58 241.1 40.58 233.38V96.3C40.58 88.58 46.86 82.3 54.58 82.3H137.62C145.34 82.3 151.62 88.58 151.62 96.3V233.37C151.62 241.09 145.34 247.37 137.62 247.37V247.38ZM54.58 86.3C49.07 86.3 44.58 90.79 44.58 96.3V233.37C44.58 238.88 49.07 243.37 54.58 243.37H137.62C143.13 243.37 147.62 238.88 147.62 233.37V96.3C147.62 90.79 143.13 86.3 137.62 86.3H54.58Z" fill="#131315"/>
<path d="M128.59 84.3H54C47.3726 84.3 42 89.6726 42 96.3V233.37C42 239.997 47.3726 245.37 54 245.37H128.59C135.217 245.37 140.59 239.997 140.59 233.37V96.3C140.59 89.6726 135.217 84.3 128.59 84.3Z" fill="#FAFAFA"/>
<path d="M128.59 247.38H54C46.28 247.38 40 241.1 40 233.38V96.3C40 88.58 46.28 82.3 54 82.3H128.59C136.31 82.3 142.59 88.58 142.59 96.3V233.37C142.59 241.09 136.31 247.37 128.59 247.37V247.38ZM54 86.3C48.49 86.3 44 90.79 44 96.3V233.37C44 238.88 48.49 243.37 54 243.37H128.59C134.1 243.37 138.59 238.88 138.59 233.37V96.3C138.59 90.79 134.1 86.3 128.59 86.3H54Z" fill="#131315"/>
<path d="M124.03 92.97H56.3201C53.1389 92.97 50.5601 95.5488 50.5601 98.73V230.22C50.5601 233.401 53.1389 235.98 56.3201 235.98H124.03C127.211 235.98 129.79 233.401 129.79 230.22V98.73C129.79 95.5488 127.211 92.97 124.03 92.97Z" fill="#FAFAFA"/>
<path d="M124.02 237.99H56.3201C52.0401 237.99 48.5601 234.51 48.5601 230.23V98.74C48.5601 94.46 52.0401 90.98 56.3201 90.98H124.02C128.3 90.98 131.78 94.46 131.78 98.74V230.22C131.78 234.5 128.3 237.98 124.02 237.98V237.99ZM56.3201 94.97C54.2401 94.97 52.5601 96.66 52.5601 98.73V230.21C52.5601 232.29 54.2501 233.97 56.3201 233.97H124.02C126.1 233.97 127.78 232.28 127.78 230.21V98.74C127.78 96.66 126.09 94.98 124.02 94.98H56.3201V94.97Z" fill="#131315"/>
<path d="M124.02 92.97H59.3201C56.1389 92.97 53.5601 95.5488 53.5601 98.73V230.22C53.5601 233.401 56.1389 235.98 59.3201 235.98H124.02C127.201 235.98 129.78 233.401 129.78 230.22V98.73C129.78 95.5488 127.201 92.97 124.02 92.97Z" fill="#FAFAFA"/>
<path d="M124.02 237.99H59.3299C55.0499 237.99 51.5699 234.51 51.5699 230.23V98.74C51.5699 94.46 55.0499 90.98 59.3299 90.98H124.02C128.3 90.98 131.78 94.46 131.78 98.74V230.22C131.78 234.5 128.3 237.98 124.02 237.98V237.99ZM59.3299 94.97C57.2499 94.97 55.5699 96.66 55.5699 98.73V230.21C55.5699 232.29 57.2599 233.97 59.3299 233.97H124.02C126.1 233.97 127.78 232.28 127.78 230.21V98.74C127.78 96.66 126.09 94.98 124.02 94.98H59.3299V94.97Z" fill="#131315"/>
<path d="M70.42 118.64C83.5 118.64 94.1 129.24 94.1 142.32H46.74C46.74 129.24 57.34 118.64 70.42 118.64Z" fill="#FAFAFA"/>
<path d="M94.11 144.33H46.74C45.64 144.33 44.74 143.43 44.74 142.33C44.74 128.17 56.26 116.65 70.42 116.65C84.58 116.65 96.1 128.17 96.1 142.33C96.1 143.43 95.2 144.33 94.1 144.33H94.11ZM48.83 140.33H92.02C91.01 129.31 81.71 120.65 70.43 120.65C59.15 120.65 49.85 129.31 48.84 140.33H48.83Z" fill="#131315"/>
<path d="M70.42 118.64C83.5 118.64 94.1 129.24 94.1 142.32H70.42V118.64Z" fill="#131315"/>
<path d="M94.1101 144.33H70.4301C69.3301 144.33 68.4301 143.43 68.4301 142.33V118.65C68.4301 117.55 69.3301 116.65 70.4301 116.65C84.5901 116.65 96.1101 128.17 96.1101 142.33C96.1101 143.43 95.2101 144.33 94.1101 144.33ZM72.4201 140.33H92.0101C91.0601 129.97 82.7801 121.69 72.4201 120.74V140.33Z" fill="#131315"/>
<path d="M66.1801 137.64L75.9601 131.28L66.5501 125.98L66.1801 137.64Z" fill="#FAFAFA"/>
<path d="M105.6 118.64C118.68 118.64 129.28 129.24 129.28 142.32H81.91C81.91 129.24 92.51 118.64 105.59 118.64H105.6Z" fill="#FAFAFA"/>
<path d="M129.29 144.33H81.92C80.82 144.33 79.92 143.43 79.92 142.33C79.92 128.17 91.44 116.65 105.6 116.65C119.76 116.65 131.28 128.17 131.28 142.33C131.28 143.43 130.38 144.33 129.28 144.33H129.29ZM84.01 140.33H127.2C126.19 129.31 116.89 120.65 105.61 120.65C94.33 120.65 85.03 129.31 84.02 140.33H84.01Z" fill="#131315"/>
<path d="M94.11 142.33H46.74C46.74 149.35 49.79 155.65 54.64 159.99" fill="#FAFAFA"/>
<path d="M54.64 161.99C54.17 161.99 53.69 161.82 53.31 161.48C47.86 156.61 44.74 149.63 44.74 142.33C44.74 141.23 45.64 140.33 46.74 140.33H94.11C95.21 140.33 96.11 141.23 96.11 142.33C96.11 143.43 95.21 144.33 94.11 144.33H48.83C49.33 149.75 51.87 154.83 55.97 158.5C56.79 159.24 56.86 160.5 56.13 161.32C55.73 161.76 55.19 161.99 54.64 161.99Z" fill="#131315"/>
<path d="M125.25 155.56C127.8 151.78 129.29 147.23 129.29 142.33H81.92C81.92 148.05 83.95 153.29 87.32 157.39" fill="#FAFAFA"/>
<path d="M87.32 159.38C86.74 159.38 86.17 159.13 85.78 158.65C82 154.07 79.92 148.27 79.92 142.32C79.92 141.22 80.82 140.32 81.92 140.32H129.29C130.39 140.32 131.29 141.22 131.29 142.32C131.29 147.46 129.78 152.42 126.91 156.67C126.29 157.59 125.05 157.83 124.13 157.21C123.21 156.59 122.97 155.35 123.59 154.43C125.63 151.4 126.86 147.94 127.19 144.32H84C84.4 148.63 86.09 152.75 88.85 156.1C89.55 156.95 89.43 158.21 88.58 158.92C88.21 159.23 87.76 159.38 87.31 159.38H87.32Z" fill="#131315"/>
<path d="M94.8 157.37H116.4V201.24C116.4 207.2 111.56 212.04 105.6 212.04C99.64 212.04 94.8 207.2 94.8 201.24V157.37Z" fill="#131315"/>
<path d="M105.6 214.05C98.54 214.05 92.8 208.31 92.8 201.25V157.38C92.8 156.28 93.7 155.38 94.8 155.38H116.4C117.5 155.38 118.4 156.28 118.4 157.38V201.25C118.4 208.31 112.66 214.05 105.6 214.05ZM96.8 159.37V201.24C96.8 206.09 100.75 210.04 105.6 210.04C110.45 210.04 114.4 206.09 114.4 201.24V159.37H96.8Z" fill="#131315"/>
<path d="M115.77 170.28H116.4V191.25C116.4 197.21 111.56 202.05 105.6 202.05C99.64 202.05 94.8 197.21 94.8 191.25C94.8 179.68 104.2 170.28 115.77 170.28Z" fill="#FAFAFA"/>
<path d="M105.6 204.05C98.54 204.05 92.8 198.31 92.8 191.25C92.8 178.58 103.1 168.28 115.77 168.28H116.4C117.5 168.28 118.4 169.18 118.4 170.28V191.25C118.4 198.31 112.66 204.05 105.6 204.05ZM114.41 172.33C104.59 173.03 96.8101 181.25 96.8101 191.25C96.8101 196.1 100.76 200.05 105.61 200.05C110.46 200.05 114.41 196.1 114.41 191.25V172.33Z" fill="#131315"/>
<path d="M105.6 118.64C118.68 118.64 129.28 129.24 129.28 142.32H105.6V118.64Z" fill="#131315"/>
<path d="M129.29 144.33H105.61C104.51 144.33 103.61 143.43 103.61 142.33V118.65C103.61 117.55 104.51 116.65 105.61 116.65C119.77 116.65 131.29 128.17 131.29 142.33C131.29 143.43 130.39 144.33 129.29 144.33ZM107.6 140.33H127.19C126.24 129.97 117.96 121.69 107.6 120.74V140.33Z" fill="#131315"/>
<path d="M101.36 137.64L111.14 131.28L101.73 125.98L101.36 137.64Z" fill="#FAFAFA"/>
<path d="M116.41 159.37H82.27C81.17 159.37 80.27 158.47 80.27 157.37C80.27 156.27 81.17 155.37 82.27 155.37H116.41C117.51 155.37 118.41 156.27 118.41 157.37C118.41 158.47 117.51 159.37 116.41 159.37Z" fill="#131315"/>
<path d="M67.18 176.12C67.18 176.12 66.19 164.84 77.47 165.83C78.39 177.04 67.18 176.12 67.18 176.12Z" fill="#FAFAFA"/>
<path d="M67.76 178.14C67.33 178.14 67.06 178.12 67.01 178.12C66.04 178.04 65.27 177.27 65.18 176.3C65.16 176.06 64.7 170.32 68.37 166.65C70.58 164.44 73.7 163.5 77.64 163.84C78.61 163.92 79.38 164.7 79.46 165.67C79.78 169.59 78.82 172.69 76.62 174.9C73.69 177.83 69.46 178.15 67.76 178.15V178.14ZM75.5 167.79C73.67 167.89 72.24 168.45 71.22 169.46C69.9 170.77 69.42 172.64 69.25 174.04C70.64 173.86 72.51 173.37 73.81 172.05C74.82 171.03 75.39 169.6 75.5 167.79Z" fill="#131315"/>
<path d="M76.2 195.27C76.2 189.42 80.81 184.65 86.6 184.38C84.91 180.88 82.38 178.93 77.66 178.93C72.03 178.93 71.4 181.02 68.3 181.02C64.66 181.02 64.12 178.93 59.11 178.93C51.72 178.93 48.54 183.78 48.54 191.97C48.54 200.16 54.29 209.53 60.71 211.21C63.24 211.87 65.02 210.31 68.31 210.31C71.6 210.31 73.62 212.31 76.43 211.33C78.91 210.47 81.33 208.28 83.32 205.48C79.17 203.93 76.21 199.95 76.21 195.26L76.2 195.27Z" fill="#FAFAFA"/>
<path d="M74.84 213.6C73.56 213.6 72.43 213.25 71.38 212.92C70.36 212.6 69.4 212.31 68.3 212.31C67.09 212.31 66.13 212.57 65.11 212.84C63.7 213.22 62.11 213.64 60.19 213.14C52.5 211.13 46.53 200.1 46.53 191.96C46.53 186.34 48.16 176.92 59.1 176.92C62.22 176.92 63.93 177.66 65.3 178.25C66.31 178.69 67.04 179 68.3 179C69.21 179 69.77 178.76 70.7 178.35C72.1 177.74 74.01 176.91 77.66 176.91C82.82 176.91 86.23 179 88.4 183.49C88.69 184.09 88.66 184.81 88.32 185.38C87.98 185.95 87.37 186.32 86.7 186.35C81.94 186.57 78.21 190.48 78.21 195.24C78.21 198.94 80.54 202.29 84.01 203.58C84.59 203.8 85.04 204.27 85.22 204.87C85.4 205.46 85.3 206.11 84.94 206.62C83.29 208.95 80.58 211.98 77.08 213.2C76.29 213.48 75.55 213.58 74.84 213.58V213.6ZM68.3 208.31C70 208.31 71.36 208.73 72.56 209.1C74.01 209.55 74.81 209.77 75.76 209.44C77.21 208.93 78.75 207.79 80.21 206.16C76.53 203.82 74.2 199.71 74.2 195.26C74.2 189.48 77.99 184.57 83.28 182.93C81.95 181.51 80.21 180.92 77.66 180.92C74.85 180.92 73.55 181.48 72.29 182.03C71.18 182.51 70.03 183.01 68.3 183.01C66.21 183.01 64.89 182.43 63.71 181.93C62.52 181.41 61.4 180.93 59.1 180.93C55.42 180.93 50.53 182.07 50.53 191.97C50.53 199.16 55.92 207.89 61.2 209.28C62.05 209.5 62.77 209.33 64.07 208.98C65.18 208.68 66.56 208.31 68.29 208.31H68.3Z" fill="#131315"/>
<path d="M244.21 85.59H161.17C154.543 85.59 149.17 90.9625 149.17 97.59V234.66C149.17 241.287 154.543 246.66 161.17 246.66H244.21C250.837 246.66 256.21 241.287 256.21 234.66V97.59C256.21 90.9625 250.837 85.59 244.21 85.59Z" fill="#131315"/>
<path d="M244.21 248.67H161.17C153.45 248.67 147.17 242.39 147.17 234.67V97.59C147.17 89.87 153.45 83.59 161.17 83.59H244.21C251.93 83.59 258.21 89.87 258.21 97.59V234.66C258.21 242.38 251.93 248.66 244.21 248.66V248.67ZM161.17 87.59C155.66 87.59 151.17 92.08 151.17 97.59V234.66C151.17 240.17 155.66 244.66 161.17 244.66H244.21C249.72 244.66 254.21 240.17 254.21 234.66V97.59C254.21 92.08 249.72 87.59 244.21 87.59H161.17Z" fill="#131315"/>
<path d="M235.18 85.59H160.59C153.963 85.59 148.59 90.9625 148.59 97.59V234.66C148.59 241.287 153.963 246.66 160.59 246.66H235.18C241.807 246.66 247.18 241.287 247.18 234.66V97.59C247.18 90.9625 241.807 85.59 235.18 85.59Z" fill="#FAFAFA"/>
<path d="M235.18 248.67H160.59C152.87 248.67 146.59 242.39 146.59 234.67V97.59C146.59 89.87 152.87 83.59 160.59 83.59H235.18C242.9 83.59 249.18 89.87 249.18 97.59V234.66C249.18 242.38 242.9 248.66 235.18 248.66V248.67ZM160.59 87.59C155.08 87.59 150.59 92.08 150.59 97.59V234.66C150.59 240.17 155.08 244.66 160.59 244.66H235.18C240.69 244.66 245.18 240.17 245.18 234.66V97.59C245.18 92.08 240.69 87.59 235.18 87.59H160.59Z" fill="#131315"/>
<path d="M230.62 94.26H162.91C159.729 94.26 157.15 96.8388 157.15 100.02V231.51C157.15 234.691 159.729 237.27 162.91 237.27H230.62C233.801 237.27 236.38 234.691 236.38 231.51V100.02C236.38 96.8388 233.801 94.26 230.62 94.26Z" fill="#FAFAFA"/>
<path d="M230.61 239.28H162.91C158.63 239.28 155.15 235.8 155.15 231.52V100.03C155.15 95.75 158.63 92.27 162.91 92.27H230.61C234.89 92.27 238.37 95.75 238.37 100.03V231.51C238.37 235.79 234.89 239.27 230.61 239.27V239.28ZM162.91 96.26C160.83 96.26 159.15 97.95 159.15 100.02V231.5C159.15 233.58 160.84 235.26 162.91 235.26H230.61C232.69 235.26 234.37 233.57 234.37 231.5V100.03C234.37 97.95 232.68 96.27 230.61 96.27H162.91V96.26Z" fill="#131315"/>
<path d="M230.61 94.26H165.91C162.729 94.26 160.15 96.8388 160.15 100.02V231.51C160.15 234.691 162.729 237.27 165.91 237.27H230.61C233.791 237.27 236.37 234.691 236.37 231.51V100.02C236.37 96.8388 233.791 94.26 230.61 94.26Z" fill="#FAFAFA"/>
<path d="M230.61 239.28H165.92C161.64 239.28 158.16 235.8 158.16 231.52V100.03C158.16 95.75 161.64 92.27 165.92 92.27H230.61C234.89 92.27 238.37 95.75 238.37 100.03V231.51C238.37 235.79 234.89 239.27 230.61 239.27V239.28ZM165.92 96.26C163.84 96.26 162.16 97.95 162.16 100.02V231.5C162.16 233.58 163.85 235.26 165.92 235.26H230.61C232.69 235.26 234.37 233.57 234.37 231.5V100.03C234.37 97.95 232.68 96.27 230.61 96.27H165.92V96.26Z" fill="#131315"/>
<path d="M212.19 119.93C199.11 119.93 188.51 130.53 188.51 143.61H235.88C235.88 130.53 225.28 119.93 212.2 119.93H212.19Z" fill="#FAFAFA"/>
<path d="M235.88 145.62H188.51C187.41 145.62 186.51 144.72 186.51 143.62C186.51 129.46 198.03 117.94 212.19 117.94C226.35 117.94 237.87 129.46 237.87 143.62C237.87 144.72 236.97 145.62 235.87 145.62H235.88ZM190.6 141.62H233.79C232.78 130.6 223.48 121.94 212.2 121.94C200.92 121.94 191.62 130.6 190.61 141.62H190.6Z" fill="#131315"/>
<path d="M177.01 119.93C163.93 119.93 153.33 130.53 153.33 143.61H200.7C200.7 130.53 190.1 119.93 177.02 119.93H177.01Z" fill="#FAFAFA"/>
<path d="M200.7 145.62H153.33C152.23 145.62 151.33 144.72 151.33 143.62C151.33 129.46 162.85 117.94 177.01 117.94C191.17 117.94 202.69 129.46 202.69 143.62C202.69 144.72 201.79 145.62 200.69 145.62H200.7ZM155.42 141.62H198.61C197.6 130.6 188.3 121.94 177.02 121.94C165.74 121.94 156.44 130.6 155.43 141.62H155.42Z" fill="#131315"/>
<path d="M212.19 119.93C199.11 119.93 188.51 130.53 188.51 143.61H212.19V119.93Z" fill="#131315"/>
<path d="M212.19 145.62H188.51C187.41 145.62 186.51 144.72 186.51 143.62C186.51 129.46 198.03 117.94 212.19 117.94C213.29 117.94 214.19 118.84 214.19 119.94V143.62C214.19 144.72 213.29 145.62 212.19 145.62ZM190.6 141.62H210.19V122.03C199.83 122.98 191.55 131.26 190.6 141.62Z" fill="#131315"/>
<path d="M216.43 138.93L206.65 132.57L216.06 127.27L216.43 138.93Z" fill="#FAFAFA"/>
<path d="M200.7 143.62H153.33C153.33 150.64 156.38 156.94 161.23 161.28" fill="#FAFAFA"/>
<path d="M161.23 163.28C160.76 163.28 160.28 163.11 159.9 162.77C154.45 157.9 151.33 150.92 151.33 143.62C151.33 142.52 152.23 141.62 153.33 141.62H200.7C201.8 141.62 202.7 142.52 202.7 143.62C202.7 144.72 201.8 145.62 200.7 145.62H155.42C155.92 151.05 158.46 156.13 162.56 159.79C163.38 160.53 163.45 161.79 162.72 162.61C162.32 163.05 161.78 163.28 161.23 163.28Z" fill="#131315"/>
<path d="M231.84 156.84C234.39 153.06 235.88 148.51 235.88 143.61H188.51C188.51 149.33 190.54 154.57 193.91 158.67" fill="#FAFAFA"/>
<path d="M193.91 160.67C193.33 160.67 192.76 160.42 192.37 159.94C188.59 155.36 186.51 149.56 186.51 143.61C186.51 142.51 187.41 141.61 188.51 141.61H235.88C236.98 141.61 237.88 142.51 237.88 143.61C237.88 148.75 236.37 153.71 233.5 157.96C232.88 158.88 231.64 159.12 230.72 158.5C229.8 157.88 229.56 156.64 230.18 155.72C232.22 152.69 233.45 149.23 233.78 145.61H190.59C190.99 149.92 192.68 154.04 195.44 157.39C196.14 158.24 196.02 159.5 195.17 160.21C194.8 160.52 194.35 160.67 193.9 160.67H193.91Z" fill="#131315"/>
<path d="M177.01 119.93C163.93 119.93 153.33 130.53 153.33 143.61H177.01V119.93Z" fill="#131315"/>
<path d="M177.01 145.62H153.33C152.23 145.62 151.33 144.72 151.33 143.62C151.33 129.46 162.85 117.94 177.01 117.94C178.11 117.94 179.01 118.84 179.01 119.94V143.62C179.01 144.72 178.11 145.62 177.01 145.62ZM155.42 141.62H175.01V122.03C164.65 122.98 156.37 131.26 155.42 141.62Z" fill="#131315"/>
<path d="M181.25 138.93L171.47 132.57L180.88 127.27L181.25 138.93Z" fill="#FAFAFA"/>
<path d="M222.99 160.66H188.85C187.75 160.66 186.85 159.76 186.85 158.66C186.85 157.56 187.75 156.66 188.85 156.66H222.99C224.09 156.66 224.99 157.56 224.99 158.66C224.99 159.76 224.09 160.66 222.99 160.66Z" fill="#131315"/>
<path d="M183.366 51.4162C184.8 49.983 184.801 47.6609 183.37 46.2296C181.939 44.7983 179.617 44.7999 178.183 46.2331L167.732 56.6842C166.299 58.1174 166.298 60.4395 167.729 61.8708C169.16 63.3021 171.482 63.3005 172.915 61.8673L183.366 51.4162Z" fill="#FAFAFA"/>
<path d="M170.32 64.94C168.81 64.94 167.38 64.35 166.31 63.28C165.24 62.21 164.65 60.79 164.65 59.27C164.65 57.75 165.24 56.33 166.31 55.26L176.77 44.8C178.98 42.59 182.57 42.59 184.78 44.8C186.99 47.01 186.99 50.6 184.78 52.81L174.32 63.27C173.25 64.34 171.83 64.93 170.31 64.93L170.32 64.94ZM180.78 47.15C180.35 47.15 179.93 47.31 179.6 47.64L169.14 58.1C168.82 58.42 168.65 58.83 168.65 59.28C168.65 59.73 168.82 60.14 169.14 60.46C169.77 61.09 170.87 61.09 171.5 60.46L181.96 50C182.61 49.35 182.61 48.29 181.96 47.64C181.64 47.31 181.21 47.15 180.78 47.15Z" fill="#131315"/>
<path d="M220.44 48.82C220.44 46.7931 218.799 45.15 216.775 45.15C214.751 45.15 213.11 46.7931 213.11 48.82V63.6C213.11 65.6269 214.751 67.27 216.775 67.27C218.799 67.27 220.44 65.6269 220.44 63.6V48.82Z" fill="#FAFAFA"/>
<path d="M216.77 69.28C213.65 69.28 211.1 66.74 211.1 63.61V48.82C211.1 45.7 213.64 43.15 216.77 43.15C219.9 43.15 222.44 45.69 222.44 48.82V63.61C222.44 66.73 219.9 69.28 216.77 69.28ZM216.77 47.15C215.85 47.15 215.1 47.9 215.1 48.82V63.61C215.1 64.53 215.85 65.28 216.77 65.28C217.69 65.28 218.44 64.53 218.44 63.61V48.82C218.44 47.9 217.69 47.15 216.77 47.15Z" fill="#131315"/>
<path d="M184.45 45.15V68.64C184.45 71.37 186.56 73.6 189.24 73.8V81.33C189.24 83.36 190.88 85 192.91 85C194.94 85 196.58 83.36 196.58 81.33V73.82H200.99V81.33C200.99 83.36 202.63 85 204.66 85C206.69 85 208.33 83.36 208.33 81.33V73.8C211.01 73.6 213.12 71.37 213.12 68.64V45.15H184.46H184.45Z" fill="#FAFAFA"/>
<path d="M204.65 86.99C201.53 86.99 198.98 84.45 198.98 81.32V75.81H198.57V81.32C198.57 84.44 196.03 86.99 192.9 86.99C189.77 86.99 187.23 84.45 187.23 81.32V75.4C184.43 74.41 182.44 71.73 182.44 68.64V45.15C182.44 44.05 183.34 43.15 184.44 43.15H213.1C214.2 43.15 215.1 44.05 215.1 45.15V68.64C215.1 71.73 213.1 74.41 210.31 75.4V81.32C210.31 84.44 207.77 86.99 204.64 86.99H204.65ZM196.57 71.81H200.98C202.08 71.81 202.98 72.71 202.98 73.81V81.32C202.98 82.24 203.73 82.99 204.65 82.99C205.57 82.99 206.32 82.24 206.32 81.32V73.79C206.32 72.74 207.13 71.87 208.17 71.79C209.82 71.67 211.11 70.28 211.11 68.63V47.14H186.45V68.63C186.45 70.28 187.74 71.67 189.39 71.79C190.44 71.87 191.24 72.74 191.24 73.79V81.32C191.24 82.24 191.99 82.99 192.91 82.99C193.83 82.99 194.58 82.24 194.58 81.32V73.81C194.58 72.71 195.48 71.81 196.58 71.81H196.57Z" fill="#131315"/>
<path d="M203.373 24.8244C210.929 27.1647 215.162 35.1968 212.821 42.7526L212.437 43.9944L185.06 35.5147L185.444 34.2729C187.785 26.717 195.817 22.484 203.373 24.8244Z" fill="#FAFAFA"/>
<path d="M212.44 45.99C212.24 45.99 212.04 45.96 211.85 45.9L184.47 37.42C183.96 37.26 183.54 36.91 183.29 36.44C183.04 35.97 182.99 35.42 183.15 34.92L183.53 33.68C186.19 25.08 195.36 20.24 203.96 22.91C212.56 25.57 217.39 34.74 214.73 43.34L214.35 44.58C214.19 45.09 213.84 45.51 213.37 45.76C213.08 45.91 212.76 45.99 212.44 45.99ZM187.59 34.2L211.11 41.48C212.68 35.19 209.06 28.67 202.79 26.73C196.52 24.79 189.85 28.12 187.59 34.2Z" fill="#131315"/>
<path d="M196.1 26.0199C195.12 26.0199 194.27 25.2999 194.12 24.3099L193.25 18.2899C193.09 17.1999 193.85 16.1799 194.94 16.0199C196.03 15.8699 197.05 16.6199 197.21 17.7099L198.08 23.7299C198.24 24.8199 197.48 25.8399 196.39 25.9999C196.29 26.0099 196.2 26.0199 196.1 26.0199Z" fill="#131315"/>
<path d="M209.83 30.27C209.35 30.27 208.86 30.1 208.47 29.74C207.66 28.99 207.61 27.73 208.36 26.91L212.48 22.44C213.23 21.63 214.49 21.57 215.31 22.33C216.12 23.08 216.17 24.34 215.42 25.16L211.3 29.63C210.91 30.06 210.37 30.27 209.83 30.27Z" fill="#131315"/>
<path d="M194.27 33.4399C194.09 33.4399 193.91 33.4099 193.74 33.3599C192.79 33.0699 192.25 32.0499 192.55 31.0999C192.69 30.6399 193.01 30.2599 193.43 30.0399C193.86 29.8099 194.35 29.7699 194.81 29.9099C195.76 30.1999 196.3 31.2199 196 32.1699C195.76 32.9399 195.04 33.4399 194.27 33.4399Z" fill="#131315"/>
<path d="M203.22 36.21C203.04 36.21 202.86 36.18 202.68 36.13C202.22 35.99 201.84 35.67 201.62 35.25C201.39 34.82 201.35 34.33 201.49 33.87C201.63 33.41 201.95 33.03 202.37 32.81C202.8 32.58 203.29 32.54 203.75 32.68C204.7 32.97 205.24 33.99 204.94 34.94C204.8 35.4 204.48 35.78 204.06 36C203.8 36.14 203.51 36.21 203.22 36.21Z" fill="#131315"/>
<path d="M196.29 106.72C194.74 106.72 193.48 105.46 193.48 103.91C193.48 102.36 194.74 101.1 196.29 101.1C197.84 101.1 199.1 102.36 199.1 103.91C199.1 105.46 197.84 106.72 196.29 106.72Z" fill="#131315"/>
<path d="M172.71 228.56C171.16 228.56 169.9 227.3 169.9 225.75C169.9 224.2 171.16 222.94 172.71 222.94C174.26 222.94 175.52 224.2 175.52 225.75C175.52 227.3 174.26 228.56 172.71 228.56Z" fill="#131315"/>
<path d="M196.29 228.56C194.74 228.56 193.48 227.3 193.48 225.75C193.48 224.2 194.74 222.94 196.29 222.94C197.84 222.94 199.1 224.2 199.1 225.75C199.1 227.3 197.84 228.56 196.29 228.56Z" fill="#131315"/>
<path d="M219.86 226.56C220.307 226.56 220.67 226.197 220.67 225.75C220.67 225.303 220.307 224.94 219.86 224.94C219.413 224.94 219.05 225.303 219.05 225.75C219.05 226.197 219.413 226.56 219.86 226.56Z" fill="#131315"/>
<path d="M219.86 228.56C218.31 228.56 217.05 227.3 217.05 225.75C217.05 224.2 218.31 222.94 219.86 222.94C221.41 222.94 222.67 224.2 222.67 225.75C222.67 227.3 221.41 228.56 219.86 228.56Z" fill="#131315"/>
<path d="M96.36 101.72H83.99C82.8247 101.72 81.88 102.662 81.88 103.825C81.88 104.988 82.8247 105.93 83.99 105.93H96.36C97.5253 105.93 98.47 104.988 98.47 103.825C98.47 102.662 97.5253 101.72 96.36 101.72Z" fill="#131315"/>
<path d="M96.36 107.93H83.98C81.72 107.93 79.87 106.09 79.87 103.82C79.87 101.55 81.71 99.71 83.98 99.71H96.36C98.62 99.71 100.47 101.55 100.47 103.82C100.47 106.09 98.63 107.93 96.36 107.93ZM83.98 103.72C83.92 103.72 83.87 103.77 83.87 103.83C83.87 103.89 83.92 103.94 83.98 103.94H96.36C96.42 103.94 96.47 103.89 96.47 103.83C96.47 103.77 96.42 103.72 96.36 103.72H83.98Z" fill="#131315"/>
<path d="M101.85 230.38H78.5C77.4 230.38 76.5 229.48 76.5 228.38C76.5 227.28 77.4 226.38 78.5 226.38H101.85C102.95 226.38 103.85 227.28 103.85 228.38C103.85 229.48 102.95 230.38 101.85 230.38Z" fill="#131315"/>
</g>
<defs>
<clipPath id="clip0_314_10330">
<rect width="218.21" height="232.67" fill="white" transform="translate(40 16)"/>
</clipPath>
</defs>
</svg>
