<svg width="24" height="24" viewBox="0 0 24 24" fill="currentColor" xmlns="http://www.w3.org/2000/svg">
<path fill="currentColor" clip-rule="evenodd" d="M7.68164 4.86092C7.6817 4.48818 7.98389 4.18604 8.35664 4.18604H12.4639C12.8367 4.18604 13.1389 4.48824 13.1389 4.86104C13.1389 5.23383 12.8367 5.53604 12.4639 5.53604H9.03153L9.02986 15.7088H17.6782V11.4661C17.6782 11.0933 17.9804 10.7911 18.3532 10.7911C18.726 10.7911 19.0282 11.0933 19.0282 11.4661V16.3838C19.0282 16.7566 18.726 17.0588 18.3532 17.0588H8.35475C8.17571 17.0588 8.004 16.9877 7.87741 16.8611C7.75082 16.7345 7.67972 16.5628 7.67975 16.3837L7.68164 4.86092Z" />
<path fill="currentColor" clip-rule="evenodd" d="M4.89612 6.76777C4.89612 6.39498 5.19833 6.09277 5.57112 6.09277H8.35666C8.72945 6.09277 9.03166 6.39498 9.03166 6.76777C9.03166 7.14057 8.72945 7.44277 8.35666 7.44277H6.24612V18.4356L15.7041 18.4639C16.0769 18.465 16.3782 18.7682 16.3771 19.1409C16.376 19.5137 16.0729 19.815 15.7001 19.8139L5.5691 19.7836C5.1971 19.7825 4.89612 19.4806 4.89612 19.1086V6.76777Z" />
<path fill="currentColor" clip-rule="evenodd" d="M15.7021 3.29785C16.0748 3.29785 16.3771 3.60006 16.3771 3.97285C16.3771 5.8374 17.7231 7.19118 19.5215 7.19118C19.8943 7.19118 20.1965 7.49338 20.1965 7.86618C20.1965 8.23897 19.8943 8.54118 19.5215 8.54118C17.7231 8.54118 16.3771 9.89496 16.3771 11.7595C16.3771 12.1323 16.0748 12.4345 15.7021 12.4345C15.3293 12.4345 15.0271 12.1323 15.0271 11.7595C15.0271 9.89496 13.681 8.54118 11.8826 8.54118C11.5098 8.54118 11.2076 8.23897 11.2076 7.86618C11.2076 7.49338 11.5098 7.19118 11.8826 7.19118C13.681 7.19118 15.0271 5.8374 15.0271 3.97285C15.0271 3.60006 15.3293 3.29785 15.7021 3.29785ZM15.7021 6.44374C15.3486 7.02289 14.8696 7.50853 14.2971 7.86618C14.8696 8.22382 15.3486 8.70946 15.7021 9.28861C16.0555 8.70946 16.5346 8.22382 17.107 7.86618C16.5346 7.50853 16.0555 7.02289 15.7021 6.44374Z" />
</svg>
