<svg width="25" height="24" viewBox="0 0 25 24" fill="currentColor" xmlns="http://www.w3.org/2000/svg">
<path fill="currentColor" clip-rule="evenodd" d="M9.15152 5.31397L10.2714 6.4338C10.2715 6.43396 10.2712 6.43364 10.2714 6.4338C11.1115 7.27172 11.1108 8.63125 10.2725 9.46996C9.43445 10.3103 8.07512 10.309 7.23643 9.47029L6.11582 8.34967C6.04121 9.28235 6.36028 10.2393 7.07189 10.9509L7.337 11.216C7.6006 11.4796 7.6006 11.907 7.337 12.1706C7.07339 12.4342 6.64601 12.4342 6.3824 12.1706L6.1173 11.9055C4.7273 10.5155 4.40365 8.46663 5.13583 6.76781C5.22438 6.56234 5.40899 6.4141 5.62874 6.37202C5.84848 6.32993 6.0748 6.39947 6.233 6.55767L8.19103 8.5157C8.50353 8.82819 9.00721 8.82706 9.31676 8.51648L9.31755 8.5157C9.63005 8.2032 9.62891 7.69952 9.31834 7.38997L7.35952 5.43116C7.20132 5.27295 7.13178 5.04663 7.17387 4.82689C7.21596 4.60714 7.36419 4.42253 7.56966 4.33398C9.26848 3.60181 11.3174 3.92544 12.7074 5.31544L12.9725 5.58055C13.7096 6.31769 14.0433 7.3072 13.9752 8.26991C13.9489 8.64177 13.6261 8.9219 13.2542 8.8956C12.8824 8.8693 12.6022 8.54652 12.6285 8.17466C12.6703 7.58458 12.4662 6.98344 12.0179 6.53515L11.7528 6.27004C11.0412 5.55843 10.0842 5.23936 9.15152 5.31397Z" />
<path fill="currentColor" clip-rule="evenodd" d="M15.5912 11.5227C15.8548 11.259 16.2822 11.2591 16.5458 11.5227L19.9714 14.9483C21.1379 16.1148 21.1387 18.0064 19.9708 19.1718C18.8043 20.3378 16.9133 20.3384 15.7481 19.171C15.748 19.1709 15.7482 19.1711 15.7481 19.171L12.5727 15.9956C12.3091 15.732 12.3091 15.3046 12.5727 15.041C12.8363 14.7774 13.2637 14.7774 13.5273 15.041L16.7029 18.2167C17.3403 18.8554 18.3768 18.8566 19.0168 18.2167C19.6555 17.5793 19.6567 16.5428 19.0168 15.9028L15.5912 12.4772C15.3276 12.2136 15.3276 11.7863 15.5912 11.5227Z" />
<path fill="currentColor" clip-rule="evenodd" d="M15.9732 4.60374C16.5945 3.97995 17.6152 3.94941 18.2501 4.58429L20.2157 6.54989C20.8523 7.18655 20.8161 8.20684 20.1967 8.82625L14.9816 14.0413C14.718 14.3049 14.2906 14.3049 14.027 14.0413C13.7634 13.7777 13.7634 13.3503 14.027 13.0867L19.2421 7.87165C19.3612 7.75254 19.344 7.58742 19.2611 7.50449L17.2955 5.53889C17.211 5.45443 17.0467 5.43878 16.9295 5.5566L16.9283 5.55782L7.28405 15.2021L6.51994 18.28L7.38443 18.0653L9.59982 17.5158L12.3228 14.7929C12.5864 14.5293 13.0137 14.5293 13.2773 14.7929C13.541 15.0565 13.541 15.4839 13.2773 15.7475L10.4217 18.6031C10.3349 18.6899 10.2261 18.7514 10.1069 18.781L7.70976 19.3755L5.75742 19.8603C5.52768 19.9173 5.28485 19.8499 5.11747 19.6825C4.95008 19.5151 4.8826 19.2723 4.93964 19.0426L6.01901 14.6948C6.04858 14.5757 6.11005 14.4669 6.19683 14.3801L15.9725 4.60445C15.9727 4.60421 15.9729 4.60398 15.9732 4.60374Z" />
<path fill="currentColor" clip-rule="evenodd" d="M14.1009 6.47431C14.3645 6.21071 14.7919 6.21071 15.0555 6.47431L18.3258 9.74463C18.5894 10.0082 18.5894 10.4356 18.3258 10.6992C18.0622 10.9628 17.6348 10.9628 17.3712 10.6992L14.1009 7.42891C13.8373 7.1653 13.8373 6.73792 14.1009 6.47431Z" />
<path fill="currentColor" clip-rule="evenodd" d="M16.6897 8.1103C16.9533 8.3739 16.9533 8.80129 16.6897 9.06489L9.44652 16.3081C9.18291 16.5717 8.75553 16.5717 8.49192 16.3081C8.22832 16.0445 8.22832 15.6171 8.49192 15.3535L15.7351 8.1103C15.9987 7.8467 16.4261 7.8467 16.6897 8.1103Z" />
</svg>