<svg width="1042" height="686" viewBox="0 0 1042 686" fill="none" xmlns="http://www.w3.org/2000/svg">
<g clip-path="url(#clip0_666_11100)">
<path opacity="0.2" d="M850.64 495.85L287.25 625.79C284.34 626.46 281.45 624.65 280.77 621.74L184.25 203.25C183.58 200.34 185.39 197.45 188.3 196.77L751.7 66.8396C754.61 66.1696 757.5 67.9796 758.18 70.8896L770 122.14L623.78 305.64L615.78 321.64C615.78 321.64 605.78 337.64 608.78 339.64C611.78 341.64 624.78 328.64 624.78 328.64L637.78 317.64L775.11 144.34L854.69 489.39C855.36 492.3 853.55 495.19 850.64 495.87V495.85Z" fill="currentColor"/>
<path d="M196.17 177.64C195.71 177.64 195.3 177.33 195.2 176.86L195.04 176.18C194.8 175.16 194.98 174.1 195.54 173.21C196.1 172.32 196.97 171.7 197.99 171.46L225.78 165.05C226.8 164.81 227.86 164.99 228.75 165.55C229.64 166.11 230.26 166.98 230.5 168L230.66 168.68C230.72 168.94 230.67 169.21 230.53 169.43C230.39 169.65 230.17 169.81 229.91 169.87L196.4 177.6C196.32 177.62 196.25 177.63 196.17 177.63V177.64ZM226.67 166.95C226.52 166.95 226.38 166.97 226.23 167L198.44 173.41C197.94 173.53 197.51 173.83 197.24 174.27C197.02 174.62 196.92 175.03 196.95 175.43L228.47 168.16C228.32 167.78 228.05 167.46 227.7 167.24C227.39 167.05 227.04 166.95 226.68 166.95H226.67Z" fill="currentColor"/>
<path d="M234.2 168.86C233.74 168.86 233.33 168.55 233.23 168.08L233.07 167.4C232.83 166.38 233.01 165.32 233.57 164.43C234.13 163.54 235 162.92 236.02 162.68L263.81 156.27C264.83 156.03 265.89 156.21 266.78 156.77C267.67 157.33 268.29 158.2 268.53 159.22L268.69 159.9C268.81 160.44 268.48 160.97 267.94 161.1L234.43 168.83C234.35 168.85 234.28 168.86 234.2 168.86ZM264.7 158.17C264.55 158.17 264.41 158.19 264.26 158.22L236.47 164.63C235.97 164.75 235.54 165.05 235.27 165.49C235.05 165.84 234.95 166.25 234.98 166.65L266.5 159.38C266.35 159 266.08 158.68 265.73 158.46C265.42 158.27 265.07 158.17 264.71 158.17H264.7Z" fill="currentColor"/>
<path d="M182.51 281.74C181.78 281.74 181.07 281.54 180.43 281.14C179.54 280.58 178.92 279.71 178.68 278.69L170.43 242.91C169.94 240.8 171.26 238.68 173.38 238.19L174.47 237.94C175.01 237.82 175.54 238.15 175.67 238.69L185.24 280.18C185.3 280.44 185.25 280.71 185.11 280.93C184.97 281.15 184.75 281.31 184.49 281.37L183.4 281.62C183.1 281.69 182.8 281.72 182.51 281.72V281.74ZM173.95 240.12L173.83 240.15C172.79 240.39 172.14 241.43 172.38 242.47L180.63 278.25C180.75 278.75 181.05 279.18 181.49 279.45C181.93 279.72 182.45 279.81 182.95 279.69L183.07 279.66L173.95 240.12Z" fill="currentColor"/>
<path d="M842.9 59.46C842.68 59.46 842.46 59.39 842.28 59.24L828.29 48.16C828.08 48 827.95 47.75 827.92 47.49C827.89 47.23 827.96 46.96 828.13 46.75C829.77 44.67 832.13 43.36 834.77 43.06C837.4 42.76 840 43.49 842.07 45.14C844.15 46.79 845.46 49.14 845.77 51.78C846.08 54.41 845.34 57 843.69 59.08C843.49 59.33 843.2 59.46 842.91 59.46H842.9ZM830.36 47.25L842.69 57.02C843.6 55.52 843.98 53.78 843.78 52.01C843.54 49.91 842.49 48.03 840.83 46.71C839.17 45.4 837.1 44.81 835 45.05C833.23 45.25 831.62 46.03 830.37 47.25H830.36Z" fill="currentColor"/>
<path d="M872.95 483.59L790.21 124.98L788.62 126.99L871 484.05C872.39 490.08 871.35 496.3 868.06 501.56C864.77 506.82 859.64 510.48 853.61 511.87L292.43 641.34C286.4 642.73 280.18 641.69 274.92 638.4C269.66 635.11 266 629.98 264.61 623.95L168.6 207.83C167.21 201.8 168.25 195.58 171.54 190.32C174.83 185.06 179.96 181.4 185.99 180.01L747.17 50.5304C759.63 47.6504 772.11 55.4504 774.99 67.9204L783.48 104.72L785.07 102.71L776.94 67.4704C773.82 53.9304 760.26 45.4604 746.72 48.5804L185.54 178.06C178.99 179.57 173.42 183.55 169.85 189.26C166.28 194.97 165.14 201.73 166.66 208.28L262.67 624.4C264.18 630.95 268.16 636.52 273.87 640.09C277.93 642.63 282.52 643.94 287.19 643.94C289.09 643.94 291 643.72 292.89 643.29L854.07 513.81C860.62 512.3 866.19 508.32 869.76 502.61C873.33 496.9 874.47 490.14 872.95 483.59ZM189.88 196.86L751.05 67.3804C751.49 67.2804 751.94 67.2304 752.38 67.2304C755.07 67.2304 757.51 69.0804 758.14 71.8104L769.74 122.07L771.33 120.06L760.09 71.3604C759.11 67.1104 754.86 64.4504 750.61 65.4304L189.43 194.91C187.37 195.38 185.63 196.63 184.51 198.43C183.39 200.22 183.03 202.34 183.51 204.4L279.52 620.52C279.99 622.58 281.24 624.32 283.04 625.44C284.31 626.24 285.75 626.65 287.22 626.65C287.82 626.65 288.41 626.58 289.01 626.45L850.19 496.97C854.44 495.99 857.1 491.74 856.12 487.49L776.48 142.33L774.89 144.34L854.17 487.94C854.9 491.11 852.92 494.29 849.74 495.03L288.54 624.49C287.01 624.84 285.42 624.58 284.08 623.74C282.74 622.9 281.81 621.6 281.45 620.06L185.45 203.95C185.1 202.42 185.36 200.83 186.2 199.49C187.04 198.15 188.34 197.22 189.88 196.86Z" fill="currentColor"/>
<path d="M624.87 329.37C624.65 329.37 624.43 329.3 624.25 329.15L615.41 322.15C615.04 321.85 614.92 321.33 615.14 320.91L622.99 305.71C623.02 305.65 623.05 305.6 623.09 305.55L828.12 46.7602C828.46 46.3302 829.09 46.2502 829.53 46.6002L843.52 57.6802C843.73 57.8402 843.86 58.0902 843.89 58.3502C843.92 58.6102 843.85 58.8802 843.68 59.0902L638.65 317.88C638.61 317.93 638.57 317.98 638.52 318.02L625.52 329.14C625.33 329.3 625.1 329.38 624.87 329.38V329.37ZM617.29 321.09L624.84 327.07L637.14 316.55L841.49 58.6302L829.07 48.7902L624.72 306.72L617.29 321.1V321.09Z" fill="currentColor"/>
<path d="M609.78 341.59C609.08 341.59 608.38 341.35 607.77 340.87C606.52 339.88 606.18 338.27 606.91 336.85L614.8 321.56C614.94 321.29 615.19 321.1 615.48 321.04C615.77 320.98 616.08 321.04 616.31 321.23L624.93 328.06C625.16 328.25 625.3 328.53 625.31 328.83C625.31 329.13 625.19 329.41 624.96 329.61L611.88 340.79C611.26 341.32 610.52 341.59 609.78 341.59ZM616.02 323.56L608.68 337.77C608.34 338.43 608.63 339 609.01 339.3C609.39 339.6 610.01 339.76 610.58 339.27L622.74 328.88L616.02 323.56Z" fill="currentColor"/>
</g>
<defs>
<clipPath id="clip0_666_11100">
<rect width="707.6" height="600.94" fill="currentColor" transform="translate(166 43)"/>
</clipPath>
</defs>
</svg>
