<svg width="298" height="268" viewBox="0 0 298 268" fill="none" xmlns="http://www.w3.org/2000/svg">
<g clip-path="url(#clip0_314_10328)">
<path d="M198.83 40H39.91V169.21H198.83V40Z" fill="#131315"/>
<path d="M198.83 171.21H39.91C38.81 171.21 37.91 170.31 37.91 169.21V40C37.91 38.9 38.81 38 39.91 38H198.83C199.93 38 200.83 38.9 200.83 40V169.21C200.83 170.31 199.93 171.21 198.83 171.21ZM41.91 167.21H196.83V42H41.91V167.21Z" fill="#131315"/>
<path d="M205.26 40H42.09V169.21H205.26V40Z" fill="#FAFAFA"/>
<path d="M205.27 171.21H42.09C40.99 171.21 40.09 170.31 40.09 169.21V40C40.09 38.9 40.99 38 42.09 38H205.26C206.36 38 207.26 38.9 207.26 40V169.21C207.26 170.31 206.36 171.21 205.26 171.21H205.27ZM44.09 167.21H203.26V42H44.09V167.21Z" fill="#131315"/>
<path d="M204.67 69.02H42.09C40.99 69.02 40.09 68.12 40.09 67.02C40.09 65.92 40.99 65.02 42.09 65.02H204.67C205.77 65.02 206.67 65.92 206.67 67.02C206.67 68.12 205.77 69.02 204.67 69.02Z" fill="#131315"/>
<path d="M151.2 151.72V75.21H195V159.4H151.2V151.72Z" fill="#FAFAFA"/>
<path d="M195 161.4H151.19C150.09 161.4 149.19 160.5 149.19 159.4V75.21C149.19 74.11 150.09 73.21 151.19 73.21H195C196.1 73.21 197 74.11 197 75.21V159.4C197 160.5 196.1 161.4 195 161.4ZM153.2 157.4H193.01V77.21H153.2V157.4Z" fill="#131315"/>
<path d="M141.99 75.21H51.11V159.4H141.99V75.21Z" fill="#FAFAFA"/>
<path d="M141.99 161.4H51.11C50.01 161.4 49.11 160.5 49.11 159.4V75.21C49.11 74.11 50.01 73.21 51.11 73.21H141.99C143.09 73.21 143.99 74.11 143.99 75.21V159.4C143.99 160.5 143.09 161.4 141.99 161.4ZM53.11 157.4H139.99V77.21H53.11V157.4Z" fill="#131315"/>
<path d="M112.68 75.21H80.4301V132.42H112.68V75.21Z" fill="#FAFAFA"/>
<path d="M112.68 134.42H80.4301C79.3301 134.42 78.4301 133.52 78.4301 132.42V75.21C78.4301 74.11 79.3301 73.21 80.4301 73.21H112.68C113.78 73.21 114.68 74.11 114.68 75.21V132.42C114.68 133.52 113.78 134.42 112.68 134.42ZM82.4301 130.42H110.68V77.21H82.4301V130.42Z" fill="#131315"/>
<path d="M195 161.4C194.28 161.4 193.58 161.01 193.22 160.32L149.41 76.13C148.9 75.15 149.28 73.94 150.26 73.43C151.24 72.92 152.45 73.3 152.96 74.28L196.77 158.47C197.28 159.45 196.9 160.66 195.92 161.17C195.63 161.32 195.31 161.4 195 161.4Z" fill="#131315"/>
<path d="M151.2 161.4C150.89 161.4 150.57 161.33 150.28 161.17C149.3 160.66 148.92 159.45 149.43 158.47L193.24 74.28C193.75 73.3 194.96 72.92 195.94 73.43C196.92 73.94 197.3 75.15 196.79 76.13L152.98 160.32C152.62 161.01 151.93 161.4 151.2 161.4Z" fill="#131315"/>
<path d="M62.15 47.91H51.2V58.86H62.15V47.91Z" fill="#FAFAFA"/>
<path d="M62.16 60.86H51.21C50.11 60.86 49.21 59.96 49.21 58.86V47.91C49.21 46.81 50.11 45.91 51.21 45.91H62.16C63.26 45.91 64.16 46.81 64.16 47.91V58.86C64.16 59.96 63.26 60.86 62.16 60.86ZM53.2 56.86H60.15V49.91H53.2V56.86Z" fill="#131315"/>
<path d="M83.43 47.91H72.48V58.86H83.43V47.91Z" fill="#FAFAFA"/>
<path d="M83.43 60.86H72.48C71.38 60.86 70.48 59.96 70.48 58.86V47.91C70.48 46.81 71.38 45.91 72.48 45.91H83.43C84.53 45.91 85.43 46.81 85.43 47.91V58.86C85.43 59.96 84.53 60.86 83.43 60.86ZM74.48 56.86H81.43V49.91H74.48V56.86Z" fill="#131315"/>
<path d="M104.7 47.91H93.75V58.86H104.7V47.91Z" fill="#FAFAFA"/>
<path d="M104.7 60.86H93.75C92.65 60.86 91.75 59.96 91.75 58.86V47.91C91.75 46.81 92.65 45.91 93.75 45.91H104.7C105.8 45.91 106.7 46.81 106.7 47.91V58.86C106.7 59.96 105.8 60.86 104.7 60.86ZM95.75 56.86H102.7V49.91H95.75V56.86Z" fill="#131315"/>
<path d="M35.5099 87.05C35.2399 84.4 34.6899 78.93 34.6899 78.93C34.6899 78.93 50.2499 69.05 60.7299 67.99C71.0599 66.95 88.4299 73.49 88.4299 73.49C88.4299 73.49 88.9699 78.87 89.2499 81.61C90.1599 90.63 78.8699 99.16 64.0299 100.66C49.1899 102.16 36.4199 96.06 35.5099 87.04V87.05Z" fill="#131315"/>
<path d="M59.46 102.91C45.47 102.91 34.46 96.5 33.52 87.26L32.7 79.14C32.62 78.39 32.98 77.66 33.62 77.25C34.27 76.84 49.71 67.11 60.53 66.01C71.21 64.93 88.41 71.36 89.14 71.63C89.85 71.9 90.35 72.54 90.42 73.3L91.24 81.42C91.75 86.51 89.1 91.53 83.75 95.57C78.7 99.39 71.76 101.91 64.23 102.67C62.61 102.83 61.01 102.91 59.45 102.91H59.46ZM36.81 79.98L37.5 86.85C38.29 94.63 50.35 100.05 63.83 98.68C70.65 97.99 76.87 95.75 81.34 92.37C85.52 89.21 87.63 85.46 87.26 81.82L86.57 74.95C82.58 73.55 69.19 69.15 60.93 69.98C52.56 70.83 40.41 77.8 36.8 79.97L36.81 79.98Z" fill="#131315"/>
<path d="M63.2123 92.5617C78.054 91.062 89.3464 82.532 88.4347 73.5094C87.523 64.4868 74.7524 58.3883 59.9108 59.8881C45.0691 61.3878 33.7767 69.9178 34.6884 78.9403C35.6001 87.9629 48.3707 94.0614 63.2123 92.5617Z" fill="#FAFAFA"/>
<path d="M58.64 94.79C44.65 94.79 33.64 88.38 32.7 79.14C32.19 74.05 34.84 69.03 40.19 64.99C45.24 61.17 52.18 58.65 59.71 57.89C67.25 57.13 74.54 58.21 80.26 60.94C86.3 63.83 89.91 68.22 90.43 73.3C90.95 78.38 88.29 83.41 82.94 87.45C77.89 91.27 70.95 93.79 63.42 94.55C61.8 94.71 60.2 94.79 58.64 94.79ZM36.68 78.73C37.47 86.51 49.53 91.93 63.01 90.56C69.83 89.87 76.05 87.63 80.52 84.25C84.7 81.09 86.81 77.34 86.44 73.7C86.07 70.06 83.26 66.81 78.53 64.55C73.47 62.13 66.93 61.18 60.11 61.87C53.29 62.56 47.07 64.8 42.6 68.18C38.42 71.34 36.31 75.09 36.68 78.73Z" fill="#131315"/>
<path d="M62.4093 84.6072C72.7451 83.5628 80.7211 78.7294 80.2242 73.8115C79.7273 68.8936 70.9456 65.7535 60.6097 66.7979C50.2739 67.8423 42.2979 72.6757 42.7948 77.5936C43.2918 82.5115 52.0735 85.6516 62.4093 84.6072Z" fill="#131315"/>
<path d="M58.48 86.8001C54.71 86.8001 51.17 86.2601 48.24 85.2101C43.77 83.6101 41.13 80.9701 40.81 77.7801C40.18 71.5701 48.61 65.9801 60.41 64.7901C65.7 64.2601 70.8 64.7501 74.78 66.1701C79.25 67.7701 81.89 70.4101 82.21 73.6001C82.84 79.8101 74.41 85.4001 62.61 86.5901C61.21 86.7301 59.83 86.8001 58.48 86.8001ZM64.57 68.5801C63.34 68.5801 62.09 68.6401 60.81 68.7701C51.24 69.7401 44.46 74.1101 44.79 77.3801C44.94 78.9001 46.74 80.4201 49.59 81.4401C53.02 82.6701 57.5 83.0801 62.21 82.6001C71.78 81.6301 78.56 77.2601 78.23 73.9901C78.08 72.4701 76.28 70.9501 73.43 69.9301C70.93 69.0401 67.87 68.5701 64.57 68.5701V68.5801Z" fill="#131315"/>
<path d="M62.4074 84.6102C72.7432 83.5658 80.7962 79.4941 80.3942 75.5158C79.9922 71.5375 71.2875 69.1591 60.9516 70.2035C50.6158 71.2479 42.5628 75.3196 42.9648 79.2979C43.3668 83.2762 52.0715 85.6546 62.4074 84.6102Z" fill="#FAFAFA"/>
<path d="M57.61 86.85C54.23 86.85 51.08 86.48 48.44 85.76C43.91 84.52 41.26 82.3 40.98 79.5C40.37 73.47 50.47 69.26 60.75 68.22C71.04 67.18 81.77 69.29 82.38 75.32C82.99 81.35 72.89 85.56 62.61 86.6C60.91 86.77 59.23 86.86 57.61 86.86V86.85ZM65.82 71.95C64.38 71.95 62.82 72.02 61.15 72.19C50.33 73.28 44.78 77.32 44.95 79.09C45.03 79.89 46.46 81.07 49.48 81.9C52.92 82.84 57.44 83.1 62.2 82.61C73.02 81.52 78.58 77.48 78.4 75.71C78.25 74.21 73.75 71.95 65.82 71.95Z" fill="#131315"/>
<path d="M23.4493 121.196L50.5187 99.7102C52.2707 98.3197 52.5636 95.7721 51.1731 94.0202L50.284 92.9001C48.8935 91.1482 46.3459 90.8552 44.594 92.2458L17.5245 113.732C15.7726 115.122 15.4796 117.67 16.8702 119.422L17.7592 120.542C19.1498 122.294 21.6973 122.587 23.4493 121.196Z" fill="#FAFAFA"/>
<path d="M20.9499 124.07C20.7199 124.07 20.4799 124.06 20.2499 124.03C18.6399 123.85 17.2099 123.05 16.1999 121.78L15.3099 120.66C13.2399 118.04 13.6699 114.23 16.2899 112.16L43.3599 90.6799C45.9699 88.6099 49.7899 89.0399 51.8599 91.6599L52.7499 92.7799C53.7499 94.0499 54.2099 95.6299 54.0199 97.2299C53.8299 98.8299 53.0399 100.27 51.7699 101.28L24.6999 122.76C23.6199 123.62 22.3099 124.07 20.9499 124.07ZM47.1099 93.3699C46.6599 93.3699 46.2099 93.5099 45.8399 93.8099L18.7699 115.29C17.8799 115.99 17.7399 117.29 18.4399 118.17L19.3299 119.29C19.6699 119.72 20.1599 119.99 20.6999 120.05C21.2399 120.11 21.7799 119.96 22.2099 119.62L49.2799 98.1399C49.7099 97.7999 49.9799 97.3099 50.0399 96.7699C50.0999 96.2299 49.9499 95.6899 49.6099 95.2599L48.7199 94.1399C48.3199 93.6299 47.7199 93.3699 47.1099 93.3699Z" fill="#131315"/>
<path d="M71.63 84.71C71.03 84.71 70.44 84.45 70.05 83.94L59.24 70.04C58.56 69.17 58.72 67.91 59.59 67.23C60.46 66.55 61.72 66.71 62.4 67.58L73.21 81.48C73.89 82.35 73.73 83.61 72.86 84.29C72.5 84.57 72.06 84.71 71.63 84.71Z" fill="#131315"/>
<path d="M61.9701 82.2799C61.3601 82.2799 60.7701 82.0099 60.3701 81.4899L51.6601 69.9699C50.9901 69.0899 51.1701 67.8299 52.0501 67.1699C52.9301 66.4999 54.1901 66.6799 54.8501 67.5599L63.5601 79.0799C64.2301 79.9599 64.0501 81.2199 63.1701 81.8799C62.8101 82.1499 62.3901 82.2799 61.9701 82.2799Z" fill="#131315"/>
<path d="M77.86 81.67C77.28 81.67 76.71 81.42 76.31 80.94L69.09 72.15C68.39 71.3 68.51 70.04 69.37 69.34C70.22 68.64 71.48 68.76 72.18 69.62L79.4 78.41C80.1 79.26 79.98 80.52 79.12 81.22C78.75 81.53 78.3 81.68 77.85 81.68L77.86 81.67Z" fill="#131315"/>
<path d="M232.37 91.5H89.3101C82.6826 91.5 77.3101 96.8726 77.3101 103.5V211.79C77.3101 218.417 82.6826 223.79 89.3101 223.79H232.37C238.997 223.79 244.37 218.417 244.37 211.79V103.5C244.37 96.8726 238.997 91.5 232.37 91.5Z" fill="#131315"/>
<path d="M232.37 225.79H89.3101C81.5901 225.79 75.3101 219.51 75.3101 211.79V103.5C75.3101 95.78 81.5901 89.5 89.3101 89.5H232.37C240.09 89.5 246.37 95.78 246.37 103.5V211.79C246.37 219.51 240.09 225.79 232.37 225.79ZM89.3101 93.5C83.8001 93.5 79.3101 97.99 79.3101 103.5V211.79C79.3101 217.3 83.8001 221.79 89.3101 221.79H232.37C237.88 221.79 242.37 217.3 242.37 211.79V103.5C242.37 97.99 237.88 93.5 232.37 93.5H89.3101Z" fill="#131315"/>
<path d="M237.81 98.29H98.64C92.0126 98.29 86.64 103.663 86.64 110.29V215.5C86.64 222.127 92.0126 227.5 98.64 227.5H237.81C244.437 227.5 249.81 222.127 249.81 215.5V110.29C249.81 103.663 244.437 98.29 237.81 98.29Z" fill="#FAFAFA"/>
<path d="M237.82 229.5H98.64C90.92 229.5 84.64 223.22 84.64 215.5V110.29C84.64 102.57 90.92 96.29 98.64 96.29H237.81C245.53 96.29 251.81 102.57 251.81 110.29V215.5C251.81 223.22 245.53 229.5 237.81 229.5H237.82ZM98.64 100.29C93.13 100.29 88.64 104.78 88.64 110.29V215.5C88.64 221.01 93.13 225.5 98.64 225.5H237.81C243.32 225.5 247.81 221.01 247.81 215.5V110.29C247.81 104.78 243.32 100.29 237.81 100.29H98.64Z" fill="#131315"/>
<path d="M86.64 125.31H249.81V216.51C249.81 223.13 244.43 228.51 237.81 228.51H98.64C92.02 228.51 86.64 223.13 86.64 216.51V125.31Z" fill="#FAFAFA"/>
<path d="M237.82 230.51H98.64C90.92 230.51 84.64 224.23 84.64 216.51V125.3C84.64 124.2 85.54 123.3 86.64 123.3H249.81C250.91 123.3 251.81 124.2 251.81 125.3V216.51C251.81 224.23 245.53 230.51 237.81 230.51H237.82ZM88.64 127.31V216.52C88.64 222.03 93.13 226.52 98.64 226.52H237.81C243.32 226.52 247.81 222.03 247.81 216.52V127.31H88.64Z" fill="#131315"/>
<path d="M249.22 127.31H86.05C84.95 127.31 84.05 126.41 84.05 125.31C84.05 124.21 84.95 123.31 86.05 123.31H249.22C250.32 123.31 251.22 124.21 251.22 125.31C251.22 126.41 250.32 127.31 249.22 127.31Z" fill="#131315"/>
<path d="M101.81 117.32C104.583 117.32 106.83 115.073 106.83 112.3C106.83 109.528 104.583 107.28 101.81 107.28C99.0376 107.28 96.79 109.528 96.79 112.3C96.79 115.073 99.0376 117.32 101.81 117.32Z" fill="#FAFAFA"/>
<path d="M101.81 119.32C97.94 119.32 94.79 116.17 94.79 112.3C94.79 108.43 97.94 105.28 101.81 105.28C105.68 105.28 108.83 108.43 108.83 112.3C108.83 116.17 105.68 119.32 101.81 119.32ZM101.81 109.29C100.15 109.29 98.79 110.64 98.79 112.31C98.79 113.98 100.14 115.33 101.81 115.33C103.48 115.33 104.83 113.98 104.83 112.31C104.83 110.64 103.48 109.29 101.81 109.29Z" fill="#131315"/>
<path d="M122.58 117.32C125.353 117.32 127.6 115.073 127.6 112.3C127.6 109.528 125.353 107.28 122.58 107.28C119.808 107.28 117.56 109.528 117.56 112.3C117.56 115.073 119.808 117.32 122.58 117.32Z" fill="#FAFAFA"/>
<path d="M122.58 119.32C118.71 119.32 115.56 116.17 115.56 112.3C115.56 108.43 118.71 105.28 122.58 105.28C126.45 105.28 129.6 108.43 129.6 112.3C129.6 116.17 126.45 119.32 122.58 119.32ZM122.58 109.29C120.92 109.29 119.56 110.64 119.56 112.31C119.56 113.98 120.91 115.33 122.58 115.33C124.25 115.33 125.6 113.98 125.6 112.31C125.6 110.64 124.25 109.29 122.58 109.29Z" fill="#131315"/>
<path d="M143.36 117.32C146.132 117.32 148.38 115.073 148.38 112.3C148.38 109.528 146.132 107.28 143.36 107.28C140.588 107.28 138.34 109.528 138.34 112.3C138.34 115.073 140.588 117.32 143.36 117.32Z" fill="#FAFAFA"/>
<path d="M143.36 119.32C139.49 119.32 136.34 116.17 136.34 112.3C136.34 108.43 139.49 105.28 143.36 105.28C147.23 105.28 150.38 108.43 150.38 112.3C150.38 116.17 147.23 119.32 143.36 119.32ZM143.36 109.29C141.7 109.29 140.34 110.64 140.34 112.31C140.34 113.98 141.69 115.33 143.36 115.33C145.03 115.33 146.38 113.98 146.38 112.31C146.38 110.64 145.03 109.29 143.36 109.29Z" fill="#131315"/>
<path d="M204.82 159.18H234.83C237.44 159.18 239.55 157.06 239.55 154.46V138.23C239.55 135.62 237.43 133.51 234.83 133.51H200.47C197.86 133.51 195.75 135.63 195.75 138.23V149.61" fill="#FAFAFA"/>
<path d="M234.83 161.18H204.82C203.72 161.18 202.82 160.28 202.82 159.18C202.82 158.08 203.72 157.18 204.82 157.18H234.83C236.33 157.18 237.55 155.96 237.55 154.46V138.23C237.55 136.73 236.33 135.51 234.83 135.51H200.47C198.97 135.51 197.75 136.73 197.75 138.23V149.61C197.75 150.71 196.85 151.61 195.75 151.61C194.65 151.61 193.75 150.71 193.75 149.61V138.23C193.75 134.52 196.77 131.51 200.47 131.51H234.83C238.54 131.51 241.55 134.53 241.55 138.23V154.46C241.55 158.17 238.53 161.18 234.83 161.18Z" fill="#131315"/>
<path d="M195.75 183.84V172.06C195.75 169.47 197.85 167.37 200.44 167.37H234.87C237.46 167.37 239.56 169.47 239.56 172.06V214.05C239.56 216.64 237.46 218.74 234.87 218.74H200.44C197.85 218.74 195.75 216.64 195.75 214.05V204.41" fill="#FAFAFA"/>
<path d="M234.86 220.73H200.43C196.74 220.73 193.74 217.73 193.74 214.04V204.4C193.74 203.3 194.64 202.4 195.74 202.4C196.84 202.4 197.74 203.3 197.74 204.4V214.04C197.74 215.52 198.95 216.73 200.43 216.73H234.86C236.34 216.73 237.55 215.52 237.55 214.04V172.05C237.55 170.57 236.34 169.36 234.86 169.36H200.43C198.95 169.36 197.74 170.57 197.74 172.05V183.83C197.74 184.93 196.84 185.83 195.74 185.83C194.64 185.83 193.74 184.93 193.74 183.83V172.05C193.74 168.36 196.74 165.36 200.43 165.36H234.86C238.55 165.36 241.55 168.36 241.55 172.05V214.04C241.55 217.73 238.55 220.73 234.86 220.73Z" fill="#131315"/>
<path d="M157.51 186.39C157.51 190.07 154.72 193.05 151.28 193.05H132.67C129.23 193.05 126.44 190.07 126.44 186.39V141.45C126.44 137.06 122.88 133.5 118.49 133.5H103.62C99.23 133.5 95.67 137.06 95.67 141.45V209.73C95.67 214.12 99.23 217.68 103.62 217.68H178.6C182.99 217.68 186.55 214.12 186.55 209.73V141.45C186.55 137.06 182.99 133.5 178.6 133.5H165.47C161.08 133.5 157.52 137.06 157.52 141.45V151.29" fill="#FAFAFA"/>
<path d="M178.59 219.69H103.61C98.12 219.69 93.66 215.22 93.66 209.74V141.46C93.66 135.97 98.12 131.51 103.61 131.51H118.48C123.97 131.51 128.43 135.97 128.43 141.46V186.4C128.43 188.97 130.33 191.06 132.66 191.06H151.27C153.6 191.06 155.5 188.97 155.5 186.4C155.5 185.3 156.4 184.4 157.5 184.4C158.6 184.4 159.5 185.3 159.5 186.4C159.5 191.18 155.81 195.06 151.27 195.06H132.66C128.12 195.06 124.43 191.17 124.43 186.4V141.46C124.43 138.18 121.76 135.51 118.48 135.51H103.61C100.33 135.51 97.66 138.18 97.66 141.46V209.74C97.66 213.02 100.33 215.69 103.61 215.69H178.59C181.87 215.69 184.54 213.02 184.54 209.74V141.46C184.54 138.18 181.87 135.51 178.59 135.51H165.46C162.18 135.51 159.51 138.18 159.51 141.46V151.3C159.51 152.4 158.61 153.3 157.51 153.3C156.41 153.3 155.51 152.4 155.51 151.3V141.46C155.51 135.97 159.97 131.51 165.46 131.51H178.59C184.08 131.51 188.54 135.97 188.54 141.46V209.74C188.54 215.23 184.08 219.69 178.59 219.69Z" fill="#131315"/>
<path d="M154.57 161.93C154.57 161.93 141.56 172.35 127.81 170.23C114.07 168.11 104.8 154.26 104.8 154.26C104.8 154.26 117.81 143.84 131.56 145.96C145.3 148.08 154.57 161.93 154.57 161.93Z" fill="#131315"/>
<path d="M131.62 172.52C130.27 172.52 128.89 172.42 127.51 172.21C113.06 169.98 103.54 155.97 103.14 155.37C102.56 154.51 102.74 153.35 103.55 152.7C104.11 152.25 117.42 141.76 131.86 143.99C146.31 146.22 155.83 160.23 156.23 160.83C156.81 161.69 156.63 162.85 155.82 163.5C155.31 163.9 144.39 172.52 131.62 172.52ZM107.61 154.69C110.41 158.22 118.07 166.71 128.11 168.25C138.15 169.8 148.01 164.02 151.74 161.5C148.94 157.96 141.28 149.49 131.24 147.94C121.17 146.38 111.33 152.16 107.61 154.69Z" fill="#131315"/>
<path d="M154.72 162.77C154.72 162.77 144.17 174.26 131.16 174.26C118.15 174.26 107.6 162.77 107.6 162.77C107.6 162.77 118.15 151.28 131.16 151.28C144.17 151.28 154.72 162.77 154.72 162.77Z" fill="#FAFAFA"/>
<path d="M131.16 176.26C117.43 176.26 106.58 164.62 106.12 164.12C105.42 163.36 105.42 162.18 106.12 161.41C106.57 160.91 117.42 149.27 131.16 149.27C144.9 149.27 155.74 160.91 156.2 161.41C156.9 162.17 156.9 163.35 156.2 164.12C155.75 164.62 144.9 176.26 131.16 176.26ZM110.46 162.77C113.62 165.68 121.8 172.26 131.16 172.26C140.52 172.26 148.7 165.68 151.86 162.77C148.7 159.86 140.52 153.28 131.16 153.28C121.8 153.28 113.62 159.86 110.46 162.77Z" fill="#131315"/>
<path d="M120.23 154.5C119.87 155.61 119.67 156.8 119.67 158.03C119.67 164.38 124.81 169.52 131.16 169.52C137.51 169.52 142.65 164.38 142.65 158.03C142.65 156.8 142.45 155.61 142.09 154.5C138.82 153.03 135.11 151.97 131.16 151.97C127.21 151.97 123.5 153.03 120.23 154.5Z" fill="#131315"/>
<path d="M136.29 160.86L142.03 166.29L144.03 159.25L136.29 160.86Z" fill="#FAFAFA"/>
<path d="M181.89 161.93C181.89 161.93 194.9 172.35 208.65 170.23C222.39 168.11 231.66 154.26 231.66 154.26C231.66 154.26 218.65 143.84 204.9 145.96C191.15 148.08 181.89 161.93 181.89 161.93Z" fill="#131315"/>
<path d="M204.84 172.52C192.07 172.52 181.14 163.9 180.64 163.5C179.83 162.85 179.65 161.69 180.23 160.83C180.63 160.23 190.15 146.22 204.6 143.99C219.05 141.75 232.35 152.25 232.91 152.7C233.72 153.35 233.9 154.51 233.32 155.37C232.92 155.97 223.4 169.98 208.95 172.21C207.57 172.42 206.19 172.52 204.84 172.52ZM184.71 161.5C188.45 164.03 198.3 169.8 208.34 168.25C218.38 166.7 226.04 158.22 228.84 154.69C225.1 152.16 215.25 146.39 205.21 147.94C195.17 149.49 187.51 157.97 184.71 161.5Z" fill="#131315"/>
<path d="M181.74 162.77C181.74 162.77 192.29 174.26 205.3 174.26C218.31 174.26 228.86 162.77 228.86 162.77C228.86 162.77 218.31 151.28 205.3 151.28C192.29 151.28 181.74 162.77 181.74 162.77Z" fill="#FAFAFA"/>
<path d="M205.3 176.26C191.57 176.26 180.72 164.62 180.26 164.12C179.56 163.36 179.56 162.18 180.26 161.41C180.71 160.91 191.56 149.27 205.3 149.27C219.04 149.27 229.88 160.91 230.34 161.41C231.04 162.17 231.04 163.35 230.34 164.12C229.89 164.62 219.04 176.26 205.3 176.26ZM184.6 162.77C187.76 165.68 195.94 172.26 205.3 172.26C214.66 172.26 222.84 165.68 226 162.77C222.84 159.86 214.66 153.28 205.3 153.28C195.94 153.28 187.76 159.86 184.6 162.77Z" fill="#131315"/>
<path d="M194.28 154.5C193.92 155.61 193.72 156.8 193.72 158.03C193.72 164.38 198.86 169.52 205.21 169.52C211.56 169.52 216.7 164.38 216.7 158.03C216.7 156.8 216.5 155.61 216.14 154.5C212.87 153.03 209.16 151.97 205.21 151.97C201.26 151.97 197.55 153.03 194.28 154.5Z" fill="#131315"/>
<path d="M210.34 160.86L216.08 166.29L218.08 159.25L210.34 160.86Z" fill="#FAFAFA"/>
<path d="M195.41 192.51C187.27 190.24 186.22 178.91 181.68 176.31C181.32 175.97 180.91 175.77 180.42 175.77C180.3 175.77 180.17 175.79 180.04 175.79C179.92 175.78 179.81 175.77 179.69 175.77C176.38 175.77 171.71 178.96 170.39 179.86C169.07 178.96 164.4 175.77 161.09 175.77C160.97 175.77 160.85 175.78 160.74 175.79C160.61 175.79 160.48 175.77 160.36 175.77C159.87 175.77 159.46 175.97 159.1 176.31C154.56 178.91 153.51 190.25 145.37 192.51C140.14 193.97 152.39 198.18 154.74 195.75C154.74 202.54 159.33 207.01 169.72 207.29C169.82 207.29 169.93 207.32 170.03 207.32C170.16 207.32 170.27 207.32 170.4 207.32C170.52 207.32 170.64 207.32 170.77 207.32C170.88 207.32 170.98 207.3 171.08 207.29C181.47 207.01 186.06 202.54 186.06 195.75C188.41 198.18 200.65 193.96 195.43 192.51H195.41Z" fill="#131315"/>
<path d="M170.75 209.32C170.66 209.32 170.57 209.32 170.48 209.32H170.37H170.29C170.07 209.33 169.83 209.32 169.6 209.3C157.39 208.97 153.82 203.2 152.96 198.45C150.26 198.69 146.96 197.74 145.25 196.98C144.42 196.61 141.91 195.48 142.08 193.29C142.15 192.39 142.68 191.19 144.82 190.6C148.83 189.48 150.85 185.51 152.81 181.67C154.27 178.8 155.66 176.09 157.9 174.7C158.71 174.02 159.67 173.72 160.71 173.8C160.84 173.79 160.96 173.78 161.07 173.78C163.5 173.78 166.55 174.99 170.37 177.47C174.19 174.99 177.25 173.78 179.67 173.78C179.8 173.78 179.92 173.78 180.04 173.8C180.19 173.79 180.3 173.78 180.41 173.78C181.3 173.78 182.14 174.1 182.85 174.7C185.09 176.09 186.47 178.8 187.94 181.67C189.9 185.51 191.93 189.48 195.93 190.6C198.07 191.2 198.6 192.39 198.67 193.29C198.83 195.49 196.32 196.61 195.5 196.98C193.79 197.75 190.49 198.69 187.79 198.45C186.93 203.19 183.35 208.96 171.1 209.3C171.01 209.32 170.88 209.33 170.73 209.33L170.75 209.32ZM154.73 193.72C154.99 193.72 155.25 193.77 155.5 193.87C156.26 194.17 156.72 194.93 156.72 195.75C156.72 201.84 161.11 205.05 169.76 205.29C169.9 205.29 169.99 205.31 170.09 205.32H170.37H170.75C170.78 205.31 170.87 205.3 170.97 205.29C179.66 205.05 184.04 201.84 184.04 195.75C184.04 194.93 184.53 194.2 185.29 193.9C186.05 193.6 186.91 193.78 187.48 194.37C188.25 194.83 190.97 194.38 192.93 193.72C188.54 191.62 186.26 187.16 184.39 183.48C183.16 181.07 182 178.8 180.68 178.05C180.55 177.97 180.43 177.89 180.32 177.78H180.18C180.07 177.8 179.97 177.8 179.86 177.78L179.67 177.76C178.67 177.76 176.26 178.25 171.51 181.5C170.83 181.97 169.93 181.97 169.25 181.5C164.5 178.25 162.09 177.76 161.08 177.76L160.91 177.78C160.8 177.78 160.7 177.78 160.59 177.78H160.45C160.34 177.86 160.2 177.97 160.08 178.03C158.76 178.79 157.6 181.06 156.37 183.46C154.5 187.13 152.22 191.59 147.83 193.69C149.8 194.35 152.53 194.79 153.34 194.29C153.72 193.9 154.21 193.7 154.73 193.7V193.72Z" fill="#131315"/>
<path d="M183.99 195.46C183.79 195.46 183.58 195.4 183.4 195.27C181.48 193.87 180.6 192.42 180.21 191.29C178.51 192.58 175.38 194.38 171.06 194.38H170.45C166.13 194.38 163 192.58 161.3 191.29C160.91 192.42 160.03 193.87 158.11 195.27C157.66 195.6 157.04 195.5 156.71 195.05C156.38 194.6 156.48 193.98 156.93 193.65C159.83 191.53 159.62 189.56 159.61 189.47C159.55 189.04 159.79 188.6 160.19 188.42C160.59 188.24 161.06 188.33 161.35 188.65C161.38 188.68 164.78 192.37 170.46 192.37H171.07C176.76 192.37 180.15 188.69 180.19 188.65C180.49 188.32 180.97 188.23 181.37 188.42C181.77 188.61 181.99 189.05 181.92 189.49C181.92 189.55 181.7 191.53 184.6 193.65C185.05 193.98 185.14 194.6 184.82 195.05C184.62 195.32 184.32 195.46 184.01 195.46H183.99Z" fill="#FAFAFA"/>
<path d="M153.53 191.26C153.27 191.26 152.99 191.17 152.68 190.95C152.34 190.7 151.65 190.02 152.38 188.8C152.38 188.8 152.39 188.78 152.4 188.77C152.44 188.7 152.49 188.63 152.54 188.56C152.66 188.39 152.79 188.21 152.93 188.03C152.95 187.99 152.97 187.97 152.98 187.95C153.49 187.35 154.18 186.86 155.1 187.5C155.53 187.8 156.11 188.46 155.42 189.66C155.42 189.66 155.42 189.67 155.41 189.68C155.36 189.76 155.31 189.84 155.26 189.92C155.26 189.93 155.25 189.94 155.24 189.95C155.14 190.09 155.03 190.25 154.9 190.4C154.86 190.46 154.83 190.5 154.82 190.52H154.81C154.48 190.9 154.05 191.25 153.54 191.25L153.53 191.26Z" fill="#FAFAFA"/>
<path d="M183.62 186.34C183.15 186.34 182.69 186.12 182.4 185.71C181.12 183.91 179.73 182.01 178.99 181C177.97 181.23 175.95 181.89 173.58 183.79L171.25 185.42C170.73 185.78 170.05 185.78 169.53 185.42L167.28 183.84C164.83 181.88 162.79 181.21 161.77 180.98C161.1 181.86 159.9 183.44 158.72 185.04C158.23 185.71 157.29 185.85 156.62 185.36C155.95 184.87 155.81 183.93 156.3 183.26C158.09 180.82 159.92 178.45 159.92 178.45C160.21 178.07 160.67 177.83 161.15 177.87C161.3 177.87 164.79 178.02 169.06 181.44L170.37 182.36L171.76 181.39C175.95 178.03 179.45 177.88 179.6 177.88C180.09 177.86 180.56 178.09 180.85 178.49C180.87 178.52 182.97 181.35 184.83 183.97C185.31 184.65 185.15 185.58 184.47 186.06C184.21 186.25 183.9 186.34 183.6 186.34H183.62Z" fill="#FAFAFA"/>
<path d="M170.74 204.63C174.65 204.63 177.82 203.354 177.82 201.78C177.82 200.206 174.65 198.93 170.74 198.93C166.83 198.93 163.66 200.206 163.66 201.78C163.66 203.354 166.83 204.63 170.74 204.63Z" fill="#FAFAFA"/>
<path d="M256.82 131.96C256.82 117.74 246.36 107.07 232.4 107.07C246.35 107.07 256.82 96.4001 256.82 82.1801C256.82 96.4001 267.28 107.07 281.24 107.07C267.29 107.07 256.82 117.74 256.82 131.96Z" fill="#FAFAFA"/>
<path d="M256.82 133.96C255.72 133.96 254.82 133.06 254.82 131.96C254.82 118.91 245.18 109.08 232.4 109.08C231.3 109.08 230.4 108.18 230.4 107.08C230.4 105.98 231.3 105.08 232.4 105.08C245.18 105.08 254.82 95.2399 254.82 82.1899C254.82 81.0899 255.72 80.1899 256.82 80.1899C257.92 80.1899 258.82 81.0899 258.82 82.1899C258.82 95.2399 268.46 105.08 281.24 105.08C282.34 105.08 283.24 105.98 283.24 107.08C283.24 108.18 282.34 109.08 281.24 109.08C268.46 109.08 258.82 118.92 258.82 131.96C258.82 133.06 257.92 133.96 256.82 133.96ZM242.77 107.07C249.2 109.71 254.2 114.79 256.82 121.31C259.43 114.78 264.44 109.7 270.87 107.07C264.44 104.43 259.44 99.3499 256.82 92.8299C254.21 99.3599 249.2 104.44 242.77 107.07Z" fill="#131315"/>
<path d="M224.86 81.25C224.86 73.86 219.42 68.32 212.18 68.32C219.43 68.32 224.86 62.78 224.86 55.39C224.86 62.78 230.3 68.32 237.54 68.32C230.29 68.32 224.86 73.86 224.86 81.25Z" fill="#FAFAFA"/>
<path d="M224.86 83.25C223.76 83.25 222.86 82.35 222.86 81.25C222.86 74.92 218.37 70.32 212.18 70.32C211.08 70.32 210.18 69.42 210.18 68.32C210.18 67.22 211.08 66.32 212.18 66.32C218.37 66.32 222.86 61.72 222.86 55.39C222.86 54.29 223.76 53.39 224.86 53.39C225.96 53.39 226.86 54.29 226.86 55.39C226.86 61.72 231.35 66.32 237.54 66.32C238.64 66.32 239.54 67.22 239.54 68.32C239.54 69.42 238.64 70.32 237.54 70.32C231.35 70.32 226.86 74.92 226.86 81.25C226.86 82.35 225.96 83.25 224.86 83.25ZM219.74 68.32C221.87 69.57 223.62 71.34 224.86 73.5C226.1 71.34 227.85 69.57 229.98 68.32C227.85 67.07 226.1 65.3 224.86 63.14C223.62 65.3 221.87 67.07 219.74 68.32Z" fill="#131315"/>
<path d="M61.06 204.95C61.06 197.56 55.62 192.02 48.38 192.02C55.63 192.02 61.06 186.48 61.06 179.09C61.06 186.48 66.5 192.02 73.74 192.02C66.49 192.02 61.06 197.56 61.06 204.95Z" fill="#FAFAFA"/>
<path d="M61.06 206.95C59.96 206.95 59.06 206.05 59.06 204.95C59.06 198.62 54.57 194.02 48.38 194.02C47.28 194.02 46.38 193.12 46.38 192.02C46.38 190.92 47.28 190.02 48.38 190.02C54.57 190.02 59.06 185.42 59.06 179.09C59.06 177.99 59.96 177.09 61.06 177.09C62.16 177.09 63.06 177.99 63.06 179.09C63.06 185.42 67.55 190.02 73.74 190.02C74.84 190.02 75.74 190.92 75.74 192.02C75.74 193.12 74.84 194.02 73.74 194.02C67.55 194.02 63.06 198.62 63.06 204.95C63.06 206.05 62.16 206.95 61.06 206.95ZM55.94 192.02C58.07 193.27 59.82 195.04 61.06 197.2C62.3 195.04 64.05 193.27 66.18 192.02C64.05 190.77 62.3 189 61.06 186.84C59.82 189 58.07 190.77 55.94 192.02Z" fill="#131315"/>
<path d="M251.01 158.64C251.01 152.61 246.57 148.09 240.66 148.09C246.58 148.09 251.01 143.57 251.01 137.54C251.01 143.57 255.45 148.09 261.36 148.09C255.44 148.09 251.01 152.61 251.01 158.64Z" fill="#FAFAFA"/>
<path d="M251.01 160.64C249.91 160.64 249.01 159.74 249.01 158.64C249.01 153.68 245.5 150.09 240.66 150.09C239.56 150.09 238.66 149.19 238.66 148.09C238.66 146.99 239.56 146.09 240.66 146.09C245.5 146.09 249.01 142.49 249.01 137.54C249.01 136.44 249.91 135.54 251.01 135.54C252.11 135.54 253.01 136.44 253.01 137.54C253.01 142.5 256.52 146.09 261.36 146.09C262.46 146.09 263.36 146.99 263.36 148.09C263.36 149.19 262.46 150.09 261.36 150.09C256.52 150.09 253.01 153.69 253.01 158.64C253.01 159.74 252.11 160.64 251.01 160.64ZM247.53 148.09C248.92 149 250.1 150.2 251.01 151.6C251.91 150.19 253.1 149 254.49 148.09C253.1 147.18 251.92 145.98 251.01 144.58C250.11 145.99 248.92 147.18 247.53 148.09Z" fill="#131315"/>
<path d="M119.67 189.33C125.568 189.33 130.35 187.665 130.35 185.61C130.35 183.556 125.568 181.89 119.67 181.89C113.772 181.89 108.99 183.556 108.99 185.61C108.99 187.665 113.772 189.33 119.67 189.33Z" fill="#FAFAFA"/>
<path d="M119.67 191.33C113.36 191.33 106.99 189.56 106.99 185.61C106.99 181.66 113.36 179.89 119.67 179.89C125.98 179.89 132.35 181.66 132.35 185.61C132.35 189.56 125.98 191.33 119.67 191.33ZM111.21 185.61C112.13 186.27 115.04 187.33 119.67 187.33C124.3 187.33 127.21 186.27 128.13 185.61C127.21 184.95 124.3 183.89 119.67 183.89C115.04 183.89 112.13 184.95 111.21 185.61Z" fill="#131315"/>
<path d="M217.65 189.33C223.548 189.33 228.33 187.665 228.33 185.61C228.33 183.556 223.548 181.89 217.65 181.89C211.752 181.89 206.97 183.556 206.97 185.61C206.97 187.665 211.752 189.33 217.65 189.33Z" fill="#FAFAFA"/>
<path d="M217.65 191.33C211.34 191.33 204.97 189.56 204.97 185.61C204.97 181.66 211.34 179.89 217.65 179.89C223.96 179.89 230.33 181.66 230.33 185.61C230.33 189.56 223.96 191.33 217.65 191.33ZM209.19 185.61C210.11 186.27 213.02 187.33 217.65 187.33C222.28 187.33 225.19 186.27 226.11 185.61C225.19 184.95 222.28 183.89 217.65 183.89C213.02 183.89 210.11 184.95 209.19 185.61Z" fill="#131315"/>
</g>
<defs>
<clipPath id="clip0_314_10328">
<rect width="269.24" height="192.51" fill="white" transform="translate(14 38)"/>
</clipPath>
</defs>
</svg>
