<svg width="224" height="112" viewBox="0 0 224 112" fill="none" xmlns="http://www.w3.org/2000/svg">
<path d="M52.0059 18.5689V30.969C52.0059 34.0795 52.7591 36.1044 54.2656 37.0438C54.2865 37.1482 54.297 37.3465 54.297 37.6388V38.2024C54.297 41.2711 53.4601 43.5779 51.7862 45.1227C50.2378 46.584 48.1664 47.3146 45.5718 47.3146C42.9982 47.3146 40.8745 46.584 39.2006 45.1227C37.0873 43.2648 36.0306 40.5509 36.0306 36.9812V18.9133C34.9635 20.2494 33.4256 20.9174 31.4169 20.9174H22.221C22.1582 21.0635 22.1268 21.2201 22.1268 21.3871C22.1268 21.7629 22.3465 22.0134 22.7859 22.1386C23.2462 22.2847 24.2296 22.3578 25.7362 22.3578H27.9018V44.3712C26.9393 45.2062 25.6525 45.9055 24.0413 46.4692C22.4302 47.0328 20.4738 47.3146 18.1722 47.3146C15.8706 47.3146 13.9143 46.8032 12.3031 45.7803C10.4828 44.6739 9.57259 43.1082 9.57259 41.0833V20.9174H2.25976C0.753253 18.7672 0 16.4187 0 13.8719C0 12.1392 0.272008 10.6361 0.816024 9.36273C1.38096 8.06844 2.07145 7.0664 2.88747 6.35663H33.7395C33.4884 7.17078 33.3628 8.00581 33.3628 8.86171C33.3628 9.69674 33.4989 10.3961 33.7709 10.9597C34.0429 11.5025 34.43 11.7739 34.9321 11.7739C35.1623 11.7739 35.3715 11.7425 35.5598 11.6799C35.246 10.8866 35.0891 9.97856 35.0891 8.95565C35.0891 6.32532 35.9574 4.17513 37.6941 2.50508C39.4307 0.835026 41.5545 0 44.0653 0C46.5971 0 48.7104 0.855901 50.4052 2.5677C52.1209 4.25863 52.9788 6.38795 52.9788 8.95565C52.9788 11.0223 52.3302 12.8385 51.0329 14.4042C49.7356 15.949 48.1559 16.9197 46.2937 17.3163C46.2937 18.1096 46.5971 18.5063 47.2039 18.5063C48.271 18.5063 49.359 18.0887 50.468 17.2537C51.3049 17.9009 51.8176 18.3393 52.0059 18.5689Z" fill="#FFBA08"/>
<path d="M72.5634 47.7217C67.1232 47.7217 62.7816 46.0517 59.5384 42.7116C56.3161 39.3506 54.705 34.8519 54.705 29.2155C54.705 23.579 56.5358 19.1221 60.1975 15.8446C63.4616 12.922 67.5417 11.4607 72.4379 11.4607C76.79 11.4607 80.3993 12.5358 83.2659 14.686C86.1324 16.8153 87.5657 19.717 87.5657 23.3912C87.5657 25.938 86.7706 28.0151 85.1804 29.6225C83.6111 31.2091 81.5397 32.0024 78.9661 32.0024C76.8737 32.0024 75.1266 31.4492 73.7247 30.3427C72.3437 29.2155 71.5277 27.7542 71.2766 25.9589C70.356 25.9589 69.8956 26.2929 69.8956 26.9609C69.8956 28.4848 70.6489 29.8835 72.1554 31.1569C73.8921 32.6599 76.0472 33.4115 78.6208 33.4115C81.2154 33.4115 83.36 32.8583 85.0549 31.7519C86.101 33.3593 86.6241 35.3111 86.6241 37.6075C86.6241 40.2795 85.4733 42.5654 83.1717 44.4651C80.5353 46.6362 76.9992 47.7217 72.5634 47.7217Z" fill="#FFBA08"/>
<path d="M90.4532 31.6266C92.2317 29.8522 94.3554 28.965 96.8244 28.965C99.2934 28.965 101.438 29.8522 103.258 31.6266C105.037 33.4428 105.926 35.593 105.926 38.0772C105.926 40.5405 105.037 42.6594 103.258 44.4338C101.459 46.1874 99.3144 47.0641 96.8244 47.0641C94.3345 47.0641 92.2003 46.1874 90.4218 44.4338C88.6642 42.6594 87.7854 40.5405 87.7854 38.0772C87.7854 35.593 88.6747 33.4428 90.4532 31.6266Z" fill="#FFBA08"/>
<path d="M129.443 23.6142V45.3824C128.481 46.2081 127.195 46.8997 125.584 47.4571C123.974 48.0144 122.018 48.2931 119.718 48.2931C117.417 48.2931 115.462 47.7873 113.851 46.7758C112.032 45.6818 111.122 44.1335 111.122 42.1311V22.1899H103.812C102.306 20.0636 101.553 17.7413 101.553 15.2228C101.553 13.5094 101.825 12.0231 102.369 10.7639C102.934 9.48403 103.624 8.49316 104.439 7.79129H136.879C137.485 8.72023 137.987 9.84528 138.384 11.1664C138.782 12.4876 138.981 13.7984 138.981 15.099C138.981 17.5348 138.437 19.3308 137.349 20.4868C136.262 21.6222 134.798 22.1899 132.957 22.1899H123.765C123.702 22.3344 123.671 22.4892 123.671 22.6543C123.671 23.0259 123.89 23.2736 124.33 23.3975C124.79 23.542 125.773 23.6142 127.279 23.6142H129.443Z" fill="#FFBA08"/>
<path d="M170.071 32.4082C170.071 33.8945 170.238 35.0918 170.573 36.0001C170.907 36.9084 171.493 37.6206 172.33 38.1367C172.35 38.2399 172.361 38.436 172.361 38.725V39.2824C172.361 42.2137 171.462 44.4948 169.663 46.1256C168.073 47.5706 166.107 48.2931 163.765 48.2931C162.175 48.2931 160.722 47.9215 159.404 47.1784C158.086 46.4352 157.145 45.3618 156.581 43.958C155.869 43.958 155.514 44.2987 155.514 44.9799C155.514 45.5579 155.88 46.2081 156.612 46.9307C155.252 47.839 153.203 48.2931 150.463 48.2931C146.594 48.2931 143.498 47.2609 141.177 45.1966C138.876 43.1117 137.726 40.2113 137.726 36.4956C137.726 32.7592 138.949 29.8691 141.396 27.8254C143.634 25.9882 146.531 25.0696 150.086 25.0696C151.299 25.0696 152.471 25.1522 153.6 25.3173C154.353 25.4618 154.761 25.5444 154.824 25.565C154.886 25.3586 154.918 25.1831 154.918 25.0386C154.918 24.5019 154.458 24.1406 153.537 23.9549C152.617 23.7691 151.414 23.6762 149.93 23.6762C146.771 23.6762 144.073 24.3058 141.835 25.565C140.811 23.8516 140.298 21.6841 140.298 19.0624C140.298 17.5761 140.486 16.4717 140.863 15.7492C142.369 15.068 144.282 14.4693 146.604 13.9533C148.926 13.4165 151.373 13.1482 153.945 13.1482C159.258 13.1482 163.273 14.2939 165.992 16.5853C168.711 18.8766 170.071 22.1279 170.071 26.3391V32.4082ZM153.788 33.9255C152.91 33.9255 152.471 34.3177 152.471 35.1021C152.471 35.8453 152.983 36.2169 154.008 36.2169C154.719 36.2169 155.242 36.0517 155.577 35.7214C155.911 35.3705 156.079 34.7719 156.079 33.9255C156.079 33.9255 155.315 33.9255 153.788 33.9255Z" fill="#FFBA08"/>
<path d="M190.651 48.6957C185.213 48.6957 180.873 47.0442 177.631 43.7413C174.411 40.4178 172.8 35.9692 172.8 30.3955C172.8 24.8219 174.63 20.4146 178.29 17.1736C181.553 14.2836 185.631 12.8385 190.526 12.8385C194.876 12.8385 198.484 13.9017 201.349 16.0279C204.214 18.1335 205.647 21.0029 205.647 24.6361C205.647 27.1545 204.852 29.2085 203.263 30.7981C201.694 32.3669 199.624 33.1514 197.051 33.1514C194.96 33.1514 193.213 32.6043 191.812 31.5102C190.431 30.3955 189.616 28.9505 189.365 27.1752C188.445 27.1752 187.984 27.5055 187.984 28.1661C187.984 29.673 188.737 31.0561 190.243 32.3153C191.979 33.8016 194.133 34.5448 196.706 34.5448C199.299 34.5448 201.443 33.9977 203.137 32.9036C204.183 34.4932 204.706 36.4233 204.706 38.694C204.706 41.3364 203.556 43.5968 201.255 45.4753C198.62 47.6222 195.085 48.6957 190.651 48.6957Z" fill="#FFBA08"/>
<path d="M208.533 32.7798C210.311 31.0251 212.434 30.1478 214.902 30.1478C217.37 30.1478 219.514 31.0251 221.333 32.7798C223.111 34.5757 224 36.702 224 39.1585C224 41.5944 223.111 43.6897 221.333 45.4444C219.535 47.1784 217.391 48.0454 214.902 48.0454C212.413 48.0454 210.28 47.1784 208.502 45.4444C206.745 43.6897 205.867 41.5944 205.867 39.1585C205.867 36.702 206.756 34.5757 208.533 32.7798Z" fill="#FFBA08"/>
<path d="M47.0341 82.0939H37.8322V77.8526H34.4083V102.321H38.1532V111.239H15.6835V102.321H19.4285V77.8526H16.0045V82.0939H6.8026V68.9352H47.0341V82.0939Z" fill="#171A28"/>
<path d="M68.9835 112C62.4566 112 57.4098 110.26 53.8432 106.78C50.3122 103.3 48.5467 97.7357 48.5467 90.087C48.5467 82.4382 50.3122 76.8739 53.8432 73.3939C57.4098 69.9139 62.4566 68.1739 68.9835 68.1739C75.5104 68.1739 80.5394 69.9139 84.0703 73.3939C87.6369 76.8739 89.4203 82.4382 89.4203 90.087C89.4203 97.7357 87.6369 103.3 84.0703 106.78C80.5394 110.26 75.5104 112 68.9835 112ZM68.9835 102.321C70.1961 102.321 71.1056 101.995 71.712 101.343C72.3183 100.69 72.6215 99.6751 72.6215 98.2976V81.8764C72.6215 80.4989 72.3183 79.4839 71.712 78.8314C71.1056 78.1789 70.1961 77.8526 68.9835 77.8526C67.7708 77.8526 66.8613 78.1789 66.255 78.8314C65.6487 79.4839 65.3455 80.4989 65.3455 81.8764V98.2976C65.3455 99.7113 65.6487 100.744 66.255 101.397C66.8613 102.013 67.7708 102.321 68.9835 102.321Z" fill="#171A28"/>
<path d="M111.248 112C105.648 112 101.315 110.749 98.2472 108.248C95.2156 105.747 93.6998 101.687 93.6998 96.0682V77.8526H91.0248V68.9352H110.82V77.8526H108.68V98.8413C108.68 100.038 108.929 100.926 109.429 101.506C109.964 102.049 110.748 102.321 111.783 102.321C112.817 102.321 113.584 102.049 114.083 101.506C114.618 100.926 114.886 100.038 114.886 98.8413V77.8526H112.746V68.9352H131.096V77.8526H128.421V96.0682C128.421 101.687 126.941 105.747 123.98 108.248C121.02 110.749 116.776 112 111.248 112Z" fill="#171A28"/>
<path d="M173.374 97.6451H170.699V108.52C169.129 109.426 166.829 110.242 163.797 110.967C160.801 111.656 157.556 112 154.06 112C147.391 112 142.166 110.224 138.385 106.671C134.604 103.083 132.714 97.5544 132.714 90.087C132.714 82.4382 134.587 76.8739 138.332 73.3939C142.112 69.9139 147.498 68.1739 154.488 68.1739C157.877 68.1739 161.051 68.5364 164.011 69.2614C166.972 69.9864 169.201 70.802 170.699 71.7083V84.7039H157.324V82.1482C157.324 80.6258 157.003 79.5383 156.361 78.8858C155.755 78.197 154.774 77.8526 153.418 77.8526C152.063 77.8526 151.064 78.197 150.422 78.8858C149.816 79.5383 149.513 80.6258 149.513 82.1482V98.0257C149.513 99.5482 149.816 100.654 150.422 101.343C151.064 101.995 152.063 102.321 153.418 102.321C154.774 102.321 155.755 101.995 156.361 101.343C157.003 100.654 157.324 99.5482 157.324 98.0257V97.6451H154.435V89.5432H173.374V97.6451Z" fill="#171A28"/>
<path d="M217.683 77.8526H215.008V102.321H217.683V111.239H197.461V102.321H200.029V93.3494H192.539V102.321H195.107V111.239H174.884V102.321H177.559V77.8526H174.884V68.9352H195.107V77.8526H192.539V86.1176H200.029V77.8526H197.461V68.9352H217.683V77.8526Z" fill="#171A28"/>
</svg>
