<svg width="56" height="56" viewBox="0 0 56 56" fill="none" xmlns="http://www.w3.org/2000/svg">
<rect x="1" y="1" width="54" height="54" rx="21" fill="#9656FF"/>
<rect x="1" y="1" width="54" height="54" rx="21" stroke="#E2DFFA" stroke-width="2"/>
<path opacity="0.2" d="M29.4052 29.7942C25.1493 22.6995 30.8239 15.6062 42.8839 16.3156C43.5999 28.3755 36.4999 34.0515 29.4052 29.7942ZM13.1013 21.6342C12.5947 30.2488 17.6626 34.3008 22.7293 31.2622C25.7693 26.1955 21.7159 21.1276 13.1013 21.6342Z" fill="#FDFBFF"/>
<path d="M43.9505 16.2516C43.9353 15.9906 43.8248 15.7443 43.6399 15.5595C43.4551 15.3747 43.2088 15.2641 42.9479 15.2489C36.0466 14.8489 30.5052 16.9476 28.1239 20.8782C26.5506 23.4755 26.5533 26.6329 28.1026 29.6435C27.2218 30.6915 26.5774 31.9171 26.2133 33.2368L24.0439 31.0662C25.0866 28.8888 25.0466 26.6182 23.9106 24.7342C22.1453 21.8302 18.0826 20.2662 13.0387 20.5689C12.7777 20.5841 12.5314 20.6947 12.3466 20.8795C12.1618 21.0643 12.0512 21.3106 12.036 21.5715C11.7387 26.6155 13.2973 30.6782 16.2026 32.4382C17.163 33.0245 18.2667 33.3341 19.392 33.3328C20.4825 33.3193 21.556 33.0609 22.5333 32.5768L25.8666 35.9102V39.7328C25.8666 40.0157 25.979 40.287 26.179 40.487C26.3791 40.6871 26.6504 40.7995 26.9333 40.7995C27.2162 40.7995 27.4875 40.6871 27.6875 40.487C27.8875 40.287 27.9999 40.0157 27.9999 39.7328V35.8008C27.9951 34.1039 28.5725 32.4566 29.6359 31.1342C31.0078 31.8512 32.5294 32.2349 34.0772 32.2542C35.5737 32.259 37.0424 31.8502 38.3212 31.0728C42.2519 28.6942 44.3559 23.1529 43.9505 16.2516ZM22.4079 29.4315L19.1533 26.1782C18.9516 25.9866 18.6831 25.8814 18.405 25.8849C18.1268 25.8885 17.8611 26.0006 17.6644 26.1973C17.4677 26.3939 17.3556 26.6597 17.352 26.9378C17.3485 27.216 17.4537 27.4845 17.6453 27.6862L20.9 30.9408C19.6186 31.3648 18.376 31.2595 17.308 30.6128C15.2626 29.3742 14.1053 26.4422 14.1333 22.6662C17.908 22.6329 20.8413 23.7955 22.0799 25.8409C22.7266 26.9089 22.8319 28.1515 22.4079 29.4315ZM37.2159 29.2502C35.4292 30.3315 33.3292 30.4142 31.1959 29.5168L38.3546 22.3569C38.5547 22.1569 38.6672 21.8856 38.6673 21.6027C38.6675 21.3198 38.5552 21.0484 38.3552 20.8482C38.1552 20.6481 37.884 20.5356 37.601 20.5354C37.3181 20.5353 37.0467 20.6476 36.8466 20.8475L29.6866 27.9995C28.7853 25.8662 28.8666 23.7649 29.9533 21.9795C31.8119 18.9129 36.2199 17.2062 41.8639 17.3356C41.9919 22.9782 40.2852 27.3915 37.2159 29.2502Z" fill="#FDFBFF"/>
</svg>
