<svg width="883" height="147" viewBox="0 0 883 147" fill="none" xmlns="http://www.w3.org/2000/svg">
<path d="M31.6044 91.4347L13.1745 109.851C12.6466 110.283 12.0946 110.499 11.5187 110.499C10.9428 110.499 10.3908 110.283 9.86289 109.851C9.43094 109.372 9.21496 108.82 9.21496 108.197C9.21496 107.573 9.43094 107.022 9.86289 106.542L28.2928 88.1255C28.7728 87.6939 29.3247 87.4781 29.9486 87.4781C30.5726 87.4781 31.1245 87.6939 31.6044 88.1255C32.0364 88.6051 32.2524 89.1566 32.2524 89.7801C32.2524 90.4036 32.0364 90.9551 31.6044 91.4347ZM43.7711 94.3842V117.405C43.7711 118.076 43.5551 118.628 43.1231 119.059C42.6912 119.491 42.1393 119.707 41.4673 119.707C40.7954 119.707 40.2435 119.491 39.8115 119.059C39.3796 118.628 39.1636 118.076 39.1636 117.405V94.3842C39.1636 93.7128 39.3796 93.1613 39.8115 92.7296C40.2435 92.298 40.7954 92.0822 41.4673 92.0822C42.1393 92.0822 42.6912 92.298 43.1231 92.7296C43.5551 93.1613 43.7711 93.7128 43.7711 94.3842ZM27.6449 78.2698C27.6449 78.9413 27.4289 79.4928 26.997 79.9244C26.565 80.3561 26.0131 80.5719 25.3411 80.5719H2.30374C1.63182 80.5719 1.07988 80.3561 0.647927 79.9244C0.215976 79.4928 0 78.9413 0 78.2698C0 77.5984 0.215976 77.0469 0.647927 76.6152C1.07988 76.1836 1.63182 75.9678 2.30374 75.9678H25.3411C26.0131 75.9678 26.565 76.1836 26.997 76.6152C27.4289 77.0469 27.6449 77.5984 27.6449 78.2698ZM118.643 87.4781C118.643 93.2332 116.603 98.1011 112.523 102.082L101.941 112.585C97.957 116.565 93.0855 118.556 87.3262 118.556C81.5188 118.556 76.6234 116.518 72.6398 112.441L48.5945 88.3413C47.5866 87.3342 46.5788 85.9913 45.5709 84.3127L62.7769 83.0178L82.4307 102.729C83.7266 104.024 85.3584 104.684 87.3262 104.707C89.294 104.731 90.9258 104.096 92.2216 102.801L102.804 92.298C104.148 90.9551 104.82 89.3485 104.82 87.4781C104.82 85.5597 104.148 83.9291 102.804 82.5862L83.0787 62.8029L84.3745 45.6095C86.0543 46.6166 87.3982 47.6237 88.4061 48.6309L112.595 72.8025C116.627 76.927 118.643 81.8188 118.643 87.4781ZM74.2236 35.3941L57.0176 36.689L37.3638 16.9777C36.0199 15.6348 34.3881 14.9634 32.4683 14.9634C30.5966 14.9634 28.9647 15.6108 27.5729 16.9057L16.9901 27.4088C15.6462 28.7517 14.9743 30.3583 14.9743 32.2288C14.9743 34.1471 15.6462 35.7778 16.9901 37.1206L36.7159 56.832L35.42 74.0974C33.7402 73.0902 32.3964 72.0831 31.3885 71.0759L7.19919 46.9044C3.16764 42.7798 1.15187 37.888 1.15187 32.2288C1.15187 26.4736 3.19164 21.6057 7.27118 17.6251L17.854 7.12198C21.8375 3.14135 26.709 1.15103 32.4683 1.15103C38.2757 1.15103 43.1711 3.1893 47.1547 7.26586L71.2 31.3655C72.2079 32.3726 73.2158 33.7155 74.2236 35.3941ZM119.795 41.437C119.795 42.1084 119.579 42.6599 119.147 43.0916C118.715 43.5232 118.163 43.739 117.491 43.739H94.4534C93.7814 43.739 93.2295 43.5232 92.7976 43.0916C92.3656 42.6599 92.1496 42.1084 92.1496 41.437C92.1496 40.7655 92.3656 40.214 92.7976 39.7824C93.2295 39.3507 93.7814 39.1349 94.4534 39.1349H117.491C118.163 39.1349 118.715 39.3507 119.147 39.7824C119.579 40.214 119.795 40.7655 119.795 41.437ZM80.6309 2.30205V25.3226C80.6309 25.994 80.4149 26.5456 79.983 26.9772C79.551 27.4088 78.9991 27.6247 78.3272 27.6247C77.6553 27.6247 77.1033 27.4088 76.6714 26.9772C76.2394 26.5456 76.0234 25.994 76.0234 25.3226V2.30205C76.0234 1.63062 76.2394 1.07909 76.6714 0.647453C77.1033 0.215818 77.6553 0 78.3272 0C78.9991 0 79.551 0.215818 79.983 0.647453C80.4149 1.07909 80.6309 1.63062 80.6309 2.30205ZM109.932 13.1649L91.5017 31.5813C90.9738 32.0129 90.4218 32.2288 89.8459 32.2288C89.27 32.2288 88.718 32.0129 88.1901 31.5813C87.7581 31.1017 87.5421 30.5502 87.5421 29.9267C87.5421 29.3032 87.7581 28.7517 88.1901 28.2721L106.62 9.85567C107.1 9.42404 107.652 9.20822 108.276 9.20822C108.9 9.20822 109.452 9.42404 109.932 9.85567C110.364 10.3353 110.58 10.8868 110.58 11.5103C110.58 12.1337 110.364 12.6853 109.932 13.1649Z" fill="#FF1787"/>
<path d="M182.361 15.6645V74.7655C182.361 81.241 184.05 86.2117 187.427 89.6775C190.804 93.0521 195.55 94.7394 201.666 94.7394C207.872 94.7394 212.664 93.0521 216.041 89.6775C219.418 86.2117 221.106 81.241 221.106 74.7655V15.6645H240.41V74.6287C240.41 82.7459 238.631 89.6319 235.071 95.2866C231.603 100.85 226.902 105.046 220.97 107.873C215.128 110.7 208.602 112.114 201.392 112.114C194.272 112.114 187.792 110.7 181.951 107.873C176.201 105.046 171.637 100.85 168.26 95.2866C164.883 89.6319 163.194 82.7459 163.194 74.6287V15.6645H182.361Z" fill="#2F2442"/>
<path d="M300.96 34.2703C309.996 34.2703 317.298 37.1433 322.865 42.8892C328.433 48.544 331.217 56.4788 331.217 66.6938V111.156H312.05V69.2932C312.05 63.2736 310.544 58.6677 307.532 55.4756C304.52 52.1922 300.413 50.5505 295.21 50.5505C289.916 50.5505 285.718 52.1922 282.615 55.4756C279.603 58.6677 278.097 63.2736 278.097 69.2932V111.156H258.929V35.3648H278.097V44.8046C280.652 41.5212 283.892 38.9674 287.817 37.1433C291.833 35.228 296.214 34.2703 300.96 34.2703Z" fill="#2F2442"/>
<path d="M403.659 62.1791C409.044 63.1824 413.471 65.873 416.939 70.2508C420.408 74.6287 422.142 79.6449 422.142 85.2997C422.142 90.4072 420.864 94.9218 418.309 98.8436C415.844 102.674 412.239 105.684 407.493 107.873C402.747 110.062 397.133 111.156 390.653 111.156H349.444V15.6645H388.873C395.354 15.6645 400.921 16.7134 405.576 18.8111C410.322 20.9088 413.882 23.8274 416.255 27.5668C418.719 31.3062 419.951 35.5472 419.951 40.2899C419.951 45.8534 418.445 50.5049 415.434 54.2443C412.513 57.9837 408.588 60.6287 403.659 62.1791ZM368.611 55.0651H386.135C390.699 55.0651 394.213 54.0619 396.677 52.0554C399.141 49.9576 400.374 46.9935 400.374 43.1629C400.374 39.3322 399.141 36.3681 396.677 34.2703C394.213 32.1726 390.699 31.1238 386.135 31.1238H368.611V55.0651ZM387.915 95.5602C392.57 95.5602 396.175 94.4658 398.731 92.2769C401.378 90.0879 402.701 86.987 402.701 82.9739C402.701 78.8697 401.332 75.6775 398.594 73.3974C395.856 71.026 392.159 69.8404 387.504 69.8404H368.611V95.5602H387.915Z" fill="#2F2442"/>
<path d="M456.585 9.91856V111.156H437.418V9.91856H456.585Z" fill="#2F2442"/>
<path d="M509.202 112.388C501.9 112.388 495.328 110.792 489.487 107.599C483.645 104.316 479.036 99.7101 475.659 93.7818C472.373 87.8534 470.73 81.013 470.73 73.2606C470.73 65.5081 472.419 58.6677 475.796 52.7394C479.264 46.8111 483.965 42.2508 489.898 39.0586C495.83 35.7752 502.447 34.1335 509.749 34.1335C517.051 34.1335 523.668 35.7752 529.601 39.0586C535.534 42.2508 540.188 46.8111 543.565 52.7394C547.034 58.6677 548.768 65.5081 548.768 73.2606C548.768 81.013 546.988 87.8534 543.429 93.7818C539.96 99.7101 535.214 104.316 529.19 107.599C523.257 110.792 516.595 112.388 509.202 112.388ZM509.202 95.6971C512.67 95.6971 515.91 94.8762 518.922 93.2345C522.025 91.5016 524.49 88.9479 526.315 85.5733C528.141 82.1987 529.053 78.0945 529.053 73.2606C529.053 66.0554 527.137 60.5374 523.303 56.7068C519.561 52.785 514.952 50.8241 509.475 50.8241C503.999 50.8241 499.39 52.785 495.648 56.7068C491.997 60.5374 490.171 66.0554 490.171 73.2606C490.171 80.4658 491.951 86.0293 495.511 89.9511C499.162 93.7818 503.725 95.6971 509.202 95.6971Z" fill="#2F2442"/>
<path d="M557.899 73.2606C557.899 65.4169 559.496 58.5765 562.691 52.7394C565.885 46.8111 570.312 42.2508 575.971 39.0586C581.63 35.7752 588.11 34.1335 595.412 34.1335C604.813 34.1335 612.571 36.5049 618.686 41.2475C624.893 45.899 629.046 52.4658 631.145 60.9479H610.472C609.377 57.6645 607.505 55.1107 604.859 53.2866C602.303 51.3713 599.108 50.4137 595.275 50.4137C589.799 50.4137 585.463 52.4202 582.269 56.4332C579.074 60.355 577.477 65.9642 577.477 73.2606C577.477 80.4658 579.074 86.0749 582.269 90.0879C585.463 94.0098 589.799 95.9707 595.275 95.9707C603.033 95.9707 608.099 92.5049 610.472 85.5733H631.145C629.046 93.7817 624.893 100.303 618.686 105.137C612.48 109.971 604.722 112.388 595.412 112.388C588.11 112.388 581.63 110.792 575.971 107.599C570.312 104.316 565.885 99.7557 562.691 93.9186C559.496 87.9902 557.899 81.1042 557.899 73.2606Z" fill="#2F2442"/>
<path d="M690.092 111.156L664.354 78.8697V111.156H645.187V9.91856H664.354V67.5146L689.819 35.3648H714.736L681.33 73.3974L715.01 111.156H690.092Z" fill="#2F2442"/>
<path d="M734.859 26.3355C731.482 26.3355 728.653 25.2866 726.371 23.1889C724.18 21 723.085 18.3094 723.085 15.1173C723.085 11.9251 724.18 9.28012 726.371 7.1824C728.653 4.99348 731.482 3.89902 734.859 3.89902C738.236 3.89902 741.02 4.99348 743.211 7.1824C745.492 9.28012 746.633 11.9251 746.633 15.1173C746.633 18.3094 745.492 21 743.211 23.1889C741.02 25.2866 738.236 26.3355 734.859 26.3355ZM744.306 35.3648V111.156H725.139V35.3648H744.306Z" fill="#2F2442"/>
<path d="M798.018 51.0977H784.737V111.156H765.297V51.0977H756.671V35.3648H765.297V31.5342C765.297 22.2313 767.943 15.3909 773.237 11.013C778.531 6.63517 786.517 4.58306 797.196 4.85668V21C792.541 20.9088 789.301 21.684 787.476 23.3257C785.65 24.9674 784.737 27.9316 784.737 32.2182V35.3648H798.018V51.0977Z" fill="#2F2442"/>
<path d="M883 35.3648L836.041 147H815.641L832.07 109.241L801.677 35.3648H823.171L842.749 88.3094L862.601 35.3648H883Z" fill="#2F2442"/>
</svg>
