<svg width="964" height="156" viewBox="0 0 964 156" fill="none" xmlns="http://www.w3.org/2000/svg">
<path d="M45.4696 39H58.4609V156H45.4696V39Z" fill="#9868FF"/>
<path d="M90.9392 130V143H12.9913V130H90.9392Z" fill="#9868FF"/>
<path d="M71.4522 65V78H32.4783V65H71.4522Z" fill="#9868FF"/>
<path d="M64.9566 39V52H38.9739V39H64.9566Z" fill="#9868FF"/>
<path d="M38.9739 39H25.9826L25.9826 13L38.9739 13L38.9739 39Z" fill="#9868FF"/>
<path d="M12.9913 130H0L2.27147e-06 104H12.9913L12.9913 130Z" fill="#9868FF"/>
<path d="M64.9566 1.1365e-06V13L38.9739 13L38.9739 0L64.9566 1.1365e-06Z" fill="#9868FF"/>
<path d="M25.9826 91V104H2.27147e-06L1.41594e-06 91H25.9826Z" fill="#9868FF"/>
<path d="M103.93 91V104H77.9479V91H103.93Z" fill="#9868FF"/>
<path d="M77.9479 39H64.9566V13L77.9479 13L77.9479 39Z" fill="#9868FF"/>
<path d="M103.93 130H90.9392V104H103.93V130Z" fill="#9868FF"/>
<path d="M171.539 134.909C162.448 134.909 155.686 132.524 151.251 127.754C146.928 122.984 144.766 116.494 144.766 108.285V71.6769H133.625V54.3713H144.766V37.3985L167.215 30.7425V54.3713H187.17L185.84 71.6769H167.215V106.787C167.215 111.114 168.213 114.109 170.208 115.773C172.204 117.326 175.308 118.102 179.521 118.102C182.625 118.102 185.84 117.548 189.165 116.438V131.914C186.726 132.912 184.066 133.633 181.183 134.077C178.301 134.632 175.086 134.909 171.539 134.909Z" fill="white"/>
<path d="M225.463 134.909C220.474 134.909 215.818 134.021 211.495 132.246C207.282 130.361 203.846 127.643 201.185 124.093C198.635 120.432 197.36 115.884 197.36 110.448C197.36 102.683 200.076 96.4705 205.508 91.8113C211.051 87.1521 219.2 84.8225 229.953 84.8225H253.233V82.6593C253.233 77.7782 251.848 74.3393 249.076 72.3425C246.415 70.3457 240.983 69.3473 232.78 69.3473C223.8 69.3473 215.153 70.7339 206.839 73.5073V57.6993C210.497 56.2571 214.931 55.0923 220.142 54.2049C225.463 53.2065 231.228 52.7073 237.436 52.7073C249.298 52.7073 258.444 55.1478 264.874 60.0289C271.414 64.799 274.685 72.5089 274.685 83.1585V133.245H255.229L254.065 126.09C250.961 128.863 247.136 131.026 242.591 132.579C238.046 134.132 232.336 134.909 225.463 134.909ZM231.616 120.099C236.604 120.099 240.928 119.267 244.586 117.603C248.245 115.939 251.127 113.832 253.233 111.28V98.8001H230.452C221.694 98.8001 217.315 102.405 217.315 109.616C217.315 116.605 222.082 120.099 231.616 120.099Z" fill="white"/>
<path d="M320.532 134.909C314.657 134.909 309.058 134.465 303.737 133.578C298.416 132.801 294.148 131.803 290.933 130.582V111.946C294.813 113.499 299.192 114.719 304.07 115.606C308.947 116.383 313.437 116.771 317.539 116.771C323.082 116.771 326.962 116.438 329.179 115.773C331.507 115.107 332.671 113.61 332.671 111.28C332.671 108.618 330.898 106.676 327.35 105.456C323.913 104.236 318.758 102.516 311.885 100.298C304.679 97.8571 299.136 94.9174 295.256 91.4785C291.376 88.0395 289.436 82.9366 289.436 76.1697C289.436 68.6262 292.152 62.8577 297.584 58.8641C303.127 54.7595 311.996 52.7073 324.191 52.7073C329.068 52.7073 333.669 53.0955 337.992 53.8721C342.316 54.5377 345.974 55.3697 348.968 56.3681V74.8385C345.974 73.3963 342.538 72.3425 338.658 71.6769C334.778 70.9003 331.175 70.5121 327.849 70.5121C323.082 70.5121 319.257 70.8449 316.375 71.5105C313.603 72.1761 312.218 73.6182 312.218 75.8369C312.218 78.2774 313.714 79.9969 316.708 80.9953C319.812 81.9937 324.579 83.4913 331.008 85.4881C337.327 87.3739 342.261 89.4262 345.808 91.6449C349.356 93.8635 351.85 96.5259 353.291 99.6321C354.732 102.627 355.453 106.399 355.453 110.947C355.453 126.922 343.813 134.909 320.532 134.909Z" fill="white"/>
<path d="M371.035 133.245V21.0913H393.484V82.8257L422.917 54.3713H448.525L416.764 86.6529L450.354 133.245H426.575L402.629 98.4673L393.484 107.286V133.245H371.035Z" fill="white"/>
<path d="M468.171 133.245V21.0913H490.62V61.0273C493.835 58.5867 497.77 56.5899 502.427 55.0369C507.083 53.4838 512.127 52.7073 517.559 52.7073C527.98 52.7073 535.573 55.1478 540.34 60.0289C545.107 64.9099 547.491 72.4534 547.491 82.6593V133.245H525.042V83.8241C525.042 78.4993 523.933 74.7275 521.716 72.5089C519.61 70.2902 515.619 69.1809 509.743 69.1809C506.307 69.1809 502.815 69.9574 499.267 71.5105C495.83 73.0635 492.948 75.0049 490.62 77.3345V133.245H468.171Z" fill="#9868FF"/>
<path d="M588.109 134.909C583.121 134.909 578.465 134.021 574.141 132.246C569.929 130.361 566.492 127.643 563.831 124.093C561.281 120.432 560.007 115.884 560.007 110.448C560.007 102.683 562.723 96.4705 568.155 91.8113C573.698 87.1521 581.846 84.8225 592.599 84.8225H615.88V82.6593C615.88 77.7782 614.494 74.3393 611.722 72.3425C609.062 70.3457 603.63 69.3473 595.426 69.3473C586.447 69.3473 577.799 70.7339 569.485 73.5073V57.6993C573.143 56.2571 577.578 55.0923 582.788 54.2049C588.109 53.2065 593.874 52.7073 600.082 52.7073C611.944 52.7073 621.09 55.1478 627.52 60.0289C634.061 64.799 637.331 72.5089 637.331 83.1585V133.245H617.875L616.711 126.09C613.607 128.863 609.782 131.026 605.237 132.579C600.692 134.132 594.983 134.909 588.109 134.909ZM594.262 120.099C599.251 120.099 603.574 119.267 607.233 117.603C610.891 115.939 613.773 113.832 615.88 111.28V98.8001H593.098C584.34 98.8001 579.961 102.405 579.961 109.616C579.961 116.605 584.728 120.099 594.262 120.099Z" fill="#9868FF"/>
<path d="M655.408 133.245V54.3713H676.194L677.192 62.5249C680.74 60.3062 685.119 58.3094 690.329 56.5345C695.65 54.6486 700.861 53.3729 705.96 52.7073V69.6801C702.967 70.1238 699.697 70.7894 696.149 71.6769C692.602 72.5643 689.22 73.5627 686.005 74.6721C682.791 75.7814 680.074 76.9462 677.857 78.1665V133.245H655.408Z" fill="#9868FF"/>
<path d="M763.836 134.909C758.293 134.909 753.471 134.188 749.369 132.746C745.267 131.193 741.498 128.918 738.062 125.923L736.898 133.245H717.442V21.0913H739.891V58.6977C743.106 56.7009 746.709 55.2033 750.7 54.2049C754.69 53.2065 758.848 52.7073 763.171 52.7073C774.479 52.7073 783.403 55.9243 789.944 62.3585C796.595 68.6817 799.921 78.943 799.921 93.1425C799.921 107.342 796.651 117.881 790.11 124.758C783.68 131.525 774.922 134.909 763.836 134.909ZM757.517 118.435C764.723 118.435 769.767 116.328 772.65 112.112C775.643 107.897 777.139 101.573 777.139 93.1425C777.139 84.3787 775.532 78.2219 772.317 74.6721C769.213 71.0113 764.224 69.1809 757.351 69.1809C753.914 69.1809 750.644 69.6801 747.54 70.6785C744.547 71.6769 741.997 73.119 739.891 75.0049V111.28C742.108 113.61 744.713 115.385 747.706 116.605C750.81 117.825 754.081 118.435 757.517 118.435Z" fill="#9868FF"/>
<path d="M854.937 134.909C840.192 134.909 829.384 131.359 822.51 124.259C815.637 117.049 812.2 106.898 812.2 93.8081C812.2 80.7179 815.637 70.623 822.51 63.5233C829.494 56.3126 840.303 52.7073 854.937 52.7073C869.681 52.7073 880.49 56.3126 887.363 63.5233C894.347 70.623 897.839 80.7179 897.839 93.8081C897.839 106.898 894.403 117.049 887.529 124.259C880.656 131.359 869.792 134.909 854.937 134.909ZM854.937 115.773C862.142 115.773 867.297 114.164 870.401 110.947C873.506 107.619 875.058 101.906 875.058 93.8081C875.058 85.7099 873.506 80.0523 870.401 76.8353C867.297 73.5073 862.142 71.8433 854.937 71.8433C847.842 71.8433 842.742 73.5073 839.638 76.8353C836.534 80.0523 834.982 85.7099 834.982 93.8081C834.982 101.906 836.534 107.619 839.638 110.947C842.742 114.164 847.842 115.773 854.937 115.773Z" fill="#9868FF"/>
<path d="M913.448 133.245V54.3713H934.234L935.232 62.5249C938.78 60.3062 943.159 58.3094 948.369 56.5345C953.69 54.6486 958.901 53.3729 964 52.7073V69.6801C961.007 70.1238 957.736 70.7894 954.189 71.6769C950.641 72.5643 947.26 73.5627 944.045 74.6721C940.83 75.7814 938.114 76.9462 935.897 78.1665V133.245H913.448Z" fill="#9868FF"/>
</svg>
